<?xml version="1.0" encoding="UTF-8" standalone="no"?>
<!-- Created with Inkscape (http://www.inkscape.org/) -->

<svg
   width="154"
   height="264"
   viewBox="0 0 40.74582 69.850031"
   version="1.1"
   id="svg5"
   xml:space="preserve"
   inkscape:version="1.2.2 (b0a8486541, 2022-12-01)"
   sodipodi:docname="escudo.svg"
   inkscape:export-filename="escudo.png"
   inkscape:export-xdpi="96"
   inkscape:export-ydpi="96"
   xmlns:inkscape="http://www.inkscape.org/namespaces/inkscape"
   xmlns:sodipodi="http://sodipodi.sourceforge.net/DTD/sodipodi-0.dtd"
   xmlns="http://www.w3.org/2000/svg"
   xmlns:svg="http://www.w3.org/2000/svg"><sodipodi:namedview
     id="namedview7"
     pagecolor="#ffffff"
     bordercolor="#000000"
     borderopacity="0.25"
     inkscape:showpageshadow="2"
     inkscape:pageopacity="0.0"
     inkscape:pagecheckerboard="0"
     inkscape:deskcolor="#d1d1d1"
     inkscape:document-units="mm"
     showgrid="false"
     inkscape:zoom="0.52158053"
     inkscape:cx="138.04196"
     inkscape:cy="692.12706"
     inkscape:window-width="1920"
     inkscape:window-height="1008"
     inkscape:window-x="0"
     inkscape:window-y="96"
     inkscape:window-maximized="1"
     inkscape:current-layer="layer1" /><defs
     id="defs2" /><g
     inkscape:label="Capa 1"
     inkscape:groupmode="layer"
     id="layer1"><path
       style="fill:#fbb900;fill-opacity:1;stroke-width:0.249905"
       d="m 32.722641,24.118117 c -0.671404,-0.31413 -1.458607,-0.639425 -1.74934,-0.722874 -0.486142,-0.139534 -0.466294,-0.17912 0.247037,-0.492721 1.719389,-0.755885 2.554111,-3.192997 1.67457,-4.889176 -0.43517,-0.83923 -1.849327,-2.004227 -2.432862,-2.004227 -0.193959,0 -0.252316,0.553558 -0.184632,1.751396 0.08576,1.517872 0.0082,1.936845 -0.581471,3.142163 -0.374239,0.764915 -0.824138,1.445908 -0.999774,1.51331 -0.175638,0.06734 -1.200303,-0.05941 -2.277036,-0.281837 -1.953184,-0.403445 -2.573786,-0.627109 -1.740021,-0.627109 0.642172,0 1.842466,-0.928572 2.270674,-1.756628 0.516726,-0.999242 0.467255,-2.715767 -0.103204,-3.581037 -0.757042,-1.148269 -1.74096,-1.656207 -3.211817,-1.658049 l -1.312006,-0.0019 v 3.498684 3.498674 h -1.492381 -1.492383 l -0.06953,-3.436203 -0.06953,-3.436203 -1.174013,-0.07566 c -1.33591,-0.08605 -2.492372,0.40183 -3.080682,1.299705 -1.335615,2.038409 -0.634698,4.614669 1.505732,5.534401 l 0.749717,0.322149 -0.624764,0.135964 c -2.226962,0.484637 -3.525451,0.668403 -3.74856,0.530512 -0.911921,-0.563598 -1.798569,-3.737289 -1.500099,-5.369496 0.212379,-1.161407 0.02142,-1.242476 -1.188697,-0.50466 -2.3619181,1.440081 -2.3845551,4.798937 -0.04195,6.223564 l 0.772535,0.469808 -1.4252151,0.652487 c -0.783868,0.358863 -1.579606,0.652479 -1.768307,0.652479 -0.4959416,0 -1.8004712,-1.903805 -2.124095,-3.099858 -0.3456944,-1.277631 -0.1565853,-3.564347 0.3806883,-4.603325 1.183687,-2.289001 3.0897917,-3.546608 5.6382278,-3.719995 1.132386,-0.07707 2.092455,-0.337233 3.137233,-0.850224 1.670383,-0.82016 3.640128,-1.000441 5.223053,-0.478025 0.68662,0.226602 1.100531,0.226602 1.787151,0 1.839375,-0.607055 5.336407,-0.03363 5.96133,0.977537 0.09457,0.153023 0.820028,0.278229 1.612119,0.278229 2.821114,0 5.090003,1.320683 6.27725,3.653897 0.885601,1.740402 0.867621,4.222691 -0.04323,5.967475 -0.358769,0.687237 -0.861263,1.431353 -1.116651,1.653581 -0.430208,0.374353 -0.554096,0.362065 -1.685082,-0.167086 z"
       id="path380" /><path
       style="fill:#fbb900;fill-opacity:1;stroke-width:0.249905"
       d="m 9.4566209,28.262459 -0.864453,-1.716581 1.8477341,-0.769212 c 4.096219,-1.705256 9.46218,-2.390301 14.007057,-1.788185 2.232485,0.295759 7.19203,1.772232 8.04288,2.394382 0.418789,0.306224 0.402828,0.409933 -0.284388,1.847756 -0.400444,0.837823 -0.77426,1.523312 -0.830704,1.523312 -0.05644,0 -1.244683,-0.389182 -2.640536,-0.864845 -3.343772,-1.139457 -5.662205,-1.475878 -9.035461,-1.311096 -2.95169,0.144182 -5.862562,0.791767 -8.040155,1.788705 l -1.337519,0.612336 z"
       id="path378" /><path
       style="fill:#004b93;fill-opacity:1;stroke-width:0.249905"
       d="M 17.690007,64.226612 C 14.634973,63.884458 11.073344,62.889929 8.4461569,61.645422 L 6.0788882,60.524034 V 30.753561 H 35.567763 v 29.731578 l -1.436958,0.724763 c -4.823108,2.432625 -11.203197,3.603299 -16.440798,3.01671 z"
       id="path302"
       sodipodi:nodetypes="ssccccss" /><path
       style="fill:#ffffff;stroke-width:0.249905"
       d="m 29.162274,36.747133 c -1.328645,-1.300999 -1.956297,-1.745153 -2.466165,-1.745153 -0.509866,0 -1.137518,0.444154 -2.466163,1.745143 l -1.782233,1.745153 h 4.248396 4.248398 l -1.782233,-1.745153 z"
       id="path318" /><path
       style="fill:#ffffff;stroke-width:0.249905"
       d="m 17.38869,36.743355 c -2.386814,-2.296038 -2.651305,-2.295613 -4.937206,0.0076 l -1.735936,1.749337 4.241696,-0.0076 4.241695,-0.0076 -1.810249,-1.741403 z"
       id="path316" /><path
       style="fill:#ffffff;stroke-width:0.249905"
       d="m 29.195167,43.74824 c -1.394183,-1.404944 -1.886171,-1.749337 -2.499058,-1.749337 -0.612886,0 -1.104873,0.344393 -2.499057,1.749337 l -1.735935,1.749337 h 4.234992 4.234993 z"
       id="path314" /><path
       style="fill:#ffffff;stroke-width:0.249905"
       d="m 17.416706,43.744462 c -2.36762,-2.318348 -2.66072,-2.318102 -4.965222,0.0038 l -1.735936,1.749337 4.241696,-0.0038 4.241695,-0.0038 -1.782233,-1.745143 z"
       id="path312" /><path
       style="fill:#ffffff;stroke-width:0.249905"
       d="m 29.212088,50.746013 c -1.405785,-1.363111 -1.96693,-1.749337 -2.541601,-1.749337 -0.581163,0 -1.105485,0.37083 -2.473435,1.749337 l -1.735935,1.749346 h 4.277537 4.277536 z"
       id="path310" /><path
       style="fill:#ffffff;stroke-width:0.249905"
       d="m 17.449599,50.746013 c -1.394183,-1.404944 -1.886171,-1.749337 -2.499057,-1.749337 -0.612887,0 -1.104875,0.344393 -2.499058,1.749337 l -1.735936,1.749346 h 4.234994 4.234992 z"
       id="path308" /><path
       style="fill:#ffffff;stroke-width:0.249905"
       d="m 23.182135,57.712134 c -1.342354,-1.301603 -2.015252,-1.780572 -2.501506,-1.780572 -0.49147,0 -1.130198,0.465009 -2.445767,1.780572 l -1.780578,1.780582 h 4.282084 4.282085 z"
       id="path306" /><path
       id="rect1510"
       style="fill:#fbb900;fill-opacity:1;stroke:none;stroke-width:0.75562;stroke-linecap:round;stroke-linejoin:round;stop-color:#000000"
       d="M 20.021593,5.2281534 V 7.1585748 H 18.09068 v 1.4633157 h 1.930913 V 10.552312 H 21.48442 V 8.6218905 h 1.930424 V 7.1585748 H 21.48442 V 5.2281534 Z" /></g></svg>
