<?xml version="1.0" encoding="UTF-8" standalone="no"?>
<!-- Created with Inkscape (http://www.inkscape.org/) -->

<svg
   width="90"
   height="155"
   viewBox="0 0 23.812499 41.010416"
   version="1.1"
   id="svg908"
   xml:space="preserve"
   inkscape:version="1.2.2 (b0a8486541, 2022-12-01)"
   sodipodi:docname="logo-gobcan-bw.svg"
   inkscape:export-filename="img/logo-gobcan-bw.png"
   inkscape:export-xdpi="96"
   inkscape:export-ydpi="96"
   xmlns:inkscape="http://www.inkscape.org/namespaces/inkscape"
   xmlns:sodipodi="http://sodipodi.sourceforge.net/DTD/sodipodi-0.dtd"
   xmlns="http://www.w3.org/2000/svg"
   xmlns:svg="http://www.w3.org/2000/svg"><sodipodi:namedview
     id="namedview910"
     pagecolor="#ffffff"
     bordercolor="#000000"
     borderopacity="0.25"
     inkscape:showpageshadow="2"
     inkscape:pageopacity="0.0"
     inkscape:pagecheckerboard="0"
     inkscape:deskcolor="#d1d1d1"
     inkscape:document-units="mm"
     showgrid="false"
     inkscape:zoom="2.950505"
     inkscape:cx="52.194454"
     inkscape:cy="84.731257"
     inkscape:window-width="1920"
     inkscape:window-height="1008"
     inkscape:window-x="0"
     inkscape:window-y="96"
     inkscape:window-maximized="1"
     inkscape:current-layer="layer1" /><defs
     id="defs905" /><g
     inkscape:label="Capa 1"
     inkscape:groupmode="layer"
     id="layer1"><path
       style="fill:#f2f2f2;stroke-width:0.0988069"
       d="m 14.108603,38.752186 c 2.13719,-0.234802 4.18904,-0.829019 6.048037,-1.751505 l 1.136282,-0.563856 0.02521,-9.313073 0.02521,-9.313077 -9.214264,0.02521 -9.2142642,0.02521 -0.025207,9.255963 -0.025208,9.255962 0.7168593,0.391399 c 1.7182611,0.938163 4.3252437,1.740153 6.4649549,1.988833 1.015495,0.11802 2.983156,0.117504 4.062395,-0.0011 z m -3.63935,-4.052578 c 0.622594,-0.596894 1.233963,-1.110857 1.3586,-1.142141 0.454298,-0.114019 0.776181,0.08661 1.856245,1.157005 l 1.087558,1.077826 -2.717197,-0.0037 -2.7171936,-0.0037 z M 6.0325475,31.090127 c 0.1872784,-0.196319 0.7291793,-0.707646 1.2042262,-1.136281 0.772439,-0.696974 0.9051237,-0.779337 1.2554739,-0.779337 0.3658967,0 0.4686722,0.07475 1.5570524,1.13242 l 1.165302,1.132428 -2.7612785,0.0038 -2.7612785,0.0038 z m 7.9014285,-0.493689 c 1.124896,-1.142287 1.515171,-1.421929 1.984467,-1.421929 0.345917,0 0.469565,0.09084 1.541386,1.13242 l 1.165302,1.132428 -2.764419,0.0038 -2.764415,0.0038 0.837679,-0.850627 z M 5.7472773,27.025455 c 0.091217,-0.205242 2.1492599,-2.101489 2.373203,-2.186635 0.1426034,-0.05422 0.3751059,-0.0676 0.5166673,-0.02973 0.2622548,0.07014 2.4292424,2.031465 2.4292424,2.198693 0,0.05425 -1.0943108,0.09179 -2.6760254,0.09179 -1.4718138,0 -2.661203,-0.03335 -2.6430873,-0.07411 z m 7.4105297,-0.0059 c 0.08412,-0.204258 2.153565,-2.097257 2.39174,-2.18781 0.199995,-0.07604 0.350227,-0.06709 0.58543,0.03484 0.329628,0.142869 2.341942,1.983578 2.341942,2.142232 0,0.05284 -1.117143,0.09071 -2.676025,0.09071 -1.471814,0 -2.661203,-0.036 -2.643087,-0.07998 z M 6.8176873,21.564848 c 1.6321034,-1.551036 1.6763005,-1.549131 3.3574857,0.144657 l 0.936717,0.943734 -2.7152441,-0.0043 -2.7152403,-0.0043 z m 7.4105297,-0.003 c 1.627973,-1.550596 1.673858,-1.548576 3.357489,0.147671 l 0.936713,0.943734 -2.71524,-0.0046 -2.715244,-0.0046 1.136282,-1.082275 z M 6.4384027,16.865802 c 1.7853237,-0.765015 3.6509453,-1.129447 5.7769513,-1.128473 2.058539,0.0011 4.104332,0.416711 5.805015,1.179755 0.369922,0.165973 0.690266,0.301769 0.711877,0.301769 0.07058,0 1.042656,-1.995588 0.995195,-2.043049 -0.155364,-0.155364 -2.029496,-0.875581 -2.915731,-1.120493 -2.180827,-0.60268 -4.250973,-0.798738 -6.315775,-0.598148 -1.8491264,0.179638 -4.1273738,0.790334 -5.5719228,1.493577 l -0.4609718,0.224418 0.5082016,1.021847 c 0.2795079,0.562018 0.5385847,1.021848 0.5757237,1.021848 0.037158,0 0.4382851,-0.158871 0.891437,-0.353051 z M 21.042879,13.197713 C 22.566441,11.070082 21.78669,8.1466591 19.393238,7.0129351 18.793865,6.7290243 18.619597,6.6936124 17.725247,6.6739936 16.763173,6.6528902 16.707646,6.6393604 16.210846,6.305041 15.927208,6.1141663 15.46817,5.8905928 15.190761,5.8082115 14.491368,5.6005135 13.318406,5.6208143 12.64797,5.8522203 12.110789,6.0376319 12.099082,6.0374867 11.511688,5.838149 11.026674,5.6735554 10.755621,5.6458208 10.028917,5.6864291 9.0942057,5.7386609 8.6317177,5.8852757 7.9445061,6.3472106 7.5823662,6.5906371 7.4297621,6.6241324 6.4930226,6.6657935 5.5704927,6.7068227 5.3709653,6.7493983 4.8123076,7.0244252 3.1488574,7.8433393 2.1371976,9.7247685 2.4515142,11.414913 c 0.1454378,0.782054 0.5973386,1.704061 1.0501133,2.142532 0.2961486,0.286792 0.3876909,0.325619 0.5824009,0.247018 0.1270643,-0.05129 0.5907734,-0.245181 1.0304668,-0.430861 L 5.9139417,13.036003 5.4059943,12.731357 C 5.0723931,12.531276 4.7950844,12.259762 4.598074,11.940322 4.3403155,11.522378 4.299147,11.362482 4.3055031,10.804041 4.3169304,9.7989233 4.8190782,9.0274496 5.7029346,8.6570682 6.2260101,8.4378719 6.3242633,8.4735926 6.2179475,8.8443018 6.0827458,9.3157211 6.1079869,10.384052 6.2666819,10.906911 c 0.1576233,0.51933 0.4542125,1.109534 0.7374922,1.467585 l 0.1932124,0.244208 0.8229212,-0.167184 c 0.4526067,-0.09195 1.064715,-0.197564 1.3602399,-0.234699 L 9.9178626,12.149304 9.4299505,11.92994 C 8.5264961,11.52375 8.003372,10.745756 8.003372,9.808324 c 0,-1.2406673 1.0067789,-2.2827418 2.21592,-2.2936072 1.014318,-0.00912 0.945903,-0.1754869 0.945903,2.3002657 v 2.1670965 h 0.938671 0.938666 V 9.8163254 7.6505724 l 0.442684,-0.094416 c 1.674284,-0.3570894 3.178729,1.2441616 2.686777,2.8596596 -0.207803,0.6824 -0.600999,1.131856 -1.271853,1.453834 l -0.589049,0.282716 0.58031,0.06565 c 0.319171,0.03611 0.923941,0.147523 1.343932,0.247585 l 0.763618,0.181932 0.280815,-0.357431 c 0.675299,-0.859547 0.968717,-1.944084 0.807348,-2.9841283 -0.129667,-0.8357356 -0.132949,-0.7821467 0.04792,-0.7821467 0.256728,0 0.8685,0.3603551 1.201444,0.7076928 0.574809,0.5996622 0.760761,1.4091382 0.521544,2.2703702 -0.122452,0.440844 -0.708259,1.095159 -1.212345,1.354123 l -0.374683,0.192485 0.671105,0.261283 c 0.369108,0.143706 0.826573,0.344089 1.016593,0.445295 0.436922,0.232708 0.565913,0.166396 1.08419,-0.557368 z M 12.548495,4.4233388 V 3.8799001 h 0.592843 0.592842 V 3.3858646 2.8918296 H 13.141338 12.548495 V 2.293306 1.6947825 l -0.41993,0.030383 -0.41993,0.030383 -0.02961,0.5681405 -0.02965,0.5681409 h -0.593324 -0.593324 l 0.0301,0.4693336 0.0301,0.4693333 0.568139,0.029633 0.568143,0.029633 V 4.4282709 4.966779 h 0.44463 0.444634 z"
       id="path1053"
       sodipodi:nodetypes="cscccccccsscccssccccsssscccscsscccccsscssssssssssscsccccssccccsscsssssscssscsssssssssssssscsscsssscsscsssscccccssscsscsssssscssscccccccccccccccccccccccccc" /></g></svg>
