<?xml version="1.0" encoding="UTF-8" standalone="no"?>
<!-- Created with Inkscape (http://www.inkscape.org/) -->

<svg
   width="512"
   height="264"
   viewBox="0 0 135.46666 69.850031"
   version="1.1"
   id="svg5"
   xml:space="preserve"
   inkscape:version="1.2.2 (b0a8486541, 2022-12-01)"
   sodipodi:docname="logo.svg"
   inkscape:export-filename="logo.png"
   inkscape:export-xdpi="96"
   inkscape:export-ydpi="96"
   xmlns:inkscape="http://www.inkscape.org/namespaces/inkscape"
   xmlns:sodipodi="http://sodipodi.sourceforge.net/DTD/sodipodi-0.dtd"
   xmlns="http://www.w3.org/2000/svg"
   xmlns:svg="http://www.w3.org/2000/svg"><sodipodi:namedview
     id="namedview7"
     pagecolor="#ffffff"
     bordercolor="#000000"
     borderopacity="0.25"
     inkscape:showpageshadow="2"
     inkscape:pageopacity="0.0"
     inkscape:pagecheckerboard="0"
     inkscape:deskcolor="#d1d1d1"
     inkscape:document-units="mm"
     showgrid="false"
     inkscape:zoom="0.52158053"
     inkscape:cx="138.04196"
     inkscape:cy="692.12706"
     inkscape:window-width="1920"
     inkscape:window-height="1008"
     inkscape:window-x="0"
     inkscape:window-y="96"
     inkscape:window-maximized="1"
     inkscape:current-layer="layer1" /><defs
     id="defs2" /><g
     inkscape:label="Capa 1"
     inkscape:groupmode="layer"
     id="layer1"><path
       style="fill:#fbb900;fill-opacity:1;stroke-width:0.249905"
       d="m 32.722641,24.118117 c -0.671404,-0.31413 -1.458607,-0.639425 -1.74934,-0.722874 -0.486142,-0.139534 -0.466294,-0.17912 0.247037,-0.492721 1.719389,-0.755885 2.554111,-3.192997 1.67457,-4.889176 -0.43517,-0.83923 -1.849327,-2.004227 -2.432862,-2.004227 -0.193959,0 -0.252316,0.553558 -0.184632,1.751396 0.08576,1.517872 0.0082,1.936845 -0.581471,3.142163 -0.374239,0.764915 -0.824138,1.445908 -0.999774,1.51331 -0.175638,0.06734 -1.200303,-0.05941 -2.277036,-0.281837 -1.953184,-0.403445 -2.573786,-0.627109 -1.740021,-0.627109 0.642172,0 1.842466,-0.928572 2.270674,-1.756628 0.516726,-0.999242 0.467255,-2.715767 -0.103204,-3.581037 -0.757042,-1.148269 -1.74096,-1.656207 -3.211817,-1.658049 l -1.312006,-0.0019 v 3.498684 3.498674 h -1.492381 -1.492383 l -0.06953,-3.436203 -0.06953,-3.436203 -1.174013,-0.07566 c -1.33591,-0.08605 -2.492372,0.40183 -3.080682,1.299705 -1.335615,2.038409 -0.634698,4.614669 1.505732,5.534401 l 0.749717,0.322149 -0.624764,0.135964 c -2.226962,0.484637 -3.525451,0.668403 -3.74856,0.530512 -0.911921,-0.563598 -1.798569,-3.737289 -1.500099,-5.369496 0.212379,-1.161407 0.02142,-1.242476 -1.188697,-0.50466 -2.3619181,1.440081 -2.3845551,4.798937 -0.04195,6.223564 l 0.772535,0.469808 -1.4252151,0.652487 c -0.783868,0.358863 -1.579606,0.652479 -1.768307,0.652479 -0.4959416,0 -1.8004712,-1.903805 -2.124095,-3.099858 -0.3456944,-1.277631 -0.1565853,-3.564347 0.3806883,-4.603325 1.183687,-2.289001 3.0897917,-3.546608 5.6382278,-3.719995 1.132386,-0.07707 2.092455,-0.337233 3.137233,-0.850224 1.670383,-0.82016 3.640128,-1.000441 5.223053,-0.478025 0.68662,0.226602 1.100531,0.226602 1.787151,0 1.839375,-0.607055 5.336407,-0.03363 5.96133,0.977537 0.09457,0.153023 0.820028,0.278229 1.612119,0.278229 2.821114,0 5.090003,1.320683 6.27725,3.653897 0.885601,1.740402 0.867621,4.222691 -0.04323,5.967475 -0.358769,0.687237 -0.861263,1.431353 -1.116651,1.653581 -0.430208,0.374353 -0.554096,0.362065 -1.685082,-0.167086 z"
       id="path380" /><path
       style="fill:#fbb900;fill-opacity:1;stroke-width:0.249905"
       d="m 9.4566209,28.262459 -0.864453,-1.716581 1.8477341,-0.769212 c 4.096219,-1.705256 9.46218,-2.390301 14.007057,-1.788185 2.232485,0.295759 7.19203,1.772232 8.04288,2.394382 0.418789,0.306224 0.402828,0.409933 -0.284388,1.847756 -0.400444,0.837823 -0.77426,1.523312 -0.830704,1.523312 -0.05644,0 -1.244683,-0.389182 -2.640536,-0.864845 -3.343772,-1.139457 -5.662205,-1.475878 -9.035461,-1.311096 -2.95169,0.144182 -5.862562,0.791767 -8.040155,1.788705 l -1.337519,0.612336 z"
       id="path378" /><g
       id="g1656"
       transform="matrix(0.94452559,0,0,0.94452559,-5.498078,-136.03009)"><path
         style="fill:#000000;stroke-width:0.264583"
         d="m 85.423847,178.17744 c -1.075251,-1.18814 0.42033,-2.7835 1.932995,-2.06197 0.840761,0.40105 1.066263,1.51814 0.43407,2.15033 -0.586602,0.58661 -1.797124,0.54142 -2.367065,-0.0884 z"
         id="path376" /><path
         style="fill:#000000;stroke-width:0.264583"
         d="m 107.50691,188.61132 c 0,-0.22188 0.29765,-0.51659 0.66145,-0.65491 0.65486,-0.24898 0.66146,-0.28317 0.66146,-3.428 0,-3.16761 -0.002,-3.17697 -0.66146,-3.34252 -0.74593,-0.18721 -0.90455,-1.01708 -0.24294,-1.27096 0.23018,-0.0883 1.06362,-0.1606 1.85208,-0.1606 1.22232,0 1.43357,0.0727 1.43357,0.49318 0,0.46014 0.0842,0.4501 1.25677,-0.14994 0.95047,-0.48637 1.50141,-0.60536 2.26051,-0.4882 2.29647,0.35441 2.83272,1.3583 2.83272,5.30294 0,2.60654 0.0416,2.83994 0.52917,2.96744 0.29287,0.0766 0.52916,0.36089 0.52916,0.63668 0,0.45306 -0.22827,0.49831 -2.51354,0.49831 -2.28526,0 -2.51354,-0.0452 -2.51354,-0.49831 0,-0.27579 0.2363,-0.56009 0.52917,-0.63668 0.48476,-0.12677 0.52916,-0.3609 0.52916,-2.79009 0,-2.93762 -0.24521,-3.48325 -1.56539,-3.48325 -1.30615,0 -1.60961,0.66609 -1.60961,3.53311 0,2.49298 0.0187,2.5725 0.66146,2.81689 0.36381,0.13832 0.66146,0.43303 0.66146,0.65491 0,0.33461 -0.45128,0.40342 -2.64583,0.40342 -2.19455,0 -2.64583,-0.0688 -2.64583,-0.40342 z"
         id="path374" /><path
         style="fill:#000000;stroke-width:0.264583"
         d="m 99.569405,188.54832 c 0,-0.25654 0.26789,-0.58396 0.595315,-0.72761 0.54849,-0.24063 0.60141,-0.45886 0.67288,-2.77472 0.0954,-3.09161 -0.031,-3.64919 -0.87535,-3.86111 -0.831797,-0.20877 -0.872971,-1.04649 -0.06212,-1.26379 0.32742,-0.0877 1.15859,-0.16117 1.84705,-0.16315 1.12457,-0.003 1.26905,0.0654 1.4222,0.6756 l 0.17047,0.67921 0.69447,-0.64949 c 0.82538,-0.77192 1.68703,-1.07203 2.41478,-0.84106 0.41597,0.13203 0.49589,0.32046 0.37228,0.87773 -0.35877,1.61738 -0.37439,1.63565 -1.3984,1.63565 -1.73097,0 -1.91703,0.32218 -1.82943,3.16799 0.0744,2.41802 0.098,2.50288 0.73697,2.65312 0.36303,0.0854 0.69919,0.35835 0.747,0.60663 0.0775,0.40252 -0.21609,0.45142 -2.71059,0.45142 -2.495706,0 -2.797529,-0.0503 -2.797529,-0.46642 z"
         id="path372" /><path
         id="path368"
         style="fill:#000000;stroke-width:0.264583"
         d="m 124.07925,179.48465 c -1.73702,-9.2e-4 -3.49016,1.00711 -4.33669,2.85616 -1.09344,2.3884 -0.46969,5.00814 1.50999,6.34225 1.08521,0.73133 3.32132,0.80887 4.68395,0.16226 2.77731,-1.31792 3.5093,-5.47366 1.38958,-7.88789 -0.87752,-0.99944 -2.05835,-1.47215 -3.24683,-1.47278 z m -0.35347,1.63659 c 0.44681,-0.006 0.91931,0.25668 1.30845,0.78032 0.68785,0.92553 0.74927,4.12539 0.0982,5.11907 -0.61357,0.93636 -1.84035,0.91969 -2.46496,-0.0336 -0.64987,-0.99187 -0.64304,-4.22291 0.0108,-5.22087 0.27927,-0.42623 0.65324,-0.63995 1.04748,-0.64493 z" /><path
         id="path364"
         style="fill:#000000;stroke-width:0.264583"
         d="m 94.947693,179.50481 c -0.687341,-0.001 -1.412921,0.16921 -2.123385,0.51314 -3.490541,1.68974 -3.683708,7.04527 -0.314192,8.71317 1.324349,0.65554 3.481404,0.72335 4.847766,0.15244 0.848386,-0.35447 0.927636,-0.47109 0.763777,-1.12396 -0.24304,-0.96835 -0.227522,-0.96128 -1.330151,-0.59738 -1.288265,0.42517 -2.632259,0.1373 -3.295923,-0.70642 -0.76972,-0.97854 -0.684904,-1.1447 0.583944,-1.1467 2.432846,-0.003 4.009381,-0.92862 4.302063,-2.52491 0.18437,-1.00557 -0.310606,-1.93355 -1.435055,-2.69131 -0.579261,-0.39034 -1.267159,-0.58667 -1.998844,-0.58807 z m -0.273368,1.56838 c 0.480547,-0.0111 0.918608,0.27888 1.090372,0.96324 0.140457,0.55961 0.04868,0.82405 -0.418062,1.202 -0.329102,0.26649 -1.001801,0.48472 -1.494999,0.48472 -0.713139,0 -0.896586,-0.10583 -0.896586,-0.51676 0,-1.25978 0.918361,-2.11476 1.719275,-2.1332 z" /><path
         style="fill:#000000;stroke-width:0.264583"
         d="m 85.931339,188.62989 c -0.620395,-0.62039 -0.649433,-0.79762 -0.649433,-3.9637 v -3.31428 l -0.661459,-0.16602 c -0.835445,-0.20968 -0.879228,-1.0469 -0.06615,-1.2648 0.327421,-0.0877 1.22039,-0.16117 1.984374,-0.16315 l 1.389063,-0.004 v 3.67177 c 0,3.82753 0.18452,4.4829 1.157089,4.10969 0.338547,-0.12991 0.430411,0.004 0.430411,0.62859 0,0.90581 -0.353724,1.11495 -1.885749,1.11495 -0.76068,0 -1.227095,-0.17838 -1.698151,-0.64944 z"
         id="path362" /><path
         id="path358"
         style="fill:#000000;stroke-width:0.264583"
         d="m 77.344633,175.79392 -1.653646,0.15038 c -0.909505,0.0828 -1.802474,0.19628 -1.984375,0.25218 -0.56703,0.17427 -0.362723,0.91312 0.325045,1.17461 l 0.656291,0.24959 0.07131,5.6193 0.07183,5.61878 0.661459,0.18396 c 1.023804,0.28458 3.465056,0.26314 4.555794,-0.0398 1.26126,-0.35029 2.560362,-1.44589 3.020487,-2.54713 0.497119,-1.18976 0.455833,-3.6439 -0.08062,-4.77438 -0.856151,-1.80421 -3.062389,-2.45044 -4.783687,-1.40095 l -0.859896,0.52451 v -2.50579 z m 1.599902,6.07715 c 1.873684,0 2.429838,4.2128 0.714685,5.41414 -1.538825,1.07784 -2.314587,0.23862 -2.314587,-2.50372 0,-2.33894 0.31383,-2.91042 1.599902,-2.91042 z" /><path
         id="path354"
         style="fill:#000000;stroke-width:0.264583"
         d="m 68.514681,179.52496 c -0.613677,-0.006 -1.252974,0.10577 -1.893424,0.35037 -3.516275,1.34287 -4.053887,6.9259 -0.854729,8.87646 1.134519,0.69169 3.437701,0.71014 4.703072,0.0377 1.715586,-0.91166 2.809286,-3.26288 2.478919,-5.32887 -0.381483,-2.38567 -2.242136,-3.91423 -4.433838,-3.93568 z m -0.353984,1.59628 c 0.447141,-0.009 0.918991,0.25228 1.309481,0.77773 0.674048,0.90703 0.728705,4.1619 0.0863,5.14233 -0.598728,0.91375 -1.833145,0.88864 -2.447913,-0.0496 -0.655044,-0.99973 -0.655054,-4.21392 0,-5.21416 0.282491,-0.43135 0.657597,-0.64873 1.052132,-0.65629 z" /><path
         style="fill:#000000;stroke-width:0.264583"
         d="m 54.455679,188.78589 c -4.631144,-2.10388 -4.291274,-9.50585 0.531437,-11.574 1.262504,-0.54141 4.992052,-0.61774 5.91992,-0.12116 0.488113,0.26123 0.574278,0.46579 0.434583,1.0317 -0.252592,1.02327 -0.466688,1.14468 -1.427763,0.80965 -1.408258,-0.49092 -3.36913,-0.1686 -4.279326,0.70342 -1.229479,1.17792 -1.627534,3.32617 -1.021045,5.51044 0.4171,1.5022 1.308661,2.28131 2.610564,2.28131 h 1.070359 v -1.44764 c 0,-1.41114 -0.02167,-1.45326 -0.859896,-1.67047 -0.597387,-0.15479 -0.859896,-0.37923 -0.859896,-0.73517 0,-0.477 0.209643,-0.51234 3.039083,-0.51234 2.700184,0 3.04917,0.0524 3.129518,0.46958 0.06283,0.32624 -0.158162,0.55624 -0.723979,0.75349 l -0.814414,0.2839 v 2.07835 2.07835 l -0.992187,0.27554 c -1.596218,0.44329 -4.550852,0.33297 -5.756958,-0.21495 z"
         id="path352" /><path
         style="fill:#000000;stroke-width:0.264583"
         d="m 124.49911,194.95288 c -1.13666,-0.79615 -0.42435,-2.49854 1.04543,-2.49854 1.56088,0 2.02999,2.10804 0.59087,2.65519 -0.87814,0.33387 -0.94514,0.32745 -1.6363,-0.15665 z"
         id="path350" /><path
         style="fill:#000000;stroke-width:0.264583"
         d="m 115.17982,205.15529 c 0,-0.3007 0.20836,-0.6236 0.46302,-0.71756 0.76239,-0.28129 0.85161,-0.62499 0.85585,-3.29665 0.005,-2.91399 -0.11248,-3.39508 -0.82631,-3.39508 -0.56085,0 -0.96305,-0.70578 -0.59384,-1.04205 0.12847,-0.11699 0.96886,-0.28484 1.86754,-0.37297 l 1.63396,-0.16025 0.17782,0.80961 c 0.16892,0.76909 0.19586,0.78384 0.53831,0.29493 0.45499,-0.64958 1.72923,-1.18726 2.53926,-1.07146 0.48355,0.0691 0.60619,0.23444 0.55587,0.7493 -0.16391,1.67717 -0.27741,1.82538 -1.36476,1.78202 -1.65888,-0.0662 -1.87797,0.29681 -1.87797,3.11124 v 2.44807 l 0.81366,0.16273 c 0.5913,0.11826 0.78929,0.28998 0.7245,0.62839 -0.077,0.40228 -0.45782,0.47591 -2.79803,0.54105 -2.58582,0.072 -2.70888,0.0506 -2.70888,-0.47132 z"
         id="path348" /><path
         style="fill:#000000;stroke-width:0.264583"
         d="m 93.924962,205.50711 c -0.380672,-0.38067 -0.143955,-0.88 0.492966,-1.03986 l 0.669356,-0.16799 -0.07404,-3.21049 c -0.07155,-3.10215 -0.09413,-3.21333 -0.669356,-3.29502 -0.419573,-0.0596 -0.595312,-0.26354 -0.595312,-0.69086 0,-0.55101 0.150019,-0.61991 1.644935,-0.75547 1.855896,-0.16828 2.059231,-0.10624 2.059231,0.62837 0,0.50854 0.019,0.50743 0.766212,-0.045 1.0375,-0.76706 2.877956,-0.95371 3.947966,-0.40039 1.33278,0.68921 1.63582,1.59246 1.63582,4.87578 0,2.67018 0.0407,2.90334 0.52917,3.03108 0.3166,0.0828 0.52916,0.36089 0.52916,0.69232 0,0.52332 -0.13892,0.55393 -2.51354,0.55393 -2.374616,0 -2.513538,-0.0306 -2.513538,-0.55393 0,-0.33143 0.212568,-0.60953 0.529168,-0.69232 0.48579,-0.12704 0.52916,-0.3609 0.52916,-2.85325 0,-2.94778 -0.18541,-3.37498 -1.464783,-3.37498 -1.379559,0 -1.710211,0.68018 -1.710211,3.51806 0,2.52722 0.01257,2.57929 0.661458,2.74215 0.427077,0.10719 0.661458,0.35174 0.661458,0.69015 0,0.485 -0.184306,0.52412 -2.469443,0.52412 -1.358196,0 -2.548821,-0.0794 -2.645833,-0.17639 z"
         id="path346" /><path
         style="fill:#000000;stroke-width:0.264583"
         d="m 140.71211,205.83307 c -0.14552,-0.0568 -0.59809,-0.17702 -1.00572,-0.26715 -0.70972,-0.15693 -0.73776,-0.2223 -0.66146,-1.54202 0.062,-1.07158 0.18414,-1.39801 0.54926,-1.46744 0.3234,-0.0615 0.55533,0.15668 0.74501,0.70082 0.42245,1.21183 2.4033,1.41502 2.76248,0.28336 0.23182,-0.73041 -0.009,-0.97056 -1.83975,-1.83561 -2.27122,-1.0731 -2.89915,-2.55816 -1.71708,-4.06092 0.78937,-1.00353 1.87607,-1.48615 3.33693,-1.482 2.25113,0.006 2.46054,0.14384 2.46054,1.61475 0,1.19195 -0.0498,1.29206 -0.64306,1.29206 -0.46543,0 -0.66641,-0.16444 -0.7276,-0.59531 -0.10529,-0.74134 -1.52836,-0.98207 -2.05491,-0.34761 -0.5352,0.64487 -0.15481,1.11821 1.28222,1.59552 4.01542,1.3337 3.33589,5.70864 -0.94726,6.09871 -0.70126,0.0639 -1.39408,0.0696 -1.5396,0.0128 z"
         id="path344" /><path
         id="path340"
         style="fill:#000000;stroke-width:0.264583"
         d="m 132.88388,196.17149 c -0.75734,0.005 -1.54281,0.0941 -2.17713,0.27027 -0.96026,0.26665 -1.00055,0.32128 -0.82889,1.12293 0.22915,1.07014 0.18322,1.03793 1.02526,0.71778 1.65729,-0.6301 3.32693,-0.16427 3.32693,0.92811 0,0.53469 -0.13106,0.65271 -0.7276,0.65371 -1.29351,0.003 -2.7845,0.5593 -3.55121,1.32601 -0.58066,0.58065 -0.74827,0.99399 -0.74827,1.84434 0,1.41284 0.3692,2.07537 1.40973,2.52801 v -5.2e-4 c 1.14628,0.49862 1.74657,0.47304 2.91868,-0.12454 0.99459,-0.50702 1.00443,-0.50658 1.54048,0.0295 0.44164,0.44163 0.73776,0.50758 1.63452,0.36431 0.60243,-0.0962 1.19622,-0.27604 1.31982,-0.39945 0.35203,-0.35154 -0.0542,-1.26436 -0.62994,-1.41491 -0.4772,-0.1248 -0.52038,-0.37456 -0.52038,-3.01221 0,-3.15553 -0.20742,-3.73563 -1.5906,-4.4509 -0.50025,-0.25869 -1.42768,-0.38936 -2.4014,-0.3824 z m 0.66714,5.27875 c 0.61465,0 0.67903,0.0993 0.67903,1.04903 0,0.76635 -0.13824,1.12282 -0.51211,1.32291 -1.08577,0.58109 -1.86914,0.12272 -1.86914,-1.09295 0,-0.81347 0.61972,-1.27899 1.70222,-1.27899 z" /><path
         style="fill:#000000;stroke-width:0.264583"
         d="m 125.31743,205.68167 c -0.95162,-0.38343 -1.14178,-1.13042 -1.14178,-4.48524 0,-3.16875 -0.006,-3.20131 -0.66145,-3.45043 -0.62799,-0.23876 -0.89059,-0.88908 -0.46303,-1.14663 0.10915,-0.0657 0.97235,-0.16207 1.91823,-0.21405 l 1.7198,-0.0945 0.13229,3.83646 0.13229,3.83646 0.7276,0.0837 c 0.60174,0.0692 0.72761,0.21265 0.72761,0.82904 0,0.54926 -0.1566,0.78728 -0.59532,0.90485 -0.81535,0.21851 -1.80458,0.17901 -2.49624,-0.0997 z"
         id="path338" /><path
         id="path334"
         style="fill:#000000;stroke-width:0.264583"
         d="m 109.3773,196.29086 c -2.67244,0 -3.2538,0.27652 -2.94349,1.39992 0.14185,0.51354 0.34072,0.69076 0.70177,0.62476 2.08416,-0.38128 2.7148,-0.34289 3.25716,0.19947 0.92025,0.92025 0.70515,1.25788 -0.9064,1.42421 -2.36665,0.24426 -3.83129,1.47966 -3.83129,3.23081 0,1.04093 0.59516,2.0363 1.44849,2.42156 1.00434,0.4534 2.41356,0.27044 3.37137,-0.4377 0.58697,-0.43396 0.73639,-0.46408 0.73639,-0.14883 0,0.64718 1.00959,1.01045 2.27893,0.8201 1.01948,-0.15288 1.16065,-0.2552 1.16065,-0.84387 0,-0.4475 -0.17573,-0.71634 -0.52916,-0.80874 -0.47744,-0.12486 -0.52972,-0.36152 -0.53072,-2.42259 -0.002,-2.76056 -0.30515,-3.96734 -1.21078,-4.81728 -0.61643,-0.57851 -0.91277,-0.64182 -3.00292,-0.64182 z m 0.83406,5.15938 c 0.62706,0 0.73536,0.10777 0.73536,0.73483 0,0.40418 -0.18534,0.9995 -0.41186,1.32292 -0.73497,1.04932 -2.23398,0.61926 -2.23398,-0.64079 0,-0.73024 0.92588,-1.41696 1.91048,-1.41696 z" /><path
         id="path330"
         style="fill:#000000;stroke-width:0.264583"
         d="m 88.251461,196.17149 c -0.784063,-7.1e-4 -1.6063,0.0888 -2.271179,0.27337 -0.962037,0.26713 -1.011331,0.33114 -0.856796,1.10381 0.210248,1.05124 0.217337,1.0561 1.065052,0.7338 1.657292,-0.6301 3.326928,-0.16427 3.326928,0.92811 0,0.53469 -0.131051,0.65271 -0.727604,0.65371 -1.293507,0.003 -2.784495,0.5593 -3.551204,1.32601 -0.59237,0.59237 -0.748275,0.98881 -0.748275,1.90066 0,1.26003 0.53416,2.23842 1.416968,2.59468 0.912078,0.36807 1.843468,0.2964 2.855639,-0.21963 0.919415,-0.46877 0.962354,-0.46811 1.570447,0.0243 0.487471,0.39471 0.859865,0.46908 1.690336,0.33641 0.585819,-0.0936 1.150845,-0.25547 1.255221,-0.35966 0.35304,-0.35246 -0.105737,-1.37098 -0.617534,-1.37098 -0.456537,0 -0.49816,-0.23431 -0.49816,-2.79156 0,-3.14229 -0.316345,-4.09136 -1.579232,-4.74441 -0.493417,-0.25516 -1.384325,-0.38776 -2.330607,-0.38861 z m 0.470255,5.27875 c 0.74848,0 0.79375,0.0598 0.79375,1.04903 0,0.76635 -0.138245,1.12282 -0.512113,1.32291 -0.281474,0.15064 -0.689468,0.27389 -0.906922,0.27389 -0.501934,0 -1.226798,-0.71493 -1.226798,-1.20975 0,-0.64643 1.01853,-1.43608 1.852083,-1.43608 z" /><path
         style="fill:#000000;stroke-width:0.264583"
         d="m 78.401028,205.70084 c -2.912401,-0.88591 -4.574024,-3.10289 -4.574024,-6.10278 0,-2.57052 1.14146,-4.46563 3.385111,-5.62013 1.236681,-0.63635 4.15427,-0.91381 5.22552,-0.49695 0.683125,0.26584 0.727604,0.38166 0.727604,1.89477 0,1.60088 -0.0048,1.61106 -0.725342,1.5279 -0.478425,-0.0552 -0.758319,-0.26386 -0.822221,-0.61289 -0.160367,-0.87594 -0.583497,-1.19062 -1.600962,-1.19062 -1.91176,0 -3.027765,1.51064 -3.029702,4.10104 -0.0013,1.92275 0.647984,3.42685 1.791425,4.14906 0.658011,0.41561 1.155068,0.49308 2.581397,0.40236 1.704951,-0.10844 1.772266,-0.0893 1.932876,0.55065 0.09152,0.36466 0.05531,0.77411 -0.08048,0.90989 -0.60805,0.60805 -3.463886,0.89754 -4.811207,0.4877 z"
         id="path328" /><path
         id="path324"
         style="fill:#000000;stroke-width:0.264583"
         d="m 66.329801,196.16994 c -1.40712,-0.003 -2.887327,0.55631 -3.752225,1.77095 -1.465857,2.0586 -1.26193,5.24099 0.434598,6.77633 0.296309,0.26815 0.99341,0.64944 1.548743,0.84749 1.239897,0.44224 2.823054,0.45698 4.052466,0.0377 0.782369,-0.2668 0.926042,-0.4389 0.926042,-1.1095 v -0.79375 l -1.852084,0.0718 c -1.936046,0.0753 -2.434656,-0.11772 -2.989481,-1.15961 -0.283734,-0.53282 -0.224268,-0.56663 1.286226,-0.72451 2.596277,-0.27136 3.952214,-1.28322 3.952214,-2.95021 0,-1.76749 -1.738866,-2.76258 -3.606499,-2.76675 z m -0.167948,1.54926 c 0.108294,-0.002 0.220374,0.005 0.334863,0.0217 0.820721,0.11951 1.094894,1.54232 0.407211,2.11305 -0.212574,0.17642 -0.867419,0.38526 -1.455209,0.46406 -0.965744,0.12953 -1.068668,0.088 -1.068668,-0.43357 0,-1.28181 0.734965,-2.14672 1.781803,-2.16524 z" /><path
         id="path320"
         style="fill:#000000;stroke-width:0.264583"
         d="m 58.89563,192.50298 c -0.359668,9.3e-4 -0.816469,0.0264 -1.283643,0.0765 -1.46615,0.15701 -1.698604,0.2548 -1.698604,0.71468 0,0.31037 0.220968,0.59068 0.529167,0.67128 0.42764,0.11183 0.529166,0.36086 0.529166,1.29811 v 1.15962 l -1.256771,0.004 c -1.757077,0.006 -3.212036,0.87415 -3.985803,2.37815 -0.501173,0.97414 -0.595418,1.51112 -0.520898,2.96674 0.103875,2.02924 0.626603,2.96598 2.077909,3.72329 v 5.1e-4 c 1.051371,0.54861 2.14949,0.43427 3.196704,-0.33331 l 0.701249,-0.51418 0.162264,0.64544 c 0.155985,0.62149 0.224111,0.64002 1.811776,0.48421 0.907347,-0.089 1.755143,-0.25766 1.883606,-0.37466 0.377844,-0.34413 -0.03889,-1.04231 -0.622184,-1.04231 -0.523899,0 -0.537435,-0.14609 -0.537435,-5.80481 0,-3.86899 -0.09546,-5.86445 -0.285771,-5.98207 -0.07853,-0.0487 -0.341064,-0.0722 -0.700732,-0.0713 z m -3.098519,5.50302 c 0.231543,0.005 0.483587,0.0608 0.756026,0.16537 0.339635,0.13032 0.418579,0.61872 0.418579,2.5926 0,1.53903 -0.116914,2.54881 -0.31781,2.74971 -0.442819,0.4428 -1.417929,0.39642 -1.90531,-0.0909 -0.683653,-0.68362 -1.01049,-2.36129 -0.690914,-3.54811 0.342337,-1.27132 0.912489,-1.88773 1.739429,-1.86862 z" /></g><path
       style="fill:#004b93;fill-opacity:1;stroke-width:0.249905"
       d="M 17.690007,64.226612 C 14.634973,63.884458 11.073344,62.889929 8.4461569,61.645422 L 6.0788882,60.524034 V 30.753561 H 35.567763 v 29.731578 l -1.436958,0.724763 c -4.823108,2.432625 -11.203197,3.603299 -16.440798,3.01671 z"
       id="path302"
       sodipodi:nodetypes="ssccccss" /><path
       style="fill:#ffffff;stroke-width:0.249905"
       d="m 29.162274,36.747133 c -1.328645,-1.300999 -1.956297,-1.745153 -2.466165,-1.745153 -0.509866,0 -1.137518,0.444154 -2.466163,1.745143 l -1.782233,1.745153 h 4.248396 4.248398 l -1.782233,-1.745153 z"
       id="path318" /><path
       style="fill:#ffffff;stroke-width:0.249905"
       d="m 17.38869,36.743355 c -2.386814,-2.296038 -2.651305,-2.295613 -4.937206,0.0076 l -1.735936,1.749337 4.241696,-0.0076 4.241695,-0.0076 -1.810249,-1.741403 z"
       id="path316" /><path
       style="fill:#ffffff;stroke-width:0.249905"
       d="m 29.195167,43.74824 c -1.394183,-1.404944 -1.886171,-1.749337 -2.499058,-1.749337 -0.612886,0 -1.104873,0.344393 -2.499057,1.749337 l -1.735935,1.749337 h 4.234992 4.234993 z"
       id="path314" /><path
       style="fill:#ffffff;stroke-width:0.249905"
       d="m 17.416706,43.744462 c -2.36762,-2.318348 -2.66072,-2.318102 -4.965222,0.0038 l -1.735936,1.749337 4.241696,-0.0038 4.241695,-0.0038 -1.782233,-1.745143 z"
       id="path312" /><path
       style="fill:#ffffff;stroke-width:0.249905"
       d="m 29.212088,50.746013 c -1.405785,-1.363111 -1.96693,-1.749337 -2.541601,-1.749337 -0.581163,0 -1.105485,0.37083 -2.473435,1.749337 l -1.735935,1.749346 h 4.277537 4.277536 z"
       id="path310" /><path
       style="fill:#ffffff;stroke-width:0.249905"
       d="m 17.449599,50.746013 c -1.394183,-1.404944 -1.886171,-1.749337 -2.499057,-1.749337 -0.612887,0 -1.104875,0.344393 -2.499058,1.749337 l -1.735936,1.749346 h 4.234994 4.234992 z"
       id="path308" /><path
       style="fill:#ffffff;stroke-width:0.249905"
       d="m 23.182135,57.712134 c -1.342354,-1.301603 -2.015252,-1.780572 -2.501506,-1.780572 -0.49147,0 -1.130198,0.465009 -2.445767,1.780572 l -1.780578,1.780582 h 4.282084 4.282085 z"
       id="path306" /><path
       id="rect1510"
       style="fill:#fbb900;fill-opacity:1;stroke:none;stroke-width:0.75562;stroke-linecap:round;stroke-linejoin:round;stop-color:#000000"
       d="M 20.021593,5.2281534 V 7.1585748 H 18.09068 v 1.4633157 h 1.930913 V 10.552312 H 21.48442 V 8.6218905 h 1.930424 V 7.1585748 H 21.48442 V 5.2281534 Z" /></g></svg>
