<?xml version="1.0" encoding="UTF-8" standalone="no"?>
<!-- Created with Inkscape (http://www.inkscape.org/) -->

<svg
   width="512"
   height="512"
   viewBox="0 0 135.46666 135.46667"
   version="1.1"
   id="svg5"
   inkscape:version="1.2.2 (b0a8486541, 2022-12-01)"
   sodipodi:docname="logo.issi.svg"
   inkscape:export-filename="logo.issi.png"
   inkscape:export-xdpi="99.578362"
   inkscape:export-ydpi="99.578362"
   xmlns:inkscape="http://www.inkscape.org/namespaces/inkscape"
   xmlns:sodipodi="http://sodipodi.sourceforge.net/DTD/sodipodi-0.dtd"
   xmlns="http://www.w3.org/2000/svg"
   xmlns:svg="http://www.w3.org/2000/svg">
  <sodipodi:namedview
     id="namedview7"
     pagecolor="#ffffff"
     bordercolor="#000000"
     borderopacity="0.25"
     inkscape:showpageshadow="2"
     inkscape:pageopacity="0.0"
     inkscape:pagecheckerboard="0"
     inkscape:deskcolor="#d1d1d1"
     inkscape:document-units="mm"
     showgrid="false"
     showguides="true"
     inkscape:zoom="1.149259"
     inkscape:cx="105.28523"
     inkscape:cy="348.05036"
     inkscape:window-width="1920"
     inkscape:window-height="1128"
     inkscape:window-x="0"
     inkscape:window-y="0"
     inkscape:window-maximized="1"
     inkscape:current-layer="layer1">
    <sodipodi:guide
       position="86.419979,-14.062524"
       orientation="0,-1"
       id="guide1482"
       inkscape:locked="false" />
    <sodipodi:guide
       position="113.61397,-17.284841"
       orientation="0,-1"
       id="guide3777"
       inkscape:locked="false" />
    <sodipodi:guide
       position="109.0111,-14.203941"
       orientation="0,-1"
       id="guide3781"
       inkscape:locked="false" />
    <sodipodi:guide
       position="23.279068,60.42015"
       orientation="1,0"
       id="guide4155"
       inkscape:locked="false" />
    <sodipodi:guide
       position="65.604649,62.04806"
       orientation="1,0"
       id="guide4157"
       inkscape:locked="false" />
    <sodipodi:guide
       position="-101.92732,113.46957"
       orientation="0,-1"
       id="guide7862"
       inkscape:locked="false" />
  </sodipodi:namedview>
  <defs
     id="defs2" />
  <g
     inkscape:label="Layer 1"
     inkscape:groupmode="layer"
     id="layer1">
    <rect
       style="fill:#ffffff;stroke:#000000;stroke-width:0.79375;stroke-linecap:round;stroke-linejoin:round;stop-color:#000000"
       id="rect11871"
       width="129.8049"
       height="129.74582"
       x="2.9245658"
       y="3.2605526"
       rx="4"
       ry="4" />
    <path
       d="m 9.5981692,102.66826 v -1.02549 H 11.690163 V 89.377827 H 9.5981692 v -1.025496 h 5.4145978 v 1.025496 h -2.091995 v 12.264943 h 2.091995 v 1.02549 z"
       style="font-weight:300;font-size:7.44772px;font-family:'IBM Plex Sans';-inkscape-font-specification:'IBM Plex Sans Light';text-align:center;text-anchor:middle;fill:#1a1a1a;stroke-width:1.53825;stroke-linecap:round;stroke-linejoin:round"
       id="path10364" />
    <path
       d="m 19.586472,90.034143 h -0.06141 V 102.66826 H 18.335516 V 88.352331 h 1.538232 l 7.527145,12.634119 h 0.06141 V 88.352331 h 1.189561 v 14.315929 h -1.538232 z"
       style="font-weight:300;font-size:7.44772px;font-family:'IBM Plex Sans';-inkscape-font-specification:'IBM Plex Sans Light';text-align:center;text-anchor:middle;fill:#1a1a1a;stroke-width:1.53825;stroke-linecap:round;stroke-linejoin:round"
       id="path10366" />
    <path
       d="M 35.973921,102.66826 31.174606,88.352331 h 1.333138 l 4.225055,13.064829 h 0.0821 l 4.266022,-13.064829 h 1.292149 l -4.840341,14.315929 z"
       style="font-weight:300;font-size:7.44772px;font-family:'IBM Plex Sans';-inkscape-font-specification:'IBM Plex Sans Light';text-align:center;text-anchor:middle;fill:#1a1a1a;stroke-width:1.53825;stroke-linecap:round;stroke-linejoin:round"
       id="path10368" />
    <path
       d="M 44.895742,102.66826 V 88.352331 H 53.2638 v 1.087025 h -7.137468 v 5.414624 h 6.7888 v 1.087025 h -6.7888 v 5.640235 H 53.2638 v 1.08702 z"
       style="font-weight:300;font-size:7.44772px;font-family:'IBM Plex Sans';-inkscape-font-specification:'IBM Plex Sans Light';text-align:center;text-anchor:middle;fill:#1a1a1a;stroke-width:1.53825;stroke-linecap:round;stroke-linejoin:round"
       id="path10370" />
    <path
       d="m 57.919539,90.034143 h -0.06141 V 102.66826 H 56.66856 V 88.352331 h 1.538232 l 7.527145,12.634119 h 0.06141 V 88.352331 h 1.18956 v 14.315929 h -1.53823 z"
       style="font-weight:300;font-size:7.44772px;font-family:'IBM Plex Sans';-inkscape-font-specification:'IBM Plex Sans Light';text-align:center;text-anchor:middle;fill:#1a1a1a;stroke-width:1.53825;stroke-linecap:round;stroke-linejoin:round"
       id="path10372" />
    <path
       d="m 75.455544,89.439356 v 13.228904 h -1.23059 V 89.439356 h -4.799353 v -1.087025 h 10.829275 v 1.087025 z"
       style="font-weight:300;font-size:7.44772px;font-family:'IBM Plex Sans';-inkscape-font-specification:'IBM Plex Sans Light';text-align:center;text-anchor:middle;fill:#1a1a1a;stroke-width:1.53825;stroke-linecap:round;stroke-linejoin:round"
       id="path10374" />
    <path
       d="m 90.489335,102.66826 -1.558764,-4.450652 h -6.091443 l -1.558757,4.450652 h -1.23059 l 5.065963,-14.315929 h 1.579258 l 5.086482,14.315929 z M 85.91563,89.521395 h -0.0821 l -2.686785,7.629694 h 5.455624 z"
       style="font-weight:300;font-size:7.44772px;font-family:'IBM Plex Sans';-inkscape-font-specification:'IBM Plex Sans Light';text-align:center;text-anchor:middle;fill:#1a1a1a;stroke-width:1.53825;stroke-linecap:round;stroke-linejoin:round"
       id="path10376" />
    <path
       d="M 95.575798,102.66826 H 94.345209 V 88.352331 h 5.619732 q 1.845869,0 2.830359,1.046008 1.00498,1.046004 1.00498,2.932919 0,1.661302 -0.8204,2.686799 -0.79988,1.025497 -2.33813,1.230598 l 3.52771,6.419605 h -1.37416 l -3.425168,-6.337568 h -3.794334 z m 4.389143,-7.383571 q 1.230569,0 1.866389,-0.676827 0.65633,-0.697341 0.65633,-1.763856 v -0.984479 q 0,-1.046005 -0.65633,-1.722833 -0.63582,-0.697338 -1.866389,-0.697338 h -4.389143 v 5.845333 z"
       style="font-weight:300;font-size:7.44772px;font-family:'IBM Plex Sans';-inkscape-font-specification:'IBM Plex Sans Light';text-align:center;text-anchor:middle;fill:#1a1a1a;stroke-width:1.53825;stroke-linecap:round;stroke-linejoin:round"
       id="path10378" />
    <path
       d="m 106.65116,102.66826 v -1.02549 h 2.09201 V 89.377827 h -2.09201 v -1.025496 h 5.41462 v 1.025496 h -2.09203 v 12.264943 h 2.09203 v 1.02549 z"
       style="font-weight:300;font-size:7.44772px;font-family:'IBM Plex Sans';-inkscape-font-specification:'IBM Plex Sans Light';text-align:center;text-anchor:middle;fill:#1a1a1a;stroke-width:1.53825;stroke-linecap:round;stroke-linejoin:round"
       id="path10380" />
    <path
       d="m 120.51586,102.91438 q -2.74834,0 -4.3071,-1.8664 -1.55875,-1.886914 -1.55875,-5.537682 0,-3.650771 1.55875,-5.517172 1.55876,-1.886915 4.3071,-1.886915 2.72782,0 4.28659,1.886915 1.55875,1.886912 1.55875,5.517172 0,3.630255 -1.55875,5.517172 -1.55877,1.88691 -4.28659,1.88691 z m 0,-1.10753 q 1.02548,0 1.8459,-0.34867 0.8409,-0.36918 1.43571,-1.06652 0.59476,-0.697337 0.92293,-1.702325 0.32815,-1.004987 0.32815,-2.276603 v -1.80487 q 0,-1.271618 -0.32815,-2.276604 -0.32817,-1.004987 -0.92293,-1.681815 -0.59481,-0.697334 -1.43571,-1.066515 -0.82042,-0.369179 -1.8459,-0.369179 -1.02549,0 -1.86643,0.369179 -0.84087,0.369181 -1.43568,1.066515 -0.59476,0.676828 -0.92292,1.681815 -0.32818,1.004986 -0.32818,2.276604 v 1.80487 q 0,1.271616 0.32818,2.276603 0.32816,1.004988 0.92292,1.702325 0.59481,0.69734 1.43568,1.06652 0.84094,0.34867 1.86643,0.34867 z"
       style="font-weight:300;font-size:7.44772px;font-family:'IBM Plex Sans';-inkscape-font-specification:'IBM Plex Sans Light';text-align:center;text-anchor:middle;fill:#1a1a1a;stroke-width:1.53825;stroke-linecap:round;stroke-linejoin:round"
       id="path10382" />
    <g
       id="g10555"
       transform="matrix(2.7609613,0,0,2.7609613,-306.3351,264.94786)">
      <path
         id="path10360"
         style="fill:#87aade;fill-opacity:1;stroke:none;stroke-width:0.653456;stroke-linecap:round;stroke-linejoin:round;stop-color:#000000"
         d="m 126.97196,-79.409133 c -0.22463,0.720339 0.20909,1.581347 1.03127,1.562971 1.3899,0.253357 2.83911,0.212513 4.17287,0.737396 0.93194,0.323263 1.82198,0.811119 2.52258,1.513652 -1.38804,-1.393606 -2.50254,-3.182761 -4.33643,-4.042698 -0.83221,-0.422718 -1.79598,-0.360126 -2.68823,-0.21906 -0.25837,0.07354 -0.58104,0.188162 -0.70206,0.447739 z m 8.31351,4.446777 c 1.46554,1.604786 2.84863,3.379119 4.77404,4.458896 0.87251,0.373336 1.86618,0.185887 2.74454,-0.06321 0.90682,-0.29167 0.60701,-1.615111 -0.23338,-1.781683 -1.15685,-0.425465 -2.42544,-0.310117 -3.61244,-0.618844 -1.60614,-0.352156 -3.11041,-1.205518 -4.14018,-2.501446 0.15581,0.168764 0.31162,0.337527 0.46742,0.506291 z" />
      <path
         id="path10362"
         style="font-weight:bold;font-size:25.4px;font-family:'IBM Plex Sans';-inkscape-font-specification:'IBM Plex Sans Bold';fill:#162d50;stroke:none;stroke-width:0.79375;stroke-linecap:round;stroke-linejoin:round"
         d="m 129.01684,-84.364925 v 0.001 c -1.04987,0 -1.98974,0.135247 -2.81947,0.406177 -0.81279,0.253999 -1.50734,0.61831 -2.08307,1.092439 -0.5588,0.47413 -0.99073,1.041306 -1.29553,1.701705 -0.3048,0.6604 -0.45682,1.388494 -0.45682,2.184363 0,1.490129 0.43193,2.684224 1.29553,3.581694 0.88053,0.897469 2.2602,1.464635 4.1398,1.701704 l 1.75286,0.22841 c 0.82973,0.11853 1.38013,0.347077 1.65106,0.685747 0.27093,0.321729 0.40618,0.728494 0.40618,1.219563 -0.0193,1.415729 -1.52756,2.387437 -2.98431,2.399337 l -9.07697,0.0031 v -12.070546 h 2.28565 c 0.49949,-1.178579 1.26753,-2.241116 2.55592,-3.078365 l -10.41849,0.0041 v 3.073714 h 2.28565 v 12.070581 h -2.28565 v 3.073197 h 7.86257 v -0.0021 l 6.72775,0.06305 c 1.10067,0 2.08248,-0.135764 2.94608,-0.406694 0.8636,-0.28787 1.58331,-0.685726 2.15904,-1.193726 0.46119,-0.395305 0.83503,-0.8521 1.12189,-1.370459 l 0.44391,0.481625 c 0.72812,0.812799 1.59986,1.430821 2.61586,1.85415 1.016,0.42333 2.19281,0.635104 3.53053,0.635104 v -5.17e-4 c 1.04987,0 1.98974,-0.135247 2.81947,-0.406177 0.8128,-0.254 1.50734,-0.61831 2.08307,-1.09244 0.5588,-0.474129 0.99073,-1.041305 1.29553,-1.701705 0.3048,-0.660399 0.45682,-1.388493 0.45682,-2.184362 0,-1.490129 -0.43193,-2.684225 -1.29553,-3.581694 -0.88053,-0.897469 -2.2602,-1.464635 -4.1398,-1.701705 l -1.75286,-0.22841 c -0.82973,-0.11853 -1.38013,-0.347076 -1.65106,-0.685746 -0.27093,-0.32173 -0.40618,-0.728494 -0.40618,-1.219564 0.0193,-1.415728 1.52705,-2.387437 2.9838,-2.399337 l 9.07748,-0.0031 v 12.070581 h -2.28565 c -0.49949,1.178579 -1.26804,2.240599 -2.55643,3.077848 l 10.419,-0.0036 v -3.073668 h -2.28565 v -12.070581 h 2.28565 v -3.073198 h -7.86257 v 0.0021 l -6.72775,-0.06356 c -1.10067,0 -2.08248,0.135764 -2.94608,0.406694 -0.8636,0.287869 -1.58331,0.685726 -2.15904,1.193725 -0.46107,0.395205 -0.83505,0.852265 -1.12189,1.370459 l -0.4439,-0.481624 c -0.72813,-0.812799 -1.59987,-1.430821 -2.61587,-1.85415 -1.01599,-0.42333 -2.19281,-0.635104 -3.53053,-0.635104 z m -0.22893,3.40341 c 0.9144,0 1.66818,0.160928 2.26085,0.482658 0.6096,0.3048 1.12593,0.702656 1.54926,1.193726 l 3.16466,3.688147 c 0.12649,0.176037 0.26753,0.340132 0.42272,0.492993 l 0.0987,0.115238 5.1e-4,-0.01912 c 0.88129,0.827012 2.22253,1.382743 4.0256,1.666565 l 1.75286,0.279569 c 0.74507,0.11853 1.28656,0.313014 1.62522,0.583944 0.32173,0.27093 0.48266,0.71125 0.48266,1.32085 0,0.541869 -0.21177,0.965407 -0.6351,1.270206 -0.42333,0.3048 -1.06652,0.457337 -1.93012,0.457337 -0.91439,0 -1.66817,-0.160929 -2.26084,-0.482658 -0.6096,-0.3048 -1.12593,-0.702656 -1.54926,-1.193726 l -3.1657,-3.68918 c -0.12681,-0.176316 -0.26812,-0.340978 -0.42374,-0.494027 l -0.0966,-0.112655 -5.2e-4,0.0186 c -0.88129,-0.826983 -2.22256,-1.38275 -4.02559,-1.666565 l -1.75287,-0.27957 c -0.74507,-0.118529 -1.28655,-0.313013 -1.62522,-0.583943 -0.32173,-0.27093 -0.48266,-0.71125 -0.48266,-1.32085 0,-0.541869 0.21178,-0.965407 0.6351,-1.270207 0.42333,-0.304799 1.06652,-0.457336 1.93012,-0.457336 z" />
      <rect
         style="fill:#162d50;stroke:none;stroke-width:0.79375;stroke-linecap:round;stroke-linejoin:round;stop-color:#000000"
         id="rect10428"
         width="42.335323"
         height="0.6317032"
         x="114.16249"
         y="-65.184006" />
      <rect
         style="fill:#162d50;stroke:none;stroke-width:0.79375;stroke-linecap:round;stroke-linejoin:round;stop-color:#000000"
         id="rect10436"
         width="42.335323"
         height="0.6317032"
         x="114.16249"
         y="-85.562599" />
    </g>
    <text
       xml:space="preserve"
       style="font-style:normal;font-variant:normal;font-weight:bold;font-stretch:normal;font-size:8.0585px;font-family:icomoon;-inkscape-font-specification:'icomoon Bold';text-align:center;text-anchor:middle;fill:#ffffff;stroke:none;stroke-width:0.90658;stroke-linecap:round;stroke-linejoin:round;stop-color:#000000"
       x="67.655388"
       y="111.8032"
       id="text11819"><tspan
         sodipodi:role="line"
         id="tspan11817"
         style="font-style:normal;font-variant:normal;font-weight:300;font-stretch:normal;font-size:8.0585px;font-family:'IBM Plex Sans';-inkscape-font-specification:'IBM Plex Sans Light';fill:#000000;stroke-width:0.90658"
         x="67.655396"
         y="111.8032">DE SISTEMAS DE INFORMACIÓN</tspan></text>
  </g>
</svg>
