<?xml version="1.0" encoding="UTF-8" standalone="no"?>
<svg
   width="16"
   height="16"
   fill="currentColor"
   class="bi bi-box"
   viewBox="0 0 16 16"
   version="1.1"
   id="svg94"
   sodipodi:docname="familia.svg"
   inkscape:version="1.2.2 (b0a8486541, 2022-12-01)"
   xmlns:inkscape="http://www.inkscape.org/namespaces/inkscape"
   xmlns:sodipodi="http://sodipodi.sourceforge.net/DTD/sodipodi-0.dtd"
   xmlns="http://www.w3.org/2000/svg"
   xmlns:svg="http://www.w3.org/2000/svg">
  <defs
     id="defs98" />
  <sodipodi:namedview
     id="namedview96"
     pagecolor="#ffffff"
     bordercolor="#000000"
     borderopacity="0.25"
     inkscape:showpageshadow="2"
     inkscape:pageopacity="0.0"
     inkscape:pagecheckerboard="0"
     inkscape:deskcolor="#d1d1d1"
     showgrid="false"
     inkscape:zoom="36.592776"
     inkscape:cx="8.8405427"
     inkscape:cy="10.30258"
     inkscape:window-width="1920"
     inkscape:window-height="1008"
     inkscape:window-x="0"
     inkscape:window-y="96"
     inkscape:window-maximized="1"
     inkscape:current-layer="svg94" />
  <g
     id="g1164"
     transform="matrix(0.79985094,0,0,0.82385344,5.2333659,-3.5578282)">
    <path
       d="m 8.1589372,15.028986 h 2.2999998 a 2,2 0 0 1 2,2 v 4 a 2,2 0 0 1 -2,2 H -1.5410628"
       id="path349"
       style="font-variation-settings:normal;opacity:1;fill:#ffffff;fill-opacity:1;stroke:#000000;stroke-width:1.4;stroke-linecap:butt;stroke-linejoin:miter;stroke-miterlimit:4;stroke-dasharray:none;stroke-dashoffset:0;stroke-opacity:1;stop-color:#000000;stop-opacity:1" />
    <path
       d="m -1.5410628,19.028986 h 0.01"
       id="path351" />
    <path
       d="m 2.4589372,10.028986 2.3,-2.3000005 a 2.4,2.4 0 0 1 3.404,0.004 l 1.8959998,1.896 a 2.4,2.4 0 0 1 0.026,3.4340005 l -8.7259998,8.766"
       id="path353"
       style="font-variation-settings:normal;opacity:1;fill:#ffffff;fill-opacity:1;stroke:#000000;stroke-width:1.4;stroke-linecap:butt;stroke-linejoin:miter;stroke-miterlimit:4;stroke-dasharray:none;stroke-dashoffset:0;stroke-opacity:1;stop-color:#000000;stop-opacity:1" />
    <path
       d="m 2.4589372,19.028986 a 4,4 0 0 1 -8,0 V 7.0289855 a 2,2 0 0 1 2,-2 h 4 a 2,2 0 0 1 2,2 z"
       id="path347"
       style="fill:#ffffff;fill-opacity:1;stroke:#000000;stroke-width:1.4;stroke-dasharray:none" />
    <circle
       style="fill:#1a1a1a;fill-rule:evenodd"
       id="path1157"
       cx="-1.5805879"
       cy="19.12558"
       r="0.85352033" />
  </g>
</svg>
