<?xml version="1.0" encoding="UTF-8" standalone="no"?>
<!-- Created with Inkscape (http://www.inkscape.org/) -->

<svg
   width="300"
   height="100"
   viewBox="0 0 79.374998 26.458333"
   version="1.1"
   id="svg5"
   inkscape:version="1.2.2 (b0a8486541, 2022-12-01)"
   sodipodi:docname="organigrama-down.svg"
   inkscape:export-filename="organigrama-down.png"
   inkscape:export-xdpi="96"
   inkscape:export-ydpi="96"
   xmlns:inkscape="http://www.inkscape.org/namespaces/inkscape"
   xmlns:sodipodi="http://sodipodi.sourceforge.net/DTD/sodipodi-0.dtd"
   xmlns="http://www.w3.org/2000/svg"
   xmlns:svg="http://www.w3.org/2000/svg">
  <sodipodi:namedview
     id="namedview7"
     pagecolor="#ffffff"
     bordercolor="#000000"
     borderopacity="0.25"
     inkscape:showpageshadow="2"
     inkscape:pageopacity="0.0"
     inkscape:pagecheckerboard="0"
     inkscape:deskcolor="#d1d1d1"
     inkscape:document-units="mm"
     showgrid="false"
     inkscape:zoom="4.2230385"
     inkscape:cx="178.30763"
     inkscape:cy="79.326769"
     inkscape:window-width="1920"
     inkscape:window-height="1008"
     inkscape:window-x="0"
     inkscape:window-y="0"
     inkscape:window-maximized="1"
     inkscape:current-layer="layer1" />
  <defs
     id="defs2" />
  <g
     inkscape:label="Layer 1"
     inkscape:groupmode="layer"
     id="layer1">
    <circle
       style="fill:#e9ddaf;fill-opacity:1;stroke:none;stroke-width:7.50001;stroke-linecap:butt;stroke-linejoin:round;stroke-dasharray:none;stop-color:#000000"
       id="path4238"
       cx="62.160625"
       cy="5.2102842"
       r="3.6999788" />
    <path
       id="path234"
       style="fill:#000080;stroke-width:0.0679075;stroke-linecap:round;stroke-linejoin:round;stop-color:#000000"
       d="M 62.019973,0.64294439 A 4.5770377,4.5282197 0 0 0 57.442985,5.171114 4.5770377,4.5282197 0 0 0 61.373804,9.6498061 v 2.1029129 c -0.05888,0.331103 -0.182963,0.481753 -0.32582,0.586048 -0.213303,0.155728 -0.640471,0.238455 -1.194786,0.262483 h -6.03885 a 0.64012012,0.63329269 0 0 0 -0.01331,0 c -0.867639,0.01792 -1.673317,0.218213 -2.269267,0.757866 -0.595948,0.539652 -0.893373,1.370735 -0.892694,2.383894 v 0.976543 a 4.5770377,4.5282197 0 0 0 -4.00676,4.490034 4.5770377,4.5282197 0 0 0 4.576988,4.528263 4.5770377,4.5282197 0 0 0 4.577075,-4.528263 4.5770377,4.5282197 0 0 0 -3.867225,-4.472407 v -0.994867 a 0.64012012,0.63329269 0 0 0 0,-8.7e-5 0.64012012,0.63329269 0 0 0 0,-8.7e-5 0.64012012,0.63329269 0 0 0 0,-8.8e-5 0.64012012,0.63329269 0 0 0 0,-8.8e-5 c -5.28e-4,-0.784488 0.193296,-1.191471 0.477086,-1.448452 0.283408,-0.256635 0.745714,-0.411324 1.429139,-0.425836 h 6.052523 a 0.64012012,0.63329269 0 0 0 0.02796,-6.11e-4 c 0.471999,-0.02022 0.986303,-0.05418 1.467949,-0.26248 v 3.125179 a 4.5770377,4.5282197 0 0 0 -3.930819,4.479824 4.5770377,4.5282197 0 0 0 4.576988,4.528263 4.5770377,4.5282197 0 0 0 4.577075,-4.528263 4.5770377,4.5282197 0 0 0 -3.930818,-4.479824 v -3.158514 c 0.502666,0.238395 1.04576,0.274544 1.542038,0.295815 a 0.64012012,0.63329269 0 0 0 0.02796,6.11e-4 h 6.05261 c 0.683424,0.01452 1.145646,0.169201 1.429051,0.425836 0.28379,0.256981 0.477597,0.663964 0.477085,1.448452 a 0.64012012,0.63329269 0 0 0 0,3.5e-4 v 0.988671 a 4.5770377,4.5282197 0 0 0 -3.904533,4.478603 4.5770377,4.5282197 0 0 0 4.576986,4.528263 4.5770377,4.5282197 0 0 0 4.577076,-4.528263 4.5770377,4.5282197 0 0 0 -3.969451,-4.485845 V 15.74301 c 6.8e-4,-1.013159 -0.296743,-1.844242 -0.892693,-2.383894 -0.595951,-0.539653 -1.401629,-0.73994 -2.269266,-0.757866 a 0.64012012,0.63329269 0 0 0 -0.01331,0 h -6.038853 c -0.554316,-0.02403 -0.981482,-0.106753 -1.194787,-0.262483 -0.213744,-0.156049 -0.389008,-0.405898 -0.359688,-1.228552 a 0.64012012,0.63329269 0 0 0 3.52e-4,-0.02208 V 9.6478892 A 4.5770377,4.5282197 0 0 0 66.597053,5.1711163 4.5770377,4.5282197 0 0 0 62.019977,0.64294665 Z m 0,1.26607591 A 3.2972797,3.2621113 0 0 1 65.317235,5.171114 3.2972797,3.2621113 0 0 1 62.019973,8.4332953 3.2972797,3.2621113 0 0 1 58.72271,5.171114 3.2972797,3.2621113 0 0 1 62.019973,1.9090203 Z M 51.209297,17.947497 a 3.2972797,3.2621113 0 0 1 3.297262,3.26209 3.2972797,3.2621113 0 0 1 -3.297262,3.262186 3.2972797,3.2621113 0 0 1 -3.297263,-3.262186 3.2972797,3.2621113 0 0 1 3.297263,-3.26209 z m 10.810676,0 a 3.2972797,3.2621113 0 0 1 3.297262,3.26209 3.2972797,3.2621113 0 0 1 -3.297262,3.262186 3.2972797,3.2621113 0 0 1 -3.297263,-3.262186 3.2972797,3.2621113 0 0 1 3.297263,-3.26209 z m 10.847455,0 a 3.2972797,3.2621113 0 0 1 3.297263,3.26209 3.2972797,3.2621113 0 0 1 -3.297263,3.262186 3.2972797,3.2621113 0 0 1 -3.297261,-3.262186 3.2972797,3.2621113 0 0 1 3.297261,-3.26209 z" />
    <path
       id="rect1849"
       style="fill:#aaaaff;stroke-width:1.6752;stroke-linejoin:round;stop-color:#000000"
       d="m 59.31843,3.7105946 h 5.461811 l -2.730905,4.428677 z"
       sodipodi:nodetypes="cccc" />
  </g>
</svg>
