<?xml version="1.0" encoding="UTF-8" standalone="no"?>
<!DOCTYPE svg PUBLIC "-//W3C//DTD SVG 1.1//EN"
 "http://www.w3.org/Graphics/SVG/1.1/DTD/svg11.dtd">
<!-- Generated by graphviz version 2.43.0 (0)
 -->
<!-- Title: %3 Pages: 1 -->
<svg width="1222pt" height="854pt"
 viewBox="0.00 0.00 1222.20 854.00" xmlns="http://www.w3.org/2000/svg" xmlns:xlink="http://www.w3.org/1999/xlink">
<g id="graph0" class="graph" transform="scale(1 1) rotate(0) translate(4 850)">
<title>%3</title>
<polygon fill="white" stroke="transparent" points="-4,4 -4,-850 1218.2,-850 1218.2,4 -4,4"/>
<!-- A05002852 -->
<g id="node1" class="node">
<title>A05002852</title>
<ellipse fill="none" stroke="black" cx="229.68" cy="-396" rx="89.88" ry="18"/>
<text text-anchor="middle" x="229.68" y="-392.3" font-family="Times,serif" font-size="14.00">Consejería de Sanidad</text>
</g>
<!-- A05003607 -->
<g id="node3" class="node">
<title>A05003607</title>
<ellipse fill="none" stroke="black" cx="559.46" cy="-477" rx="147.57" ry="18"/>
<text text-anchor="middle" x="559.46" y="-473.3" font-family="Times,serif" font-size="14.00">Secretaría General Técnica de Sanidad</text>
</g>
<!-- A05002852&#45;&gt;A05003607 -->
<g id="edge2" class="edge">
<title>A05002852&#45;&gt;A05003607</title>
<path fill="none" stroke="black" d="M262.6,-412.75C287.28,-424.97 322.64,-440.92 355.37,-450 378.65,-456.45 403.86,-461.38 428.34,-465.14"/>
<polygon fill="black" stroke="black" points="428.01,-468.63 438.42,-466.63 429.04,-461.7 428.01,-468.63"/>
</g>
<!-- A05003608 -->
<g id="node4" class="node">
<title>A05003608</title>
<ellipse fill="none" stroke="black" cx="559.46" cy="-423" rx="112.38" ry="18"/>
<text text-anchor="middle" x="559.46" y="-419.3" font-family="Times,serif" font-size="14.00">Servicio Canario de la Salud</text>
</g>
<!-- A05002852&#45;&gt;A05003608 -->
<g id="edge3" class="edge">
<title>A05002852&#45;&gt;A05003608</title>
<path fill="none" stroke="black" d="M312.97,-402.78C354.23,-406.18 404.74,-410.34 449.2,-414"/>
<polygon fill="black" stroke="black" points="448.92,-417.49 459.18,-414.82 449.5,-410.51 448.92,-417.49"/>
</g>
<!-- A05050732 -->
<g id="node21" class="node">
<title>A05050732</title>
<ellipse fill="none" stroke="black" cx="559.46" cy="-369" rx="104.78" ry="18"/>
<text text-anchor="middle" x="559.46" y="-365.3" font-family="Times,serif" font-size="14.00">Viceconsejería de Sanidad</text>
</g>
<!-- A05002852&#45;&gt;A05050732 -->
<g id="edge20" class="edge">
<title>A05002852&#45;&gt;A05050732</title>
<path fill="none" stroke="black" d="M312.97,-389.22C355.9,-385.69 408.86,-381.32 454.58,-377.56"/>
<polygon fill="black" stroke="black" points="455.15,-381.02 464.83,-376.71 454.57,-374.05 455.15,-381.02"/>
</g>
<!-- A05003615 -->
<g id="node22" class="node">
<title>A05003615</title>
<ellipse fill="none" stroke="black" cx="559.46" cy="-315" rx="204.16" ry="18"/>
<text text-anchor="middle" x="559.46" y="-311.3" font-family="Times,serif" font-size="14.00">Escuela de Servicios Sanitarios y Sociales de Canarias</text>
</g>
<!-- A05002852&#45;&gt;A05003615 -->
<g id="edge21" class="edge">
<title>A05002852&#45;&gt;A05003615</title>
<path fill="none" stroke="black" d="M262.6,-379.25C287.28,-367.03 322.64,-351.08 355.37,-342 372.88,-337.15 391.48,-333.16 410.05,-329.88"/>
<polygon fill="black" stroke="black" points="410.78,-333.3 420.05,-328.18 409.6,-326.4 410.78,-333.3"/>
</g>
<!-- A05003638 -->
<g id="node2" class="node">
<title>A05003638</title>
<ellipse fill="none" stroke="black" cx="52" cy="-396" rx="51.99" ry="18"/>
<text text-anchor="middle" x="52" y="-392.3" font-family="Times,serif" font-size="14.00">A05003638</text>
</g>
<!-- A05003638&#45;&gt;A05002852 -->
<g id="edge1" class="edge">
<title>A05003638&#45;&gt;A05002852</title>
<path fill="none" stroke="black" d="M104.28,-396C112.45,-396 121.13,-396 129.96,-396"/>
<polygon fill="black" stroke="black" points="129.98,-399.5 139.98,-396 129.98,-392.5 129.98,-399.5"/>
</g>
<!-- A05003610 -->
<g id="node5" class="node">
<title>A05003610</title>
<ellipse fill="none" stroke="black" cx="1006.87" cy="-828" rx="174.67" ry="18"/>
<text text-anchor="middle" x="1006.87" y="-824.3" font-family="Times,serif" font-size="14.00">Dirección General de Programas Asistenciales</text>
</g>
<!-- A05003608&#45;&gt;A05003610 -->
<g id="edge4" class="edge">
<title>A05003608&#45;&gt;A05003610</title>
<path fill="none" stroke="black" d="M647.62,-411.82C688.3,-411.69 734.12,-419.69 763.54,-450 818.15,-506.27 744.87,-744.79 799.54,-801 807.17,-808.85 815.89,-815.22 825.33,-820.35"/>
<polygon fill="black" stroke="black" points="824.07,-823.63 834.59,-824.9 827.16,-817.35 824.07,-823.63"/>
</g>
<!-- A05006310 -->
<g id="node6" class="node">
<title>A05006310</title>
<ellipse fill="none" stroke="black" cx="1006.87" cy="-774" rx="151.37" ry="18"/>
<text text-anchor="middle" x="1006.87" y="-770.3" font-family="Times,serif" font-size="14.00">Dirección de Área de Salud de Tenerife</text>
</g>
<!-- A05003608&#45;&gt;A05006310 -->
<g id="edge5" class="edge">
<title>A05003608&#45;&gt;A05006310</title>
<path fill="none" stroke="black" d="M648.92,-412.06C689.16,-412.19 734.22,-420.34 763.54,-450 857.02,-544.56 705.96,-652.53 799.54,-747 814.74,-762.34 834.09,-771.99 854.83,-777.77"/>
<polygon fill="black" stroke="black" points="854.22,-781.23 864.77,-780.23 855.91,-774.43 854.22,-781.23"/>
</g>
<!-- A05006306 -->
<g id="node7" class="node">
<title>A05006306</title>
<ellipse fill="none" stroke="black" cx="1006.87" cy="-720" rx="168.97" ry="18"/>
<text text-anchor="middle" x="1006.87" y="-716.3" font-family="Times,serif" font-size="14.00">Dirección de Área de Salud de Gran Canaria</text>
</g>
<!-- A05003608&#45;&gt;A05006306 -->
<g id="edge6" class="edge">
<title>A05003608&#45;&gt;A05006306</title>
<path fill="none" stroke="black" d="M650.64,-412.42C690.27,-412.89 734.34,-421.23 763.54,-450 841.31,-526.62 721.69,-616.46 799.54,-693 808.29,-701.61 818.36,-708.41 829.24,-713.72"/>
<polygon fill="black" stroke="black" points="827.99,-717 838.55,-717.85 830.82,-710.6 827.99,-717"/>
</g>
<!-- A05006309 -->
<g id="node8" class="node">
<title>A05006309</title>
<ellipse fill="none" stroke="black" cx="1006.87" cy="-666" rx="155.97" ry="18"/>
<text text-anchor="middle" x="1006.87" y="-662.3" font-family="Times,serif" font-size="14.00">Dirección de Área de Salud de La Palma</text>
</g>
<!-- A05003608&#45;&gt;A05006309 -->
<g id="edge7" class="edge">
<title>A05003608&#45;&gt;A05006309</title>
<path fill="none" stroke="black" d="M653.2,-413.03C691.91,-414.01 734.53,-422.57 763.54,-450 825.67,-508.75 737.34,-580.32 799.54,-639 811.67,-650.45 826.14,-658.64 841.7,-664.39"/>
<polygon fill="black" stroke="black" points="840.93,-667.82 851.52,-667.66 843.14,-661.18 840.93,-667.82"/>
</g>
<!-- A05046379 -->
<g id="node9" class="node">
<title>A05046379</title>
<ellipse fill="none" stroke="black" cx="1006.87" cy="-612" rx="168.97" ry="18"/>
<text text-anchor="middle" x="1006.87" y="-608.3" font-family="Times,serif" font-size="14.00">Dirección General del Paciente y Cronicidad</text>
</g>
<!-- A05003608&#45;&gt;A05046379 -->
<g id="edge8" class="edge">
<title>A05003608&#45;&gt;A05046379</title>
<path fill="none" stroke="black" d="M657.97,-414.27C694.98,-416.07 735.02,-424.93 763.54,-450 810.17,-491 752.86,-544.05 799.54,-585 809.02,-593.32 819.75,-599.87 831.22,-604.98"/>
<polygon fill="black" stroke="black" points="829.98,-608.26 840.57,-608.78 832.62,-601.77 829.98,-608.26"/>
</g>
<!-- A05003612 -->
<g id="node10" class="node">
<title>A05003612</title>
<ellipse fill="none" stroke="black" cx="1006.87" cy="-558" rx="157.07" ry="18"/>
<text text-anchor="middle" x="1006.87" y="-554.3" font-family="Times,serif" font-size="14.00">Dirección General de Recursos Humanos</text>
</g>
<!-- A05003608&#45;&gt;A05003612 -->
<g id="edge9" class="edge">
<title>A05003608&#45;&gt;A05003612</title>
<path fill="none" stroke="black" d="M666.46,-417.41C700.25,-420.49 735.99,-429.38 763.54,-450 795.08,-473.6 767.97,-507.43 799.54,-531 812.01,-540.31 826.12,-547.25 840.97,-552.35"/>
<polygon fill="black" stroke="black" points="840.23,-555.79 850.82,-555.45 842.33,-549.11 840.23,-555.79"/>
</g>
<!-- A05046380 -->
<g id="node11" class="node">
<title>A05046380</title>
<ellipse fill="none" stroke="black" cx="1006.87" cy="-504" rx="207.16" ry="18"/>
<text text-anchor="middle" x="1006.87" y="-500.3" font-family="Times,serif" font-size="14.00">Dirección General de Relaciones Externas e Inspección</text>
</g>
<!-- A05003608&#45;&gt;A05046380 -->
<g id="edge10" class="edge">
<title>A05003608&#45;&gt;A05046380</title>
<path fill="none" stroke="black" d="M669.03,-427.13C700.38,-431.04 734.07,-437.96 763.54,-450 782.05,-457.56 781.02,-469.46 799.54,-477 812.26,-482.18 825.75,-486.42 839.51,-489.88"/>
<polygon fill="black" stroke="black" points="839.03,-493.36 849.57,-492.26 840.64,-486.55 839.03,-493.36"/>
</g>
<!-- A05003611 -->
<g id="node12" class="node">
<title>A05003611</title>
<ellipse fill="none" stroke="black" cx="1006.87" cy="-450" rx="167.07" ry="18"/>
<text text-anchor="middle" x="1006.87" y="-446.3" font-family="Times,serif" font-size="14.00">Dirección General de Recursos Económicos</text>
</g>
<!-- A05003608&#45;&gt;A05003611 -->
<g id="edge11" class="edge">
<title>A05003608&#45;&gt;A05003611</title>
<path fill="none" stroke="black" d="M664.89,-429.33C720.18,-432.68 789.17,-436.86 850.6,-440.59"/>
<polygon fill="black" stroke="black" points="850.59,-444.09 860.79,-441.21 851.02,-437.11 850.59,-444.09"/>
</g>
<!-- A05006308 -->
<g id="node13" class="node">
<title>A05006308</title>
<ellipse fill="none" stroke="black" cx="1006.87" cy="-396" rx="155.17" ry="18"/>
<text text-anchor="middle" x="1006.87" y="-392.3" font-family="Times,serif" font-size="14.00">Dirección de Área de Salud de El Hierro</text>
</g>
<!-- A05003608&#45;&gt;A05006308 -->
<g id="edge12" class="edge">
<title>A05003608&#45;&gt;A05006308</title>
<path fill="none" stroke="black" d="M664.89,-416.67C722.61,-413.17 795.27,-408.77 858.67,-404.92"/>
<polygon fill="black" stroke="black" points="858.99,-408.41 868.76,-404.31 858.56,-401.42 858.99,-408.41"/>
</g>
<!-- A05006304 -->
<g id="node14" class="node">
<title>A05006304</title>
<ellipse fill="none" stroke="black" cx="1006.87" cy="-342" rx="170.87" ry="18"/>
<text text-anchor="middle" x="1006.87" y="-338.3" font-family="Times,serif" font-size="14.00">Dirección de Área de Salud de Fuerteventura</text>
</g>
<!-- A05003608&#45;&gt;A05006304 -->
<g id="edge13" class="edge">
<title>A05003608&#45;&gt;A05006304</title>
<path fill="none" stroke="black" d="M669.03,-418.87C700.38,-414.96 734.07,-408.04 763.54,-396 782.05,-388.44 781.02,-376.54 799.54,-369 815.77,-362.39 833.26,-357.31 850.95,-353.43"/>
<polygon fill="black" stroke="black" points="851.71,-356.85 860.79,-351.39 850.29,-349.99 851.71,-356.85"/>
</g>
<!-- A05003609 -->
<g id="node15" class="node">
<title>A05003609</title>
<ellipse fill="none" stroke="black" cx="1006.87" cy="-288" rx="193.07" ry="18"/>
<text text-anchor="middle" x="1006.87" y="-284.3" font-family="Times,serif" font-size="14.00">Secretaría General del Servicio Canario de la Salud</text>
</g>
<!-- A05003608&#45;&gt;A05003609 -->
<g id="edge14" class="edge">
<title>A05003608&#45;&gt;A05003609</title>
<path fill="none" stroke="black" d="M666.46,-428.59C700.25,-425.51 735.99,-416.62 763.54,-396 795.08,-372.4 767.97,-338.57 799.54,-315 807.38,-309.14 815.87,-304.23 824.79,-300.11"/>
<polygon fill="black" stroke="black" points="826.39,-303.24 834.23,-296.11 823.66,-296.79 826.39,-303.24"/>
</g>
<!-- A05003613 -->
<g id="node16" class="node">
<title>A05003613</title>
<ellipse fill="none" stroke="black" cx="1006.87" cy="-234" rx="137.58" ry="18"/>
<text text-anchor="middle" x="1006.87" y="-230.3" font-family="Times,serif" font-size="14.00">Dirección General de Salud Pública</text>
</g>
<!-- A05003608&#45;&gt;A05003613 -->
<g id="edge15" class="edge">
<title>A05003608&#45;&gt;A05003613</title>
<path fill="none" stroke="black" d="M657.97,-431.73C694.98,-429.93 735.02,-421.07 763.54,-396 810.17,-355 752.86,-301.95 799.54,-261 818.54,-244.33 842.56,-234.76 867.45,-229.64"/>
<polygon fill="black" stroke="black" points="868.18,-233.07 877.39,-227.84 866.93,-226.18 868.18,-233.07"/>
</g>
<!-- A05006305 -->
<g id="node17" class="node">
<title>A05006305</title>
<ellipse fill="none" stroke="black" cx="1006.87" cy="-180" rx="157.07" ry="18"/>
<text text-anchor="middle" x="1006.87" y="-176.3" font-family="Times,serif" font-size="14.00">Dirección de Área de Salud de Lanzarote</text>
</g>
<!-- A05003608&#45;&gt;A05006305 -->
<g id="edge16" class="edge">
<title>A05003608&#45;&gt;A05006305</title>
<path fill="none" stroke="black" d="M653.2,-432.97C691.91,-431.99 734.53,-423.43 763.54,-396 825.67,-337.25 737.34,-265.68 799.54,-207 811.29,-195.91 825.23,-187.88 840.24,-182.16"/>
<polygon fill="black" stroke="black" points="841.4,-185.46 849.71,-178.9 839.12,-178.85 841.4,-185.46"/>
</g>
<!-- A05050992 -->
<g id="node18" class="node">
<title>A05050992</title>
<ellipse fill="none" stroke="black" cx="1006.87" cy="-126" rx="198.47" ry="18"/>
<text text-anchor="middle" x="1006.87" y="-122.3" font-family="Times,serif" font-size="14.00">Dirección General de Hemodonación y Hemoterapia</text>
</g>
<!-- A05003608&#45;&gt;A05050992 -->
<g id="edge17" class="edge">
<title>A05003608&#45;&gt;A05050992</title>
<path fill="none" stroke="black" d="M650.64,-433.58C690.27,-433.11 734.34,-424.77 763.54,-396 841.31,-319.38 721.69,-229.54 799.54,-153 805.03,-147.6 811.04,-142.92 817.43,-138.86"/>
<polygon fill="black" stroke="black" points="819.46,-141.73 826.39,-133.71 815.98,-135.66 819.46,-141.73"/>
</g>
<!-- A05046378 -->
<g id="node19" class="node">
<title>A05046378</title>
<ellipse fill="none" stroke="black" cx="1006.87" cy="-72" rx="174.37" ry="18"/>
<text text-anchor="middle" x="1006.87" y="-68.3" font-family="Times,serif" font-size="14.00">Dirección General Salud Mental y Adicciones</text>
</g>
<!-- A05003608&#45;&gt;A05046378 -->
<g id="edge18" class="edge">
<title>A05003608&#45;&gt;A05046378</title>
<path fill="none" stroke="black" d="M648.92,-433.94C689.16,-433.81 734.22,-425.66 763.54,-396 857.02,-301.44 705.96,-193.47 799.54,-99 807.25,-91.22 816.02,-84.9 825.5,-79.81"/>
<polygon fill="black" stroke="black" points="827.33,-82.82 834.8,-75.3 824.27,-76.52 827.33,-82.82"/>
</g>
<!-- A05006307 -->
<g id="node20" class="node">
<title>A05006307</title>
<ellipse fill="none" stroke="black" cx="1006.87" cy="-18" rx="162.47" ry="18"/>
<text text-anchor="middle" x="1006.87" y="-14.3" font-family="Times,serif" font-size="14.00">Dirección de Área de Salud de La Gomera</text>
</g>
<!-- A05003608&#45;&gt;A05006307 -->
<g id="edge19" class="edge">
<title>A05003608&#45;&gt;A05006307</title>
<path fill="none" stroke="black" d="M647.62,-434.18C688.3,-434.31 734.12,-426.31 763.54,-396 818.15,-339.73 744.87,-101.21 799.54,-45 809.77,-34.48 821.95,-26.62 835.2,-20.83"/>
<polygon fill="black" stroke="black" points="836.52,-24.08 844.54,-17.16 833.95,-17.57 836.52,-24.08"/>
</g>
</g>
</svg>
