<?xml version="1.0" encoding="UTF-8" standalone="no"?>
<!DOCTYPE svg PUBLIC "-//W3C//DTD SVG 1.1//EN"
 "http://www.w3.org/Graphics/SVG/1.1/DTD/svg11.dtd">
<!-- Generated by graphviz version 2.43.0 (0)
 -->
<!-- Title: %3 Pages: 1 -->
<svg width="1904pt" height="530pt"
 viewBox="0.00 0.00 1904.24 530.00" xmlns="http://www.w3.org/2000/svg" xmlns:xlink="http://www.w3.org/1999/xlink">
<g id="graph0" class="graph" transform="scale(1 1) rotate(0) translate(4 526)">
<title>%3</title>
<polygon fill="white" stroke="transparent" points="-4,4 -4,-526 1900.24,-526 1900.24,4 -4,4"/>
<!-- A05002844 -->
<g id="node1" class="node">
<title>A05002844</title>
<ellipse fill="none" stroke="black" cx="240.08" cy="-261" rx="100.18" ry="18"/>
<text text-anchor="middle" x="240.08" y="-257.3" font-family="Times,serif" font-size="14.00">Presidencia del Gobierno</text>
</g>
<!-- A05003335 -->
<g id="node3" class="node">
<title>A05003335</title>
<ellipse fill="none" stroke="black" cx="608.85" cy="-504" rx="232.86" ry="18"/>
<text text-anchor="middle" x="608.85" y="-500.3" font-family="Times,serif" font-size="14.00">Viceconsejería de Comunicación y Relaciones con los Medios</text>
</g>
<!-- A05002844&#45;&gt;A05003335 -->
<g id="edge2" class="edge">
<title>A05002844&#45;&gt;A05003335</title>
<path fill="none" stroke="black" d="M246.4,-279.09C260.01,-321.84 300.48,-429.12 376.17,-477 384.43,-482.22 393.18,-486.7 402.27,-490.52"/>
<polygon fill="black" stroke="black" points="401.27,-493.89 411.86,-494.28 403.83,-487.37 401.27,-493.89"/>
</g>
<!-- A05046373 -->
<g id="node5" class="node">
<title>A05046373</title>
<ellipse fill="none" stroke="black" cx="608.85" cy="-450" rx="96.68" ry="18"/>
<text text-anchor="middle" x="608.85" y="-446.3" font-family="Times,serif" font-size="14.00">Portavocía del Gobierno</text>
</g>
<!-- A05002844&#45;&gt;A05046373 -->
<g id="edge4" class="edge">
<title>A05002844&#45;&gt;A05046373</title>
<path fill="none" stroke="black" d="M250.02,-278.96C268.33,-313.59 313.69,-389.2 376.17,-423 415.16,-444.09 463.17,-452.08 505.36,-454.32"/>
<polygon fill="black" stroke="black" points="505.24,-457.82 515.39,-454.75 505.55,-450.82 505.24,-457.82"/>
</g>
<!-- A05003333 -->
<g id="node6" class="node">
<title>A05003333</title>
<ellipse fill="none" stroke="black" cx="608.85" cy="-396" rx="125.38" ry="18"/>
<text text-anchor="middle" x="608.85" y="-392.3" font-family="Times,serif" font-size="14.00">Viceconsejería de la Presidencia</text>
</g>
<!-- A05002844&#45;&gt;A05003333 -->
<g id="edge5" class="edge">
<title>A05002844&#45;&gt;A05003333</title>
<path fill="none" stroke="black" d="M256.93,-278.82C280.29,-303.75 326.57,-348.31 376.17,-369 406.49,-381.65 440.85,-388.99 473.65,-393.12"/>
<polygon fill="black" stroke="black" points="473.43,-396.62 483.77,-394.3 474.25,-389.66 473.43,-396.62"/>
</g>
<!-- A05003332 -->
<g id="node9" class="node">
<title>A05003332</title>
<ellipse fill="none" stroke="black" cx="608.85" cy="-342" rx="116.18" ry="18"/>
<text text-anchor="middle" x="608.85" y="-338.3" font-family="Times,serif" font-size="14.00">Vicepresidencia del Gobierno</text>
</g>
<!-- A05002844&#45;&gt;A05003332 -->
<g id="edge8" class="edge">
<title>A05002844&#45;&gt;A05003332</title>
<path fill="none" stroke="black" d="M275.78,-277.83C302.58,-290.1 340.92,-306.07 376.17,-315 412.68,-324.25 453.24,-330.34 490.09,-334.35"/>
<polygon fill="black" stroke="black" points="490.07,-337.87 500.38,-335.43 490.8,-330.91 490.07,-337.87"/>
</g>
<!-- A05003338 -->
<g id="node14" class="node">
<title>A05003338</title>
<ellipse fill="none" stroke="black" cx="608.85" cy="-288" rx="76.09" ry="18"/>
<text text-anchor="middle" x="608.85" y="-284.3" font-family="Times,serif" font-size="14.00">Secretaría General</text>
</g>
<!-- A05002844&#45;&gt;A05003338 -->
<g id="edge13" class="edge">
<title>A05002844&#45;&gt;A05003338</title>
<path fill="none" stroke="black" d="M333.16,-267.78C392.41,-272.14 468.74,-277.76 525.89,-281.97"/>
<polygon fill="black" stroke="black" points="525.74,-285.46 535.97,-282.71 526.26,-278.48 525.74,-285.46"/>
</g>
<!-- A05017335 -->
<g id="node15" class="node">
<title>A05017335</title>
<ellipse fill="none" stroke="black" cx="608.85" cy="-234" rx="113.98" ry="18"/>
<text text-anchor="middle" x="608.85" y="-230.3" font-family="Times,serif" font-size="14.00">Consejo Económico y Social</text>
</g>
<!-- A05002844&#45;&gt;A05017335 -->
<g id="edge14" class="edge">
<title>A05002844&#45;&gt;A05017335</title>
<path fill="none" stroke="black" d="M333.16,-254.22C382.3,-250.6 443.18,-246.12 495.12,-242.3"/>
<polygon fill="black" stroke="black" points="495.67,-245.77 505.39,-241.54 495.16,-238.79 495.67,-245.77"/>
</g>
<!-- A05003334 -->
<g id="node17" class="node">
<title>A05003334</title>
<ellipse fill="none" stroke="black" cx="608.85" cy="-180" rx="131.88" ry="18"/>
<text text-anchor="middle" x="608.85" y="-176.3" font-family="Times,serif" font-size="14.00">Viceconsejería de Acción Exterior</text>
</g>
<!-- A05002844&#45;&gt;A05003334 -->
<g id="edge16" class="edge">
<title>A05002844&#45;&gt;A05003334</title>
<path fill="none" stroke="black" d="M275.78,-244.17C302.58,-231.9 340.92,-215.93 376.17,-207 409.22,-198.63 445.59,-192.84 479.52,-188.85"/>
<polygon fill="black" stroke="black" points="479.95,-192.32 489.49,-187.71 479.16,-185.36 479.95,-192.32"/>
</g>
<!-- A05003340 -->
<g id="node21" class="node">
<title>A05003340</title>
<ellipse fill="none" stroke="black" cx="608.85" cy="-126" rx="172.77" ry="18"/>
<text text-anchor="middle" x="608.85" y="-122.3" font-family="Times,serif" font-size="14.00">Viceconsejería del Gabinete de la Presidencia</text>
</g>
<!-- A05002844&#45;&gt;A05003340 -->
<g id="edge20" class="edge">
<title>A05002844&#45;&gt;A05003340</title>
<path fill="none" stroke="black" d="M256.93,-243.18C280.29,-218.25 326.57,-173.69 376.17,-153 395.7,-144.85 416.91,-138.91 438.29,-134.6"/>
<polygon fill="black" stroke="black" points="438.95,-138.04 448.13,-132.74 437.65,-131.16 438.95,-138.04"/>
</g>
<!-- A05033189 -->
<g id="node22" class="node">
<title>A05033189</title>
<ellipse fill="none" stroke="black" cx="608.85" cy="-72" rx="142.97" ry="18"/>
<text text-anchor="middle" x="608.85" y="-68.3" font-family="Times,serif" font-size="14.00">Viceconsejería de Servicios Jurídicos</text>
</g>
<!-- A05002844&#45;&gt;A05033189 -->
<g id="edge21" class="edge">
<title>A05002844&#45;&gt;A05033189</title>
<path fill="none" stroke="black" d="M250.02,-243.04C268.33,-208.41 313.69,-132.8 376.17,-99 400.36,-85.92 428.02,-77.87 455.6,-73.12"/>
<polygon fill="black" stroke="black" points="456.43,-76.53 465.76,-71.51 455.33,-69.62 456.43,-76.53"/>
</g>
<!-- A05003424 -->
<g id="node24" class="node">
<title>A05003424</title>
<ellipse fill="none" stroke="black" cx="608.85" cy="-18" rx="143.77" ry="18"/>
<text text-anchor="middle" x="608.85" y="-14.3" font-family="Times,serif" font-size="14.00">Ente Público Radiotelevisión Canaria</text>
</g>
<!-- A05002844&#45;&gt;A05003424 -->
<g id="edge23" class="edge">
<title>A05002844&#45;&gt;A05003424</title>
<path fill="none" stroke="black" d="M246.4,-242.91C260.01,-200.16 300.48,-92.88 376.17,-45 400.51,-29.61 429.21,-20.68 457.96,-15.82"/>
<polygon fill="black" stroke="black" points="458.77,-19.24 468.12,-14.27 457.71,-12.32 458.77,-19.24"/>
</g>
<!-- A05003638 -->
<g id="node2" class="node">
<title>A05003638</title>
<ellipse fill="none" stroke="black" cx="52" cy="-261" rx="51.99" ry="18"/>
<text text-anchor="middle" x="52" y="-257.3" font-family="Times,serif" font-size="14.00">A05003638</text>
</g>
<!-- A05003638&#45;&gt;A05002844 -->
<g id="edge1" class="edge">
<title>A05003638&#45;&gt;A05002844</title>
<path fill="none" stroke="black" d="M104.34,-261C112.3,-261 120.78,-261 129.46,-261"/>
<polygon fill="black" stroke="black" points="129.71,-264.5 139.71,-261 129.71,-257.5 129.71,-264.5"/>
</g>
<!-- A05003344 -->
<g id="node4" class="node">
<title>A05003344</title>
<ellipse fill="none" stroke="black" cx="1181.05" cy="-504" rx="140.28" ry="18"/>
<text text-anchor="middle" x="1181.05" y="-500.3" font-family="Times,serif" font-size="14.00">Dirección General de Comunicación</text>
</g>
<!-- A05003335&#45;&gt;A05003344 -->
<g id="edge3" class="edge">
<title>A05003335&#45;&gt;A05003344</title>
<path fill="none" stroke="black" d="M841.78,-504C905.33,-504 972.54,-504 1030.16,-504"/>
<polygon fill="black" stroke="black" points="1030.43,-507.5 1040.43,-504 1030.43,-500.5 1030.43,-507.5"/>
</g>
<!-- A05003248 -->
<g id="node7" class="node">
<title>A05003248</title>
<ellipse fill="none" stroke="black" cx="1181.05" cy="-450" rx="262.65" ry="18"/>
<text text-anchor="middle" x="1181.05" y="-446.3" font-family="Times,serif" font-size="14.00">Dirección General de Transformación Digital de los Servicios Públicos</text>
</g>
<!-- A05003333&#45;&gt;A05003248 -->
<g id="edge6" class="edge">
<title>A05003333&#45;&gt;A05003248</title>
<path fill="none" stroke="black" d="M711.19,-406.5C761.25,-411.61 822.55,-417.77 877.53,-423 919.69,-427.01 965.17,-431.16 1007.74,-434.97"/>
<polygon fill="black" stroke="black" points="1007.65,-438.47 1017.92,-435.88 1008.27,-431.5 1007.65,-438.47"/>
</g>
<!-- A05046377 -->
<g id="node8" class="node">
<title>A05046377</title>
<ellipse fill="none" stroke="black" cx="1181.05" cy="-396" rx="260.75" ry="18"/>
<text text-anchor="middle" x="1181.05" y="-392.3" font-family="Times,serif" font-size="14.00">Dirección General de Coordinación Orgánica y Proyectos Estratégicos</text>
</g>
<!-- A05003333&#45;&gt;A05046377 -->
<g id="edge7" class="edge">
<title>A05003333&#45;&gt;A05046377</title>
<path fill="none" stroke="black" d="M734.63,-396C786.4,-396 848.63,-396 909.92,-396"/>
<polygon fill="black" stroke="black" points="910.15,-399.5 920.15,-396 910.15,-392.5 910.15,-399.5"/>
</g>
<!-- A05046374 -->
<g id="node10" class="node">
<title>A05046374</title>
<ellipse fill="none" stroke="black" cx="1181.05" cy="-342" rx="303.55" ry="18"/>
<text text-anchor="middle" x="1181.05" y="-338.3" font-family="Times,serif" font-size="14.00">Viceconsejería de Coordinación y Relaciones Institucionales de la Vicepresidencia</text>
</g>
<!-- A05003332&#45;&gt;A05046374 -->
<g id="edge9" class="edge">
<title>A05003332&#45;&gt;A05046374</title>
<path fill="none" stroke="black" d="M725.24,-342C767.04,-342 816.48,-342 867.11,-342"/>
<polygon fill="black" stroke="black" points="867.25,-345.5 877.25,-342 867.25,-338.5 867.25,-345.5"/>
</g>
<!-- A05003342 -->
<g id="node13" class="node">
<title>A05003342</title>
<ellipse fill="none" stroke="black" cx="1181.05" cy="-288" rx="188.47" ry="18"/>
<text text-anchor="middle" x="1181.05" y="-284.3" font-family="Times,serif" font-size="14.00">Viceconsejería del Gabinete de la Vicepresidencia</text>
</g>
<!-- A05003332&#45;&gt;A05003342 -->
<g id="edge12" class="edge">
<title>A05003332&#45;&gt;A05003342</title>
<path fill="none" stroke="black" d="M705.84,-332.05C756.83,-326.83 820.57,-320.41 877.53,-315 927.5,-310.25 982.14,-305.3 1031.06,-300.95"/>
<polygon fill="black" stroke="black" points="1031.44,-304.43 1041.09,-300.06 1030.82,-297.46 1031.44,-304.43"/>
</g>
<!-- A05046376 -->
<g id="node11" class="node">
<title>A05046376</title>
<ellipse fill="none" stroke="black" cx="1708.41" cy="-369" rx="156.77" ry="18"/>
<text text-anchor="middle" x="1708.41" y="-365.3" font-family="Times,serif" font-size="14.00">Dirección General de Análisis y Estudios</text>
</g>
<!-- A05046374&#45;&gt;A05046376 -->
<g id="edge10" class="edge">
<title>A05046374&#45;&gt;A05046376</title>
<path fill="none" stroke="black" d="M1410.96,-353.76C1459.67,-356.27 1509.96,-358.85 1554.97,-361.17"/>
<polygon fill="black" stroke="black" points="1554.93,-364.67 1565.09,-361.69 1555.29,-357.68 1554.93,-364.67"/>
</g>
<!-- A05046375 -->
<g id="node12" class="node">
<title>A05046375</title>
<ellipse fill="none" stroke="black" cx="1708.41" cy="-315" rx="187.67" ry="18"/>
<text text-anchor="middle" x="1708.41" y="-311.3" font-family="Times,serif" font-size="14.00">Dirección General de Planificación e Información</text>
</g>
<!-- A05046374&#45;&gt;A05046375 -->
<g id="edge11" class="edge">
<title>A05046374&#45;&gt;A05046375</title>
<path fill="none" stroke="black" d="M1410.96,-330.24C1451.57,-328.15 1493.28,-326.01 1532.11,-324.01"/>
<polygon fill="black" stroke="black" points="1532.64,-327.49 1542.45,-323.48 1532.28,-320.5 1532.64,-327.49"/>
</g>
<!-- A05033092 -->
<g id="node16" class="node">
<title>A05033092</title>
<ellipse fill="none" stroke="black" cx="1181.05" cy="-234" rx="238.56" ry="18"/>
<text text-anchor="middle" x="1181.05" y="-230.3" font-family="Times,serif" font-size="14.00">Secretaría General del Consejo Económico y Social de Canarias</text>
</g>
<!-- A05017335&#45;&gt;A05033092 -->
<g id="edge15" class="edge">
<title>A05017335&#45;&gt;A05033092</title>
<path fill="none" stroke="black" d="M722.85,-234C782.85,-234 859.1,-234 932.06,-234"/>
<polygon fill="black" stroke="black" points="932.33,-237.5 942.33,-234 932.33,-230.5 932.33,-237.5"/>
</g>
<!-- A05017165 -->
<g id="node18" class="node">
<title>A05017165</title>
<ellipse fill="none" stroke="black" cx="1181.05" cy="-180" rx="129.98" ry="18"/>
<text text-anchor="middle" x="1181.05" y="-176.3" font-family="Times,serif" font-size="14.00">Dirección General de Emigración</text>
</g>
<!-- A05003334&#45;&gt;A05017165 -->
<g id="edge17" class="edge">
<title>A05003334&#45;&gt;A05017165</title>
<path fill="none" stroke="black" d="M741.03,-180C830.73,-180 949.46,-180 1040.83,-180"/>
<polygon fill="black" stroke="black" points="1040.99,-183.5 1050.99,-180 1040.99,-176.5 1040.99,-183.5"/>
</g>
<!-- A05017166 -->
<g id="node19" class="node">
<title>A05017166</title>
<ellipse fill="none" stroke="black" cx="1181.05" cy="-126" rx="165.97" ry="18"/>
<text text-anchor="middle" x="1181.05" y="-122.3" font-family="Times,serif" font-size="14.00">Dirección General de Relaciones Exteriores</text>
</g>
<!-- A05003334&#45;&gt;A05017166 -->
<g id="edge18" class="edge">
<title>A05003334&#45;&gt;A05017166</title>
<path fill="none" stroke="black" d="M714.38,-169.17C763.84,-164.13 823.71,-158.12 877.53,-153 930.8,-147.94 989.38,-142.64 1040.69,-138.1"/>
<polygon fill="black" stroke="black" points="1041.19,-141.57 1050.85,-137.2 1040.58,-134.6 1041.19,-141.57"/>
</g>
<!-- A05017317 -->
<g id="node20" class="node">
<title>A05017317</title>
<ellipse fill="none" stroke="black" cx="1181.05" cy="-72" rx="167.07" ry="18"/>
<text text-anchor="middle" x="1181.05" y="-68.3" font-family="Times,serif" font-size="14.00">Dirección General de Relaciones con África</text>
</g>
<!-- A05003334&#45;&gt;A05017317 -->
<g id="edge19" class="edge">
<title>A05003334&#45;&gt;A05017317</title>
<path fill="none" stroke="black" d="M736.25,-184.7C772.38,-181.07 810.36,-172.08 841.53,-153 866.13,-137.94 852.73,-113.73 877.53,-99 929.07,-68.39 994.49,-59.64 1051.3,-59.38"/>
<polygon fill="black" stroke="black" points="1051.42,-62.88 1061.43,-59.42 1051.44,-55.88 1051.42,-62.88"/>
</g>
<!-- A05046372 -->
<g id="node23" class="node">
<title>A05046372</title>
<ellipse fill="none" stroke="black" cx="1181.05" cy="-18" rx="155.17" ry="18"/>
<text text-anchor="middle" x="1181.05" y="-14.3" font-family="Times,serif" font-size="14.00">Dirección General de Servicios Jurídicos</text>
</g>
<!-- A05033189&#45;&gt;A05046372 -->
<g id="edge22" class="edge">
<title>A05033189&#45;&gt;A05046372</title>
<path fill="none" stroke="black" d="M719.87,-60.61C768.22,-55.69 825.69,-49.93 877.53,-45 932.64,-39.76 993.43,-34.28 1045.97,-29.63"/>
<polygon fill="black" stroke="black" points="1046.37,-33.11 1056.02,-28.75 1045.75,-26.14 1046.37,-33.11"/>
</g>
</g>
</svg>
