<?xml version="1.0" encoding="UTF-8" standalone="no"?>
<!-- Created with Inkscape (http://www.inkscape.org/) -->

<svg
   width="512"
   height="512"
   viewBox="0 0 135.46667 135.46667"
   version="1.1"
   id="svg5"
   xml:space="preserve"
   inkscape:version="1.2.2 (b0a8486541, 2022-12-01)"
   sodipodi:docname="absysnet-logo.svg"
   xmlns:inkscape="http://www.inkscape.org/namespaces/inkscape"
   xmlns:sodipodi="http://sodipodi.sourceforge.net/DTD/sodipodi-0.dtd"
   xmlns="http://www.w3.org/2000/svg"
   xmlns:svg="http://www.w3.org/2000/svg"><sodipodi:namedview
     id="namedview7"
     pagecolor="#ffffff"
     bordercolor="#000000"
     borderopacity="0.25"
     inkscape:showpageshadow="2"
     inkscape:pageopacity="0.0"
     inkscape:pagecheckerboard="0"
     inkscape:deskcolor="#d1d1d1"
     inkscape:document-units="mm"
     showgrid="false"
     showguides="true"
     inkscape:zoom="1.0431611"
     inkscape:cx="284.23223"
     inkscape:cy="252.11831"
     inkscape:window-width="1920"
     inkscape:window-height="1008"
     inkscape:window-x="0"
     inkscape:window-y="96"
     inkscape:window-maximized="1"
     inkscape:current-layer="layer1"><sodipodi:guide
       position="-17.307065,10.99928"
       orientation="0,-1"
       id="guide434"
       inkscape:locked="false" /><sodipodi:guide
       position="-15.379077,24.18135"
       orientation="0,-1"
       id="guide436"
       inkscape:locked="false" /><sodipodi:guide
       position="1.4901123,20.80729"
       orientation="0,-1"
       id="guide10328"
       inkscape:locked="false" /></sodipodi:namedview><defs
     id="defs2" /><g
     inkscape:label="Capa 1"
     inkscape:groupmode="layer"
     id="layer1"><g
       id="g18318"
       transform="translate(-0.53334037,7.1632073)"><path
         id="path438"
         style="fill:#28316e;fill-opacity:1;stroke-width:1.53816;stop-color:#000000"
         d="m 13.400325,94.448245 -7.4089376,20.427235 4.8152926,0.003 1.511039,-4.65949 h 7.31991 l 1.530116,4.57683 H 25.64363 L 18.959609,94.448075 Z m 2.73354,4.08481 2.340082,7.350915 h -4.866163 z" /><path
         id="rect2688"
         style="fill:#28316e;fill-opacity:1;stroke-width:1.53816;stop-color:#000000"
         d="m 27.364512,94.400315 v 20.502745 h 4.15635 v -3.68658 a 5.9457868,7.9239272 0 0 0 5.042623,3.7311 5.9457868,7.9239272 0 0 0 5.94559,-7.92401 5.9457868,7.9239272 0 0 0 -5.94559,-7.924015 5.9457868,7.9239272 0 0 0 -5.042623,3.731895 v -8.431135 z m 7.542474,8.350055 a 3.3400945,4.5151336 0 0 1 3.340024,4.51483 3.3400945,4.5151336 0 0 1 -3.340024,4.51483 3.3400945,4.5151336 0 0 1 -3.340023,-4.51483 3.3400945,4.5151336 0 0 1 3.340023,-4.51483 z" /><path
         style="fill:#2c327b;fill-opacity:1;stroke-width:1.53816;stop-color:#000000"
         d="m 56.698778,103.72887 -3.510799,0.27133 c 0,0 -0.817498,-1.75174 -2.260661,-1.77268 -1.443162,-0.0209 -2.893526,0.35293 -2.693289,1.87497 0.200237,1.52205 3.435721,1.40295 5.512742,2.09685 2.07702,0.69389 3.427317,2.04707 3.468793,4.20537 0.04148,2.15828 -1.203959,4.45185 -6.246981,4.54128 -5.043023,0.0894 -8.029727,-4.18405 -7.315434,-4.70465 l 3.908978,-0.0444 c 0,0 1.329687,1.99289 3.379108,1.73488 2.049421,-0.25801 2.15744,-0.70127 2.138654,-1.47872 -0.01879,-0.77745 -0.264891,-2.00808 -2.660332,-1.95597 -2.395441,0.0521 -6.439703,-1.89833 -6.414691,-4.61226 0.02501,-2.71392 2.061642,-4.939225 6.474155,-4.834885 4.412512,0.10429 6.774977,4.629855 6.219757,4.678935 z"
         id="path6750"
         sodipodi:nodetypes="cczzzzzcczzzzzc" /><path
         style="fill:#2c327b;fill-opacity:1;stroke-width:1.53816;stop-color:#000000"
         d="m 57.491057,99.176165 5.090827,14.311405 c 0,0 0.197932,2.07284 -0.282427,2.66369 -0.48036,0.59086 -1.396266,0.57329 -1.825181,0.39974 l -0.816141,-0.40431 -1.102783,2.94065 1.339793,0.53682 c 0.492638,0.13705 2.631184,0.342 3.851245,-0.26409 1.220061,-0.60608 2.832549,-3.23237 2.832549,-3.23237 l 6.056422,-16.924655 -4.026627,-0.0488 -3.596501,11.439505 -3.306071,-11.371905 z"
         id="path10330"
         sodipodi:nodetypes="cczcccczcccccc" /><path
         style="fill:#2c327b;fill-opacity:1;stroke-width:1.53816;stop-color:#000000"
         d="m 85.894055,103.72887 -3.510798,0.27133 c 0,0 -0.817499,-1.75174 -2.260662,-1.77268 -1.443162,-0.0209 -2.893526,0.35293 -2.693289,1.87497 0.200236,1.52205 3.435721,1.40295 5.512742,2.09685 2.07702,0.69389 3.427316,2.04707 3.468793,4.20537 0.04148,2.15828 -1.203959,4.45185 -6.246981,4.54128 -5.043024,0.0894 -8.029727,-4.18405 -7.315434,-4.70465 l 3.908977,-0.0444 c 0,0 1.329687,1.99289 3.379108,1.73488 2.049421,-0.25801 2.157442,-0.70127 2.138655,-1.47872 -0.01878,-0.77745 -0.264891,-2.00808 -2.660332,-1.95597 -2.395442,0.0521 -6.439704,-1.89833 -6.414692,-4.61226 0.02501,-2.71392 2.061643,-4.939225 6.474156,-4.834885 4.412513,0.10429 6.774977,4.629855 6.219757,4.678935 z"
         id="path10332"
         sodipodi:nodetypes="cczzzzzcczzzzzc" /><path
         id="rect10386"
         style="fill:#2c327b;fill-opacity:1;stroke-width:1.53816;stop-color:#000000"
         d="M 89.417237,94.797255 V 115.22131 H 91.16276 V 98.043495 l 12.43825,17.171665 1.67537,0.006 V 94.797105 h -1.74552 V 111.88273 L 91.122141,94.796425 Z"
         sodipodi:nodetypes="ccccccccccc" /><path
         style="color:#000000;fill:#2c327b;stroke-width:1.53816;-inkscape-stroke:none"
         d="m 114.49645,99.754385 c -2.74274,-0.0464 -4.51741,1.175945 -5.43763,2.730825 -0.91403,1.54442 -1.07994,3.32602 -1.09053,4.62648 -0.18435,4.06954 1.64504,6.89901 4.278,7.80496 2.63296,0.90594 5.86886,-0.11829 8.34571,-3.02525 l -1.17165,-0.99739 c -2.16939,2.54614 -4.74466,3.23187 -6.67236,2.5686 -1.74002,-0.59871 -2.95092,-2.48299 -3.08232,-5.45566 h 11.31988 l -0.003,-0.76908 c -0.001,-1.2839 -0.16167,-3.06473 -1.07551,-4.62349 -0.91384,-1.55875 -2.67077,-2.813635 -5.41059,-2.859995 z m -0.024,1.538155 c 2.31468,0.0392 3.42296,0.92844 4.10976,2.09994 0.54897,0.93638 0.61978,2.0616 0.68797,3.07631 h -9.61349 c 0.0656,-1.05494 0.16062,-2.24545 0.72702,-3.20249 0.68696,-1.16072 1.77697,-2.01291 4.08874,-1.97376 z"
         id="path10424"
         sodipodi:nodetypes="cscsccscccsccssccss" /><path
         id="path10544"
         style="color:#000000;fill:#2c327b;stroke-width:1.53816;-inkscape-stroke:none"
         d="m 125.33242,96.500655 v 3.35909 h -2.28047 v 1.538065 h 2.28047 v 10.4334 0.003 c 0.0185,1.53323 0.86511,2.61064 1.92834,2.99823 1.06323,0.38758 2.23584,0.26874 3.2812,0.054 l -0.31,-1.50467 c -0.90548,0.18602 -1.8615,0.21812 -2.445,0.006 -0.5835,-0.21271 -0.90342,-0.48846 -0.91648,-1.57066 v -10.4191 h 2.95928 v -1.538055 h -2.95928 v -3.35831 z" /></g><g
       id="g18308"
       transform="matrix(1.2333965,0,0,1.2333965,-16.886192,-6.8235378)"><path
         style="color:#000000;fill:#292f62;fill-opacity:1;stroke-width:5.47642;-inkscape-stroke:none"
         d="m 73.685735,13.991383 c -12.337016,0.318727 -21.212205,4.042803 -26.922167,9.722781 -5.709957,5.679978 -8.116279,13.162137 -8.086274,20.42962 0.03066,7.480844 3.349723,14.505558 8.182544,19.702241 4.832814,5.196686 11.275017,8.692065 17.958801,8.546228 6.157195,-0.13472 10.953272,-1.958258 14.150988,-5.08064 3.197707,-3.122434 4.620803,-7.396233 4.599333,-11.765758 -0.02142,-4.358191 -1.428565,-8.190205 -3.968264,-10.920748 -2.5397,-2.730598 -6.167883,-4.27002 -10.139931,-4.321224 l -0.07487,5.47642 c 2.651852,0.03285 4.704519,0.955141 6.203754,2.567072 1.499242,1.611874 2.487066,3.999374 2.502899,7.219838 0.01589,3.209181 -0.935515,5.860481 -2.952135,7.829582 -2.016621,1.969102 -5.275698,3.406279 -10.439426,3.519038 -4.637136,0.10132 -9.836339,-2.50831 -13.830101,-6.802754 -3.993756,-4.294444 -6.693029,-10.14129 -6.717168,-15.990708 -0.02519,-6.062835 1.910897,-11.989198 6.471161,-16.525535 4.56026,-4.536283 11.883344,-7.847217 23.199911,-8.139767 10.921489,-0.282035 18.896222,4.846686 24.333702,11.295115 5.437468,6.448485 8.025128,14.465909 7.947228,18.151375 l 5.47642,0.117741 C 111.70849,43.045487 108.58535,34.628285 102.34069,27.222577 96.096022,19.81687 86.417828,13.662305 73.685747,13.991492 Z"
         id="path10558" /><path
         style="color:#000000;fill:#292f62;fill-opacity:1;stroke-width:5.47642;-inkscape-stroke:none"
         d="m 71.364676,27.190376 c -6.146077,0.393207 -10.852194,2.414773 -13.915672,5.668971 -3.06347,3.254198 -4.312642,7.582815 -4.107315,11.947576 0.204819,4.353425 1.775834,8.128377 4.428201,10.749611 2.652367,2.621233 6.351102,4.009341 10.32177,3.893405 l -0.160459,-5.47642 c -2.650981,0.07721 -4.744978,-0.76303 -6.310719,-2.310392 -1.565742,-1.547362 -2.651036,-3.895924 -2.802389,-7.112884 -0.15082,-3.205676 0.688595,-5.884303 2.620554,-7.936536 1.931962,-2.052235 5.124577,-3.627635 10.278984,-3.95759 4.628769,-0.296275 9.937251,2.091883 14.108201,6.214477 4.17095,4.122539 7.11005,9.858705 7.38032,15.701881 0.28018,6.056483 -1.41059,12.047358 -5.7759,16.771536 -4.365317,4.724234 -11.542016,8.333907 -22.836244,9.102413 C 53.694081,81.188149 45.515108,76.402744 39.811066,70.18887 34.10703,63.97494 31.18168,56.08665 31.104413,52.401185 l -5.47642,0.10679 c 0.125302,5.975815 3.599837,14.255942 10.150632,21.392264 6.550794,7.136324 16.482802,12.876434 29.189745,12.011761 12.312668,-0.837837 21.017761,-4.930639 26.483622,-10.845886 5.46586,-5.915245 7.55572,-13.490721 7.2199,-20.750483 C 98.326212,46.842673 94.723672,39.95498 89.676442,34.966344 84.629205,29.977654 78.03639,26.76327 71.364659,27.190211 Z"
         id="path10560" /></g></g></svg>
