<?xml version="1.0" encoding="UTF-8" standalone="no"?>
<!-- Created with Inkscape (http://www.inkscape.org/) -->

<svg
   width="512"
   height="512"
   viewBox="0 0 135.46666 135.46667"
   version="1.1"
   id="svg5"
   inkscape:version="1.2.2 (b0a8486541, 2022-12-01)"
   xml:space="preserve"
   sodipodi:docname="biota-logo.svg"
   inkscape:export-filename="biota-logo.png"
   inkscape:export-xdpi="96"
   inkscape:export-ydpi="96"
   xmlns:inkscape="http://www.inkscape.org/namespaces/inkscape"
   xmlns:sodipodi="http://sodipodi.sourceforge.net/DTD/sodipodi-0.dtd"
   xmlns="http://www.w3.org/2000/svg"
   xmlns:svg="http://www.w3.org/2000/svg"><sodipodi:namedview
     id="namedview7"
     pagecolor="#ffffff"
     bordercolor="#000000"
     borderopacity="0.25"
     inkscape:showpageshadow="2"
     inkscape:pageopacity="0.0"
     inkscape:pagecheckerboard="0"
     inkscape:deskcolor="#d1d1d1"
     inkscape:document-units="mm"
     showgrid="false"
     inkscape:zoom="0.28588106"
     inkscape:cx="-26.234686"
     inkscape:cy="825.51813"
     inkscape:window-width="1920"
     inkscape:window-height="1008"
     inkscape:window-x="0"
     inkscape:window-y="96"
     inkscape:window-maximized="1"
     inkscape:current-layer="layer1" /><defs
     id="defs2" /><g
     inkscape:label="Capa 1"
     inkscape:groupmode="layer"
     id="layer1"><rect
       style="fill:#f2f2f2;stroke:none;stroke-width:0.958576;stop-color:#000000"
       id="rect355"
       width="126.04142"
       height="126.04143"
       x="4.6040077"
       y="5.1272855"
       rx="13.897572"
       ry="14.876394" /><g
       id="g2876"
       transform="translate(3.2200884,1.1839376)"><path
         style="fill:#7ab1be;fill-opacity:1;stroke:none;stroke-width:1.11664;stroke-dasharray:none"
         d="m 98.656178,36.426367 c -0.806668,-0.291351 -1.214687,-0.668999 -1.289064,-1.193123 -0.08896,-0.627199 0.172325,-0.891204 1.435018,-1.449755 3.648988,-1.614121 9.254058,-2.044906 15.114038,-1.16161 3.66945,0.553111 5.30996,1.223698 5.30996,2.170549 0,0.91958 -0.64817,1.065689 -6.23842,1.406288 -10.27504,0.626036 -13.104087,0.670975 -14.331532,0.227651 z"
         id="path481" /><path
         style="fill:#7ab1be;fill-opacity:1;stroke:none;stroke-width:1.11664;stroke-dasharray:none"
         d="m 98.403269,46.145435 c -1.388417,-0.63627 -1.45655,-1.679846 -0.153649,-2.353599 2.91613,-1.507992 8.75934,-2.166745 13.90896,-1.568073 4.50938,0.524242 6.86295,1.279971 7.00107,2.24802 0.14197,0.995018 -0.43928,1.154355 -5.49753,1.507062 -9.33904,0.651207 -14.088224,0.703054 -15.258851,0.16659 z"
         id="path479" /><path
         style="fill:#7ab1be;fill-opacity:1;stroke:none;stroke-width:1.11664;stroke-dasharray:none"
         d="m 99.377609,56.761702 c -0.623278,-0.159695 -1.379437,-0.536541 -1.680343,-0.837451 -0.861187,-0.861194 -0.126003,-1.609379 2.503034,-2.547323 2.12023,-0.756419 2.84302,-0.833028 7.89783,-0.837158 7.16448,-0.0063 11.128,0.827649 11.128,2.340115 0,1.105708 -1.50094,1.300185 -15.51176,2.009891 -1.76194,0.08922 -3.71347,0.03161 -4.336761,-0.128074 z"
         id="path477" /><path
         style="fill:#e19f3c;fill-opacity:1;stroke:none;stroke-width:1.11664;stroke-dasharray:none"
         d="M 66.452408,58.907939 C 63.492582,57.374113 54.447344,46.497988 51.826442,41.321467 50.887869,39.467701 50.098597,36.40637 50.330545,35.519393 c 0.599614,-2.292922 4.214399,0.854439 10.234373,8.911007 1.940167,2.596532 3.755065,5.072509 4.033109,5.50217 0.458565,0.708624 0.507211,0.144707 0.523623,-6.069821 0.01582,-5.989323 0.111672,-7.190326 0.76216,-9.548721 0.866523,-3.141657 1.658576,-4.383759 2.795399,-4.383759 1.455312,0 1.757112,1.747992 1.790254,10.368893 0.01623,4.219153 0.05685,7.671361 0.09026,7.671578 0.03342,2.04e-4 0.595354,-1.099768 1.248734,-2.444408 1.808962,-3.722797 3.802953,-6.578501 6.47511,-9.273336 1.975387,-1.992151 2.618561,-2.444787 3.473923,-2.444787 1.002671,0 1.049709,0.06143 1.049709,1.37095 0,3.408447 -8.656317,18.44961 -12.960808,22.520615 -1.00989,0.955113 -1.959055,1.735631 -2.109257,1.734484 -0.1502,-10e-4 -0.728331,-0.237975 -1.28473,-0.526319 z"
         id="path475" /><path
         style="fill:#8abc7f;fill-opacity:1;stroke:none;stroke-width:1.11664;stroke-dasharray:none"
         d="M 28.684633,58.564078 C 24.124364,56.912615 24.061489,56.903235 21.897209,57.552046 15.449864,59.484805 13.86779,59.499474 11.756853,57.646105 8.6822827,54.946593 8.5401578,50.804292 11.398291,47.1956 c 0.917322,-1.158217 1.09877,-1.671523 1.09184,-3.088758 -0.007,-1.423519 -0.238577,-2.048713 -1.425441,-3.847623 -1.6581735,-2.51327 -2.0133482,-3.963539 -1.4433101,-5.893392 1.3649021,-4.62084 5.1016051,-5.871715 12.3190071,-4.123831 1.854667,0.449156 5.006532,0.967938 7.004143,1.152846 4.309326,0.398895 5.488916,0.952479 6.568651,3.082679 0.62795,1.238885 0.759417,2.051278 0.76273,4.713256 0.0045,3.541602 0.371964,5.25247 1.995017,9.286196 1.902934,4.729298 1.740763,6.700292 -0.722361,8.779491 -2.73638,2.309845 -5.123915,2.66208 -8.863934,1.307666 z"
         id="path473" /><g
         id="g1311"
         style="fill:#3f7238;fill-opacity:1;stroke:none;stroke-width:0.876135;stroke-dasharray:none"
         transform="matrix(1.2745031,0,0,1.2745031,-16.969333,-17.867256)"><path
           style="fill:#3f7238;fill-opacity:1;stroke:none;stroke-width:0.876135;stroke-dasharray:none"
           d="m 41.509534,72.030997 v -1.85209 h 1.5875 1.5875 v 1.85209 1.85208 h -1.5875 -1.5875 z"
           id="path471" /><path
           id="path467"
           style="fill:#3f7238;fill-opacity:1;stroke:none;stroke-width:0.876135;stroke-dasharray:none"
           d="m 55.267717,78.116347 v 8.466669 8.46667 h 8.466667 8.466667 v -8.46667 -8.466669 h -8.466667 z m 2.910417,2.910419 h 5.55625 5.55625 v 5.55625 5.55625 h -5.55625 -5.55625 v -5.55625 z" /><path
           style="fill:#3f7238;fill-opacity:1;stroke:none;stroke-width:0.876135;stroke-dasharray:none"
           d="m 41.509534,86.450786 v -8.598959 h 1.5875 1.5875 v 8.598959 8.59896 h -1.5875 -1.5875 z"
           id="path465" /><path
           id="path461"
           style="fill:#3f7238;fill-opacity:1;stroke:none;stroke-width:0.876135;stroke-dasharray:none"
           d="m 102.97333,77.407867 c -1.66314,0.0105 -3.315002,0.39428 -4.422466,1.17254 -1.032345,0.72547 -1.802731,1.929079 -2.116667,3.306769 l -0.165881,0.72761 1.526521,-0.003 1.526005,-0.003 0.442867,-1.05471 c 0.279941,-0.66654 0.700361,-1.15241 1.142051,-1.32034 1.1121,-0.422819 3.63452,-0.32629 4.3372,0.16588 0.76447,0.53546 1.35392,1.89907 1.35392,3.13211 v 0.93431 h -2.06809 c -4.93898,0 -7.86743,1.32066 -8.743649,3.9424 -0.824288,2.46635 0.358067,5.32712 2.673222,6.46834 v 5.1e-4 c 0.969141,0.47773 4.505337,0.59869 5.578467,0.19069 0.35711,-0.13578 1.07907,-0.62433 1.60456,-1.08572 0.85864,-0.7539 0.95549,-0.78513 0.95549,-0.30438 0,1.15548 0.2655,1.37193 1.68207,1.37201 l 1.36064,5.2e-4 -0.076,-6.68125 c -0.0811,-7.13769 -0.25814,-8.28107 -1.45573,-9.406139 -1.10386,-1.03703 -3.12733,-1.56814 -5.13457,-1.55546 z m 3.7083,9.089879 -0.16743,1.79162 c -0.18296,1.95928 -0.71651,3.10583 -1.83193,3.93723 -0.8148,0.60732 -3.37679,0.87057 -4.36717,0.44855 -0.964363,-0.41093 -1.702711,-1.83291 -1.559598,-3.00395 0.245158,-2.00603 1.589698,-2.75704 5.380038,-3.00602 z" /><path
           style="fill:#3f7238;fill-opacity:1;stroke:none;stroke-width:0.876135;stroke-dasharray:none"
           d="m 86.312134,95.130466 c -0.888735,-0.17326 -1.868326,-1.23437 -2.181807,-2.36336 -0.162581,-0.58554 -0.285141,-3.49081 -0.285983,-6.77934 l -0.0015,-5.75469 h -1.455208 -1.455209 v -1.190619 -1.19063 h 1.455209 1.455208 v -3.70417 -3.70416 h 1.5875 1.5875 v 3.70416 3.70417 h 1.852083 1.852084 v 1.19063 1.190619 h -1.852084 -1.852083 v 5.62967 c 0,6.66312 0.04467,6.80575 2.131669,6.80575 h 1.307915 v 1.15755 c 0,1.08479 -0.05197,1.16795 -0.826823,1.32292 -0.876533,0.1753 -2.367029,0.167 -3.318495,-0.0185 z"
           id="path459" /><path
           id="path357"
           style="fill:#3f7238;fill-opacity:1;stroke:none;stroke-width:0.876135;stroke-dasharray:none"
           d="m 18.226051,70.178847 v 12.435419 12.43542 h 1.443323 c 1.439491,0 1.443942,-0.002 1.616955,-0.9245 l 0.173116,-0.92449 0.489376,0.62167 c 0.268958,0.34192 0.880629,0.81452 1.359607,1.05058 0.565732,0.27883 1.571279,0.43112 2.869592,0.43512 2.581816,0.008 4.381078,-0.8183 5.681307,-2.60863 3.04401,-4.19139 2.35128,-11.53905 -1.330152,-14.111279 -2.381052,-1.66364 -5.947844,-1.5649 -8.035684,0.22221 l -1.09244,0.93482 v -4.78317 -4.78317 h -1.5875 z m 7.674467,9.879499 c 1.14729,9.5e-4 2.241053,0.39714 2.957442,1.16272 1.326972,1.4181 1.65549,2.40109 1.65933,4.96507 0.003,2.01545 -0.102375,2.60822 -0.685746,3.85972 -0.459267,0.98526 -0.987612,1.65796 -1.583366,2.01589 -1.838832,1.10478 -4.097689,0.8876 -5.467366,-0.52555 -2.332273,-2.40629 -2.016037,-9.22199 0.498677,-10.75128 0.804223,-0.48907 1.728692,-0.7273 2.621029,-0.72657 z" /></g></g></g></svg>
