<?xml version="1.0" encoding="UTF-8" standalone="no"?>
<!-- Created with Inkscape (http://www.inkscape.org/) -->

<svg
   width="512"
   height="512"
   viewBox="0 0 135.46666 135.46667"
   version="1.1"
   id="svg5"
   xml:space="preserve"
   inkscape:version="1.2.2 (b0a8486541, 2022-12-01)"
   sodipodi:docname="casper-logo.svg"
   inkscape:export-filename="casper-logo.png"
   inkscape:export-xdpi="96"
   inkscape:export-ydpi="96"
   xmlns:inkscape="http://www.inkscape.org/namespaces/inkscape"
   xmlns:sodipodi="http://sodipodi.sourceforge.net/DTD/sodipodi-0.dtd"
   xmlns:xlink="http://www.w3.org/1999/xlink"
   xmlns="http://www.w3.org/2000/svg"
   xmlns:svg="http://www.w3.org/2000/svg"><sodipodi:namedview
     id="namedview7"
     pagecolor="#ffffff"
     bordercolor="#000000"
     borderopacity="0.25"
     inkscape:showpageshadow="2"
     inkscape:pageopacity="0.0"
     inkscape:pagecheckerboard="0"
     inkscape:deskcolor="#d1d1d1"
     inkscape:document-units="mm"
     showgrid="false"
     showguides="true"
     inkscape:zoom="1.0557596"
     inkscape:cx="255.26644"
     inkscape:cy="346.66982"
     inkscape:window-width="1920"
     inkscape:window-height="1008"
     inkscape:window-x="0"
     inkscape:window-y="96"
     inkscape:window-maximized="1"
     inkscape:current-layer="layer1"><sodipodi:guide
       position="69.199579,-148.46427"
       orientation="1,0"
       id="guide616"
       inkscape:locked="false" /><sodipodi:guide
       position="143.09799,-80.809285"
       orientation="1,0"
       id="guide740"
       inkscape:locked="false" /><sodipodi:guide
       position="90.783267,-146.97018"
       orientation="0,-1"
       id="guide743"
       inkscape:locked="false" /><sodipodi:guide
       position="87.251588,-154.11685"
       orientation="0,-1"
       id="guide745"
       inkscape:locked="false" /><sodipodi:guide
       position="74.243044,-115.95726"
       orientation="1,0"
       id="guide749"
       inkscape:locked="false" /><sodipodi:guide
       position="95.914617,-121.85873"
       orientation="0,-1"
       id="guide751"
       inkscape:locked="false" /></sodipodi:namedview><defs
     id="defs2"><linearGradient
       inkscape:collect="always"
       id="linearGradient4023"><stop
         style="stop-color:#222b00;stop-opacity:1"
         offset="0"
         id="stop4019" /><stop
         style="stop-color:#eef4d7;stop-opacity:0;"
         offset="1"
         id="stop4021" /></linearGradient><linearGradient
       inkscape:collect="always"
       id="linearGradient3926"><stop
         style="stop-color:#eef4d7;stop-opacity:1;"
         offset="0"
         id="stop3922" /><stop
         style="stop-color:#eef4d7;stop-opacity:0;"
         offset="1"
         id="stop3924" /></linearGradient><linearGradient
       inkscape:collect="always"
       xlink:href="#linearGradient3926"
       id="linearGradient3928"
       x1="67.290642"
       y1="76.139793"
       x2="65.007851"
       y2="54.751957"
       gradientUnits="userSpaceOnUse" /><linearGradient
       inkscape:collect="always"
       xlink:href="#linearGradient4023"
       id="linearGradient4017"
       x1="68.281342"
       y1="66.13681"
       x2="69.355568"
       y2="74.863945"
       gradientUnits="userSpaceOnUse"
       gradientTransform="translate(-2.339992,-1.8821741)" /><filter
       inkscape:collect="always"
       style="color-interpolation-filters:sRGB"
       id="filter4028"
       x="-0.025902354"
       y="-0.025902354"
       width="1.0518047"
       height="1.0518047"><feGaussianBlur
         inkscape:collect="always"
         stdDeviation="1.2890306"
         id="feGaussianBlur4030" /></filter></defs><g
     inkscape:label="Layer 1"
     inkscape:groupmode="layer"
     id="layer1"><rect
       style="opacity:0.75017029;fill:#445016;stroke-width:0.4;stop-color:#000000;filter:url(#filter4028)"
       id="rect4026"
       width="119.43599"
       height="119.43599"
       x="9.7573986"
       y="9.969121"
       rx="12"
       ry="12" /><rect
       style="opacity:0.8;fill:#44aa00;stroke-width:0.4;stop-color:#000000"
       id="rect400"
       width="119.43599"
       height="119.43599"
       x="8.0153389"
       y="8.0153389"
       rx="12"
       ry="12" /><path
       d="m 21.278951,79.328425 q -4.865942,0 -7.229399,-3.267131 -2.3287,-3.30189 -2.3287,-9.280045 0,-5.978157 2.3287,-9.245289 2.363457,-3.301889 7.229399,-3.301889 1.876862,0 3.301888,0.521351 1.459783,0.486594 2.502484,1.390269 1.042702,0.903675 1.70308,2.189673 0.695134,1.286 1.077458,2.884809 l -4.865941,1.181728 q -0.20854,-0.868918 -0.486595,-1.598809 -0.278053,-0.729891 -0.72989,-1.251242 -0.417081,-0.521351 -1.077459,-0.799405 -0.62562,-0.31281 -1.529296,-0.31281 -2.12016,0 -3.023835,1.668322 -0.868918,1.633566 -0.868918,4.553131 v 4.240321 q 0,2.919564 0.868918,4.587887 0.903675,1.633566 3.023835,1.633566 1.80735,0 2.606755,-1.112215 0.834161,-1.112215 1.216485,-2.850052 l 4.865941,1.181729 q -0.382324,1.598809 -1.077458,2.884808 -0.660378,1.285999 -1.70308,2.224431 -1.042701,0.903674 -2.502484,1.390269 -1.425026,0.486593 -3.301888,0.486593 z"
       id="path3752"
       style="font-weight:bold;font-size:31.2599px;line-height:15.63px;font-family:'IBM Plex Mono';-inkscape-font-specification:'IBM Plex Mono Bold';text-align:center;text-anchor:middle;opacity:1;fill:#445500;stroke:#eef4d7;stroke-width:0.821025" /><path
       d="m 44.501232,78.911345 -1.529296,-5.839129 h -6.638535 l -1.494538,5.839129 h -5.283022 l 6.56902,-24.260193 h 7.368426 l 6.569021,24.260193 z M 39.809074,59.690876 H 39.53102 l -2.363457,9.175776 h 5.004969 z"
       id="path3754"
       style="font-weight:bold;font-size:31.2599px;line-height:15.63px;font-family:'IBM Plex Mono';-inkscape-font-specification:'IBM Plex Mono Bold';text-align:center;text-anchor:middle;opacity:1;fill:#445500;stroke:#eef4d7;stroke-width:0.821025" /><path
       d="m 59.498136,79.328425 q -3.058591,0 -5.317778,-1.007945 -2.259188,-1.007945 -3.649457,-2.745781 l 3.023836,-3.336645 q 1.320756,1.459783 2.884808,2.154917 1.59881,0.695135 3.232375,0.695135 1.876863,0 2.850052,-0.834162 0.973188,-0.834161 0.973188,-2.398214 0,-1.285999 -0.764648,-1.946376 -0.729892,-0.660378 -2.502485,-0.938433 l -2.53724,-0.417079 q -3.267132,-0.556109 -4.726915,-2.398214 -1.459781,-1.876864 -1.459781,-4.553131 0,-3.510429 2.293943,-5.422049 2.293943,-1.946377 6.429993,-1.946377 2.815295,0 4.900699,0.868919 2.085403,0.868917 3.371402,2.363457 l -2.954321,3.301888 q -0.973189,-1.077459 -2.293944,-1.668323 -1.320756,-0.62562 -2.989079,-0.62562 -3.510429,0 -3.510429,2.884808 0,1.251242 0.764648,1.876863 0.799405,0.62562 2.571998,0.938431 l 2.53724,0.451837 q 2.954322,0.521352 4.553131,2.224431 1.598809,1.70308 1.598809,4.587887 0,1.703079 -0.590864,3.162862 -0.590864,1.425026 -1.772593,2.502484 -1.181728,1.042702 -2.919564,1.633566 -1.703079,0.590864 -3.997024,0.590864 z"
       id="path3756"
       style="font-weight:bold;font-size:31.2599px;line-height:15.63px;font-family:'IBM Plex Mono';-inkscape-font-specification:'IBM Plex Mono Bold';text-align:center;text-anchor:middle;opacity:1;fill:#445500;stroke:#eef4d7;stroke-width:0.821025" /><path
       d="M 70.184794,78.911345 V 54.651152 h 9.384316 q 1.772592,0 3.162861,0.556107 1.390269,0.521352 2.328701,1.529296 0.973188,1.007945 1.459782,2.432971 0.486594,1.425026 0.486594,3.197619 0,1.772592 -0.486594,3.197618 -0.486594,1.425026 -1.459782,2.43297 -0.938432,1.007945 -2.328701,1.564054 -1.390269,0.52135 -3.162861,0.52135 h -4.13605 v 8.828208 z M 75.43306,65.877573 h 2.815294 q 1.842106,0 2.537241,-0.695134 0.729891,-0.695135 0.729891,-2.293944 v -1.042701 q 0,-1.598809 -0.729891,-2.293944 -0.695135,-0.695134 -2.537241,-0.695134 H 75.43306 Z"
       id="path3758"
       style="font-weight:bold;font-size:31.2599px;line-height:15.63px;font-family:'IBM Plex Mono';-inkscape-font-specification:'IBM Plex Mono Bold';text-align:center;text-anchor:middle;opacity:1;fill:#445500;stroke:#eef4d7;stroke-width:0.821025" /><path
       d="M 88.433093,78.911345 V 54.651152 h 15.501497 v 4.275077 H 93.646601 v 5.561075 h 9.940419 v 4.275078 h -9.940419 v 5.873886 h 10.287989 v 4.275077 z"
       id="path3760"
       style="font-weight:bold;font-size:31.2599px;line-height:15.63px;font-family:'IBM Plex Mono';-inkscape-font-specification:'IBM Plex Mono Bold';text-align:center;text-anchor:middle;opacity:1;fill:#445500;stroke:#eef4d7;stroke-width:0.821025" /><path
       d="M 110.56488,78.911345 H 105.4209 V 54.651152 h 9.3843 q 1.77259,0 3.16286,0.556107 1.39026,0.521352 2.3287,1.529296 0.97319,1.007945 1.45978,2.432971 0.4866,1.425026 0.4866,3.197619 0,2.571997 -1.11222,4.414104 -1.11222,1.842105 -3.16286,2.43297 l 4.76166,9.697126 h -5.70009 l -4.06654,-9.001991 h -2.39821 z m 2.98907,-13.033772 q 1.84212,0 2.53724,-0.695134 0.72989,-0.695135 0.72989,-2.293944 v -1.042701 q 0,-1.598809 -0.72989,-2.293944 -0.69512,-0.695134 -2.53724,-0.695134 h -2.98907 v 7.020857 z"
       id="path3762"
       style="font-weight:bold;font-size:31.2599px;line-height:15.63px;font-family:'IBM Plex Mono';-inkscape-font-specification:'IBM Plex Mono Bold';text-align:center;text-anchor:middle;opacity:1;fill:#445500;stroke:#eef4d7;stroke-width:0.821025" /><path
       id="path3839"
       style="font-weight:bold;font-size:31.2599px;line-height:15.63px;font-family:'IBM Plex Mono';-inkscape-font-specification:'IBM Plex Mono Bold';text-align:center;text-anchor:middle;opacity:0.435574;fill:url(#linearGradient3928);stroke:none;stroke-width:0.821025;fill-opacity:1"
       d="m 21.109935,54.672396 c -3.24394,0 -5.6539,1.100353 -7.22953,3.301607 -1.55246,2.178084 -2.32854,5.260001 -2.32854,9.245431 0,1.616022 0.12977,3.082742 0.38499,4.405412 1.68957,-0.2811 3.42416,-0.56577 5.23534,-0.85834 -0.03888,-0.44814 -0.05943,-0.92269 -0.05943,-1.42679 V 65.09915 c 0,-1.946373 0.28992,-3.464169 0.8692,-4.553211 0.60245,-1.112211 1.61015,-1.668115 3.02359,-1.668115 0.60245,0 1.11202,0.104103 1.5291,0.312643 0.44026,0.185368 0.7994,0.451867 1.07746,0.799434 0.30122,0.347567 0.54482,0.764494 0.73018,1.251086 0.18537,0.486594 0.34777,1.019592 0.4868,1.598869 l 4.86585,-1.181323 c -0.25488,-1.065871 -0.61403,-2.027764 -1.07745,-2.885095 -0.44026,-0.85733 -1.00813,-1.587081 -1.70326,-2.189531 -0.69513,-0.602448 -1.5295,-1.0657 -2.50269,-1.390096 -0.95001,-0.347566 -2.05036,-0.521415 -3.30161,-0.521415 z m 38.94905,0 c -2.75737,0 -4.90081,0.648552 -6.4301,1.946135 -1.5293,1.27441 -2.29392,3.081609 -2.29392,5.421891 0,1.440404 0.32274,2.704109 0.95705,3.797184 3.22099,-0.359009 6.35258,-0.672469 9.32708,-0.922424 l -1.69912,-0.302307 c -1.18173,-0.208541 -2.03901,-0.521366 -2.57194,-0.938444 -0.50976,-0.417081 -0.76481,-1.042729 -0.76481,-1.876888 0,-1.923202 1.1701,-2.885096 3.51038,-2.885096 1.11221,0 2.10846,0.208722 2.98897,0.625802 0.88048,0.393909 1.64512,0.949811 2.29391,1.668115 l 2.95434,-3.301607 c -0.85733,-0.996358 -1.9811,-1.784404 -3.37137,-2.36368 -1.39026,-0.579278 -3.02361,-0.868681 -4.90047,-0.868681 z m -24.10344,0.417029 -3.61425,13.349056 c 1.68492,-0.244602 3.36684,-0.483215 5.06532,-0.718303 l 1.95544,-7.591267 h 0.27802 l 1.81281,7.03988 c 1.66883,-0.220826 3.31939,-0.426092 4.97127,-0.630453 l -3.10007,-11.448913 z m 34.05994,0 v 9.280054 c 0.91852,-0.03846 1.81244,-0.06772 2.67218,-0.08578 0.83614,-0.01757 1.69623,-0.02665 2.57607,-0.02842 v -4.960421 h 2.81534 c 1.22805,0 2.07388,0.231626 2.53731,0.695048 0.48659,0.463423 0.73019,1.228046 0.73019,2.293917 v 1.04283 c 0,0.379582 -0.03229,0.718987 -0.09405,1.02216 1.76951,0.05348 3.58788,0.127697 5.44979,0.222725 0.08952,-0.557096 0.13539,-1.145235 0.13539,-1.7663 0,-1.181726 -0.16188,-2.247722 -0.48627,-3.197738 -0.3244,-0.950015 -0.81107,-1.760964 -1.45986,-2.432926 -0.62563,-0.671961 -1.40169,-1.181538 -2.32854,-1.529106 -0.92684,-0.370736 -1.98139,-0.556038 -3.16311,-0.556038 z m 18.24849,0 v 9.567891 c 4.90379,0.274666 10.03376,0.67584 15.154115,1.1436 v -0.875399 h -9.940475 v -5.560901 h 10.287735 v -4.275191 z m 16.987595,0 v 10.883573 c 5.30433,0.501602 10.54445,1.062519 15.45177,1.635559 0.0894,-0.125379 0.17654,-0.253582 0.25838,-0.389123 0.74148,-1.228069 1.11208,-2.69954 1.11208,-4.414201 0,-1.181726 -0.16188,-2.247722 -0.48628,-3.197738 -0.32439,-0.950015 -0.81107,-1.760964 -1.45986,-2.432926 -0.62562,-0.671961 -1.4017,-1.181538 -2.32854,-1.529106 -0.92684,-0.370736 -1.98139,-0.556038 -3.16311,-0.556038 z m 5.14439,4.205428 h 2.98896 c 1.22808,0 2.0739,0.231626 2.53731,0.695048 0.4866,0.463423 0.72968,1.228046 0.72968,2.293917 v 1.04283 c 0,1.065871 -0.24308,1.830495 -0.72968,2.293917 -0.46341,0.463422 -1.30923,0.695048 -2.53731,0.695048 h -2.98896 z" /><path
       id="path3856"
       style="font-weight:bold;font-size:31.2599px;line-height:15.63px;font-family:'IBM Plex Mono';-inkscape-font-specification:'IBM Plex Mono Bold';text-align:center;text-anchor:middle;opacity:0.435574;fill:url(#linearGradient4017);fill-opacity:1;stroke:none;stroke-width:0.821025"
       d="m 73.023438,64.470703 c -0.720716,0.02267 -1.441405,0.047 -2.16211,0.07031 0,4.645833 0,9.291666 0,13.9375 1.396484,0 2.792969,0 4.189453,0 0,-2.942709 0,-5.885417 0,-8.828125 2.079805,-0.05605 4.23687,0.126653 6.246094,-0.121094 2.468827,-0.30029 4.562236,-2.273965 5.0625,-4.699219 -0.296882,-0.255255 -1.167687,-0.07926 -1.674728,-0.176605 -0.89947,-0.01419 -1.878917,-0.127136 -2.727616,-0.05777 -0.401131,1.417738 -1.973167,1.932026 -3.303446,1.901769 -1.200756,0.01562 -2.401902,0.0018 -3.602804,0.0064 0,-0.684896 0,-1.369791 0,-2.054687 -0.675781,0.0072 -1.351562,0.01432 -2.027343,0.02148 z m 16.08789,14.007813 c 4.813802,0 9.627604,0 14.441402,0 0,-1.072266 0,-2.144532 0,-3.216797 -3.42903,0 -6.858069,0 -10.287105,0 0,-2.310547 0,-4.621094 0,-6.931641 3.313151,0 6.626302,0 9.939455,0 0,-0.794922 0,-1.589844 0,-2.384766 -4.692531,-0.422439 -9.389965,-0.794015 -14.093752,-1.066406 0,4.533203 0,9.066406 0,13.59961 z M 59.728516,65.300781 c -2.071208,0.187984 -4.122127,0.409631 -6.195313,0.628907 1.553203,1.933724 4.204995,2.170223 6.482102,2.543283 1.493344,0.209304 3.344424,0.600115 3.941726,2.187185 0.62129,1.725453 -0.05761,3.993803 -1.88196,4.660444 -2.821404,1.0073 -6.111925,4.42e-4 -8.207118,-2.0612 -0.428981,-0.254835 -0.815437,0.784272 -1.227726,1.037339 -0.365493,0.481925 -1.009177,0.958073 -1.206633,1.443495 2.470635,2.707167 6.388876,3.462319 9.901931,3.061572 2.716053,-0.269886 5.557028,-1.735753 6.552864,-4.415059 0.774772,-2.149523 0.762493,-4.783927 -0.616905,-6.689481 -1.33544,-1.697433 -3.571516,-2.451148 -5.656254,-2.563406 -0.628905,0.05564 -1.25781,0.111281 -1.886714,0.166921 z m 46.369144,13.177735 c 1.36198,0 2.72395,0 4.08593,0 0,-3.000651 0,-6.001302 0,-9.001954 1.08985,10e-7 2.17969,0 3.26953,0 1.35606,3.000385 2.71085,6.001347 4.06641,9.001954 1.50326,0 3.00651,0 4.50977,0 -1.55145,-3.160149 -3.10277,-6.32036 -4.6543,-9.480469 0.93057,-0.27966 1.88814,-0.609777 2.58594,-1.320313 -4.62098,-0.534348 -9.24252,-1.018735 -13.86328,-1.460937 0,4.087239 0,8.174479 0,12.261719 z M 42.431641,67.277344 c 0.190117,0.738278 0.38032,1.476533 0.570312,2.214844 -2.123047,-10e-7 -4.246094,0 -6.369141,0 -0.03471,-0.421361 0.719206,-1.549083 0.08579,-1.436379 -1.213491,0.172153 -2.426983,0.344305 -3.640474,0.516457 -0.893229,3.302083 -1.786458,6.604166 -2.679687,9.90625 1.392578,0 2.785156,0 4.177734,0 0.498522,-1.946009 0.998486,-3.891649 1.496094,-5.837891 2.485026,0 4.970052,0 7.455078,0 0.51048,1.945947 1.020823,3.89193 1.53125,5.837891 1.486328,0 2.972656,0 4.458984,0 -1.055338,-3.899089 -2.110677,-7.798177 -3.166016,-11.697266 -1.30664,0.165365 -2.613281,0.330729 -3.919921,0.496094 z m -29.544922,4.4375 c 0.566096,2.645895 1.999039,5.387051 4.627464,6.458383 2.360489,0.936851 5.105076,0.986547 7.488528,0.10141 2.340151,-0.84162 3.74356,-3.151878 4.354711,-5.450418 -1.27474,-0.309245 -2.549479,-0.61849 -3.824219,-0.927735 -0.438055,1.571132 -1.296472,3.392355 -3.06967,3.727506 -1.714356,0.417474 -3.817458,-0.130643 -4.643221,-1.81149 -0.440493,-0.864244 -0.671546,-1.817997 -0.796874,-2.775391 -1.378907,0.225912 -2.757813,0.451823 -4.136719,0.677735 z" /></g></svg>
