<?xml version="1.0" encoding="UTF-8" standalone="no"?>
<!-- Created with Inkscape (http://www.inkscape.org/) -->

<svg
   width="512"
   height="512"
   viewBox="0 0 135.46666 135.46667"
   version="1.1"
   id="svg5"
   xml:space="preserve"
   inkscape:version="1.2.2 (b0a8486541, 2022-12-01)"
   sodipodi:docname="casper-logo.svg"
   inkscape:export-filename="casper-logo.png"
   inkscape:export-xdpi="96"
   inkscape:export-ydpi="96"
   xmlns:inkscape="http://www.inkscape.org/namespaces/inkscape"
   xmlns:sodipodi="http://sodipodi.sourceforge.net/DTD/sodipodi-0.dtd"
   xmlns:xlink="http://www.w3.org/1999/xlink"
   xmlns="http://www.w3.org/2000/svg"
   xmlns:svg="http://www.w3.org/2000/svg"><sodipodi:namedview
     id="namedview7"
     pagecolor="#ffffff"
     bordercolor="#000000"
     borderopacity="0.25"
     inkscape:showpageshadow="2"
     inkscape:pageopacity="0.0"
     inkscape:pagecheckerboard="0"
     inkscape:deskcolor="#d1d1d1"
     inkscape:document-units="mm"
     showgrid="false"
     showguides="true"
     inkscape:zoom="0.5278798"
     inkscape:cx="381.71569"
     inkscape:cy="-81.457938"
     inkscape:window-width="1920"
     inkscape:window-height="1008"
     inkscape:window-x="0"
     inkscape:window-y="96"
     inkscape:window-maximized="1"
     inkscape:current-layer="layer1"><sodipodi:guide
       position="69.199579,-148.46427"
       orientation="1,0"
       id="guide616"
       inkscape:locked="false" /><sodipodi:guide
       position="143.09799,-80.809285"
       orientation="1,0"
       id="guide740"
       inkscape:locked="false" /><sodipodi:guide
       position="90.783267,-146.97018"
       orientation="0,-1"
       id="guide743"
       inkscape:locked="false" /><sodipodi:guide
       position="87.251588,-154.11685"
       orientation="0,-1"
       id="guide745"
       inkscape:locked="false" /><sodipodi:guide
       position="74.243044,-115.95726"
       orientation="1,0"
       id="guide749"
       inkscape:locked="false" /><sodipodi:guide
       position="95.914617,-121.85873"
       orientation="0,-1"
       id="guide751"
       inkscape:locked="false" /></sodipodi:namedview><defs
     id="defs2"><linearGradient
       inkscape:collect="always"
       id="linearGradient5338"><stop
         style="stop-color:#ffffff;stop-opacity:1;"
         offset="0"
         id="stop5334" /><stop
         style="stop-color:#ffffff;stop-opacity:0;"
         offset="1"
         id="stop5336" /></linearGradient><linearGradient
       inkscape:collect="always"
       id="linearGradient5328"><stop
         style="stop-color:#000000;stop-opacity:1;"
         offset="0"
         id="stop5324" /><stop
         style="stop-color:#000000;stop-opacity:0;"
         offset="1"
         id="stop5326" /></linearGradient><linearGradient
       inkscape:collect="always"
       xlink:href="#linearGradient5328"
       id="linearGradient5330"
       x1="52.764194"
       y1="24.620453"
       x2="53.430798"
       y2="51.399517"
       gradientUnits="userSpaceOnUse" /><linearGradient
       inkscape:collect="always"
       xlink:href="#linearGradient5338"
       id="linearGradient5340"
       x1="64.104797"
       y1="96.066704"
       x2="63.609032"
       y2="77.992073"
       gradientUnits="userSpaceOnUse" /></defs><g
     inkscape:label="Layer 1"
     inkscape:groupmode="layer"
     id="layer1"><path
       id="path5320"
       style="opacity:1;fill:#000000;fill-opacity:1;stroke-width:0.403449;stop-color:#000000"
       d="m 15.130208,41.826944 105.362402,0 c 6.70533,0 12.10347,5.398145 12.10347,12.103464 v 22.139385 c 0,6.705319 -5.39814,12.103464 -12.10347,12.103464 l -105.362402,0 c -6.70532,0 -12.1034648,-5.398145 -12.1034648,-12.103464 V 53.930408 c 0,-6.705319 5.3981448,-12.103464 12.1034648,-12.103464 z"
       sodipodi:nodetypes="sssssssss" /><path
       id="rect400"
       style="opacity:1;fill:#008080;fill-opacity:1;stroke-width:0.385042;stop-color:#000000"
       d="M 15.925686,42.82415 H 119.87769 c 6.3994,0 11.55126,5.151862 11.55126,11.55126 v 21.129307 c 0,6.399398 -5.15186,11.55126 -11.55126,11.55126 H 15.925686 c -6.399401,0 -11.5512629,-5.151862 -11.5512629,-11.55126 V 54.37541 c 0,-6.399398 5.1518619,-11.55126 11.5512629,-11.55126 z"
       sodipodi:nodetypes="sssssssss" /><path
       d="m 17.398355,79.300523 q -5.276857,0 -7.8399014,-3.54303 -2.525352,-3.580725 -2.525352,-10.063719 0,-6.482995 2.525352,-10.026027 2.5630444,-3.580724 7.8399014,-3.580724 2.035357,0 3.580722,0.565378 1.583058,0.527685 2.713812,1.507673 1.130755,0.979988 1.8469,2.374585 0.753836,1.394599 1.168446,3.128423 l -5.276855,1.281521 q -0.226151,-0.942295 -0.527687,-1.733824 -0.301534,-0.791528 -0.791527,-1.356906 -0.452303,-0.565377 -1.168447,-0.866912 -0.678452,-0.339226 -1.658441,-0.339226 -2.299202,0 -3.279189,1.809207 -0.942295,1.771516 -0.942295,4.93763 v 4.598403 q 0,3.166113 0.942295,4.975321 0.979987,1.771516 3.279189,1.771516 1.959975,0 2.826888,-1.206138 0.904604,-1.206138 1.319214,-3.09073 l 5.276855,1.281521 q -0.41461,1.733824 -1.168446,3.128422 -0.716145,1.394598 -1.8469,2.412278 -1.130754,0.979987 -2.713812,1.507673 -1.545365,0.527685 -3.580722,0.527685 z"
       id="path3752"
       style="font-weight:bold;font-size:31.2599px;line-height:15.63px;font-family:'IBM Plex Mono';-inkscape-font-specification:'IBM Plex Mono Bold';text-align:center;text-anchor:middle;opacity:1;fill:#000000;stroke:#eef4d7;stroke-width:0.890359" /><path
       d="M 42.58169,78.848222 40.923249,72.515995 H 33.72411 l -1.620748,6.332227 h -5.729158 l 7.123755,-26.308897 h 7.990668 l 7.123756,26.308897 z M 37.493292,58.004639 h -0.301534 l -2.563044,9.950645 h 5.427624 z"
       id="path3754"
       style="font-weight:bold;font-size:31.2599px;line-height:15.63px;font-family:'IBM Plex Mono';-inkscape-font-specification:'IBM Plex Mono Bold';text-align:center;text-anchor:middle;opacity:1;fill:#000000;stroke:#eef4d7;stroke-width:0.890359" /><path
       d="m 58.845039,79.300523 q -3.31688,0 -5.766849,-1.093063 -2.44997,-1.093063 -3.957643,-2.977654 l 3.27919,-3.618416 q 1.43229,1.583058 3.128422,2.336894 1.733825,0.753837 3.50534,0.753837 2.035359,0 3.090731,-0.904604 1.05537,-0.904604 1.05537,-2.600736 0,-1.394598 -0.82922,-2.110743 -0.79153,-0.716144 -2.713812,-1.01768 l -2.751504,-0.4523 q -3.543031,-0.603071 -5.126089,-2.600737 -1.583055,-2.03536 -1.583055,-4.937629 0,-3.806875 2.48766,-5.879926 2.48766,-2.110743 6.972988,-2.110743 3.053038,0 5.314549,0.942297 2.261508,0.942294 3.656106,2.563044 l -3.203804,3.580723 q -1.055372,-1.168448 -2.487661,-1.809209 -1.43229,-0.678451 -3.241498,-0.678451 -3.806875,0 -3.806875,3.128422 0,1.356906 0.829221,2.035359 0.866912,0.678451 2.789195,1.017678 l 2.751502,0.489994 q 3.203807,0.565378 4.93763,2.412278 1.733824,1.8469 1.733824,4.97532 0,1.846899 -0.640761,3.429957 -0.64076,1.545365 -1.922283,2.713811 -1.281521,1.130755 -3.166113,1.771516 -1.846899,0.640761 -4.334561,0.640761 z"
       id="path3756"
       style="font-weight:bold;font-size:31.2599px;line-height:15.63px;font-family:'IBM Plex Mono';-inkscape-font-specification:'IBM Plex Mono Bold';text-align:center;text-anchor:middle;opacity:1;fill:#000000;stroke:#eef4d7;stroke-width:0.890359" /><path
       d="M 70.434154,78.848222 V 52.539325 h 10.176795 q 1.922282,0 3.429955,0.603069 1.507673,0.565379 2.525354,1.658441 1.05537,1.093063 1.583056,2.638428 0.527685,1.545365 0.527685,3.467649 0,1.922282 -0.527685,3.467648 -0.527686,1.545365 -1.583056,2.638427 -1.017681,1.093063 -2.525354,1.696134 -1.507673,0.565376 -3.429955,0.565376 h -4.485327 v 9.573725 z m 5.691468,-14.134437 h 3.053037 q 1.997666,0 2.751503,-0.753836 0.791528,-0.753837 0.791528,-2.487661 v -1.130754 q 0,-1.733824 -0.791528,-2.487661 -0.753837,-0.753836 -2.751503,-0.753836 h -3.053037 z"
       id="path3758"
       style="font-weight:bold;font-size:31.2599px;line-height:15.63px;font-family:'IBM Plex Mono';-inkscape-font-specification:'IBM Plex Mono Bold';text-align:center;text-anchor:middle;opacity:1;fill:#000000;stroke:#eef4d7;stroke-width:0.890359" /><path
       d="M 90.223469,78.848222 V 52.539325 h 16.810551 v 4.636096 H 95.877243 v 6.030691 H 106.6571 v 4.636096 H 95.877243 v 6.369919 h 11.156777 v 4.636095 z"
       id="path3760"
       style="font-weight:bold;font-size:31.2599px;line-height:15.63px;font-family:'IBM Plex Mono';-inkscape-font-specification:'IBM Plex Mono Bold';text-align:center;text-anchor:middle;opacity:1;fill:#000000;stroke:#eef4d7;stroke-width:0.890359" /><path
       d="m 114.22423,78.848222 h -5.57839 V 52.539325 h 10.17679 q 1.92227,0 3.42995,0.603069 1.50766,0.565379 2.52535,1.658441 1.05537,1.093063 1.58305,2.638428 0.5277,1.545365 0.5277,3.467649 0,2.789195 -1.20614,4.786862 -1.20615,1.997665 -3.42996,2.638427 l 5.16377,10.516021 h -6.18145 l -4.40995,-9.762184 h -2.60072 z m 3.24148,-14.134437 q 1.99769,0 2.7515,-0.753836 0.79153,-0.753837 0.79153,-2.487661 v -1.130754 q 0,-1.733824 -0.79153,-2.487661 -0.75381,-0.753836 -2.7515,-0.753836 h -3.24148 v 7.613748 z"
       id="path3762"
       style="font-weight:bold;font-size:31.2599px;line-height:15.63px;font-family:'IBM Plex Mono';-inkscape-font-specification:'IBM Plex Mono Bold';text-align:center;text-anchor:middle;opacity:1;fill:#000000;stroke:#eef4d7;stroke-width:0.890359" /><path
       id="path5322"
       style="opacity:1;fill:url(#linearGradient5330);fill-opacity:1;stroke-width:0.385042;stop-color:#000000"
       d="M 15.925686,42.82415 H 119.87769 c 6.3994,0 11.55126,5.151862 11.55126,11.55126 v 21.129307 c 0,6.399398 -5.15186,11.55126 -11.55126,11.55126 H 15.925686 c -6.399401,0 -11.5512629,-5.151862 -11.5512629,-11.55126 V 54.37541 c 0,-6.399398 5.1518619,-11.55126 11.5512629,-11.55126 z"
       sodipodi:nodetypes="sssssssss" /><path
       id="path5332"
       style="opacity:1;fill:url(#linearGradient5340);fill-opacity:1;stroke-width:0.385042;stop-color:#000000"
       d="M 15.925686,42.82415 H 119.87769 c 6.3994,0 11.55126,5.151862 11.55126,11.55126 v 21.129307 c 0,6.399398 -5.15186,11.55126 -11.55126,11.55126 H 15.925686 c -6.399401,0 -11.5512629,-5.151862 -11.5512629,-11.55126 V 54.37541 c 0,-6.399398 5.1518619,-11.55126 11.5512629,-11.55126 z"
       sodipodi:nodetypes="sssssssss" /><path
       id="path5342"
       style="opacity:1;fill:#ffffff;fill-opacity:1;stroke-width:0.385042;stop-color:#000000"
       d="m 119.86253,87.22046 c 6.39939,0 11.55123,-5.151841 11.55123,-11.551233 v -21.12946 c 0,-3.333104 -1.39964,-6.325404 -3.64319,-8.429976 1.93205,2.063199 3.11402,4.838131 3.11402,7.90081 V 75.14006 c 0,6.399392 -5.15183,11.551233 -11.55123,11.551233 H 15.381567 c -3.06638,0 -5.8446005,-1.185056 -7.9085605,-3.121256 2.10493,2.247908 5.1009305,3.650423 8.4377305,3.650423 z" /></g></svg>
