<?xml version="1.0" encoding="UTF-8" standalone="no"?>
<!-- Created with Inkscape (http://www.inkscape.org/) -->

<svg
   width="512"
   height="512"
   viewBox="0 0 135.46666 135.46667"
   version="1.1"
   id="svg5"
   inkscape:version="1.2.2 (b0a8486541, 2022-12-01)"
   xml:space="preserve"
   sodipodi:docname="centinela-logo.svg"
   inkscape:export-filename="centinela-logo.png"
   inkscape:export-xdpi="96"
   inkscape:export-ydpi="96"
   xmlns:inkscape="http://www.inkscape.org/namespaces/inkscape"
   xmlns:sodipodi="http://sodipodi.sourceforge.net/DTD/sodipodi-0.dtd"
   xmlns="http://www.w3.org/2000/svg"
   xmlns:svg="http://www.w3.org/2000/svg"><sodipodi:namedview
     id="namedview7"
     pagecolor="#ffffff"
     bordercolor="#000000"
     borderopacity="0.25"
     inkscape:showpageshadow="2"
     inkscape:pageopacity="0.0"
     inkscape:pagecheckerboard="0"
     inkscape:deskcolor="#d1d1d1"
     inkscape:document-units="mm"
     showgrid="false"
     showguides="true"
     inkscape:zoom="0.80859375"
     inkscape:cx="103.2657"
     inkscape:cy="163.24638"
     inkscape:window-width="1920"
     inkscape:window-height="1008"
     inkscape:window-x="0"
     inkscape:window-y="96"
     inkscape:window-maximized="1"
     inkscape:current-layer="layer1"><sodipodi:guide
       position="25.834504,81.71528"
       orientation="0,-1"
       id="guide3441"
       inkscape:locked="false" /><sodipodi:guide
       position="38.488565,78.817715"
       orientation="0,-1"
       id="guide3499"
       inkscape:locked="false" /><sodipodi:guide
       position="45.54412,84.257651"
       orientation="0,-1"
       id="guide3505"
       inkscape:locked="false" /><sodipodi:guide
       position="45.472542,83.276008"
       orientation="0,-1"
       id="guide3507"
       inkscape:locked="false" /><sodipodi:guide
       position="60.831157,84.840501"
       orientation="1,0"
       id="guide5888"
       inkscape:locked="false" /><sodipodi:guide
       position="61.935504,83.327136"
       orientation="1,0"
       id="guide5890"
       inkscape:locked="false" /><sodipodi:guide
       position="46.188304,121.22823"
       orientation="1,0"
       id="guide5956"
       inkscape:locked="false" /><sodipodi:guide
       position="47.721166,97.839251"
       orientation="1,0"
       id="guide5958"
       inkscape:locked="false" /></sodipodi:namedview><defs
     id="defs2" /><g
     inkscape:label="Capa 1"
     inkscape:groupmode="layer"
     id="layer1"><g
       id="g6633"
       transform="matrix(1.2416835,0,0,1.2416835,4.9288782,51.65341)"><path
         id="path5951"
         style="fill:none;fill-rule:evenodd;stroke:#d12623;stroke-width:1.77572;stroke-dasharray:none;stroke-opacity:1"
         d="m 30.004523,-17.647006 c -16.898277,8.8e-5 -30.59701477,13.6988261 -30.59710314,30.597104 8.837e-5,16.898277 13.69882614,30.597015 30.59710314,30.597103 7.073668,-0.0032 13.91025,-2.456564 19.359808,-6.914936 0.759913,-0.660212 1.711474,-0.625562 2.523417,0.0749 5.434417,4.410943 12.233942,6.836837 19.267901,6.84004 16.898277,-8.9e-5 30.597011,-13.698827 30.597101,-30.597103 -9e-5,-16.8982782 -13.698824,-30.597016 -30.597101,-30.597104 -7.01932,0.0035 -13.805164,2.419597 -19.233839,6.813481 -1.191445,1.0083168 -1.39439,1.0113997 -2.587387,0.03038 -5.405882,-4.317818 -12.372791,-6.843149 -19.3299,-6.843867 z"
         sodipodi:nodetypes="ccccccccccc" /><path
         id="path5960"
         style="fill:#d12623;fill-opacity:1;fill-rule:evenodd;stroke:none;stroke-width:0.441151"
         d="m 70.360228,-14.98587 c -5.395388,0.136945 -10.911154,1.986634 -15.293186,5.0923285 -1.614203,1.1669428 -3.439348,3.1244796 -5.633267,2.2446304 -2.376347,-1.2959932 -4.34871,-3.2526259 -6.864461,-4.3250969 -8.059442,-4.129901 -18.14488,-4.040322 -26.038378,0.457391 C 8.0716497,-6.9726604 2.3567774,2.2092368 2.0895274,11.818231 1.6448204,21.236443 6.3239027,30.72501 14.181557,35.974015 c 3.644588,2.494748 7.965895,4.146335 12.210433,4.697095 7.861614,1.105006 15.980048,-1.55233 22.03226,-6.60063 2.19974,-1.359426 4.822246,0.02156 6.476278,1.601233 5.141365,3.733365 11.555284,5.530707 17.941176,5.17886 7.485781,-0.389882 14.959441,-4.139255 19.789878,-10.016757 5.508895,-6.536841 7.671988,-15.519931 5.822721,-23.8641695 -1.899175,-9.2494848 -8.930408,-17.1346295 -17.795474,-20.3010775 -3.288045,-1.194701 -6.799887,-1.776454 -10.298601,-1.654439 z" /><g
         id="g6478"
         transform="matrix(1.6673427,0,0,1.6673427,-26.411625,-75.015464)"
         style="fill:#ffffff"><path
           id="path3329"
           style="fill:#ffffff;stroke-width:1.24286;stop-color:#000000"
           d="m 27.742493,51.199989 c -0.05381,3.76e-4 -0.109326,0.0013 -0.166398,0.0028 -1.763973,0.04488 -2.263677,2.027885 -2.266335,2.71348 -0.0027,0.685594 0.503013,2.667496 2.266335,2.712363 1.826307,0.04647 1.952195,-0.473235 2.215885,-0.585934 l -0.63717,-0.854232 c 0,0 -0.26591,0.41761 -1.285193,0.389698 -0.99681,-0.0273 -1.305876,-0.950666 -1.295528,-1.662454 0.01035,-0.711787 0.298718,-1.635154 1.295528,-1.662454 1.019283,-0.02791 1.285193,0.389144 1.285193,0.389144 l 0.63717,-0.854231 c -0.255449,-0.109177 -0.381472,-0.599826 -2.049487,-0.588151 z"
           sodipodi:nodetypes="sczsccszsccs" /><circle
           id="path3497"
           style="fill:#ffffff;stroke:#000000;stroke-width:0.264583"
           cx="36.32653"
           cy="51.266338"
           r="0.012354692" /><path
           style="fill:#ffffff;stroke-width:1.2;stop-color:#000000"
           d="m 36.33144,56.622632 v -5.33704 h 0.874522 l 0.196464,0.466383 c 0,0 0.467773,-0.555072 1.685035,-0.629899 1.217261,-0.07483 1.738071,1.239401 1.726064,1.7779 l 0.0051,3.697383 h -1.1225 v -3.416848 c -0.0085,-0.305197 -0.443088,-0.937492 -0.943358,-0.955069 -0.500271,-0.01758 -1.269871,0.384336 -1.269871,0.384336 v 3.98838 z"
           id="path3501"
           sodipodi:nodetypes="cccczcccczccc" /><path
           style="fill:#ffffff;stroke-width:1.2;stop-color:#000000"
           d="m 41.833982,51.199788 h 0.589288 v -0.967487 l 1.133814,-0.60285 v 1.578454 h 1.467563 v 0.982192 h -1.475681 v 2.443985 c 0.14517,0.986626 0.699526,1.234034 1.684057,0.704307 v 1.025822 c -0.390302,0.177752 -0.751149,0.338083 -1.50673,0.287213 -0.755581,-0.05087 -1.33132,-0.869546 -1.358009,-1.935856 v -2.538402 h -0.524642 z"
           id="path3503"
           sodipodi:nodetypes="ccccccccccczcccc" /><path
           id="path3509"
           style="fill:#ffffff;stroke-width:1.2;stop-color:#000000"
           d="m 33.070333,51.128662 c -0.01904,-4.3e-5 -0.03854,2.52e-4 -0.05788,5.17e-4 -2.101591,0.02884 -2.58461,1.651663 -2.589506,2.460315 0,0 -0.02161,0.593211 -0.01705,0.889868 0.01737,1.130371 1.534105,2.133879 2.39882,2.153357 0.798104,0.002 1.38061,-0.195461 2.033468,-0.419613 l -0.49351,-0.965315 c -1.532679,0.674865 -2.416171,0.310279 -2.725932,-0.973584 h 3.860229 c 0.01396,-0.666973 0.009,-3.140119 -2.408639,-3.145545 z m -0.125574,0.997355 c 1.032214,0.0039 1.301814,1.06793 1.307414,1.213363 h -2.656686 c -0.02519,-0.225963 0.317058,-1.217263 1.349272,-1.213363 z" /><path
           style="fill:#ffffff;stroke-width:1.2;stop-color:#000000"
           d="m 49.049892,56.622632 v -5.33704 h 0.874522 l 0.196464,0.466383 c 0,0 0.467773,-0.555072 1.685035,-0.629899 1.217261,-0.07483 1.738071,1.239401 1.726064,1.7779 l 0.0051,3.697383 h -1.1225 v -3.416848 c -0.0085,-0.305197 -0.443088,-0.937492 -0.943358,-0.955069 -0.500271,-0.01758 -1.269871,0.384336 -1.269871,0.384336 v 3.98838 z"
           id="path3575"
           sodipodi:nodetypes="cccczcccczccc" /><path
           id="path3577"
           style="fill:#ffffff;stroke-width:1.2;stop-color:#000000"
           d="m 57.416833,51.128662 c -0.01904,-4.3e-5 -0.03854,2.52e-4 -0.05788,5.17e-4 -2.101591,0.02884 -2.58461,1.651663 -2.589506,2.460315 0,0 -0.02161,0.593211 -0.01705,0.889868 0.01737,1.130371 1.534105,2.133879 2.39882,2.153357 0.798104,0.002 1.38061,-0.195461 2.033468,-0.419613 l -0.49351,-0.965315 c -1.532679,0.674865 -2.416171,0.310279 -2.725932,-0.973584 h 3.860229 c 0.01396,-0.666973 0.009,-3.140119 -2.408639,-3.145545 z m -0.125574,0.997355 c 1.032214,0.0039 1.301814,1.06793 1.307414,1.213363 h -2.656686 c -0.02519,-0.225963 0.317058,-1.217263 1.349272,-1.213363 z" /><circle
           id="path3628"
           style="fill:#ffffff;stroke:#000000;stroke-width:0.264583"
           cx="45.808002"
           cy="51.219494"
           r="0.0087360861" /><path
           style="fill:#ffffff;fill-opacity:1;stroke-width:1.2;stop-color:#000000"
           d="m 45.810143,52.201161 h 0.620159 v 4.439185 h 1.170501 v -5.438402 h -1.801661 z"
           id="path3684" /><path
           id="path3738"
           style="fill:#ffffff;fill-opacity:1;fill-rule:evenodd;stroke-width:0.264583"
           d="m 47.875123,49.883125 a 0.75764167,0.75764167 0 0 1 -0.757642,0.757642 0.75764167,0.75764167 0 0 1 -0.757641,-0.757642 0.75764167,0.75764167 0 0 1 0.757641,-0.757641 0.75764167,0.75764167 0 0 1 0.757642,0.757641 z" /><path
           style="fill:#ffffff;fill-opacity:1;stroke-width:1.2;stop-color:#000000"
           d="m 60.838447,49.445261 1.098682,-0.391424 v 6.126114 c 0.0045,0.493757 0.189752,0.830173 0.567143,0.848162 -0.240176,0.344802 -0.493086,0.604143 -0.978159,0.599832 -0.485073,-0.0043 -0.674501,-0.805747 -0.710822,-1.437144 z"
           id="path5892"
           sodipodi:nodetypes="cccczcc" /><path
           id="path5894"
           style="fill:#ffffff;fill-opacity:1;stroke-width:1.2;stop-color:#000000"
           d="m 65.833544,51.151917 c -0.905451,0.01872 -1.578553,0.109041 -2.018998,0.270267 l 0.248047,0.882117 c 0.392098,-0.056 0.537325,-0.138418 1.278475,-0.157096 0.648223,0.08109 0.995304,0.364219 0.922424,0.929659 l -0.997872,0.01499 c -1.971347,0.213603 -2.085024,1.104743 -2.083077,1.919779 -0.01748,0.798499 0.939184,1.950143 2.69596,1.314132 l 0.580843,-0.395842 0.165881,0.232544 c 0.452126,0.449255 0.786198,0.379826 1.180807,0.389124 l -0.0088,-0.579293 C 67.55797,55.924158 67.489583,55.785897 67.488209,55.61263 l 0.06976,-2.114599 c 0.01704,-0.980193 -0.469974,-2.005155 -1.724443,-2.34611 z m -0.130741,2.705261 c 0.190578,1.17e-4 0.382562,0.0055 0.566374,0.0093 l -0.0041,0.691431 c 0.0047,0.444337 -0.166421,0.93486 -0.714169,1.097091 -0.646356,0.08392 -1.424379,-0.116524 -1.429167,-0.638204 l 0.0031,-0.299723 c 0.0071,-0.689553 0.752158,-0.860405 1.577996,-0.859896 z"
           sodipodi:nodetypes="cccccccccccccccccccccscc" /></g></g></g></svg>
