<?xml version="1.0" encoding="UTF-8" standalone="no"?>
<!-- Created with Inkscape (http://www.inkscape.org/) -->

<svg
   width="512"
   height="512"
   viewBox="0 0 135.46667 135.46667"
   version="1.1"
   id="svg5"
   xml:space="preserve"
   inkscape:version="1.2.2 (b0a8486541, 2022-12-01)"
   sodipodi:docname="cibercentro-logo.svg"
   inkscape:export-filename="cibercentro-logo.png"
   inkscape:export-xdpi="96"
   inkscape:export-ydpi="96"
   xmlns:inkscape="http://www.inkscape.org/namespaces/inkscape"
   xmlns:sodipodi="http://sodipodi.sourceforge.net/DTD/sodipodi-0.dtd"
   xmlns="http://www.w3.org/2000/svg"
   xmlns:svg="http://www.w3.org/2000/svg"><sodipodi:namedview
     id="namedview7"
     pagecolor="#ffffff"
     bordercolor="#000000"
     borderopacity="0.25"
     inkscape:showpageshadow="2"
     inkscape:pageopacity="0.0"
     inkscape:pagecheckerboard="0"
     inkscape:deskcolor="#d1d1d1"
     inkscape:document-units="mm"
     showgrid="false"
     showguides="true"
     inkscape:zoom="1.0431611"
     inkscape:cx="203.22844"
     inkscape:cy="360.44289"
     inkscape:window-width="1920"
     inkscape:window-height="1008"
     inkscape:window-x="0"
     inkscape:window-y="96"
     inkscape:window-maximized="1"
     inkscape:current-layer="layer1"><sodipodi:guide
       position="-17.307065,10.99928"
       orientation="0,-1"
       id="guide434"
       inkscape:locked="false" /><sodipodi:guide
       position="-15.379077,24.18135"
       orientation="0,-1"
       id="guide436"
       inkscape:locked="false" /><sodipodi:guide
       position="1.4901123,20.80729"
       orientation="0,-1"
       id="guide10328"
       inkscape:locked="false" /></sodipodi:namedview><defs
     id="defs2" /><g
     inkscape:label="Capa 1"
     inkscape:groupmode="layer"
     id="layer1"><path
       id="path456"
       style="fill:#f2f2f2;fill-opacity:1;stroke:none;stroke-width:3.06559;stop-color:#000000"
       d="M 53.967765,5.0596395 C 47.272916,5.1630695 40.951254,6.7609304 35.505843,10.154419 6.4636489,28.253025 10.208142,84.606939 26.857275,99.755668 61.744089,127.36407 121.43625,91.075168 121.11509,63.366158 118.99961,32.22282 82.978778,4.6114428 53.967765,5.0596395 Z M 90.770739,60.668832 C 85.886504,72.890939 63.16275,85.845747 52.956379,80.078442 43.051338,72.227432 40.853279,45.55129 52.322899,35.8912 64.033831,28.699311 94.57648,47.667727 90.770739,60.668832 Z"
       sodipodi:nodetypes="ssccscccc" /><path
       id="path401"
       style="fill:#f2f2f2;stroke-width:0.20604"
       d="m 17.316406,109.13701 c 0,6.02343 0,12.04687 0,18.07031 1.736328,0 3.472656,0 5.208985,0 0,-4.53255 0,-9.0651 0,-13.59766 0.468375,-0.10975 0.0724,-1.08384 0.205078,-1.52929 0,-1.15756 0,-2.31511 0,-3.47266 -1.804688,0 -3.609375,0 -5.414063,0 0,0.17643 0,0.35286 0,0.5293 z m 6.59375,0 c 0,6.02343 0,12.04687 0,18.07031 1.714844,0 3.429688,0 5.144532,0 -0.08957,-0.82185 0.287738,-0.59126 0.809375,-0.31386 2.55491,1.03612 5.721026,-0.027 7.161877,-2.37341 1.26701,-1.94156 1.303732,-4.42228 0.931091,-6.63695 -0.517655,-2.46072 -2.556641,-4.62454 -5.120527,-4.88881 -1.257114,-0.19009 -2.594641,-0.0165 -3.707598,0.61928 -0.02133,-1.66851 -0.0067,-3.33725 -0.0098,-5.00586 -1.736328,0 -3.472657,0 -5.208985,0 0,0.17643 0,0.35286 0,0.5293 z m 79.326174,0.92773 c -0.0236,1.01159 0.0477,2.11287 -0.0352,3.06836 -0.83851,-0.036 -1.67674,0.59397 -1.61292,1.48424 -0.16151,0.91532 0.33453,2.13457 1.41761,2.07045 0.5647,-0.22123 0.0615,0.64517 0.2368,0.88863 0.0548,2.4888 -0.19341,5.01859 0.30115,7.47366 0.50746,1.57661 2.30291,2.24702 3.83685,2.13828 1.12931,0.0979 2.65584,-0.11117 3.01136,-1.39128 0.36832,-0.88483 -0.0122,-2.296 -1.14007,-2.28507 -0.76339,0.0317 -1.64782,0.60167 -2.28711,-0.0762 -0.22788,-0.88345 -0.10703,-1.86004 -0.16307,-2.77966 -0.0172,-1.31884 3.8e-4,-2.63777 -0.007,-3.95666 1.23633,0 2.47266,0 3.70899,0 0,-1.1862 0,-2.3724 0,-3.5586 -1.23633,0 -2.47266,0 -3.70899,0 0,-1.20182 0,-2.40364 0,-3.60547 -1.1862,0 -2.37239,0 -3.55859,0 0,0.17644 0,0.35287 0,0.5293 z m -43.031252,2.72266 c -0.881798,0.0623 -1.749809,0.38178 -2.457031,0.91406 -0.212892,-0.7324 -1.221766,-0.57323 -1.836307,-0.54483 -1.118725,-0.0362 -2.240888,-0.006 -3.360959,-0.0157 0,4.68881 0,9.37761 0,14.06641 1.710287,0 3.420573,0 5.13086,0 0.171875,-2.49321 -0.0833,-5.03686 0.437529,-7.49129 0.457298,-1.08814 1.729294,-1.40715 2.789033,-1.49699 0.900226,-0.33404 0.466238,-1.40245 0.55378,-2.1077 -0.06326,-1.04373 0.273662,-2.39388 -0.649483,-3.14816 -0.182766,-0.11481 -0.392445,-0.17298 -0.607422,-0.17578 z m 59.312502,0.0156 c -1.45062,0.18325 -2.95397,0.5572 -4.07813,1.55274 -0.12553,-0.46406 0.27203,-1.47152 -0.54687,-1.21485 -1.06966,0 -2.13932,0 -3.20899,0 0.052,4.37488 -0.12697,8.76369 0.16407,13.12891 0.31261,1.06374 1.62334,0.901 2.48671,0.97747 0.8393,0.10223 1.30286,-0.79397 1.09105,-1.51686 0.11961,-2.17317 -0.0896,-4.38727 0.33435,-6.52897 0.54867,-1.46922 2.03443,-2.32018 3.50976,-2.5918 1.10836,-0.48939 0.91611,-1.85855 0.92692,-2.84433 0.0737,-0.4603 -0.13704,-0.99435 -0.67887,-0.96231 z m -74.728518,0.084 c -3.272487,0.10272 -6.074459,2.99532 -6.314002,6.22045 -0.362948,2.57646 0.54365,5.43592 2.768498,6.92992 1.981282,1.48176 4.718937,1.64923 6.985724,0.78596 1.117864,-0.456 2.098751,-1.23746 2.909163,-2.112 0.449862,-0.58593 -0.08078,-1.2342 -0.581549,-1.55078 -0.175498,-0.27604 -1.054702,-0.86326 -0.69088,-0.8966 0.678776,0 1.357552,0 2.036328,0 -0.112866,-2.51915 -0.16024,-5.33712 -1.959115,-7.31684 C 48.68598,113.4849 46.7,112.73266 44.789062,112.88701 Z m -34.144531,0.006 c -3.5435034,0.156 -6.6462015,3.3261 -6.6573419,6.88743 -0.4052461,4.73266 4.5866822,8.82119 9.1312509,7.28934 1.674529,-0.36844 2.852797,-1.67828 4.104216,-2.74318 -1.042302,-1.13082 -2.087003,-2.25943 -3.128906,-3.39063 -1.060939,0.6994 -2.24354,1.9534 -3.632812,1.38477 -1.6097697,-0.75033 -1.6700759,-3.23635 -0.304688,-4.26367 0.754683,-0.66462 1.906242,-0.18582 2.597304,0.36114 0.438877,0.20603 0.921308,1.00726 1.317652,0.77332 1.062213,-1.18022 2.123064,-2.36168 3.186606,-3.54071 -1.427887,-1.2869 -3.049024,-2.59951 -5.055385,-2.70808 -0.51621,-0.068 -1.038301,-0.0806 -1.557896,-0.0497 z m 57.669922,0.0566 c -3.454082,0.0567 -6.440143,3.07434 -6.689015,6.47932 -0.387034,3.38172 1.881665,6.9529 5.254151,7.73712 2.411363,0.64597 5.083464,-0.24421 6.737599,-2.08363 0.611153,-0.36199 0.90945,-1.3147 0.226562,-1.76563 -0.669135,-0.39477 -1.082921,-1.55756 -2.039062,-1.18554 -1.067477,1.06612 -2.593256,2.13473 -4.168518,1.54875 -2.144981,-0.69192 -2.95737,-3.46172 -1.966788,-5.37711 0.686597,-1.5646 2.721668,-2.38342 4.240774,-1.50953 0.849016,0.44968 1.543245,1.12521 2.292969,1.71484 0.795866,-0.8558 1.592862,-1.71055 2.388672,-2.56641 -1.487607,-1.44175 -3.240008,-2.9078 -5.416098,-2.97569 -0.285859,-0.0264 -0.574625,-0.013 -0.861246,-0.0165 z m 12.294922,0.0156 c -2.747925,0.0311 -5.206612,2.09537 -5.943039,4.7048 -0.991799,2.84509 -0.141259,6.34226 2.229657,8.25419 1.814912,1.51301 4.4232,1.84051 6.601864,0.98422 1.474419,-0.53499 2.696264,-1.55866 3.826362,-2.61704 -0.880204,-0.63417 -1.377839,-1.93349 -2.597657,-1.98047 -1.048424,0.30263 -1.679299,1.39236 -2.821353,1.48875 -1.551107,0.301 -3.353404,-0.59621 -3.789975,-2.17039 3.082476,0.08 6.168241,0.0828 9.251954,0.13477 -0.169265,-2.45183 -0.342053,-5.20378 -2.209094,-7.03194 -1.165444,-1.21235 -2.877373,-1.84324 -4.548719,-1.76689 z m 14.019531,0.0176 c -0.875972,0.0567 -1.734927,0.35103 -2.46289,0.8418 -0.05419,-0.76969 -0.91844,-0.76608 -1.489844,-0.6836 -0.758594,0 -1.517188,0 -2.275781,0 0,4.68881 0,9.37761 0,14.06641 1.254557,0 2.509114,0 3.763671,0 0.06454,-2.9814 -0.14002,-6.0167 0.154297,-8.94531 0.227765,-1.04432 1.220916,-1.80534 2.289685,-1.73993 1.141053,-0.22413 2.152015,0.73981 2.227894,1.84735 0.260286,2.93596 0.187183,5.89238 0.27539,8.83789 1.184896,0 2.369792,0 3.554692,0 -0.11392,-3.41599 0.0303,-6.84908 -0.28923,-10.25276 -0.450638,-2.37677 -2.802248,-4.13341 -5.202962,-3.98552 -0.18164,0.005 -0.363281,0.009 -0.544922,0.0137 z m 31.537114,0.01 c -3.04186,0.23482 -5.73195,2.73504 -6.09668,5.78183 -0.40004,1.88384 -0.0635,3.91218 1.04858,5.50036 1.71524,2.73649 5.50156,3.84846 8.43574,2.50638 2.66653,-1.09201 4.46941,-3.91298 4.34299,-6.7928 0.003,-3.39161 -2.69736,-6.63226 -6.12446,-6.96584 -0.53255,-0.0695 -1.07109,-0.0635 -1.60617,-0.0299 z m -45.208989,3.3125 c 1.16741,0.10895 2.050084,1.12002 2.371094,2.19335 -1.727214,1e-5 -3.454427,1e-5 -5.181641,0 0.436697,-1.1551 1.48357,-2.2686 2.810547,-2.19335 z m 46.158199,0.13867 c 1.65995,0.0887 3.03278,1.59966 2.98633,3.25781 0.13628,1.13803 -0.0796,2.37219 -0.94858,3.18275 -1.40953,1.56996 -4.25769,1.03939 -5.12921,-0.84938 -0.88524,-1.73047 -0.50383,-4.30086 1.34767,-5.2398 0.53177,-0.28433 1.14283,-0.41271 1.74379,-0.35138 z M 45.287109,117.526 c 0.346786,0.01 1.386677,0.76482 0.725417,0.7422 -0.694843,0.0118 -1.390113,0.0175 -2.084792,-0.004 0.275023,-0.46929 0.804716,-0.80071 1.359375,-0.73828 z m -14.15039,0.21289 c 1.508768,0.10392 2.181367,1.92679 1.725956,3.2118 -0.222368,1.09181 -1.483484,1.90702 -2.522831,1.30382 -1.789425,-0.91097 -1.502477,-4.58489 0.796875,-4.51562 z m 15.761719,4.53711 c -0.781819,0.45498 -1.868843,0.53063 -2.634766,0.01 0.864073,-0.002 1.83984,-0.038 2.634766,-0.01 z" /><g
       id="g75004"
       transform="matrix(0.99943935,0,0,0.99943935,109.80923,-55.846954)"><path
         style="fill:#23a9d3;fill-opacity:1;stroke:none;stroke-width:1;stop-color:#000000"
         d="m -31.132031,135.03728 8.643301,16.03488 3.789028,-2.30713 -11.02863,-14.5877 z"
         id="path18441"
         sodipodi:nodetypes="ccccc" /><path
         style="fill:#199fb2;fill-opacity:1;stroke:none;stroke-width:1;stop-color:#000000"
         d="m -28.275327,133.06342 1.660059,-1.04716 13.668071,13.28448 -4.177729,2.56644 z"
         id="path18443"
         sodipodi:nodetypes="ccccc" /><path
         style="fill:#1ca4b3;fill-opacity:1;stroke:none;stroke-width:1;stop-color:#000000"
         d="m -25.007935,131.13756 2.198378,-1.70575 15.1836113,11.82699 -4.1065813,3.05843 z"
         id="path18445"
         sodipodi:nodetypes="ccccc" /><path
         style="fill:#17a29c;fill-opacity:1;stroke:none;stroke-width:1;stop-color:#000000"
         d="m -21.344438,128.42774 15.0746812,11.77346 5.50693802,-4.18863 -19.05992622,-9.1157 z"
         id="path18447"
         sodipodi:nodetypes="ccccc" /><path
         style="fill:#24aada;fill-opacity:1;stroke:none;stroke-width:1;stop-color:#000000"
         d="m -35.1468,137.16062 2.225882,-1.14715 8.554398,15.88495 -4.300101,2.21505 z"
         id="path18449"
         sodipodi:nodetypes="ccccc" /><path
         style="fill:#64c4ea;fill-opacity:1;stroke:none;stroke-width:1;stop-color:#000000"
         d="m -36.483578,137.78791 -1.899026,0.7837 2.614593,18.03699 5.71876,-1.97555 z"
         id="path18451"
         sodipodi:nodetypes="ccccc" /><path
         style="fill:#059ece;fill-opacity:1;stroke:none;stroke-width:1;stop-color:#000000"
         d="m -42.090469,139.93417 2.119021,-0.73224 2.385372,18.10966 -4.951722,1.36436 z"
         id="path18453"
         sodipodi:nodetypes="ccccc" /><path
         style="fill:#3daac1;fill-opacity:1;stroke:none;stroke-width:1;stop-color:#000000"
         d="m -43.701928,140.63393 -3.454283,1.08546 -1.848096,18.25652 4.782455,-0.86227 z"
         id="path18455"
         sodipodi:nodetypes="ccccc" /><path
         style="fill:#0a9a5a;fill-opacity:1;stroke:none;stroke-width:1;stop-color:#000000"
         d="m -13.232928,114.74223 -0.317047,3.34474 20.5610553,2.41213 -0.3824712,-5.74669 z"
         id="path18457"
         sodipodi:nodetypes="ccccc" /><path
         style="fill:#1ea350;fill-opacity:1;stroke:none;stroke-width:1;stop-color:#000000"
         d="m -13.215771,112.7773 19.6434396,0.17792 -1.7685514,-5.77444 -18.1862002,2.61695 z"
         id="path18459"
         sodipodi:nodetypes="ccccc" /><path
         style="fill:#0c9b40;fill-opacity:1;stroke:none;stroke-width:1;stop-color:#000000"
         d="m -15.750828,105.7727 1.360355,2.71728 18.109688,-3.47277 -2.72264208,-5.065464 z"
         id="path18515"
         sodipodi:nodetypes="ccccc" /><path
         style="fill:#029871;fill-opacity:1;stroke:none;stroke-width:1;stop-color:#000000"
         d="m -14.366594,119.36835 21.0509979,3.42373 -1.7111413,5.54855 -20.6008546,-6.94562 z"
         id="path18517"
         sodipodi:nodetypes="ccccc" /><path
         style="fill:#139f7d;fill-opacity:1;stroke:none;stroke-width:1;stop-color:#000000"
         d="m -18.812356,125.37987 1.968707,-2.4009 20.8362157,7.37527 -3.24110294,4.17609 z"
         id="path18519"
         sodipodi:nodetypes="ccccc" /><path
         style="fill:#32a13f;fill-opacity:1;stroke:none;stroke-width:1;stop-color:#000000"
         d="m -16.745705,104.61257 -1.522363,-2.00193 15.5836889,-8.412736 2.6610191,3.935212 z"
         id="path18521"
         sodipodi:nodetypes="ccccc" /><path
         style="fill:#67a944;fill-opacity:1;stroke:none;stroke-width:1;stop-color:#000000"
         d="m -19.595775,100.97468 -1.74429,-1.3955 14.0678528,-10.863894 2.7843653,3.417101 z"
         id="path18523"
         sodipodi:nodetypes="ccccc" /><path
         style="fill:#8db551;fill-opacity:1;stroke:none;stroke-width:1;stop-color:#000000"
         d="m -24.337857,97.064666 1.110652,1.236578 14.1503614,-11.251582 -3.2171644,-3.29872 z"
         id="path18525"
         sodipodi:nodetypes="ccccc" /><path
         style="fill:#a5b544;fill-opacity:1;stroke:none;stroke-width:1;stop-color:#000000"
         d="m -28.019787,94.815302 1.176371,0.761473 13.09525,-13.017348 -3.499687,-2.851583 z"
         id="path18527"
         sodipodi:nodetypes="ccccc" /><path
         style="fill:#c3c563;fill-opacity:1;stroke:none;stroke-width:1;stop-color:#000000"
         d="m -19.056869,78.208016 -3.72867,-2.519271 -8.563138,17.313198 1.151938,0.608541 z"
         id="path18529"
         sodipodi:nodetypes="ccccc" /><path
         style="fill:#c3b935;fill-opacity:1;stroke:none;stroke-width:1;stop-color:#000000"
         d="m -35.315819,91.152034 1.787182,0.986126 9.326476,-17.460658 -4.65925,-2.327561 z"
         id="path18531"
         sodipodi:nodetypes="ccccc" /><path
         style="fill:#d7b82b;fill-opacity:1;stroke:none;stroke-width:1;stop-color:#000000"
         d="m -36.725164,90.341115 -1.975604,-1.015267 3.432639,-19.914819 4.716974,2.057235 z"
         id="path18533"
         sodipodi:nodetypes="ccccc" /><path
         style="fill:#daad0a;fill-opacity:1;stroke:none;stroke-width:1;stop-color:#000000"
         d="m -37.438118,68.628257 -4.559638,-1.419881 -0.359794,20.309135 2.073751,1.033701 z"
         id="path18535"
         sodipodi:nodetypes="ccccc" /><path
         style="fill:#edb019;fill-opacity:1;stroke:none;stroke-width:1;stop-color:#000000"
         d="m -46.730364,86.11286 2.973901,0.90688 -0.557061,-20.435768 -5.181452,-0.97965 z"
         id="path18537"
         sodipodi:nodetypes="ccccc" /><path
         style="fill:#f6a90e;fill-opacity:1;stroke:none;stroke-width:1;stop-color:#000000"
         d="m -48.378033,86.072984 -3.990165,-20.952466 -5.954123,-0.639302 7.481769,21.636935 z"
         id="path18539"
         sodipodi:nodetypes="ccccc" /><path
         style="fill:#f29804;fill-opacity:1;stroke:none;stroke-width:1;stop-color:#000000"
         d="m -53.237367,85.927183 -7.908892,-21.268231 -5.519924,1.273151 11.309008,20.596568 z"
         id="path18541"
         sodipodi:nodetypes="ccccc" /><path
         style="fill:#f19009;fill-opacity:1;stroke:none;stroke-width:1;stop-color:#000000"
         d="m -57.575428,87.119387 -11.888369,-20.410106 -5.460848,3.357702 15.2433,18.56022 z"
         id="path18543"
         sodipodi:nodetypes="ccccc" /><path
         style="fill:#ef9020;fill-opacity:1;stroke:none;stroke-width:1;stop-color:#000000"
         d="m -61.70468,89.569151 -14.576903,-18.499096 -4.321121,5.075303 17.221527,15.57358 z"
         id="path18545"
         sodipodi:nodetypes="ccccc" /><path
         style="fill:#ef8f3d;fill-opacity:1;stroke:none;stroke-width:1;stop-color:#000000"
         d="m -64.092444,93.532846 -1.420508,2.580944 -18.242026,-12.450971 2.281211,-5.55914 z"
         id="path18547"
         sodipodi:nodetypes="ccccc" /><path
         style="fill:#f0a172;fill-opacity:1;stroke:none;stroke-width:1;stop-color:#000000"
         d="m -84.652434,85.416831 -1.421849,5.388602 18.508712,9.612287 0.947254,-2.557675 z"
         id="path18549"
         sodipodi:nodetypes="ccccc" /><path
         style="fill:#e85b17;fill-opacity:1;stroke:none;stroke-width:1;stop-color:#000000"
         d="m -67.944682,102.33245 -0.403381,2.29008 -20.372453,-6.496627 1.685234,-5.382731 z"
         id="path18551" /><path
         style="fill:#eb7246;fill-opacity:1;stroke:none;stroke-width:1;stop-color:#000000"
         d="m -68.502759,106.37147 -20.516165,-6.17396 -1.026848,5.27666 21.321514,3.35771 z"
         id="path18553"
         sodipodi:nodetypes="ccccc" /><path
         style="fill:#e95e40;fill-opacity:1;stroke:none;stroke-width:1;stop-color:#000000"
         d="m -69.056403,110.53455 -21.435469,-2.19365 -0.557799,4.96319 22.404521,0.23354 z"
         id="path18555"
         sodipodi:nodetypes="ccccc" /><path
         style="fill:#e20e1b;fill-opacity:1;stroke:none;stroke-width:1;stop-color:#000000"
         d="m -91.061908,115.1495 22.47351,-0.0378 0.306512,1.9554 -22.908166,2.91328 z"
         id="path18557"
         sodipodi:nodetypes="ccccc" /><path
         style="fill:#e20d1e;fill-opacity:1;stroke:none;stroke-width:1;stop-color:#000000"
         d="m -67.965597,118.74214 -23.244478,3.79569 0.490881,5.43581 23.17573,-7.09118 z"
         id="path18559"
         sodipodi:nodetypes="ccccc" /><path
         style="fill:#df6059;fill-opacity:1;stroke:none;stroke-width:1;stop-color:#000000"
         d="m -90.483949,129.97491 23.097023,-7.47482 0.417942,2.47688 -22.128302,11.47171 z"
         id="path18561"
         sodipodi:nodetypes="ccccc" /><path
         style="fill:#cb503d;fill-opacity:1;stroke:none;stroke-width:1;stop-color:#000000"
         d="m -86.472706,137.60742 19.63151,-10.72628 0.842779,2.71585 -20.615914,13.83324 -1.808638,-4.666 1.950263,-1.15681"
         id="path18563"
         sodipodi:nodetypes="cccccc" /><path
         style="fill:#b46e5b;fill-opacity:1;stroke:none;stroke-width:1;stop-color:#000000"
         d="m -85.149437,145.76281 19.755443,-14.46507 0.944512,2.69479 -17.095745,16.51112 z"
         id="path18565"
         sodipodi:nodetypes="ccccc" /><path
         style="fill:#bb8576;fill-opacity:1;stroke:none;stroke-width:1;stop-color:#000000"
         d="m -79.843986,152.32341 16.251804,-16.99411 2.152171,2.78556 -13.79319,17.77288 z"
         id="path18567"
         sodipodi:nodetypes="ccccc" /><path
         style="fill:#958279;fill-opacity:1;stroke:none;stroke-width:1;stop-color:#000000"
         d="m -73.038784,156.98414 12.776589,-17.61382 2.164842,0.98319 -9.882976,19.14639 z"
         id="path18569"
         sodipodi:nodetypes="ccccc" /><path
         style="fill:#7b8989;fill-opacity:1;stroke:none;stroke-width:1;stop-color:#000000"
         d="m -56.280142,140.79076 2.689349,0.65228 -6.107816,19.52899 -6.109704,-0.88402 z"
         id="path18571"
         sodipodi:nodetypes="ccccc" /><path
         style="fill:#5f97a4;fill-opacity:1;stroke:none;stroke-width:1;stop-color:#000000"
         d="m -51.745914,141.54105 2.593144,0.0848 -2.300118,18.90641 -5.703324,0.51255 z"
         id="path18573"
         sodipodi:nodetypes="ccccc" /></g><path
       style="fill:#000000;stroke-width:0.20604"
       d="m 9.1463419,126.01693 c -2.1876929,-0.78188 -3.609017,-2.49312 -4.0086796,-4.82634 -0.7349157,-4.29042 2.8012975,-7.8283 7.1281077,-7.1315 1.306439,0.2104 1.953754,0.4923 2.885087,1.25642 l 0.586678,0.48135 -0.964166,1.07239 -0.964168,1.07239 -0.719084,-0.54848 c -0.505415,-0.3855 -1.043549,-0.57538 -1.811037,-0.63903 -1.026529,-0.0851 -1.142787,-0.0446 -1.9405541,0.67612 -1.3652473,1.23342 -1.615346,3.17242 -0.6174513,4.78704 0.8952574,1.44857 2.8760874,1.7847 4.3798264,0.74324 l 0.845159,-0.58534 0.880659,0.95355 0.880659,0.95355 -0.762655,0.66961 c -1.007118,0.88426 -1.892002,1.23325 -3.435013,1.35476 -0.930612,0.0733 -1.5654216,-0.004 -2.3633681,-0.28973 z m 21.5285211,0.0799 c -0.569653,-0.15135 -1.274329,-0.53813 -1.658133,-0.91013 -0.367106,-0.35581 -0.732588,-0.64694 -0.812186,-0.64694 -0.0796,0 -0.14472,0.37087 -0.14472,0.82417 v 0.82415 H 26.51452 24.969217 v -8.24161 -8.24161 h 1.545303 1.545304 v 3.0906 c 0,1.69983 0.0562,3.0906 0.124877,3.0906 0.06868,0 0.309241,-0.23437 0.534577,-0.52085 1.5812,-2.01017 5.519708,-1.72472 7.144173,0.5178 0.991332,1.36848 1.324494,2.65587 1.219744,4.71323 -0.07114,1.3971 -0.207136,2.00707 -0.632108,2.83497 -1.146856,2.23426 -3.431511,3.28859 -5.776224,2.66562 z m 2.273376,-3.23969 c 1.104324,-1.01766 1.435008,-3.12852 0.705247,-4.5018 -1.077551,-2.02776 -3.79169,-2.22137 -4.946501,-0.35284 -1.225154,1.98234 -0.468476,4.7142 1.491391,5.38438 0.98526,0.3369 2.027238,0.13618 2.749863,-0.52974 z m 11.07971,3.35325 c -1.938656,-0.52302 -3.20124,-1.53775 -4.037801,-3.24513 -0.691551,-1.41141 -0.688761,-4.02389 0.006,-5.59146 0.614765,-1.38714 2.130062,-2.77666 3.422669,-3.13856 3.889201,-1.08892 6.979421,1.25787 7.260884,5.51409 l 0.09878,1.49379 H 46.63058 c -2.281356,0 -4.147912,0.0501 -4.147912,0.11126 0,0.45007 0.940003,1.79247 1.434072,2.04795 0.975199,0.50429 2.696215,0.40768 3.594313,-0.2018 0.417476,-0.28329 0.828829,-0.5151 0.914119,-0.5151 0.08529,0 0.503487,0.35681 0.929324,0.79291 l 0.774248,0.7929 -0.740102,0.64981 c -0.407058,0.35742 -1.084345,0.79404 -1.505086,0.9703 -0.909668,0.38107 -2.988182,0.55308 -3.855586,0.31907 z m 3.533073,-7.61718 c -0.166573,-1.04841 -1.31429,-2.08903 -2.304036,-2.08903 -1.130548,0 -1.931397,0.52329 -2.391007,1.56232 -0.222594,0.50321 -0.345524,1.0107 -0.273178,1.12776 0.08055,0.13033 1.092067,0.2004 2.609441,0.18077 l 2.477902,-0.0321 z m 19.30118,7.50433 c -4.396002,-1.37455 -5.667553,-7.16979 -2.294103,-10.45564 2.070968,-2.01717 5.563029,-2.15084 7.700662,-0.29473 l 0.810877,0.70408 -0.489252,0.52461 -0.489253,0.52462 -0.770015,-0.6188 c -2.709832,-2.17768 -6.292666,-0.84867 -7.008553,2.59975 -0.937876,4.51772 3.758364,7.61851 7.175178,4.73755 l 0.684551,-0.57719 0.448672,0.45336 0.448672,0.45335 -0.851412,0.79857 c -1.374081,1.2888 -3.47979,1.74026 -5.366024,1.15047 z m 12.776109,0.11159 c -1.140199,-0.29359 -2.507122,-1.23692 -3.153354,-2.1762 -0.799496,-1.16202 -1.328457,-3.18204 -1.159382,-4.42748 0.438498,-3.23009 2.249948,-5.23412 4.986421,-5.51655 3.063898,-0.31622 5.422899,1.85246 5.765014,5.29991 l 0.132903,1.33926 -4.687466,-0.0591 -4.687468,-0.0591 0.124213,0.76542 c 0.559757,3.44939 4.800155,4.76551 7.467175,2.31765 0.420446,-0.38589 0.433208,-0.3845 0.886119,0.0976 l 0.459532,0.48915 -0.656084,0.55206 c -1.482124,1.24712 -3.75963,1.81987 -5.477623,1.37751 z m 4.872042,-7.18089 c -0.0064,-0.78925 -0.655184,-2.10987 -1.360266,-2.76844 -1.46528,-1.36863 -3.428913,-1.30283 -4.897418,0.16409 -0.677387,0.67665 -1.350038,2.01891 -1.356759,2.70737 l -0.0045,0.46358 h 3.811746 3.811747 z m 40.430667,6.9882 c -1.53041,-0.5462 -2.50924,-1.4113 -3.28737,-2.90538 -0.58628,-1.12572 -0.66938,-1.48228 -0.66761,-2.86458 0.004,-3.38807 2.1525,-5.86946 5.33076,-6.15766 4.32791,-0.39244 7.49763,3.67144 6.23894,7.99888 -0.91816,3.15667 -4.54091,5.0258 -7.61472,3.92874 z m 4.25459,-1.74135 c 0.45727,-0.30262 1.09151,-0.99268 1.40941,-1.53351 0.49613,-0.84401 0.57742,-1.2022 0.57392,-2.52861 -0.006,-2.07725 -0.7525,-3.48914 -2.26237,-4.2761 -2.22341,-1.15885 -4.75905,-0.35518 -5.91591,1.87506 -0.62247,1.19996 -0.63298,3.41872 -0.0216,4.56447 0.94316,1.76766 2.37407,2.62078 4.21908,2.51545 0.84052,-0.048 1.39824,-0.22018 1.9975,-0.61676 z M 18.375927,120.21296 v -5.97517 h 1.545303 1.545302 v 5.97517 5.97517 H 19.92123 18.375927 Z m 35.232899,0 v -5.97517 h 1.545302 1.545304 l 0.01212,1.18472 c 0.01027,1.00345 0.04968,1.12418 0.25755,0.78898 0.573243,-0.92436 1.634654,-1.94106 2.156214,-2.06541 0.308938,-0.0737 0.723961,-0.18211 0.922274,-0.24103 0.323381,-0.0961 0.360571,0.0723 0.360571,1.63178 v 1.7389 l -0.808216,0.12923 c -0.44452,0.0711 -1.096876,0.37214 -1.449683,0.66901 -1.17174,0.98595 -1.323755,1.52074 -1.41332,4.97205 l -0.08154,3.14211 h -1.523287 -1.523288 z m 35.851019,0 v -5.97517 h 0.824162 0.824162 v 1.03382 1.03381 l 0.875671,-0.91065 c 1.029188,-1.0703 2.187204,-1.46401 3.815472,-1.29719 1.40665,0.14411 2.386252,0.76605 3.088704,1.96099 0.563086,0.95787 0.564993,0.97458 0.633433,5.54516 l 0.06865,4.5844 H 98.870455 98.15081 l -0.07014,-4.06929 c -0.07914,-4.59156 -0.260276,-5.28635 -1.615446,-6.19655 -0.6043,-0.40588 -0.92286,-0.47194 -1.966148,-0.40776 -1.518931,0.0934 -2.352295,0.62266 -2.961136,1.88036 -0.389873,0.80538 -0.429765,1.25467 -0.429765,4.8405 v 3.95274 H 90.284002 89.45984 Z m 16.044945,5.62827 c -1.13068,-0.70173 -1.21004,-1.08307 -1.21004,-5.81459 v -4.34657 h -0.82416 c -0.80454,0 -0.82416,-0.0172 -0.82416,-0.72114 0,-0.70397 0.0196,-0.72114 0.82416,-0.72114 h 0.82416 v -1.80286 -1.80285 h 0.72114 0.72115 v 1.80285 1.80286 h 1.85436 1.85436 v 0.72114 0.72114 h -1.85436 -1.85436 v 3.97194 c 0,3.20079 0.0601,4.0578 0.30969,4.41411 0.3648,0.52082 1.56861,0.96547 2.15955,0.79767 0.22843,-0.0648 0.60076,-0.17055 0.8274,-0.23483 0.34718,-0.0985 0.41208,-0.0185 0.41208,0.50785 0,0.40679 -0.13903,0.69915 -0.39854,0.83803 -0.63222,0.33836 -2.92105,0.25203 -3.54243,-0.13361 z m 7.37498,0.20954 c -0.0755,-0.0755 -0.13737,-2.76437 -0.13737,-5.97517 v -5.83781 h 0.8155 0.81549 l 0.0603,1.56216 0.0601,1.56215 0.72115,-1.09804 c 0.7712,-1.1743 1.83048,-1.89435 3.1421,-2.13589 l 0.77266,-0.14229 v 0.82654 c 0,0.82467 -0.002,0.82713 -1.06036,1.08093 -1.23446,0.29614 -2.45168,1.29102 -3.12502,2.55421 -0.39678,0.74435 -0.45474,1.2247 -0.51755,4.2894 l -0.0707,3.45117 h -0.66943 c -0.3682,0 -0.73125,-0.0618 -0.8068,-0.13736 z M 18.375927,111.14714 v -1.44228 h 1.648323 1.648323 v 1.44228 1.44228 H 20.02425 18.375927 Z"
       id="path352"
       sodipodi:nodetypes="cssscccssssscccsscsssscccccccssssssssssssssssscsssssscssssssssscsssscccssscccsscsssscccssscsccsssscccssscssssscssssscccccccccccccsssssccssccccccccccsssscccsssssccccsscssscccccccccccccssssssssscccccsscsssscsssccccccccc" /></g></svg>
