<?xml version="1.0" encoding="UTF-8" standalone="no"?>
<!-- Created with Inkscape (http://www.inkscape.org/) -->

<svg
   width="512"
   height="512"
   viewBox="0 0 135.46666 135.46667"
   version="1.1"
   id="svg5"
   inkscape:version="1.2.2 (b0a8486541, 2022-12-01)"
   xml:space="preserve"
   sodipodi:docname="exos-logo.svg"
   inkscape:export-filename="exos-logo.png"
   inkscape:export-xdpi="96"
   inkscape:export-ydpi="96"
   xmlns:inkscape="http://www.inkscape.org/namespaces/inkscape"
   xmlns:sodipodi="http://sodipodi.sourceforge.net/DTD/sodipodi-0.dtd"
   xmlns="http://www.w3.org/2000/svg"
   xmlns:svg="http://www.w3.org/2000/svg"><sodipodi:namedview
     id="namedview7"
     pagecolor="#ffffff"
     bordercolor="#000000"
     borderopacity="0.25"
     inkscape:showpageshadow="2"
     inkscape:pageopacity="0.0"
     inkscape:pagecheckerboard="0"
     inkscape:deskcolor="#d1d1d1"
     inkscape:document-units="mm"
     showgrid="false"
     inkscape:zoom="0.20214844"
     inkscape:cx="442.74396"
     inkscape:cy="1266.3961"
     inkscape:window-width="1920"
     inkscape:window-height="1008"
     inkscape:window-x="0"
     inkscape:window-y="96"
     inkscape:window-maximized="1"
     inkscape:current-layer="layer1" /><defs
     id="defs2"><filter
       style="color-interpolation-filters:sRGB;"
       inkscape:label="Drop Shadow"
       id="filter20312"
       x="-0.25579013"
       y="-0.16759873"
       width="1.5648699"
       height="1.3701139"><feFlood
         flood-opacity="0.321569"
         flood-color="rgb(0,0,0)"
         result="flood"
         id="feFlood20302" /><feComposite
         in="flood"
         in2="SourceGraphic"
         operator="in"
         result="composite1"
         id="feComposite20304" /><feGaussianBlur
         in="composite1"
         stdDeviation="2"
         result="blur"
         id="feGaussianBlur20306" /><feOffset
         dx="1"
         dy="1"
         result="offset"
         id="feOffset20308" /><feComposite
         in="SourceGraphic"
         in2="offset"
         operator="over"
         result="composite2"
         id="feComposite20310" /></filter></defs><g
     inkscape:label="Capa 1"
     inkscape:groupmode="layer"
     id="layer1"><path
       id="rect7611"
       style="opacity:1;fill:#979b97;fill-opacity:1;stroke:none;stroke-width:0.9525;stop-color:#000000"
       d="m 0.35855837,7.4691318 113.46730163,0 c 9.25447,0 16.70482,6.8713552 16.70482,15.4066272 l 0,91.277431 c 0,8.53527 -7.45035,15.40663 -16.70482,15.40663 l -113.56108604,0 z"
       sodipodi:nodetypes="csssscc" /><path
       style="fill:#f7b048;fill-opacity:1;stroke-width:0.271485"
       d="m 51.305639,61.2255 c -0.805354,-0.805351 -0.819313,-0.865882 -0.725675,-3.146067 0.122709,-2.98781 0.484891,-3.362856 3.24757,-3.362856 2.49379,0 2.956257,0.428931 2.956257,2.74186 v 1.655919 L 54.3403,59.019462 c -2.581799,-0.100211 -2.773988,0.0012 -2.162191,1.144646 0.239323,0.447169 0.581852,0.525119 2.307618,0.525119 1.980695,0 2.026583,0.01537 2.026583,0.678706 0,0.667934 -0.0348,0.678706 -2.192759,0.678706 -2.078394,0 -2.235588,-0.04288 -3.013912,-0.821151 z m 4.120734,-4.33704 c 0,-0.812667 -0.0036,-0.814459 -1.597241,-0.814459 -1.411436,0 -1.615198,0.06866 -1.751558,0.590089 -0.236079,0.902776 -0.0088,1.038818 1.735916,1.038818 1.611099,0 1.612883,-7.17e-4 1.612883,-0.814448 z m 3.167318,4.97721 c -0.334501,-0.334498 -0.204207,-6.474305 0.144782,-6.823309 0.199931,-0.199925 1.177986,-0.325784 2.531786,-0.325784 1.954875,0 2.273183,0.07155 2.796276,0.628335 0.533436,0.567827 0.590296,0.920842 0.590296,3.665049 v 3.03669 h -0.669523 c -0.665413,0 -0.670004,-0.01791 -0.746589,-2.918448 l -0.07705,-2.918449 -1.696774,-0.08079 -1.696782,-0.08079 v 2.999276 c 0,2.727401 -0.04512,2.999276 -0.497718,2.999276 -0.273751,0 -0.579173,-0.08149 -0.678705,-0.18098 z M 73.10272,61.667803 c -1.167822,-0.647279 -1.367387,-1.405391 -1.377679,-5.233609 -0.0094,-3.458096 0.01367,-3.603951 0.693223,-4.411621 l 0.702842,-0.835283 h 2.962193 2.962195 v 0.669215 c 0,0.662738 -0.02693,0.669962 -2.782711,0.746582 l -2.782712,0.07732 -0.07621,3.662587 c -0.09243,4.442601 -0.164522,4.346205 3.250162,4.346205 2.369915,0 2.391472,0.0069 2.391472,0.678706 0,0.678209 -0.0022,0.678706 -2.646967,0.66909 -1.672573,-0.0058 -2.885824,-0.142006 -3.295806,-0.369232 z m 7.822276,-0.414714 c -0.541608,-0.541612 -0.793572,-1.065413 -0.793572,-1.649792 0,-0.584367 0.251964,-1.10818 0.793572,-1.649781 0.687378,-0.687375 0.996173,-0.793585 2.307617,-0.793585 1.321257,0 1.514047,-0.0675 1.514047,-0.530551 0,-0.466102 -0.222657,-0.540318 -1.832517,-0.610847 -1.665068,-0.07293 -1.840448,-0.136088 -1.919274,-0.69112 -0.08331,-0.586609 -0.0065,-0.610836 1.938188,-0.610836 3.026475,0 3.281096,0.283469 3.40036,3.785464 0.06417,1.884357 -0.01029,2.873451 -0.236853,3.146448 -0.236314,0.28474 -0.906977,0.398162 -2.354229,0.398162 -1.874817,0 -2.082175,-0.05837 -2.817339,-0.793562 z m 4.041663,-1.717663 0.08426,-1.018059 h -1.499994 c -1.222155,0 -1.553833,0.100558 -1.790592,0.542965 -0.207494,0.387702 -0.205409,0.702123 0.0073,1.099546 0.251641,0.470193 0.516446,0.543912 1.706327,0.475094 l 1.408463,-0.08149 z m 2.947319,2.330244 c -0.334494,-0.334498 -0.204207,-6.474305 0.144789,-6.823309 0.199924,-0.199925 1.177979,-0.325784 2.531779,-0.325784 1.954875,0 2.27319,0.07155 2.796284,0.628335 0.533435,0.567827 0.590288,0.920842 0.590288,3.665049 v 3.03669 h -0.669523 c -0.665406,0 -0.669997,-0.01791 -0.746582,-2.918448 l -0.07706,-2.918449 -1.696774,-0.08079 -1.696774,-0.08079 v 2.999276 c 0,2.727401 -0.04512,2.999276 -0.497718,2.999276 -0.273752,0 -0.579166,-0.08149 -0.678712,-0.18098 z m 8.60534,-0.13099 c -1.562313,-0.771451 -1.510573,-3.548783 0.07961,-4.273318 0.363851,-0.165782 1.275598,-0.301431 2.026103,-0.301431 1.152953,0 1.350563,-0.07363 1.274337,-0.475082 -0.07155,-0.376722 -0.455125,-0.503205 -1.852422,-0.610848 -1.572059,-0.121097 -1.771574,-0.201647 -1.848969,-0.746588 -0.08331,-0.586609 -0.0065,-0.610836 1.938188,-0.610836 3.079905,0 3.212005,0.172774 3.113865,4.072272 l -0.0786,3.122061 -2.036139,0.05502 c -1.119878,0.03028 -2.297075,-0.07374 -2.616005,-0.231283 z m 3.430454,-2.131383 v -1.08593 h -1.303121 c -1.348645,0 -1.954691,0.336683 -1.954691,1.08593 0,0.749247 0.606046,1.085942 1.954691,1.085942 h 1.303121 z m 3.167318,2.262373 c -0.0995,-0.09952 -0.18099,-1.737462 -0.18099,-3.639805 v -3.458801 l 2.03613,-0.02092 c 1.99303,-0.02046 2.03613,-0.0069 2.03613,0.653474 0,0.615875 -0.10356,0.674406 -1.19262,0.674406 -1.47367,0 -1.52222,0.108996 -1.52222,3.415758 0,2.298424 -0.0504,2.556892 -0.49772,2.556892 -0.27375,0 -0.57917,-0.08149 -0.67871,-0.180992 z m 5.16965,0.01156 c -0.10587,-0.105875 -0.19243,-1.760267 -0.19243,-3.676491 v -3.484045 h 0.82233 0.82233 l -0.0757,3.597166 c -0.0713,3.385441 -0.10842,3.601836 -0.6299,3.67648 -0.30478,0.04358 -0.64073,-0.0069 -0.74657,-0.113156 z m 3.47126,-0.485832 c -0.93714,-0.937128 -0.94237,-2.633605 -0.0104,-3.564977 0.56229,-0.56229 0.9258,-0.666373 2.32752,-0.666373 1.43555,0 1.64884,-0.0645 1.57057,-0.475094 -0.0738,-0.386512 -0.43177,-0.490063 -1.92031,-0.555368 -1.73982,-0.07628 -1.82971,-0.11304 -1.82971,-0.746588 0,-0.646782 0.0583,-0.666304 1.98881,-0.666304 1.73702,0 2.06475,0.08079 2.58869,0.638552 0.55466,0.590412 0.59404,0.861537 0.52242,3.597167 l -0.0774,2.958613 -2.24109,0.07883 c -2.08035,0.07317 -2.28966,0.03028 -2.91845,-0.598503 z m 3.93785,-1.801542 v -1.099488 l -1.56102,0.08149 c -1.49757,0.07813 -1.56469,0.113387 -1.65065,0.866402 -0.11235,0.984702 0.28374,1.241714 1.92213,1.246984 l 1.28954,0.0046 z m 2.89584,2.275919 c -0.0995,-0.09952 -0.18099,-0.404969 -0.18099,-0.678706 0,-0.443447 0.25063,-0.497725 2.29806,-0.497725 2.06601,0 2.32928,-0.05826 2.60713,-0.57749 0.39574,-0.739469 0.25459,-0.82455 -2.39975,-1.446528 -1.15402,-0.27043 -2.18797,-0.628115 -2.29767,-0.794867 -0.39624,-0.602306 -0.20813,-2.067477 0.33519,-2.6108 0.46253,-0.462531 0.90495,-0.542965 2.98633,-0.542965 2.41454,0 2.44336,0.0081 2.44336,0.667737 0,0.648897 -0.063,0.669945 -2.23674,0.746577 -1.81653,0.06403 -2.2527,0.162395 -2.32167,0.52357 -0.0671,0.351466 0.35916,0.542676 2.03313,0.911896 1.16493,0.256965 2.27076,0.591013 2.45741,0.742335 0.3651,0.296021 0.45987,2.323344 0.13159,2.81499 -0.43365,0.64944 -1.47977,0.922969 -3.52992,0.922969 -1.17946,0 -2.22592,-0.08149 -2.32546,-0.180993 z M 108.09431,52.11956 c 0,-0.599923 0.10379,-0.684808 0.74657,-0.610844 0.53455,0.06153 0.77122,0.259383 0.83334,0.696746 0.0738,0.519635 -0.0377,0.610842 -0.74659,0.610842 -0.71365,0 -0.83332,-0.100096 -0.83332,-0.696744 z"
       id="path10848"
       sodipodi:nodetypes="sssscsssssssssssssssscsscccsssssscccsscsssssssssssssssssccssssccssssscsscccsssssssssssccsccsssccssccsssssssscccsssssssssssscsssccsscccsssssssssssssssssssss" /><circle
       style="fill:#f9f9f9;fill-rule:evenodd;stroke-width:0.214773;filter:url(#filter20312)"
       id="path11415"
       cx="69.000221"
       cy="46.600418"
       r="31.066715"
       transform="matrix(0.64707694,0,0,0.64707694,-16.816376,16.87924)" /><path
       d="M 23.052579,68.599808 C 14.094599,67.430989 6.6032098,60.847638 4.2308672,52.0595 3.5683402,49.605231 3.4874772,43.88601 4.0824042,41.559238 6.0595208,33.826656 11.601366,27.845115 19.144481,25.302128 c 2.790069,-0.94061 8.396929,-1.165497 11.552824,-0.463381 2.857505,0.635739 6.936535,2.655484 9.376766,4.642938 7.223049,5.88285 9.878014,16.48376 6.328909,25.270459 -1.191663,2.950263 -2.613519,5.108049 -4.862094,7.378629 -3.545895,3.580599 -8.103382,5.821529 -13.118433,6.450362 -2.707298,0.339461 -2.906,0.340152 -5.369874,0.01865 z M 22.933602,64.70797 c -0.242662,-1.829279 0.166364,-2.18115 1.287191,-1.107332 1.042128,0.998422 1.928623,0.995912 2.718064,-0.0077 0.342686,-0.43566 0.623065,-0.648959 0.623065,-0.474005 0,0.734887 1.612155,2.174155 2.79083,2.491542 2.395164,0.644948 5.025365,-0.836864 5.025365,-2.831209 0,-1.461399 -0.794252,-2.30479 -2.369484,-2.51607 -1.202016,-0.161227 -1.359992,-0.286259 -1.897795,-1.502054 -0.462549,-1.045668 -0.510614,-1.417787 -0.227229,-1.759246 0.234126,-0.282106 0.247728,-0.433058 0.03901,-0.433058 -0.176213,0 -0.509945,0.270633 -0.741628,0.601406 -0.41765,0.596275 -0.425773,0.596401 -0.952536,0.01432 -0.653383,-0.721976 -3.438717,-1.337262 -4.753949,-1.050147 -1.201526,0.262292 -3.193444,1.605464 -4.259166,2.872003 -1.09884,1.3059 -0.977031,2.665851 0.288766,3.223976 0.783706,0.34556 0.908701,0.559357 0.908701,1.554258 0,0.707661 0.218733,1.395285 0.565851,1.778843 0.906817,1.002023 1.170062,0.766176 0.954934,-0.855543 z m 7.484237,-1.28341 c -0.946613,-0.536786 -1.006874,-0.81208 -0.514683,-2.351202 0.451454,-1.411734 0.473231,-1.430459 0.961776,-0.827131 0.274926,0.339519 0.950227,0.767059 1.500671,0.950098 1.473006,0.489814 1.843518,1.271805 0.950005,2.005054 -0.790283,0.648537 -1.985356,0.740581 -2.897769,0.223181 z m -5.561523,-1.139657 c -0.248014,-0.162602 -0.755314,-0.297716 -1.127336,-0.300249 -0.962228,-0.0065 -0.837073,-0.424642 0.312425,-1.043689 1.387098,-0.746999 2.167714,-0.5352 2.167714,0.588152 0,0.955969 -0.565545,1.27193 -1.352803,0.755786 z m 2.705606,-1.256361 c 0,-1.077012 -1.080479,-2.355338 -1.990797,-2.355338 -0.958447,0 -2.175667,0.638615 -3.097039,1.624862 -0.661286,0.707843 -1.525867,1.048406 -1.525867,0.601034 0,-0.417316 1.005966,-1.814627 1.652341,-2.295131 0.38485,-0.286094 1.297694,-0.680098 2.028543,-0.875569 1.157836,-0.309674 1.48036,-0.281433 2.506596,0.219541 1.106412,0.540107 1.176155,0.653084 1.150962,1.864384 -0.02953,1.420086 -0.724739,2.586741 -0.724739,1.216217 z M 41.165245,57.56092 c 0.646385,-1.095544 0.659356,-1.101197 0.861766,-0.375782 l 0.205499,0.736508 0.02997,-0.808971 c 0.01647,-0.444936 -0.09103,-0.883751 -0.238902,-0.975144 -0.147877,-0.09139 -0.320834,-0.711113 -0.384353,-1.377154 -0.08521,-0.893523 -0.01473,-1.172326 0.268869,-1.063503 0.211385,0.08112 0.384346,0.01643 0.384346,-0.143695 0,-0.160154 -0.20292,-0.291188 -0.450934,-0.291188 -0.502516,0 -0.620537,-1.062191 -0.150312,-1.352804 0.165343,-0.102188 0.292049,-0.482191 0.281566,-0.844457 -0.01852,-0.640379 -0.02702,-0.638735 -0.306277,0.05922 -0.278022,0.694881 -0.306299,0.700609 -0.882813,0.178873 -0.327576,-0.296455 -0.611283,-0.822418 -0.630463,-1.168812 -0.03354,-0.605724 -0.04047,-0.606813 -0.181348,-0.02858 -0.223377,0.91691 -1.040911,1.696585 -1.568547,1.495905 -0.376515,-0.143204 -0.395223,-0.103489 -0.09412,0.199835 0.567456,0.571652 0.451025,1.370997 -0.225467,1.547902 -0.330685,0.08648 -0.590564,0.338995 -0.577512,0.561154 0.01786,0.303769 0.06133,0.310747 0.175363,0.02813 0.08339,-0.206681 0.275637,-0.375781 0.4272,-0.375781 0.374588,0 0.351818,2.322378 -0.02504,2.555299 -0.165342,0.102188 -0.300623,0.321074 -0.300623,0.486414 0,0.165341 0.136237,0.216426 0.302745,0.113513 0.166512,-0.102901 0.389995,0.05821 0.496629,0.358045 0.285312,0.802215 1.03796,1.597322 1.512028,1.597322 0.227965,0 0.7098,-0.500529 1.070743,-1.112284 z m -8.192112,-3.43464 c 0,-0.549469 -0.126143,-0.613597 -0.901868,-0.458452 -0.724167,0.144836 -0.900961,0.0782 -0.897265,-0.338201 0.0063,-0.708191 0.307981,-1.071416 1.223061,-1.472495 0.427202,-0.187243 1.577084,-1.254848 2.555296,-2.37246 3.071434,-3.509129 3.837411,-4.189187 4.718444,-4.189187 0.449849,0 0.817904,0.109445 0.817904,0.243206 0,0.133768 0.13528,0.159601 0.300624,0.05742 0.165342,-0.102188 0.300622,-0.72508 0.300622,-1.384205 0,-0.886741 -0.201293,-1.399707 -0.773987,-1.972403 -0.674468,-0.674473 -0.963294,-0.755797 -2.246368,-0.63251 -1.288328,0.123794 -2.200367,0.63372 -7.296021,4.079263 -3.203001,2.165778 -6.825485,4.483855 -8.049965,5.151282 -1.527908,0.83282 -2.008566,1.214837 -1.532182,1.217736 0.962015,0.0059 0.555963,0.534396 -0.953997,1.241766 -0.683793,0.320338 -0.985726,0.507404 -0.670962,0.415708 0.314764,-0.0917 2.411609,-0.23943 4.659655,-0.328291 2.248045,-0.08887 4.454228,-0.279219 4.902628,-0.423011 0.781275,-0.250538 0.807914,-0.224653 0.638823,0.620798 -0.163009,0.815047 -0.109472,0.882244 0.702873,0.882244 0.483627,0 1.025833,-0.146513 1.204903,-0.32558 0.233692,-0.233691 0.441561,-0.194501 0.736526,0.138873 0.536999,0.606928 0.561256,0.600378 0.561256,-0.151494 z M 12.259339,53.126712 c 0.149291,-0.157079 0.269372,-0.49528 0.266839,-0.751558 -0.004,-0.411486 -0.04199,-0.413243 -0.32416,-0.01506 -0.250254,0.353143 -0.291269,0.273622 -0.189132,-0.366682 0.07173,-0.449689 0.01466,-0.746087 -0.126778,-0.658658 -0.305898,0.189051 -0.347233,-0.287532 -0.05066,-0.584107 0.311796,-0.311796 0.332228,-1.393653 0.02271,-1.202359 -0.313428,0.193708 -0.183854,-0.867073 0.135228,-1.107046 0.306166,-0.230261 -0.07869,-1.518674 -0.395214,-1.323055 -0.304579,0.188241 -0.0097,-0.747587 0.404788,-1.284534 0.204553,-0.264995 0.103061,-0.329454 -0.374047,-0.237575 -0.536188,0.103261 -0.590794,0.04901 -0.301505,-0.299559 0.194295,-0.234113 0.263644,-0.570665 0.154113,-0.747895 -0.248867,-0.402665 -0.517611,-1.993684 -0.521296,-3.086106 -0.0017,-0.454693 -0.114501,-0.826715 -0.251035,-0.826715 -0.136534,0 -0.204588,-0.236743 -0.15122,-0.526089 0.245706,-1.332189 -1.0098152,-2.556167 -1.4487452,-1.412349 -0.102665,0.267534 -0.05229,0.388202 0.118149,0.282881 0.236418,-0.146113 0.458849,1.416367 0.246377,1.730713 -0.02797,0.04136 0.120841,0.39586 0.330621,0.787833 0.2374932,0.443772 0.2566662,0.63558 0.05075,0.508351 -0.181834,-0.112384 -0.330613,-0.06905 -0.330613,0.09629 0,0.16534 0.136957,0.385264 0.304341,0.488719 0.1906342,0.117815 0.2018442,0.371257 0.03001,0.678324 -0.163778,0.292655 -0.165156,0.777403 -0.0035,1.202799 0.2453022,0.645187 0.2069262,0.69265 -0.405783,0.501881 -0.654726,-0.203852 -0.652533,-0.190929 0.06761,0.398152 0.7230832,0.591483 1.0121842,1.840541 0.5111272,2.20829 -0.1362202,0.09998 -0.01286,0.416637 0.274218,0.703684 0.439704,0.439704 0.455041,0.565302 0.09737,0.797458 -0.344989,0.223928 -0.283729,0.393023 0.327024,0.902567 0.413358,0.344859 0.537363,0.559681 0.275574,0.477387 -0.359328,-0.112965 -0.475985,0.06437 -0.475985,0.723574 0,0.677668 0.140243,0.877937 0.626298,0.894333 0.616022,0.02077 0.616432,0.02539 0.02504,0.279494 -0.51413,0.220927 -0.525022,0.261424 -0.07516,0.279493 0.55008,0.02208 0.758581,0.922997 0.213613,0.922997 -0.18047,0 -0.148721,0.178001 0.07516,0.421362 0.330493,0.359242 0.403013,0.348162 0.491965,-0.07516 0.05739,-0.273086 0.226485,-0.625031 0.375782,-0.782105 z m 0.722375,0.435899 c 0.102188,-0.165341 0.04257,-0.30062 -0.132569,-0.30062 -0.175103,0 -0.318364,0.135279 -0.318364,0.30062 0,0.165346 0.05966,0.300625 0.13257,0.300625 0.07291,0 0.216175,-0.135279 0.318363,-0.300625 z m 10.005088,-6.710306 c 0.284191,-0.812509 0.651991,-1.513557 0.817334,-1.557876 0.165343,-0.04433 0.86846,-0.234621 1.562483,-0.422885 1.633771,-0.443179 3.097172,-1.887291 3.097172,-3.056347 0,-0.483311 0.1249,-0.878748 0.277557,-0.878748 0.478047,0 2.127426,-1.535676 2.127426,-1.980772 0,-0.695046 -1.33964,-0.486659 -2.104361,0.327349 -0.478621,0.50947 -1.028094,0.751559 -1.705828,0.751559 -0.995053,0 -0.999777,-0.0069 -0.999777,-1.456521 0,-1.074737 0.1576,-1.599154 0.601246,-2.000644 0.644772,-0.583513 0.80567,-1.792222 0.281679,-2.116069 -0.386067,-0.238602 -1.484171,0.694231 -1.484171,1.260794 0,0.222388 -0.256087,0.404342 -0.569082,0.404342 -1.073625,0 -1.246643,1.680313 -0.346037,3.360648 0.52281,0.975447 0.537275,1.139161 0.130489,1.476763 -0.251628,0.208832 -0.650249,0.75242 -0.885825,1.207973 l -0.428318,0.828278 -0.90458,-0.904581 c -0.845657,-0.845656 -0.892295,-1.009108 -0.715982,-2.509258 0.104488,-0.889027 0.04747,-2.009526 -0.127851,-2.512446 -0.281661,-0.807978 -0.236307,-0.960282 0.412565,-1.385438 0.80008,-0.524235 0.981919,-1.36568 0.295128,-1.36568 -0.23864,0 -0.643225,0.298874 -0.899082,0.664158 -0.363799,0.519397 -0.544431,0.584922 -0.828729,0.300626 -0.496934,-0.496935 -1.294922,-0.456598 -1.747159,0.08831 -0.322238,0.388277 -0.443737,0.314376 -0.863523,-0.525204 -0.268686,-0.537386 -0.725261,-1.021198 -1.014611,-1.075142 -0.419428,-0.0782 -0.526089,0.115025 -0.526089,0.953019 0,0.767054 0.243714,1.294814 0.901868,1.952964 0.496028,0.496028 0.901869,1.096132 0.901869,1.333565 0,0.237434 0.377017,1.179139 0.837816,2.092677 l 0.837818,1.660983 -0.627776,0.916179 c -0.462218,0.674565 -0.742626,0.843517 -1.063283,0.640658 -0.23953,-0.151539 -0.798414,-0.277593 -1.241964,-0.280126 -0.887503,-0.0051 -1.323269,0.77204 -1.001473,1.785929 0.245977,0.775007 1.860219,2.117563 2.546078,2.117563 0.320046,0 0.696599,0.373939 0.920235,0.913841 0.208189,0.502617 0.657679,1.109368 0.998866,1.348347 0.557667,0.390604 0.691102,0.368022 1.32075,-0.223495 0.385226,-0.361901 0.93293,-1.322781 1.217122,-2.135295 z M 38.760124,33.680508 c 0.946839,-0.505344 0.560533,-1.063081 -1.817815,-2.624517 -1.729141,-1.135207 -2.813304,-1.621529 -4.133566,-1.854176 -0.984312,-0.173454 -2.809077,-0.528148 -4.055036,-0.788209 -2.390209,-0.498903 -3.495816,-0.452992 -3.371301,0.140003 0.116892,0.556693 -2.060684,0.432641 -2.979809,-0.169745 -0.440161,-0.288479 -1.237395,-0.851892 -1.771629,-1.252036 l -0.971336,-0.727521 0.20096,1.071205 c 0.166621,0.888167 0.06667,1.230795 -0.584922,2.005174 -0.878047,1.0435 -0.89846,1.033373 1.897286,0.941203 1.63005,-0.05375 1.999799,0.04045 2.798927,0.712859 2.490744,2.09582 12.426548,3.806251 14.788241,2.54576 z"
       style="fill:#e44034;fill-opacity:1;stroke-width:0.300623"
       id="path10858" /><path
       d="m 66.858314,34.903029 0.0736,-5.361813 2.460536,-0.07738 c 3.186857,-0.100234 3.468171,0.148489 3.606213,3.188414 0.155462,3.423182 -0.551591,4.245035 -3.47768,4.042317 l -1.367725,-0.09476 1.72e-4,1.832519 c 1.57e-4,1.777835 -0.02027,1.832518 -0.684292,1.832518 H 66.7847 Z m 4.226518,0.243406 c 0.249608,-0.158341 0.328656,-0.809266 0.271487,-2.23559 l -0.08065,-2.012212 -1.56103,-0.08142 -1.561038,-0.08142 v 1.995379 c 0,1.189986 0.131497,2.126881 0.325778,2.321165 0.369731,0.369726 2.073924,0.431271 2.605455,0.0941 z m -19.368366,0.922741 c -0.601869,-0.601865 -0.666372,-0.887401 -0.666372,-2.949714 0,-1.898916 0.09473,-2.403778 0.562672,-2.998665 0.516268,-0.65633 0.726498,-0.715323 2.549025,-0.715323 2.715788,0 3.248529,0.42755 3.25991,2.616279 l 0.0083,1.591725 -2.392475,0.07869 -2.392476,0.07869 0.08486,0.735763 c 0.08322,0.721491 0.125681,0.737304 2.188863,0.815052 2.032176,0.07659 2.104006,0.102072 2.104006,0.746582 0,0.656674 -0.03695,0.667294 -2.319959,0.667294 -2.101184,0 -2.382791,-0.06284 -2.986323,-0.666371 z m 4.170504,-4.423959 c -0.0821,-0.713547 -0.151973,-0.746584 -1.579065,-0.746584 -1.427091,0 -1.496965,0.03302 -1.579064,0.746584 -0.08545,0.742635 -0.07711,0.746581 1.579064,0.746581 1.656166,0 1.664517,-0.0042 1.579065,-0.746581 z m 3.036172,4.411619 c 0,-0.662966 0.0467,-0.678712 2.01392,-0.678712 2.353019,0 2.872789,-0.149303 2.872789,-0.825201 0,-0.525517 -0.104522,-0.571805 -2.443355,-1.082036 -0.821238,-0.179161 -1.768043,-0.498065 -2.104005,-0.708677 -0.782457,-0.490517 -0.804157,-1.680329 -0.0482,-2.641413 0.536774,-0.682401 0.680467,-0.715323 3.122068,-0.715323 2.549032,0 2.559395,0.0025 2.559395,0.67871 0,0.670726 -0.02715,0.678711 -2.307618,0.678711 -2.085979,0 -2.307611,0.04952 -2.307611,0.515718 0,0.422346 0.380911,0.599725 2.103998,0.979772 1.1572,0.255236 2.256717,0.587875 2.443356,0.739204 0.600845,0.487153 0.417523,2.483943 -0.288979,3.147665 -0.550983,0.517619 -0.935338,0.590293 -3.122067,0.590293 -2.478993,0 -2.493733,-0.0042 -2.493733,-0.678711 z m 16.140964,0.01231 c -0.607348,-0.607346 -0.666371,-0.879682 -0.666371,-3.074745 0,-2.166424 0.0631,-2.467676 0.628334,-2.998665 0.524783,-0.493 0.949849,-0.590293 2.579105,-0.590293 2.575066,0 3.036695,0.412703 3.036695,2.714846 v 1.628903 h -2.325645 -2.325646 l 0.08589,0.746583 c 0.08456,0.734887 0.118856,0.747818 2.189909,0.825872 2.032177,0.07659 2.104005,0.102072 2.104005,0.746577 0,0.656675 -0.03695,0.667294 -2.319958,0.667294 -2.101184,0 -2.382792,-0.06284 -2.986324,-0.666372 z m 4.170504,-4.423959 c -0.0821,-0.713541 -0.151973,-0.746578 -1.579071,-0.746578 -1.427084,0 -1.496958,0.03302 -1.579065,0.746578 -0.08544,0.742636 -0.07709,0.746584 1.579065,0.746584 1.656171,0 1.664522,-0.0042 1.579071,-0.746584 z m 3.581096,4.413706 c -1.137146,-1.210431 -1.098558,-5.030579 0.06173,-6.111553 0.463239,-0.431569 0.958135,-0.541897 2.430856,-0.541897 1.781896,0 1.8492,0.02421 1.8492,0.665759 0,0.627049 -0.09865,0.670452 -1.696782,0.746578 l -1.696774,0.08083 -0.08064,2.012206 c -0.09397,2.344532 -2.78e-4,2.457146 2.048908,2.463123 1.338217,0.0042 1.425294,0.0456 1.425294,0.682868 0,0.657669 -0.05745,0.678712 -1.853074,0.678712 -1.62405,0 -1.931613,-0.08361 -2.488712,-0.676626 z m 5.699203,-2.988411 v -3.665039 h 0.814457 0.814449 v 3.665039 3.665036 h -0.814449 -0.814457 z m 3.780232,2.964454 c -0.595997,-0.634412 -0.658164,-0.931552 -0.658164,-3.146055 0,-3.150766 0.312111,-3.483438 3.268182,-3.483438 1.833348,0 2.030651,0.05631 2.561393,0.731056 0.447834,0.569326 0.5573,1.034772 0.494804,2.103998 l -0.08024,1.372952 -2.375486,0.07843 c -2.291389,0.07567 -2.375487,0.101066 -2.375487,0.717539 0,0.81653 0.429872,0.968668 2.737046,0.968668 1.822405,0 1.878183,0.02015 1.878183,0.678711 0,0.672688 -0.02127,0.678712 -2.396034,0.678712 -2.224702,0 -2.443104,-0.05008 -3.054199,-0.700583 z m 4.092808,-4.471166 v -0.827998 l -1.56103,0.08142 c -1.477776,0.07708 -1.565621,0.121241 -1.64694,0.828 -0.08536,0.741847 -0.07546,0.746584 1.561038,0.746584 h 1.646932 z m 2.986331,4.503604 c 0,-0.652981 0.05386,-0.669916 2.37548,-0.746578 2.21066,-0.073 2.38137,-0.119786 2.46028,-0.674264 0.071,-0.498534 -0.10634,-0.645231 -1.08594,-0.898427 -3.876146,-1.001916 -3.605489,-0.845451 -3.698918,-2.138304 -0.137098,-1.897112 0.334665,-2.204358 3.384738,-2.204358 2.51403,0 2.53701,0.006 2.53701,0.667732 0,0.64891 -0.063,0.669953 -2.23675,0.746584 -1.76812,0.06232 -2.25365,0.167497 -2.31751,0.501976 -0.0615,0.322468 0.42211,0.540206 2.03314,0.915295 1.16264,0.270693 2.2666,0.614462 2.45325,0.763926 0.55724,0.446222 0.42199,2.565983 -0.20361,3.191594 -0.46676,0.46676 -0.90494,0.542968 -3.12207,0.542968 -2.559175,0 -2.5791,-0.0052 -2.5791,-0.668144 z M 88.695904,27.595578 c -0.09954,-0.09954 -0.180995,-0.466049 -0.180995,-0.814454 0,-0.522859 0.142212,-0.633459 0.814457,-0.633459 0.723955,0 0.814449,0.09049 0.814449,0.814449 0,0.672245 -0.110602,0.814454 -0.633463,0.814454 -0.348402,0 -0.714909,-0.08145 -0.814448,-0.18099 z"
       style="fill:#000000;stroke-width:0.271485"
       id="path11427" /><path
       d="m 51.791153,49.679015 c -0.09954,-0.09954 -0.180988,-1.748806 -0.180988,-3.665035 v -3.484042 h 0.81445 0.814457 v 3.665029 c 0,3.658576 -7.17e-4,3.665043 -0.633469,3.665043 -0.348402,0 -0.714911,-0.08145 -0.81445,-0.180995 z m 3.136815,-3.416173 0.07574,-3.59716 2.377234,-0.07847 c 2.22428,-0.07342 2.420787,-0.03495 3.054199,0.598497 0.640396,0.640402 0.676965,0.839904 0.676965,3.693663 v 3.016699 l -0.746581,-0.0859 -0.746587,-0.0859 -0.135737,-2.850587 -0.135745,-2.850579 -1.561037,-0.08142 -1.56103,-0.08142 v 2.999867 2.999882 H 55.5388 54.852208 Z m 8.43902,2.94242 -0.761714,-0.65474 -0.09031,-4.774938 -0.09031,-4.774946 h 0.836888 0.836874 v 1.764649 1.764651 h 0.950192 c 0.832556,0 0.950201,0.08403 0.950201,0.678705 0,0.594687 -0.117645,0.678714 -0.950201,0.678714 h -0.950192 v 2.166695 c 0,2.347783 -0.08107,2.23253 1.764649,2.508609 0.322798,0.04827 0.578149,0.327782 0.629723,0.689277 0.07886,0.552773 -0.02471,0.608072 -1.138672,0.608072 -0.903602,0 -1.425464,-0.171948 -1.987148,-0.654748 z m 4.170246,0.473753 c -0.09954,-0.09954 -0.180988,-1.748806 -0.180988,-3.665035 V 42.529938 H 69.547 c 2.116611,0 2.187824,0.0207 2.104005,0.610837 -0.07174,0.505124 -0.298181,0.634336 -1.308428,0.746582 l -1.22168,0.135743 -0.07706,2.918456 c -0.07504,2.841827 -0.09345,2.918454 -0.701337,2.918454 -0.343353,0 -0.705721,-0.08145 -0.805266,-0.180995 z m 5.539882,-0.534331 c -0.472315,-0.600451 -0.561283,-1.0909 -0.554034,-3.054199 0.0089,-2.424861 0.197015,-2.948421 1.263064,-3.516205 1.372214,-0.730847 4.392557,-0.15365 4.803793,0.918012 0.09276,0.241715 0.168647,1.507694 0.168647,2.813301 0,2.130313 -0.06446,2.434389 -0.628341,2.964122 -0.523545,0.491851 -0.95038,0.590295 -2.559395,0.590295 -1.762796,0 -1.980088,-0.06231 -2.493734,-0.715326 z m 4.198363,-1.264245 c 0.08589,-0.342192 0.118757,-1.350069 0.07305,-2.239749 l -0.0831,-1.61759 -1.467464,-0.08352 c -1.761491,-0.100258 -1.916279,0.07413 -1.92193,2.165321 -0.0065,2.271943 0.08744,2.397688 1.78436,2.397688 1.294426,0 1.476559,-0.07019 1.615096,-0.622145 z m 4.013653,1.662232 c -0.911395,-0.448923 -1.245036,-1.605795 -1.128522,-3.913112 0.13709,-2.714849 0.61623,-3.183146 3.123163,-3.052451 l 1.699072,0.08857 0.07781,-1.900395 c 0.07134,-1.741846 0.129241,-1.907688 0.694326,-1.987889 l 0.616524,-0.0875 -0.07356,5.51718 -0.07356,5.517185 -2.171867,0.05487 c -1.194537,0.03016 -2.438062,-0.07624 -2.763395,-0.236479 z m 3.660947,-2.79342 c 0.04569,-0.889679 0.01133,-1.903809 -0.07653,-2.253629 -0.145499,-0.579739 -0.285032,-0.6288 -1.576264,-0.554284 l -1.416642,0.08176 -0.08121,1.873449 c -0.111712,2.577331 -0.06475,2.650478 1.639205,2.552456 l 1.42833,-0.08217 z m 3.754283,2.54808 c -0.698215,-0.549214 -0.715318,-0.636857 -0.715318,-3.665029 v -3.102364 h 0.678713 c 0.678146,0 0.678705,0.0022 0.678705,2.681596 0,3.097602 0.162745,3.368237 1.9482,3.23977 l 1.173874,-0.08447 0.135737,-2.850579 0.135743,-2.85058 0.746582,-0.08591 0.74658,-0.0859 v 3.016698 c 0,2.840933 -0.03882,3.055525 -0.666372,3.68307 -0.568909,0.568903 -0.920914,0.666373 -2.406742,0.666373 -1.349611,0 -1.900981,-0.12634 -2.455702,-0.562679 z m 7.552614,-0.10369 c -0.60409,-0.604082 -0.666373,-0.884387 -0.666373,-2.99867 0,-2.114284 0.06231,-2.394582 0.666373,-2.998657 0.582625,-0.582633 0.909111,-0.666372 2.597978,-0.666372 1.847856,0 1.927846,0.0265 1.844856,0.610837 -0.0764,0.537597 -0.28207,0.627116 -1.715658,0.746581 l -1.628906,0.135744 v 2.171867 2.171874 l 1.628906,0.135743 c 1.433588,0.119465 1.639308,0.208991 1.715658,0.746582 0.083,0.584358 0.003,0.610843 -1.844856,0.610843 -1.688867,0 -2.015353,-0.08375 -2.597978,-0.666372 z m 5.849244,-2.99867 v -3.665029 h 0.67871 0.67871 v 3.665029 3.665042 h -0.67871 -0.67871 z m 3.71458,3.112549 c -0.69801,-0.549064 -0.72826,-0.679151 -0.72826,-3.132245 0,-3.289719 0.27688,-3.645333 2.83819,-3.645333 h 1.75224 l 0.0803,-1.83252 c 0.0732,-1.670345 0.13482,-1.840268 0.69679,-1.920021 l 0.61652,-0.0875 -0.0735,5.51718 -0.0735,5.517185 -2.19019,0.07805 c -1.88859,0.06733 -2.29049,-7.15e-4 -2.91846,-0.494802 z m 3.83008,-3.044674 -0.0788,-2.239742 h -1.49315 -1.49317 l -0.0808,1.856948 c -0.1,2.297963 0.13384,2.622536 1.8897,2.622536 h 1.33516 z m 3.43811,2.930795 c -0.49033,-0.490319 -0.66637,-0.95979 -0.66637,-1.77699 0,-1.727614 0.87701,-2.443354 2.99389,-2.443354 1.43556,0 1.64885,-0.06453 1.57057,-0.4751 -0.0737,-0.386512 -0.43176,-0.490063 -1.9203,-0.555374 -1.73981,-0.07633 -1.82971,-0.113006 -1.82971,-0.746574 0,-0.647306 0.0572,-0.666307 2.00606,-0.666307 3.0051,0 3.26237,0.287997 3.38148,3.785446 0.0641,1.884364 -0.0104,2.873455 -0.23687,3.146454 -0.2395,0.288591 -0.92239,0.398171 -2.48141,0.398171 -1.92177,0 -2.22198,-0.07098 -2.81734,-0.666372 z m 3.94885,-1.77699 v -1.085937 h -1.30312 c -1.34864,0 -1.95469,0.336693 -1.95469,1.085937 0,0.749246 0.60605,1.085937 1.95469,1.085937 h 1.30312 z m 2.76385,1.832519 c 0.0802,-0.565186 0.2571,-0.620987 2.3662,-0.746582 1.7505,-0.104245 2.34676,-0.242968 2.56949,-0.597815 0.39814,-0.6343 0.24996,-0.725968 -2.17844,-1.347771 -1.17014,-0.299621 -2.28025,-0.671314 -2.4669,-0.825995 -0.63229,-0.523996 -0.26077,-2.429482 0.58362,-2.993291 0.16429,-0.109712 1.43726,-0.201328 2.82881,-0.20362 2.46957,-0.0043 2.52803,0.0104 2.44337,0.606683 -0.0809,0.569497 -0.23835,0.61618 -2.32651,0.689692 -1.98807,0.06997 -2.23974,0.136546 -2.23974,0.592316 0,0.419836 0.38368,0.597487 2.10401,0.974186 1.1572,0.253389 2.25671,0.582103 2.44335,0.730466 0.60849,0.483695 0.41186,2.327328 -0.32702,3.066202 -0.6151,0.615091 -0.86721,0.666372 -3.27668,0.666372 -2.55172,0 -2.60838,-0.01367 -2.52356,-0.610843 z M 51.791153,40.720037 c -0.09954,-0.09954 -0.180988,-0.466047 -0.180988,-0.81445 0,-0.522856 0.142205,-0.633462 0.81445,-0.633462 0.723956,0 0.814457,0.09049 0.814457,0.81445 0,0.672252 -0.110602,0.814457 -0.633469,0.814457 -0.348402,0 -0.714911,-0.08145 -0.81445,-0.180995 z m 50.315067,-0.633462 c 0,-0.687759 0.10553,-0.81445 0.67871,-0.81445 0.57313,0 0.67871,0.126691 0.67871,0.81445 0,0.687758 -0.10553,0.814457 -0.67871,0.814457 -0.57313,0 -0.67871,-0.126699 -0.67871,-0.814457 z"
       style="fill:#e22621;fill-opacity:1;stroke-width:0.271485"
       id="path11455" /><path
       d="m 28.796993,94.933544 h -10.09082 v 7.140286 h 12.097182 v 5.11426 H 12.057641 V 78.548254 h 18.765384 v 5.11426 H 18.706173 v 6.15678 h 10.09082 z"
       id="path14659"
       style="font-size:40.2846px;line-height:72.5122px;font-family:Roboto;-inkscape-font-specification:Roboto;text-align:center;text-anchor:middle;fill:#f2f2f2;stroke-width:1.94229;filter:url(#filter20312)"
       transform="matrix(1.0856263,0,0,1.0856263,-0.62144463,-6.2675617)" /><path
       d="m 45.00525,88.206334 4.720852,-9.65808 h 7.671383 l -8.202479,14.2019 8.831926,14.437936 h -8.064788 l -4.878213,-9.854776 -4.878213,9.854776 h -7.671384 l 8.418852,-14.437936 -8.20248,-14.2019 h 7.612373 z"
       id="path14661"
       style="font-size:40.2846px;line-height:72.5122px;font-family:Roboto;-inkscape-font-specification:Roboto;text-align:center;text-anchor:middle;fill:#f2f2f2;stroke-width:1.94229;filter:url(#filter20312)"
       transform="matrix(1.0856263,0,0,1.0856263,-0.62144463,-6.2675617)" /><path
       d="m 83.558872,95.444974 q 0,5.291286 -3.363607,8.733566 -3.343936,3.42262 -8.753245,3.42262 -5.44865,0 -8.831926,-3.42262 -3.383277,-3.44228 -3.383277,-8.733566 v -5.1536 q 0,-5.27162 3.363606,-8.7139 3.383277,-3.44229 8.812256,-3.44229 5.389639,0 8.772916,3.44229 3.383277,3.44228 3.383277,8.7139 z m -6.628862,-5.19294 q 0,-3.06855 -1.455596,-5.03557 -1.435926,-1.96703 -4.071735,-1.96703 -2.694819,0 -4.130745,1.96703 -1.416255,1.94735 -1.416255,5.03557 v 5.19294 q 0,3.10789 1.435926,5.074906 1.455595,1.96703 4.150415,1.96703 2.616138,0 4.052064,-1.96703 1.435926,-1.967016 1.435926,-5.074906 z"
       id="path14663"
       style="font-size:40.2846px;line-height:72.5122px;font-family:Roboto;-inkscape-font-specification:Roboto;text-align:center;text-anchor:middle;fill:#f2f2f2;stroke-width:1.94229;filter:url(#filter20312)"
       transform="matrix(1.0856263,0,0,1.0856263,-0.62144463,-6.2675617)" /><path
       d="m 102.38326,99.595384 q 0,-1.53427 -1.00318,-2.34075 -1.00318,-0.82615 -3.638992,-1.75065 -5.330624,-1.73098 -7.927092,-3.67833 -2.576798,-1.96702 -2.576798,-5.64535 0,-3.59965 3.009543,-5.82239 3.009543,-2.22273 7.651707,-2.22273 4.897892,0 7.887762,2.30141 2.98987,2.28175 2.89152,6.45183 l -0.0393,0.11803 h -6.45183 q 0,-2.02604 -1.10153,-2.93087 -1.101532,-0.9245 -3.324272,-0.9245 -1.80966,0 -2.85218,0.88516 -1.042518,0.88516 -1.042518,2.1834 0,1.25889 1.062188,2.02603 1.08186,0.74747 4.01273,1.88834 4.976562,1.47527 7.533692,3.59965 2.55713,2.12438 2.55713,5.82238 0,3.776676 -2.95054,5.920736 -2.95053,2.12438 -7.828742,2.12438 -4.858538,0 -8.24182,-2.28174 -3.363606,-2.30142 -3.265255,-7.218966 l 0.03934,-0.11802 h 6.471501 q 0,2.498106 1.219554,3.560306 1.23922,1.04252 3.77668,1.04252 2.085042,0 3.107892,-0.82615 1.02285,-0.82615 1.02285,-2.163726 z"
       id="path14665"
       style="font-size:40.2846px;line-height:72.5122px;font-family:Roboto;-inkscape-font-specification:Roboto;text-align:center;text-anchor:middle;fill:#f2f2f2;stroke-width:1.94229;filter:url(#filter20312)"
       transform="matrix(1.0856263,0,0,1.0856263,-0.62144463,-6.2675617)" /></g></svg>
