<?xml version="1.0" encoding="UTF-8" standalone="no"?>
<!-- Created with Inkscape (http://www.inkscape.org/) -->

<svg
   width="512"
   height="512"
   viewBox="0 0 135.46666 135.46667"
   version="1.1"
   id="svg5"
   inkscape:version="1.2.2 (b0a8486541, 2022-12-01)"
   xml:space="preserve"
   sodipodi:docname="inatura-logo.svg"
   xmlns:inkscape="http://www.inkscape.org/namespaces/inkscape"
   xmlns:sodipodi="http://sodipodi.sourceforge.net/DTD/sodipodi-0.dtd"
   xmlns="http://www.w3.org/2000/svg"
   xmlns:svg="http://www.w3.org/2000/svg"><sodipodi:namedview
     id="namedview7"
     pagecolor="#ffffff"
     bordercolor="#000000"
     borderopacity="0.25"
     inkscape:showpageshadow="2"
     inkscape:pageopacity="0.0"
     inkscape:pagecheckerboard="0"
     inkscape:deskcolor="#d1d1d1"
     inkscape:document-units="mm"
     showgrid="false"
     inkscape:zoom="0.80859375"
     inkscape:cx="78.531401"
     inkscape:cy="257.23671"
     inkscape:window-width="1920"
     inkscape:window-height="1008"
     inkscape:window-x="0"
     inkscape:window-y="96"
     inkscape:window-maximized="1"
     inkscape:current-layer="layer1" /><defs
     id="defs2" /><g
     inkscape:label="Capa 1"
     inkscape:groupmode="layer"
     id="layer1"><path
       id="rect7611"
       style="opacity:1;fill:#17908c;fill-opacity:1;stroke:none;stroke-width:0.9525;stop-color:#000000"
       d="m 0.35855837,7.4691318 113.46730163,0 c 9.25447,0 16.70482,6.8713552 16.70482,15.4066272 l 0,91.277431 c 0,8.53527 -7.45035,15.40663 -16.70482,15.40663 l -113.56108604,0 z"
       sodipodi:nodetypes="csssscc" /><g
       id="g10074"><path
         d="M 15.309708,112.55624 H 9.7550903 v -17.7289 h 5.5546177 z m 0,-21.841611 H 9.7550903 v -3.719464 h 5.5546177 z"
         style="font-size:33.5571px;line-height:60.4027px;font-family:Roboto;-inkscape-font-specification:Roboto;text-align:center;text-anchor:middle;fill:#ffffff;stroke:none;stroke-width:5.06527"
         id="path10045" /><path
         d="m 38.920927,112.55624 h -5.521846 l -8.733366,-15.00894 -0.09831,0.03277 v 14.97617 H 19.029171 V 88.699237 h 5.538232 l 8.733366,14.992553 0.09831,-0.0328 V 88.699237 h 5.521846 z"
         style="font-size:33.5571px;line-height:60.4027px;font-family:Roboto;-inkscape-font-specification:Roboto;text-align:center;text-anchor:middle;fill:#ffffff;stroke:none;stroke-width:5.06527"
         id="path10047" /><path
         d="m 52.635424,112.53985 q -0.311321,-0.5571 -0.540715,-1.26167 -0.213009,-0.70457 -0.327706,-1.47467 -0.720953,1.40913 -1.785998,2.26117 -1.048659,0.83565 -2.75273,0.83565 -2.785502,0 -4.342105,-1.42552 -1.540219,-1.44191 -1.540219,-3.91609 0,-2.63803 1.982622,-4.06356 1.982621,-1.4419 6.013405,-1.4419 h 2.277557 v -1.26167 q 0,-1.130586 -0.540715,-1.736843 -0.540714,-0.606256 -1.654915,-0.606256 -0.966733,0 -1.441907,0.458789 -0.458788,0.442403 -0.458788,1.39275 l -5.374379,-0.0164 -0.03277,-0.0983 q -0.114697,-2.425021 2.015392,-4.047166 2.146475,-1.63853 5.65293,-1.63853 3.293445,0 5.325223,1.63853 2.048163,1.63853 2.048163,4.686196 v 6.6852 q 0,1.40914 0.229394,2.62165 0.245779,1.21251 0.720953,2.42503 z m -3.899702,-3.58838 q 1.015889,0 1.785998,-0.47517 0.786495,-0.47518 1.097815,-1.13059 v -2.3431 h -2.228401 q -1.327209,0 -1.91708,0.63903 -0.589871,0.63903 -0.589871,1.62214 0,0.75373 0.507945,1.2289 0.524329,0.45879 1.343594,0.45879 z"
         style="font-size:33.5571px;line-height:60.4027px;font-family:Roboto;-inkscape-font-specification:Roboto;text-align:center;text-anchor:middle;fill:#ffffff;stroke:none;stroke-width:5.06527"
         id="path10049" /><path
         d="m 66.546545,90.419693 v 4.407647 h 2.801887 v 3.83416 h -2.801887 v 8.12711 q 0,0.95035 0.376862,1.37637 0.393247,0.40963 1.048659,0.40963 0.426018,0 0.671798,-0.0328 0.262165,-0.0328 0.655412,-0.13109 l 0.376862,4.09633 q -0.835651,0.21301 -1.507448,0.29494 -0.671797,0.0983 -1.589374,0.0983 -2.736346,0 -4.161867,-1.45829 -1.409136,-1.4583 -1.409136,-4.62066 V 98.6615 h -2.474181 v -3.83416 h 2.474181 v -4.407647 z"
         style="font-size:33.5571px;line-height:60.4027px;font-family:Roboto;-inkscape-font-specification:Roboto;text-align:center;text-anchor:middle;fill:#ffffff;stroke:none;stroke-width:5.06527"
         id="path10051" /><path
         d="m 82.718838,109.90182 q -0.786495,1.4419 -2.048163,2.2284 -1.245283,0.77011 -2.883813,0.77011 -2.752731,0 -4.32572,-1.93347 -1.556604,-1.93346 -1.556604,-5.98063 V 94.82734 h 5.521847 V 105.019 q 0,2.08093 0.52433,2.85104 0.540715,0.77011 1.654915,0.77011 0.884807,0 1.556604,-0.24578 0.671797,-0.24578 1.146971,-0.73734 V 94.82734 h 5.538232 v 17.7289 h -4.456802 z"
         style="font-size:33.5571px;line-height:60.4027px;font-family:Roboto;-inkscape-font-specification:Roboto;text-align:center;text-anchor:middle;fill:#ffffff;stroke:none;stroke-width:5.06527"
         id="path10053" /><path
         d="m 100.69351,99.546307 -1.802384,-0.01639 q -0.950347,0 -1.556604,0.360477 -0.606256,0.344096 -0.901191,0.983126 v 11.68272 H 90.895099 V 94.827336 h 5.210526 l 0.196623,2.605263 q 0.557101,-1.392751 1.474678,-2.16286 0.917576,-0.770109 2.146474,-0.770109 0.37686,0 0.6718,0.04915 0.29493,0.04916 0.62264,0.147468 z"
         style="font-size:33.5571px;line-height:60.4027px;font-family:Roboto;-inkscape-font-specification:Roboto;text-align:center;text-anchor:middle;fill:#ffffff;stroke:none;stroke-width:5.06527"
         id="path10055" /><path
         d="m 112.96611,112.53985 q -0.31133,-0.5571 -0.54072,-1.26167 -0.21301,-0.70457 -0.32771,-1.47467 -0.72095,1.40913 -1.78599,2.26117 -1.04866,0.83565 -2.75273,0.83565 -2.78551,0 -4.34211,-1.42552 -1.54022,-1.44191 -1.54022,-3.91609 0,-2.63803 1.98262,-4.06356 1.98263,-1.4419 6.01341,-1.4419 h 2.27756 v -1.26167 q 0,-1.130586 -0.54072,-1.736843 -0.54071,-0.606256 -1.65491,-0.606256 -0.96674,0 -1.44191,0.458789 -0.45879,0.442403 -0.45879,1.39275 l -5.37438,-0.0164 -0.0328,-0.0983 q -0.1147,-2.425021 2.01539,-4.047166 2.14648,-1.63853 5.65293,-1.63853 3.29345,0 5.32523,1.63853 2.04816,1.63853 2.04816,4.686196 v 6.6852 q 0,1.40914 0.22939,2.62165 0.24578,1.21251 0.72096,2.42503 z m -3.89971,-3.58838 q 1.01589,0 1.786,-0.47517 0.7865,-0.47518 1.09782,-1.13059 v -2.3431 h -2.2284 q -1.32721,0 -1.91709,0.63903 -0.58987,0.63903 -0.58987,1.62214 0,0.75373 0.50795,1.2289 0.52433,0.45879 1.34359,0.45879 z"
         style="font-size:33.5571px;line-height:60.4027px;font-family:Roboto;-inkscape-font-specification:Roboto;text-align:center;text-anchor:middle;fill:#ffffff;stroke:none;stroke-width:5.06527"
         id="path10057" /></g><g
       id="g10043"
       transform="matrix(1.0619091,0,0,1.0619091,-64.374692,-0.9991523)"><path
         style="opacity:1;fill:#ffffff;fill-rule:evenodd;stroke-width:0.985007"
         d="M 151.93519,55.582311 99.833595,67.171832 a 34.666971,34.666971 0 0 0 21.253815,7.286907 34.666971,34.666971 0 0 0 30.84778,-18.876428 z"
         id="path7557" /><path
         style="opacity:1;fill:#ffffff;fill-rule:evenodd;stroke-width:0.985007"
         d="m 142.76928,44.41682 c -5.81012,-0.021 -8.61609,1.096225 -12.4838,2.274898 -4.13931,1.261447 -9.31117,2.487933 -19.35272,1.989532 h -0.0303 L 87.142607,46.764066 a 34.666971,34.666971 0 0 0 9.465345,17.57218 l 1.268077,-0.524511 53.212921,-11.834694 2.87779,-1.213817 a 34.666971,34.666971 0 0 0 0.97868,-3.61934 c -3.24434,-1.919416 -5.68375,-2.277884 -10.97256,-2.708976 -0.41525,-0.01167 -0.81643,-0.01672 -1.20377,-0.01828 z"
         id="path7555" /><path
         style="opacity:1;fill:#ffffff;fill-rule:evenodd;stroke-width:0.985007"
         d="m 149.82106,25.944329 c -1.1059,0.03033 -2.30383,0.375742 -3.67761,1.149506 -4.12783,2.818137 -8.94759,5.079688 -13.01636,6.617703 -2.04322,0.772348 -3.89523,1.355869 -5.40188,1.730289 -0.75333,0.18721 -1.41792,0.32752 -2.01164,0.403933 -0.55286,0.07086 -0.99506,0.135138 -1.63583,-0.0062 -4.47032,-0.691133 -6.40277,-0.950559 -10.50231,-0.97467 -1.96378,0.17741 -3.38528,1.193808 -5.16475,2.415573 -1.7922,1.230515 -4.07713,2.669722 -7.12412,2.339207 l -0.0764,-0.0082 -0.0764,-0.014 c -7.266352,-1.409839 -10.204833,-0.602627 -14.149785,0.02217 -0.201365,0.07618 -0.387331,0.143927 -0.562695,0.204983 a 34.666971,34.666971 0 0 0 0.166793,3.177219 l 24.527507,1.979483 c 9.69125,0.481018 14.10763,-0.614942 18.09066,-1.828759 3.98304,-1.213827 7.73421,-2.637771 14.9255,-2.423611 h 0.0462 l 0.0462,0.0082 c 4.792,0.389524 8.01323,1.211949 11.30215,2.879794 a 34.666971,34.666971 0 0 0 0.22909,-3.826329 34.666971,34.666971 0 0 0 -2.5261,-12.958079 c -1.0968,-0.573157 -2.19701,-0.921412 -3.40833,-0.888252 z"
         id="path7553" /><path
         style="opacity:1;fill:#ffffff;fill-rule:evenodd;stroke-width:0.985007"
         d="m 94.853739,20.689153 c -0.111144,0.0019 -0.226177,0.01283 -0.349687,0.03422 -0.524873,0.09022 -1.194582,0.380759 -1.915174,0.842033 -0.56786,0.363492 -1.151209,0.822627 -1.746365,1.314296 a 34.666971,34.666971 0 0 0 -4.178015,13.032435 c 3.687621,-0.592846 7.611829,-1.413728 15.176702,0.05425 l -0.16076,-0.03033 c 1.76255,0.191177 2.91607,-0.528524 4.6342,-1.708184 1.71814,-1.179661 3.87638,-2.807913 6.98747,-3.068701 h 0.0844 0.0824 c 4.37,0.01945 6.63896,0.317565 11.21171,1.024911 l 0.0904,0.01594 0.0904,0.02217 c -0.27479,-0.07054 -0.003,-0.0029 0.37982,-0.05227 0.38313,-0.04931 0.93909,-0.156372 1.59565,-0.319549 1.31314,-0.326314 3.05413,-0.874232 4.98387,-1.603682 1.0095,-0.381615 2.07253,-0.815558 3.15914,-1.292189 -1.80784,-1.07414 -4.0897,-2.365889 -6.41875,-3.538954 -3.62751,-1.827078 -7.55145,-3.293053 -9.24429,-3.348041 -3.75236,-0.121916 -5.7053,0.729917 -7.51801,1.700146 -1.81273,0.970225 -3.65604,2.333374 -6.38861,2.27088 -5.651528,-0.129266 -8.964799,-4.290088 -9.569844,-5.080341 -0.357971,-0.191799 -0.653272,-0.27502 -0.986726,-0.269304 z"
         id="path7048" /></g></g></svg>
