<?xml version="1.0" encoding="UTF-8" standalone="no"?>
<!-- Created with Inkscape (http://www.inkscape.org/) -->

<svg
   width="512"
   height="512"
   viewBox="0 0 135.46666 135.46667"
   version="1.1"
   id="svg5"
   xml:space="preserve"
   sodipodi:docname="istac-logo.svg"
   inkscape:version="1.2.2 (b0a8486541, 2022-12-01)"
   inkscape:export-filename="istac-logo.png"
   inkscape:export-xdpi="96"
   inkscape:export-ydpi="96"
   xmlns:inkscape="http://www.inkscape.org/namespaces/inkscape"
   xmlns:sodipodi="http://sodipodi.sourceforge.net/DTD/sodipodi-0.dtd"
   xmlns="http://www.w3.org/2000/svg"
   xmlns:svg="http://www.w3.org/2000/svg"><sodipodi:namedview
     id="namedview7"
     pagecolor="#ffffff"
     bordercolor="#000000"
     borderopacity="0.25"
     inkscape:showpageshadow="2"
     inkscape:pageopacity="0.0"
     inkscape:pagecheckerboard="0"
     inkscape:deskcolor="#d1d1d1"
     inkscape:document-units="mm"
     showgrid="false"
     showguides="false"
     inkscape:zoom="0.52787981"
     inkscape:cx="-7.5774824"
     inkscape:cy="125.02846"
     inkscape:window-width="1920"
     inkscape:window-height="1008"
     inkscape:window-x="0"
     inkscape:window-y="0"
     inkscape:window-maximized="1"
     inkscape:current-layer="layer2"><sodipodi:guide
       position="28.619032,85.228304"
       orientation="0,-1"
       id="guide1040"
       inkscape:locked="false" /><sodipodi:guide
       position="36.681979,59.533195"
       orientation="0,-1"
       id="guide1042"
       inkscape:locked="false" /><sodipodi:guide
       position="149.85886,98.177907"
       orientation="0,-1"
       id="guide9550"
       inkscape:locked="false" /></sodipodi:namedview><defs
     id="defs2" /><g
     inkscape:groupmode="layer"
     id="layer2"
     inkscape:label="Logo"><circle
       id="path417"
       style="fill:#000000;stroke:none;stroke-width:0.264583"
       cx="18.396902"
       cy="74.175423"
       r="0.59999996" /><g
       id="g10621"
       transform="matrix(1.1754094,0,0,1.1754094,-12.908702,38.10056)"><g
         id="g10609"><g
           id="path421"
           style="opacity:1;fill:#26242a;fill-opacity:1"
           transform="matrix(-0.98335614,0,0,0.98335614,38.52407,0.02918837)"><path
             style="color:#000000;fill:#26242a;fill-opacity:1;stroke-width:5.2;stroke-linecap:round;stroke-linejoin:round;-inkscape-stroke:none"
             d="M 18.023895,13.968805 V 34.15686"
             id="path10051" /><path
             style="color:#000000;fill:#26242a;fill-opacity:1;stroke-linecap:round;stroke-linejoin:round;-inkscape-stroke:none"
             d="m 18.023437,11.369141 a 2.5999999,2.5999999 0 0 0 -2.599609,2.599609 v 20.1875 a 2.5999999,2.5999999 0 0 0 2.599609,2.601562 2.5999999,2.5999999 0 0 0 2.59961,-2.601562 v -20.1875 a 2.5999999,2.5999999 0 0 0 -2.59961,-2.599609 z"
             id="path10048" /></g><g
           id="path1246"
           transform="matrix(0.98335614,0,0,0.98335614,3.0771542,0.02918837)"><path
             style="color:#000000;fill:#26242a;fill-opacity:1;stroke-linecap:round;stroke-linejoin:round;-inkscape-stroke:none"
             d="m 39.115039,11.070583 c -1.826893,-0.112861 -3.508135,0.14597 -4.970703,0.710938 -2.925136,1.129935 -5.087579,3.538243 -5.197266,6.486328 -0.09411,2.529528 1.158719,4.689174 2.71875,6.109375 1.560032,1.420201 3.43057,2.279728 5.28125,2.666015 1.207814,0.252104 2.412709,0.684822 3.117188,1.203125 0.704479,0.518304 1.003574,0.875334 1.025391,1.976563 0.0077,0.388545 -0.507077,1.330028 -2.125,1.882812 -1.617924,0.552785 -3.989429,0.548745 -6.517579,-0.892578 a 2.5999999,2.5999999 0 0 0 -3.546875,0.970703 2.5999999,2.5999999 0 0 0 0.970704,3.546875 c 3.749724,2.137755 7.679447,2.352691 10.77539,1.294922 3.095944,-1.057768 5.708931,-3.557058 5.642578,-6.90625 -0.05223,-2.636508 -1.459717,-4.824375 -3.142578,-6.0625 -1.682861,-1.238124 -3.548017,-1.77191 -5.136719,-2.103515 -0.945834,-0.197422 -2.103099,-0.749389 -2.841796,-1.421875 -0.738698,-0.672486 -1.054549,-1.28663 -1.025391,-2.070313 0.01358,-0.365123 0.446765,-1.276419 1.875,-1.828125 1.428235,-0.551705 3.738231,-0.687773 6.796875,0.697266 a 2.5999999,2.5999999 0 0 0 3.441406,-1.294922 2.5999999,2.5999999 0 0 0 -1.296875,-3.441406 c -2.044571,-0.925839 -4.016856,-1.410577 -5.84375,-1.523438 z"
             id="path9548" /></g><path
           id="path1248"
           style="color:#000000;fill:#26242a;fill-opacity:1;stroke-width:0.983356;stroke-linecap:round;stroke-linejoin:round;-inkscape-stroke:none"
           d="M 57.013614,1.7537028 A 2.5567259,2.5567259 0 0 0 54.457553,4.3097636 V 27.593806 c -0.02685,2.994117 1.210042,5.739797 3.434168,7.350074 2.224126,1.610276 5.284031,1.941981 8.237328,0.900974 a 2.5567259,2.5567259 0 0 0 1.561585,-3.261392 2.5567259,2.5567259 0 0 0 -3.261392,-1.561586 c -1.684592,0.593801 -2.779108,0.330303 -3.537833,-0.219018 -0.758725,-0.549322 -1.335881,-1.528953 -1.321225,-3.163318 a 2.5569816,2.5569816 0 0 0 0.0021,-0.02286 V 16.421325 h 5.404317 a 2.5567209,2.5567209 0 0 0 2.556549,-2.556061 2.5567209,2.5567209 0 0 0 -2.55657,-2.55657 H 59.572217 V 4.3097636 A 2.5567259,2.5567259 0 0 0 57.014123,1.7537028 Z" /><path
           style="color:#000000;fill:#26242a;fill-opacity:1;stroke-width:0.983356;stroke-linecap:round;stroke-linejoin:round;-inkscape-stroke:none"
           d="m 82.990206,10.36956 c -3.392106,0.05147 -6.381494,1.512051 -7.926389,2.26825 a 2.5567259,2.5567259 0 0 0 -1.171577,3.420619 2.5567259,2.5567259 0 0 0 3.420619,1.171577 c 1.355873,-0.663676 3.962018,-1.720539 5.756092,-1.747762 0.747447,-0.01134 1.833482,0.265287 2.575548,0.825865 0.741695,0.5603 1.285163,1.273277 1.363638,2.869402 3.9e-5,7.97e-4 -3.8e-5,0.0011 0,0.002 l 0.02881,1.669017 c -1.23567,0.01091 -2.024297,-0.0066 -5.477601,0.124839 -2.825082,0.107541 -5.11218,0.667826 -6.816271,2.133807 -1.70409,1.465981 -2.368046,3.658523 -2.433422,5.727281 -0.0856,2.708804 1.552497,4.920928 3.478238,6.242007 1.925741,1.32108 4.240645,2.01078 6.572353,2.039696 4.414283,0.05475 8.462241,-1.814983 8.462241,-1.814983 a 2.5569816,2.5569816 0 0 0 1.536493,-2.389249 l -0.24008,-13.901494 a 2.5569816,2.5569816 0 0 0 -0.002,-0.08067 C 91.972547,15.974666 90.547505,13.603987 88.727008,12.228728 86.90651,10.85347 84.835765,10.341567 82.990124,10.369571 Z m 4.135089,15.589653 0.08834,5.176063 c -1.284328,0.416199 -3.015502,0.890124 -4.79002,0.868119 -1.283362,-0.01591 -2.783531,-0.486288 -3.743283,-1.144688 -0.959752,-0.6584 -1.279415,-1.246255 -1.259925,-1.862999 0.03972,-1.256791 0.251778,-1.662414 0.656851,-2.010885 0.405073,-0.348474 1.460926,-0.81837 3.676061,-0.902691 3.421653,-0.130249 4.188832,-0.112692 5.371968,-0.122919 z"
           id="path2862" /><path
           style="opacity:1;fill:#26242a;fill-opacity:1;stroke:none;stroke-width:5.19999;stroke-linecap:round;stroke-linejoin:round;stroke-dasharray:none;stop-color:#000000"
           d="m 97.663806,20.492261 c -0.301752,1.137649 -0.463529,2.332053 -0.463537,3.56464 -2.31e-4,7.660053 6.209381,13.869903 13.869441,13.869955 4.1205,-3.03e-4 8.02756,-1.832732 10.66239,-5.000729 0.23115,-0.273762 0.80752,-1.877437 -0.24959,-3.068546 -1.05711,-1.191109 -3.09781,-0.324006 -3.29334,-0.03514 -1.73929,2.148183 -4.35544,3.396346 -7.11946,3.396692 -5.06003,-1.19e-4 -9.16188,-4.102208 -9.16172,-9.162232 1e-5,-0.529943 0.0454,-1.049114 0.13178,-1.554427 z"
           id="path10537" /><path
           style="opacity:1;fill:#009cd1;fill-opacity:1;stroke:none;stroke-width:5.19999;stroke-linecap:round;stroke-linejoin:round;stroke-dasharray:none;stop-color:#000000"
           d="m 111.06971,11.108026 c -5.07545,3.4e-5 -9.5131,2.726937 -11.930542,6.794934 l 4.312912,1.983858 c 1.64365,-2.454579 4.44172,-4.070995 7.61763,-4.071069 2.76496,0.0021 5.38108,1.252853 7.11894,3.403409 0.29156,0.346779 2.08615,1.213224 3.23133,0.167432 1.14518,-1.045791 0.76265,-2.73042 0.48162,-3.057178 -2.6292,-3.296525 -6.61529,-5.217967 -10.83189,-5.221386 z"
           id="path10306" /></g></g></g></svg>
