<?xml version="1.0" encoding="UTF-8" standalone="no"?>
<!-- Created with Inkscape (http://www.inkscape.org/) -->

<svg
   width="512"
   height="512"
   viewBox="0 0 135.46666 135.46667"
   version="1.1"
   id="svg5"
   xml:space="preserve"
   inkscape:version="1.2.2 (b0a8486541, 2022-12-01)"
   sodipodi:docname="juriscan-logo.svg"
   xmlns:inkscape="http://www.inkscape.org/namespaces/inkscape"
   xmlns:sodipodi="http://sodipodi.sourceforge.net/DTD/sodipodi-0.dtd"
   xmlns="http://www.w3.org/2000/svg"
   xmlns:svg="http://www.w3.org/2000/svg"><sodipodi:namedview
     id="namedview7"
     pagecolor="#ffffff"
     bordercolor="#000000"
     borderopacity="0.25"
     inkscape:showpageshadow="2"
     inkscape:pageopacity="0.0"
     inkscape:pagecheckerboard="0"
     inkscape:deskcolor="#d1d1d1"
     inkscape:document-units="mm"
     showgrid="false"
     showguides="true"
     inkscape:zoom="0.52787981"
     inkscape:cx="-187.54269"
     inkscape:cy="541.78999"
     inkscape:window-width="1920"
     inkscape:window-height="1008"
     inkscape:window-x="0"
     inkscape:window-y="0"
     inkscape:window-maximized="1"
     inkscape:current-layer="layer1"><sodipodi:guide
       position="63.971955,10.49099"
       orientation="0,-1"
       id="guide6495"
       inkscape:locked="false" /></sodipodi:namedview><defs
     id="defs2"><filter
       inkscape:collect="always"
       style="color-interpolation-filters:sRGB"
       id="filter7076"
       x="-0.020659206"
       y="-0.01416762"
       width="1.0413184"
       height="1.0283352"><feGaussianBlur
         inkscape:collect="always"
         stdDeviation="0.090517966"
         id="feGaussianBlur7078" /></filter></defs><g
     inkscape:label="Layer 1"
     inkscape:groupmode="layer"
     id="layer1"><g
       id="g7869"
       transform="translate(-1.0743983,-1.6373713)"><circle
         style="opacity:0.823846;fill:#cccccc;fill-opacity:1;stroke-width:2.68958;stroke-linecap:round;stroke-linejoin:round;stop-color:#000000"
         id="path7132"
         cx="68.807732"
         cy="69.370705"
         r="58.247326" /><g
         id="g6520"
         transform="matrix(6.7239387,0,0,6.7239387,-302.19318,-762.16018)"
         style="opacity:0.823846;fill:#000000;filter:url(#filter7076)"><circle
           style="opacity:0.8;fill:#000000;fill-opacity:1;stroke-width:0.4;stroke-linecap:round;stroke-linejoin:round;stop-color:#000000"
           id="circle6514"
           cx="56.240215"
           cy="116.99342"
           r="1.2179201" /><path
           id="path6516"
           style="opacity:0.8;fill:#000000;fill-opacity:1;stroke-width:0.4;stroke-linecap:round;stroke-linejoin:round;stop-color:#000000"
           d="m 55.145049,119.1519 v 8.55038 c 0.0062,0.78464 -0.882294,1.37814 -1.704289,1.37873 -0.87875,-5.1e-4 -1.778362,-0.81634 -1.753048,-1.52652 l -0.0011,-0.30438 c 0,0 -0.05145,-0.24084 0.159957,-0.42965 0.211412,-0.18881 0.513634,-0.15376 0.513634,-0.15376 l 2.540298,0.0237 0.03231,-1.74151 -3.788447,0.0109 c -0.83722,0.0427 -1.43658,0.55384 -1.458507,1.20052 l -0.0097,1.39467 c 0.115378,1.99488 1.766414,3.55367 3.764628,3.5543 1.938671,-0.001 3.786325,-1.56521 3.784485,-3.39412 l -0.0033,-8.56277 z"
           sodipodi:nodetypes="ccccczcccccccccc" /><path
           id="path6518"
           style="opacity:0.8;fill:#000000;stroke-width:0.2806;stroke-linecap:round;stroke-linejoin:round;stop-color:#000000"
           d="m 57.526966,124.95682 h 2.664751 v 1.68438 h -2.664751 z" /></g><g
         id="g6512"
         transform="matrix(6.7239387,0,0,6.7239387,-303.18015,-763.08945)"><circle
           style="opacity:0.8;fill:#0158b5;fill-opacity:1;stroke-width:0.4;stroke-linecap:round;stroke-linejoin:round;stop-color:#000000"
           id="path246"
           cx="56.240215"
           cy="116.99342"
           r="1.2179201" /><path
           id="rect408"
           style="opacity:0.8;fill:#0157b4;fill-opacity:1;stroke-width:0.4;stroke-linecap:round;stroke-linejoin:round;stop-color:#000000"
           d="m 55.145049,119.1519 v 8.55038 c 0.0062,0.78464 -0.882294,1.37814 -1.704289,1.37873 -0.87875,-5.1e-4 -1.778362,-0.81634 -1.753048,-1.52652 l -0.0011,-0.30438 c 0,0 -0.05145,-0.24084 0.159957,-0.42965 0.211412,-0.18881 0.513634,-0.15376 0.513634,-0.15376 l 2.540298,0.0237 0.03231,-1.74151 -3.788447,0.0109 c -0.83722,0.0427 -1.43658,0.55384 -1.458507,1.20052 l -0.0097,1.39467 c 0.115378,1.99488 1.766414,3.55367 3.764628,3.5543 1.938671,-0.001 3.786325,-1.56521 3.784485,-3.39412 l -0.0033,-8.56277 z"
           sodipodi:nodetypes="ccccczcccccccccc" /><path
           id="rect6492"
           style="opacity:0.8;fill:#0158b5;stroke-width:0.2806;stroke-linecap:round;stroke-linejoin:round;stop-color:#000000"
           d="m 57.526966,124.95682 h 2.664751 v 1.68438 h -2.664751 z" /></g></g></g></svg>
