<?xml version="1.0" encoding="UTF-8" standalone="no"?>
<!-- Created with Inkscape (http://www.inkscape.org/) -->

<svg
   width="512"
   height="512"
   viewBox="0 0 135.46666 135.46667"
   version="1.1"
   id="svg5"
   inkscape:version="1.2.2 (b0a8486541, 2022-12-01)"
   sodipodi:docname="logo-dircac.svg"
   inkscape:export-filename="logo-dircac.png"
   inkscape:export-xdpi="96"
   inkscape:export-ydpi="96"
   xmlns:inkscape="http://www.inkscape.org/namespaces/inkscape"
   xmlns:sodipodi="http://sodipodi.sourceforge.net/DTD/sodipodi-0.dtd"
   xmlns="http://www.w3.org/2000/svg"
   xmlns:svg="http://www.w3.org/2000/svg">
  <sodipodi:namedview
     id="namedview7"
     pagecolor="#ffffff"
     bordercolor="#000000"
     borderopacity="0.25"
     inkscape:showpageshadow="2"
     inkscape:pageopacity="0.0"
     inkscape:pagecheckerboard="0"
     inkscape:deskcolor="#d1d1d1"
     inkscape:document-units="mm"
     showgrid="false"
     showguides="true"
     inkscape:zoom="0.74653479"
     inkscape:cx="62.957548"
     inkscape:cy="16.074268"
     inkscape:window-width="1920"
     inkscape:window-height="1008"
     inkscape:window-x="0"
     inkscape:window-y="0"
     inkscape:window-maximized="1"
     inkscape:current-layer="layer1">
    <sodipodi:guide
       position="107.51145,76.824061"
       orientation="0,-1"
       id="guide1406"
       inkscape:locked="false" />
    <sodipodi:guide
       position="106.2584,50.51007"
       orientation="0,-1"
       id="guide1408"
       inkscape:locked="false" />
    <sodipodi:guide
       position="49.573864,41.22891"
       orientation="1,0"
       id="guide1410"
       inkscape:locked="false" />
    <sodipodi:guide
       position="178.1833,-0.36364053"
       orientation="1,0"
       id="guide1412"
       inkscape:locked="false" />
  </sodipodi:namedview>
  <defs
     id="defs2" />
  <g
     inkscape:label="Layer 1"
     inkscape:groupmode="layer"
     id="layer1">
    <rect
       style="opacity:1;fill:#e57238;fill-opacity:1;stroke-width:0.4;stroke-linecap:round;stroke-linejoin:round;stop-color:#000000"
       id="rect2781"
       width="123.81237"
       height="47.884666"
       x="5.6407924"
       y="17.367622"
       rx="12"
       ry="12" />
    <rect
       style="opacity:1;fill:#f9f9f9;fill-opacity:1;stroke-width:0.432579;stroke-linecap:round;stroke-linejoin:round;stop-color:#000000"
       id="rect2921"
       width="112.95681"
       height="37.952244"
       x="11.188577"
       y="22.411003"
       rx="9.8674135"
       ry="10" />
    <g
       id="g3033"
       transform="translate(1.0583333,10.054167)">
      <g
         id="g3041"
         transform="translate(0.832705,0.83616609)">
        <path
           id="path2454"
           style="font-weight:bold;font-size:30.3698px;font-family:'IBM Plex Sans';-inkscape-font-specification:'IBM Plex Sans Bold';text-align:center;text-anchor:middle;fill:#e57238;stroke-width:0.495996;stroke-linecap:round;stroke-linejoin:round"
           d="m 21.11744,21.374428 v 3.780997 h 4.255469 v -0.0014 h 3.107403 c 1.26916,0 2.268028,0.354511 2.995929,1.063748 0.727901,0.709237 1.091855,1.84783 1.091855,3.415616 v 3.02356 c 0,1.567788 -0.363954,2.706381 -1.091855,3.415617 -0.727901,0.709237 -1.726769,1.063748 -2.995929,1.063748 H 25.372909 V 26.434504 H 21.11744 v 14.481359 h 7.362872 c 1.287824,0 2.46371,-0.205343 3.527565,-0.615955 1.063855,-0.41061 1.969255,-1.017199 2.715821,-1.819756 0.746565,-0.821222 1.325303,-1.838498 1.735914,-3.051666 0.410611,-1.231833 0.615955,-2.659796 0.615955,-4.283575 0,-1.62378 -0.205344,-3.0423 -0.615955,-4.255468 -0.410611,-1.231833 -0.989349,-2.248632 -1.735914,-3.05119 -0.746566,-0.821221 -1.651966,-1.437252 -2.715821,-1.847864 -1.063855,-0.41061 -2.239741,-0.615953 -3.527565,-0.615953 z" />
        <path
           d="m 37.758308,40.915731 v -3.387544 h 2.51966 V 24.761909 h -2.51966 v -3.387543 h 9.294746 v 3.387543 h -2.51966 v 12.766278 h 2.51966 v 3.387544 z"
           style="font-weight:bold;font-size:30.3698px;font-family:'IBM Plex Sans';-inkscape-font-specification:'IBM Plex Sans Bold';text-align:center;text-anchor:middle;fill:#e57238;stroke-width:0.495996;stroke-linecap:round;stroke-linejoin:round"
           id="path2456" />
        <path
           id="path2458"
           style="font-weight:bold;font-size:30.3698px;font-family:'IBM Plex Sans';-inkscape-font-specification:'IBM Plex Sans Bold';text-align:center;text-anchor:middle;fill:#e57238;stroke-width:0.495996;stroke-linecap:round;stroke-linejoin:round"
           d="M 49.020831,21.374428 V 40.915855 H 53.2763 v -7.16708 h 0.01525 V 30.164997 H 53.2763 v -5.095319 h 4.479366 c 0.63458,0 1.129292,0.168051 1.483912,0.504006 0.373282,0.317289 0.560218,0.793118 0.560218,1.427699 v 1.231909 c 0,0.63458 -0.186936,1.119852 -0.560218,1.455806 -0.35462,0.31729 -0.849332,0.475899 -1.483912,0.475899 h -3.185051 v 3.583778 h 1.757351 l 3.415617,7.16708 h 4.731369 l -3.835305,-7.671086 c 1.194504,-0.447939 2.081019,-1.166403 2.659608,-2.155602 0.597252,-0.989199 0.895587,-2.146677 0.895587,-3.47183 0,-0.933206 -0.139725,-1.78243 -0.419687,-2.547659 -0.279962,-0.76523 -0.681207,-1.418075 -1.203803,-1.959336 -0.503931,-0.559924 -1.119962,-0.989495 -1.847863,-1.288121 -0.727901,-0.298626 -1.539832,-0.447793 -2.435711,-0.447793 z" />
        <path
           d="m 73.530019,40.833798 q -3.638707,0 -5.663251,-2.462283 -2.024544,-2.489642 -2.024544,-7.304773 0,-4.815131 2.024544,-7.386849 2.024544,-2.599077 5.663251,-2.599077 2.407565,0 4.021729,1.094348 1.641522,1.094348 2.544359,3.091533 l -1.860392,1.121707 q -0.574533,-1.47737 -1.750957,-2.352848 -1.176424,-0.902837 -2.954739,-0.902837 -1.231142,0 -2.216055,0.465098 -0.957554,0.465098 -1.641522,1.340576 -0.656609,0.84812 -1.012272,2.051902 -0.355663,1.176425 -0.355663,2.653794 v 2.845305 q 0,2.95474 1.367935,4.62362 1.367935,1.668881 3.857577,1.668881 1.833033,0 3.064174,-0.930196 1.231142,-0.957554 1.805674,-2.517 l 1.833033,1.149065 q -0.902837,2.024544 -2.599076,3.200968 -1.69624,1.149066 -4.103805,1.149066 z"
           style="font-size:27.3587px;font-family:'IBM Plex Sans';-inkscape-font-specification:'IBM Plex Sans';text-align:center;text-anchor:middle;fill:#ff9955;stroke-width:0.484702;stroke-linecap:round;stroke-linejoin:round"
           id="path3017" />
        <path
           d="m 94.686958,40.505493 -1.915109,-5.635892 h -7.715154 l -1.915109,5.635892 H 80.816097 L 87.49162,21.409121 h 2.927381 l 6.675522,19.096372 z M 88.96899,23.543099 h -0.136794 l -3.228327,9.301958 h 6.593447 z"
           style="font-size:27.3587px;font-family:'IBM Plex Sans';-inkscape-font-specification:'IBM Plex Sans';text-align:center;text-anchor:middle;fill:#ff9955;stroke-width:0.484702;stroke-linecap:round;stroke-linejoin:round"
           id="path3019" />
        <path
           d="m 104.47134,40.833798 q -3.6387,0 -5.663241,-2.462283 -2.024532,-2.489642 -2.024532,-7.304773 0,-4.815131 2.024532,-7.386849 2.024541,-2.599077 5.663241,-2.599077 2.40757,0 4.02173,1.094348 1.64152,1.094348 2.54436,3.091533 l -1.86039,1.121707 q -0.57453,-1.47737 -1.75096,-2.352848 -1.17642,-0.902837 -2.95474,-0.902837 -1.23114,0 -2.21605,0.465098 -0.95756,0.465098 -1.64152,1.340576 -0.656607,0.84812 -1.012277,2.051902 -0.355657,1.176425 -0.355657,2.653794 v 2.845305 q 0,2.95474 1.367934,4.62362 1.36793,1.668881 3.85757,1.668881 1.83304,0 3.06418,-0.930196 1.23114,-0.957554 1.80567,-2.517 l 1.83303,1.149065 q -0.90283,2.024544 -2.59907,3.200968 -1.69624,1.149066 -4.10381,1.149066 z"
           style="font-size:27.3587px;font-family:'IBM Plex Sans';-inkscape-font-specification:'IBM Plex Sans';text-align:center;text-anchor:middle;fill:#ff9955;stroke-width:0.484702;stroke-linecap:round;stroke-linejoin:round"
           id="path3021" />
      </g>
    </g>
    <g
       id="g1281"
       transform="matrix(0,0.71447344,-0.71447344,0,141.97974,1.6493268)">
      <g
         id="g1404"
         transform="translate(3.9945316)">
        <circle
           style="opacity:1;fill:#e57238;stroke-width:0.4;stroke-linecap:round;stroke-linejoin:round;stop-color:#000000"
           id="circle456"
           cx="134.13362"
           cy="108.24426"
           r="21.297916" />
        <circle
           style="opacity:0.823846;fill:#f4e3d7;stroke-width:0.337615;stroke-linecap:round;stroke-linejoin:round;stop-color:#000000"
           id="circle458"
           cx="134.13362"
           cy="108.24426"
           r="15.907068" />
      </g>
    </g>
    <rect
       style="fill:#e57238;fill-opacity:1;stroke-width:0.545765;stroke-linecap:round;stroke-linejoin:round;stop-color:#000000"
       id="rect618"
       width="24.264683"
       height="3.6683679"
       x="63.528507"
       y="-67.136551"
       transform="rotate(90)" />
    <g
       id="g1287"
       transform="matrix(0,0.71447344,-0.71447344,0,108.86693,4.2976476)">
      <circle
         style="opacity:1;fill:#e57238;stroke-width:0.4;stroke-linecap:round;stroke-linejoin:round;stop-color:#000000"
         id="circle1283"
         cx="134.13362"
         cy="108.24426"
         r="21.297916" />
      <circle
         style="opacity:0.823846;fill:#f4e3d7;stroke-width:0.337615;stroke-linecap:round;stroke-linejoin:round;stop-color:#000000"
         id="circle1285"
         cx="134.13362"
         cy="108.24426"
         r="15.907068" />
    </g>
    <rect
       style="fill:#e57238;fill-opacity:1;stroke-width:0.747654;stroke-linecap:round;stroke-linejoin:round;stop-color:#000000"
       id="rect1289"
       width="44.327763"
       height="3.7684364"
       x="-88.110245"
       y="-75.822647"
       transform="scale(-1)" />
    <path
       id="circle1343"
       style="fill:#e57238;stroke-width:0.28579;stroke-linecap:round;stroke-linejoin:round;stop-color:#000000"
       d="m 43.839535,71.994548 a 15.216794,15.216794 0 0 0 -15.216803,15.216805 15.216794,15.216794 0 0 0 0.108919,1.727181 h 3.883025 a 11.365177,11.365177 0 0 1 -0.140301,-1.727181 11.365177,11.365177 0 0 1 11.365164,-11.365155 11.365177,11.365177 0 0 1 0.757995,0.03321 v -3.865671 a 15.216794,15.216794 0 0 0 -0.757995,-0.01918 z" />
    <g
       id="g2412"
       transform="matrix(0,0.71447344,0.71447344,0,21.31049,4.2976476)">
      <circle
         style="opacity:1;fill:#e57238;stroke-width:0.4;stroke-linecap:round;stroke-linejoin:round;stop-color:#000000"
         id="circle2408"
         cx="134.13362"
         cy="108.24426"
         r="21.297916" />
      <circle
         style="opacity:0.823846;fill:#f4e3d7;stroke-width:0.337615;stroke-linecap:round;stroke-linejoin:round;stop-color:#000000"
         id="circle2410"
         cx="134.13362"
         cy="108.24426"
         r="15.907068" />
    </g>
    <path
       id="path2414"
       style="fill:#e57238;stroke-width:0.28579;stroke-linecap:round;stroke-linejoin:round;stop-color:#000000"
       d="m 86.337886,71.994548 a 15.216794,15.216794 0 0 1 15.216814,15.216805 15.216794,15.216794 0 0 1 -0.10887,1.727181 h -3.883041 a 11.365177,11.365177 0 0 0 0.14031,-1.727181 11.365177,11.365177 0 0 0 -11.365166,-11.365155 11.365177,11.365177 0 0 0 -0.757995,0.03321 v -3.865671 a 15.216794,15.216794 0 0 1 0.757995,-0.01918 z" />
  </g>
</svg>
