<?xml version="1.0" encoding="UTF-8" standalone="no"?>
<!-- Created with Inkscape (http://www.inkscape.org/) -->

<svg
   inkscape:export-ydpi="96"
   inkscape:export-xdpi="96"
   inkscape:export-filename="no-logo.png"
   sodipodi:docname="no-logo.svg"
   inkscape:version="1.2.2 (b0a8486541, 2022-12-01)"
   xml:space="preserve"
   id="svg5"
   version="1.1"
   viewBox="0 0 135.46666 135.46667"
   height="512"
   width="512"
   xmlns:inkscape="http://www.inkscape.org/namespaces/inkscape"
   xmlns:sodipodi="http://sodipodi.sourceforge.net/DTD/sodipodi-0.dtd"
   xmlns="http://www.w3.org/2000/svg"
   xmlns:svg="http://www.w3.org/2000/svg"><sodipodi:namedview
     id="namedview7"
     pagecolor="#ffffff"
     bordercolor="#000000"
     borderopacity="0.25"
     inkscape:showpageshadow="2"
     inkscape:pageopacity="0.0"
     inkscape:pagecheckerboard="0"
     inkscape:deskcolor="#d1d1d1"
     inkscape:document-units="mm"
     showgrid="false"
     showguides="true"
     inkscape:zoom="0.78997086"
     inkscape:cx="513.94301"
     inkscape:cy="205.07086"
     inkscape:window-width="1920"
     inkscape:window-height="1008"
     inkscape:window-x="0"
     inkscape:window-y="96"
     inkscape:window-maximized="1"
     inkscape:current-layer="layer1"><sodipodi:guide
       position="65.574575,100.03675"
       orientation="0,-1"
       id="guide7005"
       inkscape:locked="false" /><sodipodi:guide
       position="14.967093,65.121329"
       orientation="1,0"
       id="guide7007"
       inkscape:locked="false" /><sodipodi:guide
       position="117.49168,63.063353"
       orientation="1,0"
       id="guide7009"
       inkscape:locked="false" /><sodipodi:guide
       position="59.934451,45.029718"
       orientation="0,-1"
       id="guide7113"
       inkscape:locked="false" /><sodipodi:guide
       position="113.24166,25.135417"
       orientation="0,-1"
       id="guide7121"
       inkscape:locked="false" /></sodipodi:namedview><defs
     id="defs2" /><g
     inkscape:label="Layer 1"
     inkscape:groupmode="layer"
     id="layer1"><rect
       style="fill:#b3b3b3;stroke-width:1.5875;stroke-linecap:round;stroke-linejoin:round;stop-color:#000000"
       id="rect4663"
       width="122.85346"
       height="122.85346"
       x="6.306602"
       y="6.306602"
       ry="12"
       rx="12" /><path
       id="path2582"
       style="fill:#dbe3e2;fill-rule:evenodd;stroke:none;stroke-width:0.488715"
       d="m 67.733075,23.184891 a 44.548325,44.548325 0 0 0 -8.789644,0.905371 l -0.07338,2.31252 1.789038,8.34316 -11.248926,4.659664 -4.634343,-7.16442 -1.69602,-1.592668 A 44.548325,44.548325 0 0 0 30.649034,43.079801 l 1.592151,1.695503 7.163904,4.63486 -4.659148,11.249959 -8.342643,-1.790072 -2.31407,0.07286 a 44.548325,44.548325 0 0 0 -0.904338,8.790678 44.548325,44.548325 0 0 0 0.904338,8.790678 l 2.31407,0.07338 8.342643,-1.790071 1.116728,2.696476 12.002368,-9.125024 a 3.0003,3.0003 0 0 1 2.423625,-0.548804 l 2.761072,0.572058 a 14.720676,14.720676 0 0 1 -0.03772,-0.668693 14.720676,14.720676 0 0 1 14.721065,-14.720549 14.720676,14.720676 0 0 1 11.576038,5.629114 l 4.914945,-5.817732 a 3.0003,3.0003 0 0 1 2.232422,-1.064535 l 10.492383,-0.205155 -0.888318,-2.144572 7.164941,-4.63486 1.603,-1.705839 A 44.548325,44.548325 0 0 0 92.397203,30.639216 l -1.706356,1.60197 -4.634342,7.16442 -11.248926,-4.659664 1.789038,-8.34316 -0.07338,-2.338875 a 44.548325,44.548325 0 0 0 -8.790161,-0.879016 z m 31.681787,34.322453 -11.483536,0.225309 -5.814633,6.883301 a 14.720676,14.720676 0 0 1 0.336931,3.117639 14.720676,14.720676 0 0 1 -14.720549,14.721065 14.720676,14.720676 0 0 1 -12.824023,-7.539591 l -4.499467,-0.932243 -12.172384,9.253699 1.167888,2.820499 -7.163904,4.633826 -1.593185,1.696021 a 44.548325,44.548325 0 0 0 12.4318,12.431801 l 1.69602,-1.59215 4.634343,-7.16494 11.248925,4.65863 -1.789038,8.3442 0.07338,2.31303 a 44.548325,44.548325 0 0 0 8.789644,0.90434 44.548325,44.548325 0 0 0 8.790161,-0.87953 l 0.07338,-2.33784 -1.789038,-8.3442 11.248926,-4.65863 4.634342,7.16494 1.706356,1.60145 A 44.548325,44.548325 0 0 0 104.82849,92.397204 l -1.603,-1.706356 -7.164945,-4.633826 4.660185,-11.249442 8.34264,1.790071 2.33888,-0.07338 a 44.548325,44.548325 0 0 0 0.87953,-8.790678 44.548325,44.548325 0 0 0 -0.87953,-8.790678 l -2.33888,-0.07286 -8.34264,1.790072 z" /></g></svg>
