<?xml version="1.0" encoding="UTF-8" standalone="no"?>
<!-- Created with Inkscape (http://www.inkscape.org/) -->

<svg
   width="512"
   height="512"
   viewBox="0 0 135.46666 135.46667"
   version="1.1"
   id="svg5"
   inkscape:version="1.2.2 (b0a8486541, 2022-12-01)"
   xml:space="preserve"
   sodipodi:docname="obecan-logo.svg"
   xmlns:inkscape="http://www.inkscape.org/namespaces/inkscape"
   xmlns:sodipodi="http://sodipodi.sourceforge.net/DTD/sodipodi-0.dtd"
   xmlns="http://www.w3.org/2000/svg"
   xmlns:svg="http://www.w3.org/2000/svg"><sodipodi:namedview
     id="namedview7"
     pagecolor="#ffffff"
     bordercolor="#000000"
     borderopacity="0.25"
     inkscape:showpageshadow="2"
     inkscape:pageopacity="0.0"
     inkscape:pagecheckerboard="0"
     inkscape:deskcolor="#d1d1d1"
     inkscape:document-units="mm"
     showgrid="false"
     inkscape:zoom="0.57176212"
     inkscape:cx="617.38962"
     inkscape:cy="229.11626"
     inkscape:window-width="1920"
     inkscape:window-height="1008"
     inkscape:window-x="0"
     inkscape:window-y="96"
     inkscape:window-maximized="1"
     inkscape:current-layer="layer1" /><defs
     id="defs2" /><g
     inkscape:label="Capa 1"
     inkscape:groupmode="layer"
     id="layer1"><g
       id="g3619"><g
         id="g3610"
         transform="translate(-170.48399,-1.7167182)"><path
           id="path811"
           style="fill:#004c92;fill-opacity:1;fill-rule:evenodd;stroke-width:0.264583"
           d="m 238.28034,103.3879 c -18.74336,0 -33.93785,-15.194493 -33.93785,-33.93785 0,-18.743355 15.1945,-33.937847 33.93785,-33.937847 z"
           sodipodi:nodetypes="cscc" /><path
           id="path1694"
           style="fill:#8799c5;fill-opacity:1;fill-rule:evenodd;stroke-width:0.264583"
           d="m 238.1543,103.3879 c 18.74336,0 33.93785,-15.194493 33.93785,-33.93785 0,-18.743355 -15.1945,-33.937847 -33.93785,-33.937847 z"
           sodipodi:nodetypes="cscc" /></g><path
         style="fill:#fbba00;fill-opacity:1;stroke-width:0.926042;stop-color:#000000"
         d="M 0.00425086,0 H 63.51356 V 16.71829 C 58.24356,16.569207 41.758534,17.328946 28.3119,24.900806 14.865266,32.472666 5.32722,50.63609 5.32722,50.63609 c 0,0 11.540991,-15.371018 27.25661,-22.44944 15.715619,-7.078422 24.92003,-6.558706 31.18775,-6.679636 V 30.2856 C 18.76807,37.163145 13.20198,52.747875 0,66.646716 Z"
         id="path2095"
         sodipodi:nodetypes="ccczczcccc" /><path
         style="fill:#fbba00;fill-opacity:1;stroke-width:0.926042;stop-color:#000000"
         d="M 135.42514,-0.04900708 H 72.668048 V 16.669282 c 9.392277,0.313315 23.57256,1.806171 35.201652,8.182516 11.6291,6.376345 22.98468,25.735284 22.98468,25.735284 0,0 -14.78947,-16.434322 -27.25661,-22.44944 C 91.130631,22.122524 79.882858,21.617331 72.410028,21.458006 v 8.778586 c 27.53043,1.711326 45.726822,18.910411 63.771572,36.361116 z"
         id="path2304"
         sodipodi:nodetypes="ccczczcccc" /><path
         style="fill:#fddc91;fill-opacity:1;stroke-width:0.926042;stop-color:#000000"
         d="m 71.51911,104.87206 c 38.23538,-3.44789 51.15144,-19.809595 63.88742,-35.811066 V 135.41459 H 71.39104 v -21.46251 c 7.088157,-0.82434 10.21898,-1.48943 13.89227,-3.12295 -4.59345,0.13337 -9.27616,0.35346 -13.75729,0.1803 z"
         id="path2423"
         sodipodi:nodetypes="cccccccc" /><path
         style="opacity:1;fill:#fddc91;fill-opacity:1;stroke-width:0.926042;stop-color:#000000"
         d="M 63.805576,104.84619 C 25.570236,101.3983 12.654176,85.036664 -0.08180354,69.035194 V 135.38872 H 63.933646 v -20.57997 c -8.02397,0.33621 -51.45482,3.8231 -58.1125895,-23.547946 9.5825495,22.247386 52.0383095,19.331826 57.9776095,19.722756 z"
         id="path3322"
         sodipodi:nodetypes="cccccccc" /></g></g></svg>
