<?xml version="1.0" encoding="UTF-8" standalone="no"?>
<!-- Created with Inkscape (http://www.inkscape.org/) -->

<svg
   width="512"
   height="512"
   viewBox="0 0 135.46666 135.46667"
   version="1.1"
   id="svg1"
   xml:space="preserve"
   inkscape:version="1.4.2 (ebf0e94, 2025-05-08)"
   sodipodi:docname="redexos-logo.svg"
   xmlns:inkscape="http://www.inkscape.org/namespaces/inkscape"
   xmlns:sodipodi="http://sodipodi.sourceforge.net/DTD/sodipodi-0.dtd"
   xmlns="http://www.w3.org/2000/svg"
   xmlns:svg="http://www.w3.org/2000/svg"><sodipodi:namedview
     id="namedview1"
     pagecolor="#ffffff"
     bordercolor="#000000"
     borderopacity="0.25"
     inkscape:showpageshadow="2"
     inkscape:pageopacity="0.0"
     inkscape:pagecheckerboard="0"
     inkscape:deskcolor="#d1d1d1"
     inkscape:document-units="mm"
     inkscape:zoom="0.70822811"
     inkscape:cx="594.44124"
     inkscape:cy="242.15362"
     inkscape:window-width="1920"
     inkscape:window-height="1009"
     inkscape:window-x="1912"
     inkscape:window-y="-8"
     inkscape:window-maximized="1"
     inkscape:current-layer="layer1" /><defs
     id="defs1" /><g
     inkscape:label="Capa 1"
     inkscape:groupmode="layer"
     id="layer1"><path
       style="baseline-shift:baseline;display:inline;overflow:visible;vector-effect:none;fill:#ff0000;stroke-linecap:round;stroke-linejoin:round;enable-background:accumulate;stop-color:#000000"
       d="m 51.087736,50.247168 -6.724528,-6.63113"
       id="path5" /><g
       id="g11"
       transform="translate(0.08872732,-0.0065335)"><path
         id="path2"
         style="baseline-shift:baseline;display:inline;overflow:visible;opacity:1;vector-effect:none;fill:#2c2a2b;fill-opacity:1;stroke-width:2.75669;stroke-linecap:round;stroke-linejoin:round;enable-background:accumulate;stop-color:#000000;stop-opacity:1"
         d="M 68.041332,8.5288139 A 5.513376,5.513376 0 0 0 62.56247,14.083166 L 62.72925,37.9089 c -4.991508,0.50819 -9.49227,1.864095 -13.494843,3.699578 L 32.510086,25.116368 a 5.513376,5.513376 0 0 0 -7.796606,0.05414 5.513376,5.513376 0 0 0 0.05414,7.802304 L 39.541708,47.541769 C 30.352302,54.697092 25.647997,63.129282 25.647997,63.129282 a 5.513376,5.513376 0 0 0 -0.70373,3.031461 5.513376,5.513376 0 0 0 0.82197,3.138302 c 0,0 13.349369,22.139664 36.820555,25.576513 a 5.513376,5.513376 0 0 0 -0.02481,0.566973 l 0.182217,26.033799 a 5.513376,5.513376 0 0 0 5.551501,5.47458 5.513376,5.513376 0 0 0 5.477429,-5.55436 L 73.590912,95.362758 a 5.513376,5.513376 0 0 0 -0.01103,-0.316253 c 4.129243,-0.471197 7.918366,-1.521738 11.362269,-2.938863 l 17.836899,17.589018 a 5.513376,5.513376 0 0 0 7.79661,-0.0541 5.513376,5.513376 0 0 0 -0.054,-7.80231 L 94.932694,86.469233 C 104.99549,79.125345 110.15267,69.880257 110.15267,69.880254 a 5.513376,5.513376 0 0 0 0.70516,-3.002968 5.513376,5.513376 0 0 0 -0.82483,-3.166792 c 0,0 -13.141155,-21.793931 -36.272083,-25.491042 L 73.591381,14.003393 A 5.513376,5.513376 0 0 0 68.041313,8.5288139 Z M 67.008539,48.715597 C 82.666803,48.684006 94.431796,61.449991 98.81606,67.015468 94.863355,72.396818 84.381849,84.262483 68.790655,84.293934 53.135259,84.325498 41.37214,71.565445 36.985974,65.998336 40.935453,60.618436 51.414369,48.747054 67.008539,48.715597 Z" /><g
         id="path9"
         style="opacity:1;fill:#afcb21;fill-opacity:1"
         transform="matrix(2.756688,0,0,2.756688,-239.38217,-91.19167)"><path
           style="baseline-shift:baseline;display:inline;overflow:visible;vector-effect:none;fill:#afcb21;fill-opacity:1;stroke-linecap:round;stroke-linejoin:round;enable-background:accumulate;stop-color:#000000;stop-opacity:1"
           d="M 97.692451,71.261321 125.24434,43.33585"
           id="path10" /><path
           style="baseline-shift:baseline;display:inline;overflow:visible;vector-effect:none;fill:#afcb21;fill-opacity:1;stroke-linecap:round;stroke-linejoin:round;enable-background:accumulate;stop-color:#000000;stop-opacity:1"
           d="m 125.23047,41.335937 a 2,2 0 0 0 -1.41016,0.595704 L 96.269531,69.857422 a 2,2 0 0 0 0.01758,2.828125 2,2 0 0 0 2.828125,-0.01953 L 126.66797,44.740234 a 2,2 0 0 0 -0.0195,-2.828125 2,2 0 0 0 -1.41797,-0.576172 z"
           id="path11" /></g></g></g></svg>
