<?xml version="1.0" encoding="UTF-8" standalone="no"?>
<!-- Created with Inkscape (http://www.inkscape.org/) -->

<svg
   inkscape:export-ydpi="96"
   inkscape:export-xdpi="96"
   inkscape:export-filename="rpg-logo.png"
   sodipodi:docname="rpg-logo.svg"
   inkscape:version="1.2.2 (b0a8486541, 2022-12-01)"
   xml:space="preserve"
   id="svg5"
   version="1.1"
   viewBox="0 0 135.46666 135.46667"
   height="512"
   width="512"
   xmlns:inkscape="http://www.inkscape.org/namespaces/inkscape"
   xmlns:sodipodi="http://sodipodi.sourceforge.net/DTD/sodipodi-0.dtd"
   xmlns="http://www.w3.org/2000/svg"
   xmlns:svg="http://www.w3.org/2000/svg"><sodipodi:namedview
     id="namedview7"
     pagecolor="#ffffff"
     bordercolor="#000000"
     borderopacity="0.25"
     inkscape:showpageshadow="2"
     inkscape:pageopacity="0.0"
     inkscape:pagecheckerboard="0"
     inkscape:deskcolor="#d1d1d1"
     inkscape:document-units="mm"
     showgrid="false"
     showguides="true"
     inkscape:zoom="0.78997086"
     inkscape:cx="483.56214"
     inkscape:cy="222.79303"
     inkscape:window-width="1920"
     inkscape:window-height="1008"
     inkscape:window-x="0"
     inkscape:window-y="96"
     inkscape:window-maximized="1"
     inkscape:current-layer="layer1"><sodipodi:guide
       position="65.574575,100.03675"
       orientation="0,-1"
       id="guide7005"
       inkscape:locked="false" /><sodipodi:guide
       position="14.967093,65.121329"
       orientation="1,0"
       id="guide7007"
       inkscape:locked="false" /><sodipodi:guide
       position="117.49168,63.063353"
       orientation="1,0"
       id="guide7009"
       inkscape:locked="false" /><sodipodi:guide
       position="59.934451,45.029718"
       orientation="0,-1"
       id="guide7113"
       inkscape:locked="false" /><sodipodi:guide
       position="113.24166,25.135417"
       orientation="0,-1"
       id="guide7121"
       inkscape:locked="false" /></sodipodi:namedview><defs
     id="defs2" /><g
     inkscape:label="Layer 1"
     inkscape:groupmode="layer"
     id="layer1"><rect
       style="fill:#a05a2c;stroke-width:1.5875;stroke-linecap:round;stroke-linejoin:round;stop-color:#000000"
       id="rect4663"
       width="122.85346"
       height="122.85346"
       x="6.306602"
       y="6.306602"
       ry="12"
       rx="12" /><path
       id="path387"
       style="opacity:1;fill:#e6e6e6;stroke-width:6.00001;stroke-linecap:round;stroke-linejoin:round;stop-color:#000000"
       d="m 106.26897,28.226184 -12.038029,1.857251 -7.187675,7.601086 c -0.791427,0.909348 -0.868388,1.713653 0.01809,2.549199 l 1.851049,1.330151 c -0.116137,0.309678 4.657656,2.739745 8.442831,4.105519 0.251728,0.115076 0.283087,0.0607 0.356789,-0.138134 0.193688,-1.085836 -0.149601,-5.759647 -0.502601,-6.599504 0.676754,0.240713 1.38873,7.521576 1.31118,7.525877 -4.322657,-0.685589 -10.155969,-3.858162 -10.155969,-3.858162 0,0 -1.451158,4.772912 -1.599902,6.47454 l -0.200505,0.301791 c 4.792929,4.076875 12.350994,7.591787 21.957832,8.962243 0.1651,-0.493698 0.32958,-0.978334 0.49454,-1.470194 0.49492,-2.348241 0.23765,-4.516802 0.017,-6.694165 l 0.36019,-0.540536 c 2.71648,-0.119258 5.67402,-1.170886 8.51111,-1.756999 0.90385,-0.504721 1.19214,-1.944544 1.12344,-3.130558 l 1.23094,0.787549 0.49816,-0.198954 -0.57723,-1.402499 c -0.11814,-0.640103 -0.94238,-1.628095 -2.17558,-2.018481 l -2.33525,-0.01964 -3.42822,-1.246952 c 2.49047,-1.547521 5.30494,-0.382121 7.28431,-6.203756 -0.17801,-1.878424 -0.6225,-3.297192 -1.14825,-4.575948 l -0.46819,-0.767912 c -0.16681,-0.0119 -0.34334,-0.01382 -0.52916,-0.0067 -2.07689,0.07999 -5.26507,1.272952 -7.85482,1.866553 -0.85448,-0.95155 -0.9251,-2.042052 -3.25613,-2.73265 z m -2.14303,1.32395 c 0,0 1.37106,0.399751 1.7632,0.937928 0.314,0.430929 0.28267,1.57458 0.28267,1.57458 -0.32328,0.170903 -0.71606,0.331872 -1.65623,0.414962 -0.99596,0.06551 -1.94385,0.07756 -2.5616,-0.276986 0.34273,-0.60212 0.32521,-0.789397 1.17823,-1.979207 0.17145,-0.21772 0.59625,-0.44485 0.99373,-0.671277 z M 83.141178,53.533167 c -0.377862,0.26385 -0.68971,0.519716 -0.961698,0.770495 0.297189,-0.254727 0.619173,-0.511431 0.961698,-0.770495 z m 2.268079,0.551387 c -1.546418,0.0039 -3.243431,0.809622 -3.84576,2.067574 -2.176701,0.318733 -2.599808,1.009962 -3.198254,1.680518 -1.444338,4.857241 -2.082208,10.064807 -1.21543,12.352217 l -1.289327,2.865458 -1.83193,9.623186 C 73.765431,75.267216 70.862655,68.405 74.133459,58.965393 c -0.712114,0.371057 -1.439929,0.781171 -2.18798,1.242301 -8.048744,1.742134 -15.155323,1.145398 -22.725228,1.698605 L 48.548458,62.223592 30.828092,58.024365 13.900444,56.7092 c 2.573157,3.502311 1.65906,7.845675 10.677901,9.793201 l 17.960661,-0.114205 c -3.467194,3.566177 -5.93684,7.890365 -6.955648,13.317016 -0.626089,5.639756 -2.55552,9.778663 -4.224549,14.217737 -0.835459,1.217874 -1.806878,2.822122 -2.264978,2.967778 -0.918219,0.612409 -1.844928,1.22293 -1.405599,2.201933 l -2.375565,14.62753 -0.959115,3.12953 c 0.66426,-0.0453 1.900765,0.83854 2.332674,-0.41807 l 0.77153,0.84646 h 1.797823 l 1.494482,-0.67179 c 1.056109,0.52718 1.932309,0.57932 2.145089,-1.12293 0.633769,-0.84082 -0.406202,-2.48401 -1.76475,-4.14548 -0.68692,-2.97334 0.386409,-6.37305 0.579809,-9.55963 0,0 7.037738,-5.187661 9.593213,-7.97212 1.922406,-2.094657 5.559867,-6.467822 5.559867,-6.467822 l 4.790406,3.222026 -0.480074,4.330485 -4.175973,5.268411 0.06615,1.28261 c 1.494467,2.76333 2.054188,4.96699 6.04976,9.22786 1.084148,0.97634 1.818865,1.97087 2.158524,2.98586 l 1.331185,0.1602 3.144511,-0.26406 0.446485,-0.50695 0.818038,0.58756 2.583304,-0.39739 0.520382,-0.50901 -2.493388,-2.92489 h -3.042191 c -2.212716,-2.12738 -2.924302,-3.61157 -4.087089,-5.28908 0.312689,-4.32196 1.164305,-4.24554 1.823144,-5.741255 5.568489,-2.115222 6.340705,-4.697802 8.609811,-7.134448 l 10.098608,2.80293 c -0.310959,2.861965 -0.561134,10.608063 -0.815454,18.040763 l -0.734839,2.66082 1.617989,1.52548 -0.514697,4.00286 0.159163,0.6382 -0.236678,2.61225 2.768823,0.37465 1.246953,-0.36948 0.610815,0.86919 2.887679,-0.0129 0.900204,-0.79891 0.422196,0.64802 1.39113,-0.22169 0.74414,-1.22939 -3.383256,-5.00899 c -0.906468,-0.68785 -1.77814,-1.43831 -1.278991,-4.63848 l 0.468188,-2.83032 1.746147,-16.041395 c 4.331511,0.230213 7.206757,-1.086741 9.831441,-2.669604 1.094308,7.125213 3.120539,14.854009 5.089095,22.545389 l -0.239262,2.81585 1.46141,0.95808 -0.157097,0.73536 2.680449,0.81959 0.0589,-0.8785 c 0.56349,1.16999 2.51984,0.86116 3.95997,1.10019 l 0.46664,-0.21911 c -0.35072,0.97112 2.26096,0.3857 4.19716,0.15503 0.16823,-0.74866 0.31368,-1.50586 -0.4377,-2.59726 -1.19868,-0.76758 -2.50476,-1.50556 -5.13974,-1.87327 l -2.89026,-7.7618 -0.0935,-11.197763 0.22066,-5.799646 0.59428,-2.142505 c 1.08206,-1.243277 3.784,-9.590443 4.43436,-13.415719 0.65034,-3.825273 0.3979,-9.877433 0.3979,-9.877433 l -0.10697,-2.237073 -0.0956,0.174667 C 99.123618,61.454917 90.072,60.732874 85.872829,54.108345 c -0.103444,-0.01113 -0.208531,-0.0184 -0.314193,-0.0217 -0.04953,-0.0016 -0.09946,-0.0022 -0.149345,-0.0021 z m -4.683952,1.85415 c -0.06438,0.07834 -0.132988,0.156975 -0.199988,0.235645 l 0.100769,-0.03824 c 0.02968,-0.06602 0.0633,-0.131674 0.09922,-0.197404 z"
       sodipodi:nodetypes="ccccccccccccccccccccccccccccccccccccccscsccccccccccccccccccccccccccscccccccccccccccccccccccccccccccccccccccccccccccccccccsccccsscccccsc" /><text
       xml:space="preserve"
       style="font-size:31.0684px;line-height:0px;font-family:'GUERRILLA FONT';-inkscape-font-specification:'GUERRILLA FONT';text-align:center;text-anchor:middle;opacity:1;fill:#e6e6e6;stroke-width:14.678;stroke-linecap:round;stroke-linejoin:round;stop-color:#000000"
       x="44.850544"
       y="39.686806"
       id="text710"><tspan
         sodipodi:role="line"
         id="tspan708"
         style="font-style:normal;font-variant:normal;font-weight:bold;font-stretch:normal;font-family:'IBM Plex Sans';-inkscape-font-specification:'IBM Plex Sans Bold';stroke-width:14.678"
         x="44.850544"
         y="39.686806">RPG</tspan></text></g></svg>
