<?xml version="1.0" encoding="UTF-8" standalone="no"?>
<!-- Created with Inkscape (http://www.inkscape.org/) -->

<svg
   inkscape:export-ydpi="96"
   inkscape:export-xdpi="96"
   inkscape:export-filename="rpg-adopciones.png"
   sodipodi:docname="rpg-adopciones.svg"
   inkscape:version="1.2.2 (b0a8486541, 2022-12-01)"
   xml:space="preserve"
   id="svg5"
   version="1.1"
   viewBox="0 0 135.46666 135.46667"
   height="512"
   width="512"
   xmlns:inkscape="http://www.inkscape.org/namespaces/inkscape"
   xmlns:sodipodi="http://sodipodi.sourceforge.net/DTD/sodipodi-0.dtd"
   xmlns="http://www.w3.org/2000/svg"
   xmlns:svg="http://www.w3.org/2000/svg"><sodipodi:namedview
     id="namedview7"
     pagecolor="#ffffff"
     bordercolor="#000000"
     borderopacity="0.25"
     inkscape:showpageshadow="2"
     inkscape:pageopacity="0.0"
     inkscape:pagecheckerboard="0"
     inkscape:deskcolor="#d1d1d1"
     inkscape:document-units="mm"
     showgrid="false"
     showguides="true"
     inkscape:zoom="0.78997086"
     inkscape:cx="492.42323"
     inkscape:cy="140.51151"
     inkscape:window-width="1920"
     inkscape:window-height="1008"
     inkscape:window-x="0"
     inkscape:window-y="96"
     inkscape:window-maximized="1"
     inkscape:current-layer="layer1"><sodipodi:guide
       position="65.574575,100.03675"
       orientation="0,-1"
       id="guide7005"
       inkscape:locked="false" /><sodipodi:guide
       position="14.967093,65.121329"
       orientation="1,0"
       id="guide7007"
       inkscape:locked="false" /><sodipodi:guide
       position="117.49168,63.063353"
       orientation="1,0"
       id="guide7009"
       inkscape:locked="false" /><sodipodi:guide
       position="71.582184,45.036095"
       orientation="0,-1"
       id="guide7113"
       inkscape:locked="false" /><sodipodi:guide
       position="113.24166,25.135417"
       orientation="0,-1"
       id="guide7121"
       inkscape:locked="false" /></sodipodi:namedview><defs
     id="defs2" /><g
     inkscape:label="Layer 1"
     inkscape:groupmode="layer"
     id="layer1"><path
       style="color:#000000;fill:#ffffff;stroke-width:6;stroke-linecap:round;stroke-linejoin:round;-inkscape-stroke:none"
       d="m 18.306602,6.306602 h 98.853458 c 6.648,0 12,5.352 12,12 v 98.853458 c 0,6.648 -5.352,12 -12,12 H 18.306602 c -6.648,0 -12,-5.352 -12,-12 V 18.306602 c 0,-6.648 5.352,-12 12,-12 z"
       id="path12360" /><path
       style="color:#000000;fill:#7c6f91;fill-opacity:1;stroke-linecap:round;stroke-linejoin:round;-inkscape-stroke:none"
       d="m 18.306571,3.3065736 c -8.2581,0 -15.0000002,6.7419004 -15.0000002,15.0000004 v 98.853516 c 0,8.2581 6.7419002,15 15.0000002,15 H 117.1601 c 8.2581,0 15,-6.7419 15,-15 V 18.306574 c 0,-8.2581 -6.7419,-15.0000004 -15,-15.0000004 z"
       id="path12357" /><path
       style="color:#000000;fill:#ede7f4;fill-opacity:1;stroke-linecap:round;stroke-linejoin:round;-inkscape-stroke:none"
       d="m 18.306573,9.3065736 h 98.853517 c 5.03788,0 9,3.9621134 9,9.0000004 v 98.853516 c 0,5.03788 -3.96212,9 -9,9 H 18.306573 c -5.03789,0 -8.9999997,-3.96212 -8.9999997,-9 V 18.306574 c 0,-5.037887 3.9621097,-9.0000004 8.9999997,-9.0000004 z"
       id="path18728" /><path
       id="path1634"
       style="color:#000000;fill:#ea018e;fill-opacity:1;stroke-width:0.663019;stroke-linecap:round;stroke-linejoin:round;-inkscape-stroke:none"
       d="M 43.021663 34.663 C 32.741154 34.663 24.363888 43.040274 24.363888 53.320776 C 24.363888 58.583087 26.559742 63.346028 30.081368 66.742696 C 22.419586 68.495027 16.696139 75.352649 16.696139 83.543221 L 16.696139 101.71679 C 16.696139 111.23252 24.418692 118.95553 33.934363 118.95553 L 52.107931 118.95553 C 54.085552 118.95553 55.985102 118.62065 57.754614 118.00675 C 56.628175 117.14124 55.792201 115.94686 55.40282 114.57285 C 54.351012 114.83704 53.247405 114.97748 52.107931 114.97748 L 33.934363 114.97748 C 26.55373 114.97748 20.67419 109.09746 20.67419 101.71679 L 20.67419 83.543221 C 20.67419 76.1626 26.55373 70.283049 33.934363 70.283049 L 35.26038 70.283049 C 37.625538 71.370708 40.254446 71.978552 43.021663 71.978552 C 45.788801 71.978552 48.417452 71.370645 50.78243 70.283049 L 52.107931 70.283049 C 58.162234 70.283049 63.205481 74.239914 64.822917 79.735701 A 10.242124 9.7872796 0 0 1 66.267273 79.637 A 10.242124 9.7872796 0 0 1 68.979769 79.997184 C 67.603976 73.430088 62.485883 68.235053 55.961442 66.742696 C 59.482819 63.34602 61.677889 58.583155 61.677889 53.320776 C 61.677889 43.040274 53.302153 34.663 43.021663 34.663 z M 43.021663 38.641052 C 51.152235 38.641052 57.700354 45.190202 57.700354 53.320776 C 57.700354 61.451351 51.152235 68.0005 43.021663 68.0005 C 34.891082 68.0005 28.341939 61.451351 28.341939 53.320776 C 28.341939 45.190202 34.891082 38.641052 43.021663 38.641052 z " /><path
       id="path1645"
       style="color:#000000;fill:#00adec;fill-opacity:1;stroke-width:0.663019;stroke-linecap:round;stroke-linejoin:round;-inkscape-stroke:none"
       d="M 91.910669 35.57974 C 81.630159 35.57974 73.252376 43.957014 73.252376 54.237516 C 73.252376 59.499827 75.44823 64.262767 78.969857 67.659436 C 72.87449 69.053509 68.009439 73.68051 66.273474 79.637516 A 10.242124 9.7872796 0 0 1 70.188997 80.391475 C 71.887522 75.032141 76.865535 71.199788 82.823368 71.199788 L 84.148869 71.199788 C 86.514036 72.287448 89.143452 72.895292 91.910669 72.895292 C 94.677806 72.895292 97.306458 72.287385 99.671436 71.199788 L 100.99642 71.199788 C 108.37703 71.199788 114.25711 77.07934 114.25711 84.459961 L 114.25711 102.63353 C 114.25711 110.01419 108.37703 115.89422 100.99642 115.89422 L 82.823368 115.89422 C 80.773719 115.89422 78.840576 115.43922 77.116223 114.62608 C 76.732362 115.93731 75.941694 117.0825 74.879667 117.92975 C 77.25782 119.16813 79.95828 119.87227 82.823368 119.87227 L 100.99642 119.87227 C 110.51209 119.87227 118.23516 112.14926 118.23516 102.63353 L 118.23516 84.459961 C 118.23516 76.269518 112.51155 69.411901 104.84993 67.659436 C 108.37131 64.262759 110.56689 59.499895 110.56689 54.237516 C 110.56689 43.957014 102.19116 35.57974 91.910669 35.57974 z M 91.910669 39.557792 C 100.04125 39.557792 106.58884 46.106942 106.58884 54.237516 C 106.58884 62.368091 100.04125 68.91724 91.910669 68.91724 C 83.780097 68.91724 77.230945 62.368091 77.230945 54.237516 C 77.230945 46.106942 83.780097 39.557792 91.910669 39.557792 z " /><path
       id="path1637"
       style="color:#000000;fill:#632d93;fill-opacity:1;stroke-width:1.45706;stroke-linecap:round;stroke-linejoin:round;-inkscape-stroke:none"
       d="m 66.26727,83.071253 a 8.2182785,8.2182785 0 0 0 -8.218005,8.218012 8.2182785,8.2182785 0 0 0 4.659685,7.408099 c -2.98672,0.119911 -5.355271,2.562976 -5.355271,5.580176 v 6.65641 c 0,3.09429 2.491314,5.58559 5.585596,5.58559 h 6.656403 c 3.09429,0 5.585183,-2.4913 5.585183,-5.58559 v -6.65641 c 0,-3.0172 -2.368551,-5.460265 -5.355271,-5.580176 a 8.2182785,8.2182785 0 0 0 4.660106,-7.408099 8.2182785,8.2182785 0 0 0 -8.218426,-8.218012 z" /><text
       xml:space="preserve"
       style="font-style:normal;font-variant:normal;font-weight:bold;font-stretch:normal;font-size:17.4103px;line-height:0px;font-family:'IBM Plex Sans';-inkscape-font-specification:'IBM Plex Sans Bold';font-variation-settings:normal;text-align:center;text-anchor:middle;opacity:1;vector-effect:none;fill:#7c6f91;fill-opacity:1;stroke:#e6e6e6;stroke-width:8.22534;stroke-linecap:round;stroke-linejoin:round;stroke-miterlimit:4;stroke-dasharray:none;stroke-dashoffset:0;stroke-opacity:1;-inkscape-stroke:none;stop-color:#000000;stop-opacity:1"
       x="67.156204"
       y="26.442286"
       id="text12011"><tspan
         sodipodi:role="line"
         id="tspan12009"
         style="font-style:normal;font-variant:normal;font-weight:normal;font-stretch:normal;font-family:'IBM Plex Sans';-inkscape-font-specification:'IBM Plex Sans';fill:#7c6f91;stroke:none;stroke-width:8.22534;fill-opacity:1"
         x="67.156204"
         y="26.442286">Adopciones</tspan></text></g></svg>
