<?xml version="1.0" encoding="UTF-8" standalone="no"?>
<!-- Created with Inkscape (http://www.inkscape.org/) -->

<svg
   inkscape:export-ydpi="96"
   inkscape:export-xdpi="96"
   inkscape:export-filename="no-logo.png"
   sodipodi:docname="siglo-logo.svg"
   inkscape:version="1.2.2 (b0a8486541, 2022-12-01)"
   xml:space="preserve"
   id="svg5"
   version="1.1"
   viewBox="0 0 135.46666 135.46667"
   height="512"
   width="512"
   xmlns:inkscape="http://www.inkscape.org/namespaces/inkscape"
   xmlns:sodipodi="http://sodipodi.sourceforge.net/DTD/sodipodi-0.dtd"
   xmlns="http://www.w3.org/2000/svg"
   xmlns:svg="http://www.w3.org/2000/svg"><sodipodi:namedview
     id="namedview7"
     pagecolor="#ffffff"
     bordercolor="#000000"
     borderopacity="0.25"
     inkscape:showpageshadow="2"
     inkscape:pageopacity="0.0"
     inkscape:pagecheckerboard="0"
     inkscape:deskcolor="#d1d1d1"
     inkscape:document-units="mm"
     showgrid="false"
     showguides="true"
     inkscape:zoom="0.78997086"
     inkscape:cx="311.40389"
     inkscape:cy="205.07086"
     inkscape:window-width="1920"
     inkscape:window-height="1008"
     inkscape:window-x="0"
     inkscape:window-y="96"
     inkscape:window-maximized="1"
     inkscape:current-layer="layer1"><sodipodi:guide
       position="65.574575,100.03675"
       orientation="0,-1"
       id="guide7005"
       inkscape:locked="false" /><sodipodi:guide
       position="14.967093,65.121329"
       orientation="1,0"
       id="guide7007"
       inkscape:locked="false" /><sodipodi:guide
       position="117.49168,63.063353"
       orientation="1,0"
       id="guide7009"
       inkscape:locked="false" /><sodipodi:guide
       position="59.934451,45.029718"
       orientation="0,-1"
       id="guide7113"
       inkscape:locked="false" /><sodipodi:guide
       position="113.24166,25.135417"
       orientation="0,-1"
       id="guide7121"
       inkscape:locked="false" /></sodipodi:namedview><defs
     id="defs2"><filter
       inkscape:collect="always"
       style="color-interpolation-filters:sRGB"
       id="filter5186"
       x="-0.08964852"
       y="-0.076767427"
       width="1.179297"
       height="1.1535349"><feGaussianBlur
         inkscape:collect="always"
         stdDeviation="0.8163468"
         id="feGaussianBlur5188" /></filter><filter
       inkscape:collect="always"
       style="color-interpolation-filters:sRGB"
       id="filter5190"
       x="-0.12862162"
       y="-0.079216509"
       width="1.2572432"
       height="1.158433"><feGaussianBlur
         inkscape:collect="always"
         stdDeviation="0.8163468"
         id="feGaussianBlur5192" /></filter><filter
       inkscape:collect="always"
       style="color-interpolation-filters:sRGB"
       id="filter5194"
       x="-0.091835857"
       y="-0.076776118"
       width="1.1836717"
       height="1.1535522"><feGaussianBlur
         inkscape:collect="always"
         stdDeviation="0.8163468"
         id="feGaussianBlur5196" /></filter><filter
       inkscape:collect="always"
       style="color-interpolation-filters:sRGB"
       id="filter5198"
       x="-0.15879534"
       y="-0.079249542"
       width="1.3175907"
       height="1.1584991"><feGaussianBlur
         inkscape:collect="always"
         stdDeviation="0.8163468"
         id="feGaussianBlur5200" /></filter><filter
       inkscape:collect="always"
       style="color-interpolation-filters:sRGB"
       id="filter5202"
       x="-0.10232617"
       y="-0.076778159"
       width="1.2046523"
       height="1.1535563"><feGaussianBlur
         inkscape:collect="always"
         stdDeviation="0.8163468"
         id="feGaussianBlur5204" /></filter></defs><g
     inkscape:label="Layer 1"
     inkscape:groupmode="layer"
     id="layer1"><rect
       style="fill:#4d4d4d;stroke-width:1.5875;stroke-linecap:round;stroke-linejoin:round;stop-color:#000000"
       id="rect4663"
       width="122.85346"
       height="122.85346"
       x="6.306602"
       y="6.306602"
       ry="12"
       rx="12" /><g
       id="g5211"
       transform="translate(1.0583333,2.1166667)"><path
         id="path4611"
         style="font-weight:bold;font-size:33.8667px;line-height:0px;font-family:'IBM Plex Sans';-inkscape-font-specification:'IBM Plex Sans Bold';text-align:center;text-anchor:middle;mix-blend-mode:normal;stroke-width:6.00001;stroke-linecap:round;stroke-linejoin:round;filter:url(#filter5202)"
         d="m 28.266369,53.755859 c -3.01836,0.07777 -6.34819,1.209971 -7.9084,3.977783 -1.34656,2.364418 -1.28749,5.481415 0.094,7.817139 1.46469,2.408379 4.40989,3.236927 7.04508,3.526303 1.2655,0.263272 2.77803,0.07523 3.80648,0.983463 0.93807,1.172645 0.23844,3.163826 -1.27148,3.425781 -2.55299,0.608923 -5.36806,-0.353172 -7.04688,-2.365234 -0.70284,-0.210362 -1.11601,0.291643 -1.53964,0.76793 -0.8709,0.87944 -1.7418,1.75888 -2.6127,2.63832 -0.18221,0.643579 0.23226,1.06548 0.69062,1.445267 2.06468,1.992419 4.85228,3.189959 7.72642,3.256648 3.18738,0.200102 6.7388,-0.49637 8.89596,-3.044684 1.96328,-2.326181 2.28879,-5.815527 1.08847,-8.566854 -1.18261,-2.525777 -4.03997,-3.627482 -6.62641,-4.05398 -1.49345,-0.357698 -3.16033,-0.248917 -4.50996,-1.060432 -0.8599,-0.802371 -0.62008,-2.574524 0.60948,-2.898582 2.16384,-0.660232 4.71812,-0.119264 6.26995,1.58082 0.2574,0.393776 1.13738,0.332318 1.38913,-0.18986 0.99985,-1.008979 1.99969,-2.017958 2.99954,-3.026937 0.17883,-0.633137 -0.21362,-1.059468 -0.67617,-1.426354 -2.24446,-2.123624 -5.39942,-2.909927 -8.42344,-2.786537 z" /><path
         id="path4613"
         style="font-weight:bold;font-size:33.8667px;line-height:0px;font-family:'IBM Plex Sans';-inkscape-font-specification:'IBM Plex Sans Bold';text-align:center;text-anchor:middle;mix-blend-mode:normal;stroke-width:6.00001;stroke-linecap:round;stroke-linejoin:round;filter:url(#filter5198)"
         d="m 40.219499,54.683594 c 0,1.365885 0,2.731771 0,4.097656 0.35412,0.632664 1.002,0.556131 1.62929,0.529297 0.45482,0.151698 1.58388,-0.370853 1.41953,0.4 1e-5,4.661588 0,9.323177 1e-5,13.984765 -0.83985,0 -1.67969,10e-7 -2.51954,0 -0.63266,0.354122 -0.55613,1.002003 -0.52929,1.629297 0.0469,1.01314 -0.0939,2.104007 0.0707,3.068367 0.35009,0.642403 1.0535,0.431787 1.65858,0.458587 3.34805,-10e-7 6.6961,0 10.04414,-10e-7 0.63267,-0.354121 0.55614,-1.002002 0.5293,-1.629296 -0.0469,-1.01314 0.0939,-2.104007 -0.0707,-3.068367 -0.35009,-0.642403 -1.05351,-0.431787 -1.65859,-0.458587 -0.48563,-0.120225 -1.56783,0.356112 -1.31757,-0.5 0,-4.628255 0,-9.25651 0,-13.884765 0.83919,0 1.67838,0 2.51757,0 0.63267,-0.354122 0.55614,-1.002002 0.5293,-1.629297 -0.0469,-1.013139 0.0939,-2.104006 -0.0707,-3.068367 -0.35009,-0.642403 -1.05351,-0.431787 -1.65859,-0.458586 -3.34804,0 -6.69609,0 -10.04414,0 -0.17643,0.176432 -0.35286,0.352864 -0.52929,0.529297 z" /><path
         id="path4615"
         style="font-weight:bold;font-size:33.8667px;line-height:0px;font-family:'IBM Plex Sans';-inkscape-font-specification:'IBM Plex Sans Bold';text-align:center;text-anchor:middle;mix-blend-mode:normal;stroke-width:6.00001;stroke-linecap:round;stroke-linejoin:round;filter:url(#filter5194)"
         d="m 65.475359,53.759766 c -3.57753,0.07585 -7.14986,1.986348 -8.85157,5.195312 -1.92308,3.507728 -2.11461,7.730233 -1.38966,11.594829 0.66359,3.404086 2.78327,6.715839 6.11666,8.002851 2.41035,0.93108 5.28297,1.031575 7.61658,-0.170778 0.70506,-0.387517 1.32309,-0.934542 1.80096,-1.581199 0.10811,0.629045 -0.28778,1.466855 0.35355,1.875038 0.45626,0.38608 1.20081,0.07615 1.77574,0.175743 0.91133,10e-7 1.82266,0 2.73399,0 0.63266,-0.354121 0.55613,-1.002002 0.52929,-1.629296 0,-4.02461 0,-8.049219 0,-12.073828 -0.35412,-0.632664 -1.002,-0.556132 -1.62929,-0.529297 -2.7375,0 -5.475,0 -8.2125,0 -0.63267,0.354121 -0.55614,1.002002 -0.5293,1.629297 0,1.066927 0,2.133854 0,3.200781 0.35412,0.632663 1.002,0.556131 1.6293,0.529297 0.92435,0 1.84869,0 2.77304,0 0.16684,1.252837 -0.38495,2.622468 -1.60005,3.133806 -1.67504,0.751395 -3.7826,0.723968 -5.36651,-0.244068 -1.76023,-1.107818 -1.92014,-3.407754 -1.86352,-5.285441 0.1018,-2.158542 -0.37879,-4.556825 0.85547,-6.483204 1.32879,-1.820707 3.99489,-2.092508 5.9812,-1.334569 1.07804,0.510745 1.87506,1.513321 2.30591,2.60996 0.61966,0.416719 1.16392,0.06929 1.70656,-0.294612 1.08154,-0.619244 2.16308,-1.238488 3.24462,-1.857732 0.34205,-0.563911 0.0723,-1.083372 -0.26221,-1.57122 -1.62429,-2.955301 -4.89887,-4.750731 -8.22822,-4.875126 -0.49621,-0.02695 -0.99329,-0.03711 -1.49004,-0.01654 z" /><path
         id="path4617"
         style="font-weight:bold;font-size:33.8667px;line-height:0px;font-family:'IBM Plex Sans';-inkscape-font-specification:'IBM Plex Sans Bold';text-align:center;text-anchor:middle;mix-blend-mode:normal;stroke-width:6.00001;stroke-linecap:round;stroke-linejoin:round;filter:url(#filter5190)"
         d="m 80.115979,54.683594 c 0,7.879557 0,15.759114 0,23.638672 0.35412,0.632663 1.002,0.556131 1.6293,0.529296 4.35208,10e-7 8.70416,0 13.05625,0 0.63266,-0.354121 0.55613,-1.002002 0.5293,-1.629296 0,-1.157422 -10e-6,-2.314844 0,-3.472266 -0.35413,-0.632664 -1.00201,-0.556131 -1.6293,-0.529297 -2.46016,0 -4.92031,0 -7.38047,0 0,-6.179036 0,-12.358073 0,-18.537109 -0.35412,-0.632664 -1.002,-0.556132 -1.6293,-0.529297 -1.34883,0 -2.69765,0 -4.04648,0 -0.17643,0.176432 -0.35287,0.352864 -0.5293,0.529297 z" /><path
         id="path4619"
         style="font-weight:bold;font-size:33.8667px;line-height:0px;font-family:'IBM Plex Sans';-inkscape-font-specification:'IBM Plex Sans Bold';text-align:center;text-anchor:middle;mix-blend-mode:normal;stroke-width:6.00001;stroke-linecap:round;stroke-linejoin:round;filter:url(#filter5186)"
         d="m 106.13161,53.759766 c -3.12405,0.07563 -6.279401,1.507502 -8.042971,4.152343 -2.31909,3.428807 -2.60722,7.812835 -2.05187,11.805943 0.49511,3.406519 2.30144,6.870432 5.519181,8.4029 3.20042,1.529511 7.12279,1.529468 10.3247,0.0041 3.26714,-1.552845 5.07394,-5.088764 5.54979,-8.544733 0.52839,-4.022408 0.21306,-8.452861 -2.2106,-11.852587 -1.87392,-2.689257 -5.20098,-4.014438 -8.40841,-3.979829 -0.22654,-0.0048 -0.45327,0.0094 -0.67982,0.01182 z m 1.11132,5.640625 c 1.84547,0.05652 3.35552,1.577028 3.67966,3.346391 0.39142,1.943509 0.15668,3.947464 0.20269,5.916704 0.009,1.948943 -0.89617,4.195476 -2.93117,4.764248 -1.91883,0.566525 -4.38638,-0.0098 -5.26221,-1.969888 -0.97712,-2.101108 -0.51297,-4.482046 -0.62451,-6.717612 -0.0416,-1.929819 0.57114,-4.2371 2.53906,-5.021484 0.7568,-0.309892 1.58723,-0.374921 2.39648,-0.318359 z" /></g><text
       xml:space="preserve"
       style="font-weight:bold;font-size:33.8667px;line-height:0px;font-family:'IBM Plex Sans';-inkscape-font-specification:'IBM Plex Sans Bold';text-align:center;text-anchor:middle;fill:#4d4d4d;stroke-width:6.00001;stroke-linecap:round;stroke-linejoin:round;-inkscape-stroke:none;stop-color:#000000"
       x="67.915375"
       y="78.321648"
       id="text4392"><tspan
         sodipodi:role="line"
         id="tspan4390"
         style="font-size:33.8667px;fill:#e6e6e6;stroke-width:6.00001"
         x="67.915375"
         y="78.321648">SIGLO</tspan></text></g></svg>
