<?xml version="1.0" encoding="UTF-8" standalone="no"?>
<!-- Created with Inkscape (http://www.inkscape.org/) -->

<svg
   width="512"
   height="512"
   viewBox="0 0 135.46666 135.46667"
   version="1.1"
   id="svg5"
   xml:space="preserve"
   inkscape:version="1.2.2 (b0a8486541, 2022-12-01)"
   sodipodi:docname="sigpac-logo.svg"
   inkscape:export-filename="sigpac-logo.png"
   inkscape:export-xdpi="96"
   inkscape:export-ydpi="96"
   xmlns:inkscape="http://www.inkscape.org/namespaces/inkscape"
   xmlns:sodipodi="http://sodipodi.sourceforge.net/DTD/sodipodi-0.dtd"
   xmlns="http://www.w3.org/2000/svg"
   xmlns:svg="http://www.w3.org/2000/svg"><sodipodi:namedview
     id="namedview7"
     pagecolor="#ffffff"
     bordercolor="#000000"
     borderopacity="0.25"
     inkscape:showpageshadow="2"
     inkscape:pageopacity="0.0"
     inkscape:pagecheckerboard="0"
     inkscape:deskcolor="#d1d1d1"
     inkscape:document-units="mm"
     showgrid="false"
     inkscape:zoom="1.0431611"
     inkscape:cx="371.9464"
     inkscape:cy="358.52565"
     inkscape:window-width="1920"
     inkscape:window-height="1008"
     inkscape:window-x="0"
     inkscape:window-y="96"
     inkscape:window-maximized="1"
     inkscape:current-layer="layer1"
     showguides="true"><sodipodi:guide
       position="22.239129,-2.2724638"
       orientation="0,-1"
       id="guide2249"
       inkscape:locked="false" /><sodipodi:guide
       position="-4.6630432,-24.152899"
       orientation="1,0"
       id="guide2251"
       inkscape:locked="false" /></sodipodi:namedview><defs
     id="defs2"><filter
       inkscape:collect="always"
       style="color-interpolation-filters:sRGB"
       id="filter3016"
       x="-0.033669011"
       y="-0.14142536"
       width="1.0663742"
       height="1.2828507"><feGaussianBlur
         inkscape:collect="always"
         stdDeviation="0.73976203"
         id="feGaussianBlur3018" /></filter></defs><g
     inkscape:label="Capa 1"
     inkscape:groupmode="layer"
     id="layer1"><circle
       style="opacity:0.4;fill:#808000;fill-rule:evenodd;stroke-width:0.264583"
       id="path2423"
       cx="67.58577"
       cy="66.786163"
       r="58.618851" /><g
       aria-label="SIGPAC"
       id="text2991"
       style="font-size:34.5261px;line-height:14.6477px;font-family:Oswald;-inkscape-font-specification:Oswald;text-align:center;text-anchor:middle;opacity:0.366718;stroke:#000000;stroke-width:3.5;filter:url(#filter3016);stop-color:#000000"
       transform="translate(70.535934,-204.8376)"><path
         d="m -56.159603,287.67484 q -3.176401,0 -5.386071,-1.07031 -2.209671,-1.10483 -3.763345,-2.83114 l 3.45261,-3.48713 q 2.451353,2.76208 6.042067,2.76208 1.933462,0 2.865666,-0.7941 0.932205,-0.7941 0.932205,-2.10609 0,-1.00125 -0.552417,-1.65725 -0.552418,-0.69052 -2.244197,-0.93221 l -2.382301,-0.31073 q -3.832397,-0.48337 -5.627754,-2.31325 -1.760831,-1.82988 -1.760831,-4.86818 0,-1.62273 0.62147,-2.96924 0.621469,-1.34652 1.760831,-2.31325 1.173887,-0.96673 2.83114,-1.48462 1.691779,-0.55242 3.832397,-0.55242 2.727562,0 4.799128,0.86315 2.071566,0.86315 3.556188,2.52041 l -3.487136,3.52166 q -0.863152,-1.00126 -2.106092,-1.62273 -1.208414,-0.656 -3.072823,-0.656 -1.760831,0 -2.623984,0.62147 -0.863152,0.62147 -0.863152,1.72631 0,1.24294 0.655996,1.79536 0.690522,0.55241 2.20967,0.7941 l 2.382301,0.37978 q 3.728819,0.58695 5.524176,2.31325 1.795357,1.69178 1.795357,4.83366 0,1.7263 -0.621469,3.1764 -0.62147,1.45009 -1.829884,2.48588 -1.173887,1.03578 -2.934718,1.62272 -1.760831,0.55242 -4.005028,0.55242 z"
         style="font-weight:bold;font-family:'IBM Plex Sans';-inkscape-font-specification:'IBM Plex Sans Bold'"
         id="path3003" /><path
         d="m -43.3504,287.26053 v -4.17766 h 3.107349 v -15.7439 H -43.3504 v -4.17766 h 11.462665 v 4.17766 h -3.107349 v 15.7439 h 3.107349 v 4.17766 z"
         style="font-weight:bold;font-family:'IBM Plex Sans';-inkscape-font-specification:'IBM Plex Sans Bold'"
         id="path3005" /><path
         d="m -12.207886,283.42813 h -0.172631 q -0.276209,1.82988 -1.864409,3.0383 -1.588201,1.20841 -4.315763,1.20841 -2.071566,0 -3.866923,-0.7941 -1.795357,-0.7941 -3.141875,-2.34777 -1.346518,-1.55368 -2.106092,-3.86693 -0.759574,-2.31325 -0.759574,-5.35154 0,-3.0383 0.7941,-5.38607 0.7941,-2.34778 2.20967,-3.93598 1.450097,-1.5882 3.45261,-2.41683 2.002514,-0.82862 4.453867,-0.82862 3.245454,0 5.593228,1.41557 2.3477753,1.38104 3.6942932,4.17766 l -4.2812362,2.45135 q -0.552418,-1.41557 -1.726305,-2.3823 -1.173888,-1.00126 -3.27998,-1.00126 -2.451353,0 -3.901449,1.41557 -1.450096,1.41557 -1.450096,4.45387 v 3.86692 q 0,3.00377 1.450096,4.45387 1.450096,1.41557 3.901449,1.41557 0.966731,0 1.829884,-0.20716 0.863152,-0.24168 1.519148,-0.69052 0.655996,-0.48337 1.001257,-1.13936 0.379787,-0.656 0.379787,-1.55368 v -1.20841 h -4.488393 v -4.38481 h 9.4946775 v 13.43065 h -4.4193405 z"
         style="font-weight:bold;font-family:'IBM Plex Sans';-inkscape-font-specification:'IBM Plex Sans Bold'"
         id="path3007" /><path
         d="M -2.678688,287.26053 V 263.16131 H 8.7149251 q 1.6917789,0 3.0382969,0.58694 1.346518,0.55242 2.278722,1.55368 0.966731,1.00126 1.484623,2.45135 0.517891,1.41557 0.517891,3.10735 0,1.72631 -0.517891,3.14188 -0.517892,1.41557 -1.484623,2.41682 -0.932204,1.00126 -2.278722,1.5882 -1.346518,0.55242 -3.0382969,0.55242 H 2.5692792 v 8.70058 z m 5.2479672,-13.25802 h 5.5241761 q 1.1738874,0 1.8298833,-0.58695 0.6905224,-0.62147 0.6905224,-1.79535 v -1.51915 q 0,-1.17389 -0.6905224,-1.76083 -0.6559959,-0.62147 -1.8298833,-0.62147 H 2.5692792 Z"
         style="font-weight:bold;font-family:'IBM Plex Sans';-inkscape-font-specification:'IBM Plex Sans Bold'"
         id="path3009" /><path
         d="m 32.296258,287.26053 -1.726305,-5.73133 h -8.044581 l -1.726305,5.73133 h -5.31702 l 7.941003,-24.09922 h 6.490907 l 7.837425,24.09922 z m -5.696806,-19.33462 h -0.172631 l -2.65851,9.14942 h 5.524177 z"
         style="font-weight:bold;font-family:'IBM Plex Sans';-inkscape-font-specification:'IBM Plex Sans Bold'"
         id="path3011" /><path
         d="m 49.800951,287.67484 q -2.451353,0 -4.419341,-0.75957 -1.967988,-0.7941 -3.349032,-2.31325 -1.381044,-1.55368 -2.140618,-3.8324 -0.759574,-2.31325 -0.759574,-5.38607 0,-3.0383 0.759574,-5.38607 0.759574,-2.3823 2.140618,-3.9705 1.381044,-1.62273 3.349032,-2.45136 1.967988,-0.82862 4.419341,-0.82862 3.349031,0 5.524176,1.38104 2.175144,1.34652 3.487136,4.28124 l -4.522919,2.34777 q -0.483366,-1.51915 -1.519149,-2.41682 -1.001257,-0.93221 -2.969244,-0.93221 -2.313249,0 -3.728819,1.51915 -1.381044,1.48462 -1.381044,4.35029 v 3.86692 q 0,2.86567 1.381044,4.38482 1.41557,1.48462 3.728819,1.48462 1.933461,0 3.072823,-1.03578 1.173887,-1.07031 1.726305,-2.55494 l 4.281236,2.48588 q -1.346518,2.76209 -3.556188,4.28124 -2.175145,1.48462 -5.524176,1.48462 z"
         style="font-weight:bold;font-family:'IBM Plex Sans';-inkscape-font-specification:'IBM Plex Sans Bold'"
         id="path3013" /></g><g
       id="g2987"
       transform="translate(67.133922,-133.96124)"><text
         xml:space="preserve"
         style="font-style:normal;font-variant:normal;font-weight:normal;font-stretch:normal;font-size:34.5261px;line-height:14.6477px;font-family:Oswald;-inkscape-font-specification:Oswald;text-align:center;text-anchor:middle;opacity:1;fill:#000000;fill-opacity:1;stroke:#000000;stroke-width:3.5;stroke-dasharray:none;stroke-opacity:1;stop-color:#000000"
         x="-0.53045702"
         y="215.55727"
         id="text606"><tspan
           sodipodi:role="line"
           id="tspan604"
           style="font-style:normal;font-variant:normal;font-weight:bold;font-stretch:normal;font-family:'IBM Plex Sans';-inkscape-font-specification:'IBM Plex Sans Bold';fill:#000000;fill-opacity:1;stroke:#000000;stroke-width:3.5;stroke-dasharray:none;stroke-opacity:1"
           x="-0.53045672"
           y="215.55727">SIGPAC</tspan></text><text
         xml:space="preserve"
         style="font-style:normal;font-variant:normal;font-weight:normal;font-stretch:normal;font-size:34.5261px;line-height:14.6477px;font-family:Oswald;-inkscape-font-specification:Oswald;text-align:center;text-anchor:middle;opacity:1;fill:#ffffff;fill-opacity:1;stroke:none;stroke-width:2;stroke-dasharray:none;stroke-opacity:1;stop-color:#000000"
         x="-0.53045702"
         y="215.6282"
         id="text2981"><tspan
           sodipodi:role="line"
           id="tspan2979"
           style="font-style:normal;font-variant:normal;font-weight:bold;font-stretch:normal;font-family:'IBM Plex Sans';-inkscape-font-specification:'IBM Plex Sans Bold';fill:#ffffff;fill-opacity:1;stroke:none;stroke-width:2;stroke-dasharray:none;stroke-opacity:1"
           x="-0.53045672"
           y="215.6282">SIGPAC</tspan></text></g></g></svg>
