<?xml version="1.0" encoding="UTF-8" standalone="no"?>
<!-- Created with Inkscape (http://www.inkscape.org/) -->

<svg
   width="512"
   height="512"
   viewBox="0 0 135.46666 135.46667"
   version="1.1"
   id="svg5"
   xml:space="preserve"
   inkscape:version="1.2.2 (b0a8486541, 2022-12-01)"
   sodipodi:docname="sinca-logo.svg"
   inkscape:export-filename="sinca-logo.png"
   inkscape:export-xdpi="96"
   inkscape:export-ydpi="96"
   xmlns:inkscape="http://www.inkscape.org/namespaces/inkscape"
   xmlns:sodipodi="http://sodipodi.sourceforge.net/DTD/sodipodi-0.dtd"
   xmlns="http://www.w3.org/2000/svg"
   xmlns:svg="http://www.w3.org/2000/svg"><sodipodi:namedview
     id="namedview7"
     pagecolor="#ffffff"
     bordercolor="#000000"
     borderopacity="0.25"
     inkscape:showpageshadow="2"
     inkscape:pageopacity="0.0"
     inkscape:pagecheckerboard="0"
     inkscape:deskcolor="#d1d1d1"
     inkscape:document-units="mm"
     showgrid="false"
     showguides="true"
     inkscape:zoom="0.52787981"
     inkscape:cx="466.96235"
     inkscape:cy="15.154965"
     inkscape:window-width="1920"
     inkscape:window-height="1008"
     inkscape:window-x="0"
     inkscape:window-y="96"
     inkscape:window-maximized="1"
     inkscape:current-layer="layer1"><sodipodi:guide
       position="69.199579,-148.46427"
       orientation="1,0"
       id="guide616"
       inkscape:locked="false" /><sodipodi:guide
       position="143.09799,-80.809285"
       orientation="1,0"
       id="guide740"
       inkscape:locked="false" /><sodipodi:guide
       position="90.783267,-146.97018"
       orientation="0,-1"
       id="guide743"
       inkscape:locked="false" /><sodipodi:guide
       position="87.251588,-154.11685"
       orientation="0,-1"
       id="guide745"
       inkscape:locked="false" /><sodipodi:guide
       position="74.243044,-115.95726"
       orientation="1,0"
       id="guide749"
       inkscape:locked="false" /><sodipodi:guide
       position="95.914617,-121.85873"
       orientation="0,-1"
       id="guide751"
       inkscape:locked="false" /></sodipodi:namedview><defs
     id="defs2" /><g
     inkscape:label="Layer 1"
     inkscape:groupmode="layer"
     id="layer1"><g
       id="g935"
       transform="matrix(1.1125165,0,0,1.1125165,-11.061922,-1.4911029)"><g
         id="g863"><path
           d="m 16.037577,105.32555 5.017205,-0.48779 q 0.452942,2.52603 1.829189,3.71064 1.393668,1.18462 3.745482,1.18462 2.491182,0 3.745483,-1.04525 1.271722,-1.06267 1.271722,-2.47376 0,-0.90588 -0.540046,-1.53303 -0.522626,-0.64458 -1.84661,-1.11494 -0.905885,-0.31357 -4.128742,-1.11493 -4.146162,-1.02783 -5.818563,-2.526026 -2.351815,-2.107923 -2.351815,-5.13915 0,-1.951135 1.097514,-3.640958 1.114934,-1.707243 3.188015,-2.595706 2.090502,-0.888464 5.034625,-0.888464 4.808155,0 7.229653,2.107923 2.438919,2.107923 2.560864,5.626934 l -5.156571,0.226471 q -0.330996,-1.968556 -1.428509,-2.822177 -1.080093,-0.871043 -3.257699,-0.871043 -2.24729,0 -3.519012,0.923305 -0.81878,0.592309 -0.81878,1.585298 0,0.905884 0.766518,1.550455 0.975567,0.81878 4.738471,1.707243 3.762903,0.888464 5.557251,1.84661 1.811768,0.940725 2.822177,2.595705 1.02783,1.63756 1.02783,4.05906 0,2.19503 -1.219459,4.11132 -1.21946,1.91629 -3.449328,2.85702 -2.229869,0.9233 -5.557251,0.9233 -4.842996,0 -7.438703,-2.22986 -2.595706,-2.24729 -3.100911,-6.53282 z"
           style="font-weight:bold;font-size:35.6779px;line-height:35.6779px;font-family:Arial;-inkscape-font-specification:'Arial Bold';text-align:center;text-anchor:middle;fill:#000000;stroke-width:22.4743;stroke-linecap:round;stroke-linejoin:round"
           id="path755" /><path
           d="M 40.984232,113.63529 V 88.096328 h 5.156571 v 25.538962 z"
           style="font-weight:bold;font-size:35.6779px;line-height:35.6779px;font-family:Arial;-inkscape-font-specification:'Arial Bold';text-align:center;text-anchor:middle;fill:#000000;stroke-width:22.4743;stroke-linecap:round;stroke-linejoin:round"
           id="path757" /><path
           id="path761"
           style="font-weight:bold;font-size:35.6779px;line-height:35.6779px;font-family:Arial;-inkscape-font-specification:'Arial Bold';text-align:center;text-anchor:middle;fill:#000000;stroke-width:22.4743;stroke-linecap:round;stroke-linejoin:round"
           d="m 87.863888,87.660799 c -3.577078,0 -6.463362,1.178599 -8.658387,3.536218 -2.195024,2.346005 -3.292305,5.644838 -3.292305,9.895523 0,4.0184 1.091324,7.18878 3.274735,9.51156 2.183411,2.31117 4.971025,3.46646 8.362281,3.46646 2.740877,0 4.999922,-0.67334 6.776847,-2.02055 0.784332,-0.59589 1.469969,-1.32926 2.057755,-2.19987 l -3.823539,-3.71812 c -0.399621,0.93744 -0.908709,1.67909 -1.527038,2.22467 -0.987181,0.87105 -2.16578,1.3069 -3.536219,1.3069 -1.858222,0 -3.36805,-0.68525 -4.529439,-2.05569 -1.161389,-1.37044 -1.742012,-3.67014 -1.742012,-6.8988 0,-3.042839 0.586579,-5.243875 1.759582,-6.602699 1.184616,-1.358826 2.723192,-2.038119 4.616256,-2.038119 1.370438,0 2.531686,0.383284 3.484025,1.149801 0.705348,0.560879 1.232979,1.271777 1.583882,2.131136 L 96.457161,91.56237 C 96.157147,91.141202 95.830809,90.763369 95.47686,90.430656 93.525727,88.584048 90.988024,87.660799 87.863888,87.660799 Z" /><path
           d="m 125.61471,113.63529 h -5.60951 l -2.22987,-5.80114 h -10.20861 l -2.10793,5.80114 h -5.470144 l 9.947304,-25.538962 h 5.45273 z m -9.49436,-10.10409 -3.51901,-9.476942 -3.44933,9.476942 z"
           style="font-weight:bold;font-size:35.6779px;line-height:35.6779px;font-family:Arial;-inkscape-font-specification:'Arial Bold';text-align:center;text-anchor:middle;fill:#000000;stroke-width:22.4743;stroke-linecap:round;stroke-linejoin:round"
           id="path763" /></g><g
         id="g857"
         transform="translate(0.39217683)"><path
           d="M 51.105746,113.63529 V 88.096328 h 5.017205 L 66.57546,105.15134 V 88.096328 h 4.790734 V 113.63529 H 66.192202 L 55.89648,96.980961 v 16.654329 z"
           style="font-weight:bold;font-size:35.6779px;line-height:35.6779px;font-family:Arial;-inkscape-font-specification:'Arial Bold';text-align:center;text-anchor:middle;fill:#000000;stroke-width:22.4743;stroke-linecap:round;stroke-linejoin:round"
           id="path759" /><path
           id="path618"
           style="fill:#1a1a1a;stroke-width:7.99999;stroke-linecap:round;stroke-linejoin:round;stop-color:#000000"
           d="m 55.738372,31.048995 7.607316,7.08511 10.932149,-0.0362 c 6.970794,1e-5 12.611596,5.65453 12.611606,12.62532 -2e-5,6.97078 -5.650667,12.62144 -12.621453,12.62145 -0.129847,-0.004 -11.729566,-0.0797 -11.859224,-0.0879 l 0.0067,0.007 -11.818401,-0.0419 1.476396,-1.64227 -3.104203,-3.10369 -8.215519,8.21552 8.412406,8.41189 2.826701,-2.8267 -1.8495,-1.88826 18.763713,-10e-4 5.17e-4,5.1e-4 5.360396,0.0145 c 10.868791,1.1e-4 19.679531,-8.81063 19.679421,-19.67942 -1.6e-4,-10.45648 -8.15563,-19.00673 -18.452622,-19.64014 -0.02341,-0.0116 -0.04572,-0.0219 -0.06925,-0.0336 h -0.727604 z"
           sodipodi:nodetypes="cccscccccccccccccscccc" /><path
           id="path753"
           style="fill:#1a1a1a;stroke-width:7.99999;stroke-linecap:round;stroke-linejoin:round;stop-color:#000000"
           d="m 78.943941,54.412675 -7.607316,-7.08511 -10.932149,0.0362 c -6.970794,-1e-5 -12.611596,-5.65453 -12.611606,-12.62532 2e-5,-6.97078 5.650667,-12.62144 12.621453,-12.62145 0.129847,0.004 11.729566,0.0797 11.859224,0.0879 l -0.0067,-0.007 11.818396,0.0419 -1.47639,1.64227 3.1042,3.10369 8.21552,-8.21552 -8.41241,-8.41189 -2.8267,2.8267 1.8495,1.88826 -18.763709,0.001 -5.17e-4,-5.1e-4 -5.360396,-0.0145 c -10.868791,-1.1e-4 -19.679531,8.81063 -19.679421,19.67942 1.6e-4,10.45648 8.15563,19.00673 18.452622,19.64014 0.02341,0.0116 0.04572,0.0219 0.06925,0.0336 h 0.727604 z"
           sodipodi:nodetypes="cccscccccccccccccscccc" /></g></g></g></svg>
