<?xml version="1.0" encoding="UTF-8" standalone="no"?>
<!-- Created with Inkscape (http://www.inkscape.org/) -->

<svg
   width="512"
   height="512"
   viewBox="0 0 135.46666 135.46667"
   version="1.1"
   id="svg3132"
   xml:space="preserve"
   inkscape:version="1.2.2 (b0a8486541, 2022-12-01)"
   sodipodi:docname="sirhus-logo.svg"
   inkscape:export-filename="sirhus-logo.png"
   inkscape:export-xdpi="96"
   inkscape:export-ydpi="96"
   xmlns:inkscape="http://www.inkscape.org/namespaces/inkscape"
   xmlns:sodipodi="http://sodipodi.sourceforge.net/DTD/sodipodi-0.dtd"
   xmlns="http://www.w3.org/2000/svg"
   xmlns:svg="http://www.w3.org/2000/svg"><sodipodi:namedview
     id="namedview3134"
     pagecolor="#ffffff"
     bordercolor="#000000"
     borderopacity="0.25"
     inkscape:showpageshadow="2"
     inkscape:pageopacity="0.0"
     inkscape:pagecheckerboard="0"
     inkscape:deskcolor="#d1d1d1"
     inkscape:document-units="mm"
     showgrid="false"
     showguides="true"
     inkscape:zoom="0.74653479"
     inkscape:cx="-46.88328"
     inkscape:cy="227.71879"
     inkscape:window-width="1920"
     inkscape:window-height="1008"
     inkscape:window-x="0"
     inkscape:window-y="0"
     inkscape:window-maximized="1"
     inkscape:current-layer="layer1"><sodipodi:guide
       position="53.008114,-101.72147"
       orientation="1,0"
       id="guide15965"
       inkscape:locked="false" /><sodipodi:guide
       position="57.105159,-107.4407"
       orientation="1,0"
       id="guide15967"
       inkscape:locked="false" /><sodipodi:guide
       position="54.491346,-97.893638"
       orientation="0,-1"
       id="guide15969"
       inkscape:locked="false" /><sodipodi:guide
       position="53.915422,-123.14573"
       orientation="0,-1"
       id="guide15971"
       inkscape:locked="false" /></sodipodi:namedview><defs
     id="defs3129" /><g
     inkscape:label="Layer 1"
     inkscape:groupmode="layer"
     id="layer1"><g
       id="g16054"
       transform="matrix(0.94898975,0,0,0.94898975,4.7673328,7.8232991)"><path
         style="fill:#cc3300;fill-opacity:1;stroke-width:0.360981;stroke-linecap:round;stroke-linejoin:round;stop-color:#000000"
         d="M 29.856053,77.51535 32.641,73.00329 c 0.398361,-0.546553 0.408135,-1.49227 0.129571,-2.002364 0,0 -13.133212,-16.480949 -3.508624,-35.290129 9.624587,-18.80918 26.730746,-20.480371 26.730746,-20.480371 0,0 -22.694703,2.730058 -33.041449,22.954691 -10.346747,20.224633 5.53116,39.217923 5.53116,39.217923 0.400861,0.58664 0.862477,0.588111 1.373649,0.11231 z"
         id="path3319"
         sodipodi:nodetypes="ccczczcc" /><path
         style="fill:#cc3300;fill-opacity:1;stroke-width:0.360981;stroke-linecap:round;stroke-linejoin:round;stop-color:#000000"
         d="m 18.720874,16.00928 5.079113,1.52224 c 0.631032,0.243329 1.547055,0.0081 1.96767,-0.39309 0,0 9.693482,-14.3565587 30.352781,-9.9280946 20.659305,4.4284626 23.094894,19.5372386 23.094894,19.5372386 0,0 -4.904801,-20.2328399 -27.118233,-24.9925089 C 29.883669,-3.0046035 18.47383,14.653361 18.47383,14.653361 c -0.4629,0.539036 -0.344845,0.985308 0.247044,1.355919 z"
         id="path6296"
         sodipodi:nodetypes="ccczczcc" /><path
         style="fill:#cc3300;fill-opacity:1;stroke-width:0.360981;stroke-linecap:round;stroke-linejoin:round;stop-color:#000000"
         d="m 76.656489,-1.1224305 -0.1558,5.3000311 c -0.07175,0.6725092 0.392557,1.496443 0.888961,1.7988841 0,0 14.593396,4.5986233 15.662848,25.7001463 1.069454,21.10153 -15.476311,33.501602 -15.476311,33.501602 0,0 22.638993,-13.688893 21.487223,-36.377315 C 97.91163,6.1124989 77.902262,-1.7119935 77.902262,-1.7119935 c -0.640472,-0.3076148 -1.04098,-0.07808 -1.245773,0.589563 z"
         id="path6300"
         sodipodi:nodetypes="ccczczcc" /><path
         style="fill:#cc3300;fill-opacity:1;stroke-width:0.360981;stroke-linecap:round;stroke-linejoin:round;stop-color:#000000"
         d="m 109.56673,33.134725 -3.85785,3.63752 c -0.52627,0.424803 -0.78056,1.33573 -0.64342,1.900594 0,0 6.81281,10.252305 -7.352,25.929548 -14.164826,15.677251 -35.450588,10.83982 -35.450588,10.83982 0,0 26.505661,8.234663 41.734378,-8.622898 15.2287,-16.857561 6.86726,-33.220578 6.86726,-33.220578 -0.23536,-0.670397 -0.68088,-0.79128 -1.29778,-0.464006 z"
         id="path6302"
         sodipodi:nodetypes="ccczczcc" /><path
         style="fill:#cc3300;fill-opacity:1;stroke-width:0.360981;stroke-linecap:round;stroke-linejoin:round;stop-color:#000000"
         d="m 87.147275,88.090256 -3.637519,-3.857854 c -0.424803,-0.526265 -1.335731,-0.780559 -1.900594,-0.643413 0,0 -16.241325,7.99609 -31.918567,-6.168721 C 34.013344,63.255448 36.768674,45.231122 36.768674,45.231122 c 0,0 -6.152562,23.244225 10.704999,38.472939 16.857561,15.228701 39.209597,5.683977 39.209597,5.683977 0.670397,-0.235369 0.79128,-0.680883 0.464005,-1.297782 z"
         id="path6356"
         sodipodi:nodetypes="ccczczcc" /><circle
         style="fill:#333333;fill-opacity:1;stroke-width:0.360981;stroke-linecap:round;stroke-linejoin:round;stop-color:#000000"
         id="path6410"
         cx="60.400223"
         cy="26.649046"
         r="10.174122" /><path
         style="fill:#666666;fill-opacity:1;stroke-width:0.360981;stroke-linecap:round;stroke-linejoin:round;stop-color:#000000"
         d="m 45.500484,45.855097 c -0.391701,-0.647032 -0.647917,-1.327518 0.981851,-2.47368 l 4.818714,-2.05541 c 1.059561,-0.213574 2.118888,-0.252687 3.176401,1.062811 0,0 1.832974,2.034978 2.490817,3.222634 0.568736,1.026803 1.219558,3.303431 1.219558,3.303431 1.051846,3.154996 1.665884,1.139158 2.398821,0.02382 6.66905,-13.562662 19.362516,-23.359652 33.766993,-32.683992 0.458889,-0.200687 0.646292,-0.459746 1.356785,-0.259085 -0.322663,0.763954 -0.797318,1.225965 -1.291312,1.779052 -5.517629,5.888139 -13.169199,11.627301 -18.496198,17.718637 -5.378298,6.149986 -8.423727,12.66099 -12.240149,20.475804 -0.222112,1.34582 -1.351613,2.395049 -2.003501,3.4127 l -4.069127,2.449882 c -0.677309,0.684051 -1.280365,0.925123 -1.635363,-0.313774 -1.353481,-3.195805 -2.314224,-5.577524 -4.542509,-8.922558 -2.228275,-3.345035 -3.917541,-4.969207 -5.931781,-6.740263 z"
         id="path6880"
         sodipodi:nodetypes="ccccacccccscccczcc" /><circle
         style="fill:#cd6a09;fill-opacity:1;stroke-width:0.360981;stroke-linecap:round;stroke-linejoin:round;stop-color:#000000"
         id="path8107"
         cx="93.947144"
         cy="82.914909"
         r="5.5001984" /><circle
         style="fill:#fd7e00;fill-opacity:1;stroke-width:0.325595;stroke-linecap:round;stroke-linejoin:round;stop-color:#000000"
         id="circle8109"
         cx="109.21264"
         cy="75.28019"
         r="4.9610314" /><circle
         style="fill:#ffb56a;fill-opacity:1;stroke-width:0.308741;stroke-linecap:round;stroke-linejoin:round;stop-color:#000000"
         id="circle8111"
         cx="120.9828"
         cy="63.953388"
         r="4.7042303" /><circle
         style="fill:#ffd1a4;fill-opacity:1;stroke-width:0.231005;stroke-linecap:round;stroke-linejoin:round;stop-color:#000000"
         id="circle8113"
         cx="127.05101"
         cy="52.181805"
         r="3.5197744" /><circle
         style="fill:#ffe3c6;fill-opacity:1;stroke-width:0.153396;stroke-linecap:round;stroke-linejoin:round;stop-color:#000000"
         id="circle8115"
         cx="127.52151"
         cy="39.988327"
         r="2.3372622" /><g
         id="g15979"
         transform="matrix(0.90245353,0,0,0.90245353,-13.439572,-107.08205)"><path
           style="font-weight:500;font-size:36.2141px;font-family:'IBM Plex Sans';-inkscape-font-specification:'IBM Plex Sans Medium';text-align:center;text-anchor:middle;fill:#666666;stroke-width:0.641589;stroke-linecap:round;stroke-linejoin:round"
           d="m 36.574765,259.05426 q -3.18684,0 -5.432115,-1.15885 -2.20906,-1.15885 -3.80248,-3.11441 l 2.8247,-2.64363 q 1.339921,1.62963 2.933342,2.46255 1.629634,0.83293 3.693838,0.83293 2.426345,0 3.657624,-1.08642 1.23128,-1.08643 1.23128,-2.93335 0,-1.48477 -0.869139,-2.35391 -0.869138,-0.86914 -3.078198,-1.30371 l -2.245275,-0.39836 q -3.693838,-0.68806 -5.540757,-2.42634 -1.846919,-1.73828 -1.846919,-4.78026 0,-1.66585 0.61564,-3.00577 0.651854,-1.37614 1.774491,-2.28149 1.158851,-0.94157 2.788485,-1.44856 1.629635,-0.507 3.657624,-0.507 2.860914,0 4.961332,1.01399 2.100418,0.97778 3.585196,2.86092 l -2.860914,2.53498 q -0.977781,-1.26749 -2.39013,-2.02798 -1.41235,-0.7605 -3.512768,-0.7605 -2.172846,0 -3.367911,0.86914 -1.195066,0.86914 -1.195066,2.53498 0,1.59342 0.977781,2.39013 0.977781,0.7605 3.041984,1.15886 l 2.245275,0.47078 q 3.80248,0.72428 5.540757,2.46256 1.774491,1.73828 1.774491,4.78026 0,1.77449 -0.61564,3.22305 -0.61564,1.44857 -1.810705,2.49878 -1.158851,1.01399 -2.860914,1.59342 -1.702063,0.54321 -3.874909,0.54321 z"
           id="path15931" /><path
           style="font-weight:500;font-size:36.2141px;font-family:'IBM Plex Sans';-inkscape-font-specification:'IBM Plex Sans Medium';text-align:center;text-anchor:middle;fill:#666666;stroke-width:0.641589;stroke-linecap:round;stroke-linejoin:round"
           d="m 50.217787,258.61969 0.03348,-25.27744 h 4.032493 l 0.08668,25.27744 z"
           id="path15933"
           sodipodi:nodetypes="ccccc" /><path
           id="path15935"
           style="font-weight:500;font-size:36.2141px;font-family:'IBM Plex Sans';-inkscape-font-specification:'IBM Plex Sans Medium';text-align:center;text-anchor:middle;fill:#666666;stroke-width:0.641589;stroke-linecap:round;stroke-linejoin:round"
           d="m 60.213834,233.34235 v 25.27752 h 4.092257 v -10.21281 h 5.033801 l 5.069975,10.21281 h 4.562512 l -5.467883,-10.64689 c 1.617562,-0.48286 2.836288,-1.31608 3.657141,-2.49907 0.844994,-1.20714 1.267623,-2.71616 1.267623,-4.52686 0,-2.34184 -0.65173,-4.18876 -1.955436,-5.54075 -1.303707,-1.37613 -3.090466,-2.06395 -5.35988,-2.06395 z m 4.092257,3.58531 h 6.518465 c 1.038136,0 1.846783,0.27722 2.426209,0.8325 0.579424,0.53114 0.869197,1.3037 0.869197,2.31769 v 1.7384 c 0,1.01399 -0.289773,1.79858 -0.869197,2.35386 -0.579426,0.53114 -1.388073,0.79685 -2.426209,0.79685 h -6.518465 z" /><path
           style="font-weight:500;font-size:36.2141px;font-family:'IBM Plex Sans';-inkscape-font-specification:'IBM Plex Sans Medium';text-align:center;text-anchor:middle;fill:#666666;stroke-width:0.641589;stroke-linecap:round;stroke-linejoin:round"
           d="m 82.641799,231.82126 h 3.947337 v 11.08151 h 0.18107 q 0.61564,-1.52099 1.846919,-2.53499 1.267494,-1.01399 3.44034,-1.01399 2.89718,0 4.490665,1.91935 1.629705,1.88313 1.629705,5.3959 v 11.95065 h -3.9475 v -11.47987 q 0,-4.38191 -3.549006,-4.38191 -0.760496,0 -1.520992,0.21729 -0.724282,0.18107 -1.303708,0.57942 -0.579426,0.39836 -0.941567,1.014 -0.325926,0.61564 -0.325926,1.41235 v 12.63872 h -3.947337 z"
           id="path15937" /><path
           style="font-weight:500;font-size:36.2141px;font-family:'IBM Plex Sans';-inkscape-font-specification:'IBM Plex Sans Medium';text-align:center;text-anchor:middle;fill:#666666;stroke-width:0.641589;stroke-linecap:round;stroke-linejoin:round"
           d="m 107.44724,233.34225 v 15.57206 q 0,3.22306 1.23128,4.85269 1.23128,1.62964 4.20084,1.62964 2.96955,0 4.20083,-1.62964 1.23128,-1.62963 1.23128,-4.85269 v -15.57206 h 4.01977 v 14.92021 q 0,2.78848 -0.507,4.81647 -0.507,2.02799 -1.62963,3.36791 -1.12264,1.30371 -2.93335,1.95557 -1.77449,0.65185 -4.3819,0.65185 -2.60742,0 -4.41812,-0.65185 -1.77449,-0.65186 -2.89713,-1.95557 -1.12264,-1.33992 -1.62963,-3.36791 -0.507,-2.02799 -0.507,-4.81647 v -14.92021 z"
           id="path15939" /><path
           style="font-weight:500;font-size:36.2141px;font-family:'IBM Plex Sans';-inkscape-font-specification:'IBM Plex Sans Medium';text-align:center;text-anchor:middle;fill:#666666;stroke-width:0.641589;stroke-linecap:round;stroke-linejoin:round"
           d="m 134.39648,259.05426 q -3.18684,0 -5.43211,-1.15885 -2.20906,-1.15885 -3.80248,-3.11441 l 2.8247,-2.64363 q 1.33992,1.62963 2.93334,2.46255 1.62963,0.83293 3.69384,0.83293 2.42634,0 3.65762,-1.08642 1.23128,-1.08643 1.23128,-2.93335 0,-1.48477 -0.86914,-2.35391 -0.86914,-0.86914 -3.0782,-1.30371 l -2.24527,-0.39836 q -3.69384,-0.68806 -5.54076,-2.42634 -1.84692,-1.73828 -1.84692,-4.78026 0,-1.66585 0.61564,-3.00577 0.65186,-1.37614 1.77449,-2.28149 1.15885,-0.94157 2.78849,-1.44856 1.62963,-0.507 3.65762,-0.507 2.86092,0 4.96134,1.01399 2.10041,0.97778 3.58519,2.86092 l -2.86091,2.53498 q -0.97778,-1.26749 -2.39013,-2.02798 -1.41235,-0.7605 -3.51277,-0.7605 -2.17285,0 -3.36791,0.86914 -1.19507,0.86914 -1.19507,2.53498 0,1.59342 0.97778,2.39013 0.97778,0.7605 3.04199,1.15886 l 2.24527,0.47078 q 3.80248,0.72428 5.54076,2.46256 1.77449,1.73828 1.77449,4.78026 0,1.77449 -0.61564,3.22305 -0.61564,1.44857 -1.81071,2.49878 -1.15885,1.01399 -2.86091,1.59342 -1.70206,0.54321 -3.87491,0.54321 z"
           id="path15941" /></g></g></g></svg>
