<?xml version="1.0" encoding="UTF-8" standalone="no"?>
<!-- Created with Inkscape (http://www.inkscape.org/) -->

<svg
   width="512"
   height="512"
   viewBox="0 0 135.46666 135.46667"
   version="1.1"
   id="svg5"
   xml:space="preserve"
   inkscape:version="1.2.2 (b0a8486541, 2022-12-01)"
   sodipodi:docname="titan-logo.svg"
   xmlns:inkscape="http://www.inkscape.org/namespaces/inkscape"
   xmlns:sodipodi="http://sodipodi.sourceforge.net/DTD/sodipodi-0.dtd"
   xmlns="http://www.w3.org/2000/svg"
   xmlns:svg="http://www.w3.org/2000/svg"><sodipodi:namedview
     id="namedview7"
     pagecolor="#ffffff"
     bordercolor="#000000"
     borderopacity="0.25"
     inkscape:showpageshadow="2"
     inkscape:pageopacity="0.0"
     inkscape:pagecheckerboard="0"
     inkscape:deskcolor="#d1d1d1"
     inkscape:document-units="mm"
     showgrid="false"
     inkscape:zoom="0.73762626"
     inkscape:cx="177.59671"
     inkscape:cy="351.12633"
     inkscape:window-width="1920"
     inkscape:window-height="1008"
     inkscape:window-x="0"
     inkscape:window-y="96"
     inkscape:window-maximized="1"
     inkscape:current-layer="layer1" /><defs
     id="defs2" /><g
     inkscape:label="Capa 1"
     inkscape:groupmode="layer"
     id="layer1"><circle
       style="fill:#f2f2f2;fill-rule:evenodd;stroke-width:0.267011"
       id="path2129"
       cx="68.178001"
       cy="68.829941"
       r="65.174675" /><text
       xml:space="preserve"
       style="font-weight:bold;font-size:29.9352px;line-height:12.7px;font-family:Oswald;-inkscape-font-specification:'Oswald, Bold';text-align:center;text-anchor:middle;opacity:0.73839;fill:#ffffff;stroke-width:0.264583;stop-color:#000000"
       x="69.326057"
       y="94.620956"
       id="text236"><tspan
         sodipodi:role="line"
         id="tspan234"
         style="fill:#1a1a1a;stroke-width:0.264583"
         x="69.326057"
         y="94.620956"><tspan
           style="font-style:normal;font-variant:normal;font-weight:normal;font-stretch:normal;font-family:'IBM Plex Sans';-inkscape-font-specification:'IBM Plex Sans'"
           id="tspan390">PE</tspan><tspan
           style="font-style:normal;font-variant:normal;font-weight:bold;font-stretch:normal;font-family:'IBM Plex Sans';-inkscape-font-specification:'IBM Plex Sans Bold';fill:#999999"
           id="tspan500">PAC</tspan></tspan></text><text
       xml:space="preserve"
       style="font-style:normal;font-variant:normal;font-weight:normal;font-stretch:normal;font-size:34.5261px;line-height:14.6477px;font-family:Oswald;-inkscape-font-specification:Oswald;text-align:center;text-anchor:middle;opacity:0.73839;fill:#002b00;stroke-width:0.305159;stop-color:#000000"
       x="68.896194"
       y="69.910591"
       id="text606"><tspan
         sodipodi:role="line"
         id="tspan604"
         style="font-style:normal;font-variant:normal;font-weight:bold;font-stretch:normal;font-family:'IBM Plex Sans';-inkscape-font-specification:'IBM Plex Sans Bold';fill:#002b00;stroke-width:0.305159"
         x="68.896194"
         y="69.910591">TITAN</tspan></text><g
       id="g2127"
       transform="matrix(1.1213283,0,0,1.1213283,68.905828,-154.69004)"><path
         style="fill:#ffd44d;fill-opacity:1;fill-rule:evenodd;stroke-width:0.264583"
         d="m -50.966398,173.04577 c -4.283241,8.20362 -6.526615,17.31857 -6.540169,26.57305 0.02064,31.15312 24.808153,56.64351 55.9485226,57.53499 l -2.0121575,-2.01922 1.755561,-1.90338 -1.5060866,-0.056 C -31.581803,251.3763 -53.586902,227.93709 -53.600346,199.61882 c 0.01266,-7.99412 1.810305,-15.88454 5.261694,-23.09523 l 1.297204,-2.14429 -0.952255,-2.55046 -2.471876,0.70907 z"
         id="path886" /><path
         style="fill:#009861;fill-opacity:1;fill-rule:evenodd;stroke-width:0.264583"
         d="m 50.271867,171.35181 -0.920711,2.22979 -2.678545,-0.44617 1.050574,1.71075 c 3.979284,7.65124 6.056886,16.14848 6.056995,24.77264 -0.01547,28.3789 -22.113464,51.84478 -50.4403322,53.56263 l -1.7991979,0.0251 -1.67597604,2.01173 1.79310604,1.93861 C 32.830996,256.30815 57.666721,230.80356 57.686918,199.6188 c -4.82e-4,-9.90312 -2.55437,-19.63883 -7.415051,-28.26701 z"
         id="path884" /><path
         style="fill:#ee7643;fill-opacity:1;fill-rule:evenodd;stroke-width:0.264583"
         d="m 0.08991699,142.02182 c -20.10246299,0.0141 -38.74314399,10.5081 -49.18201099,27.68772 l 3.117849,-1.09449 0.429625,3.15099 0.786112,-1.59296 c 9.914405,-15.11667 26.77057,-24.2291 44.84842499,-24.24504 17.72284301,0.002 34.30297601,8.74984 44.30892301,23.3779 l 0.720045,1.35288 2.876541,0.65478 0.731316,-2.54406 C 38.163292,152.11447 19.812436,142.02246 0.08991699,142.02182 Z"
         id="path660" /></g></g></svg>
