<?xml version="1.0" encoding="UTF-8" standalone="no"?>
<!-- Created with Inkscape (http://www.inkscape.org/) -->

<svg
   width="512"
   height="512"
   viewBox="0 0 135.46666 135.46667"
   version="1.1"
   id="svg5"
   xml:space="preserve"
   inkscape:version="1.2.2 (b0a8486541, 2022-12-01)"
   sodipodi:docname="triskell-logo.svg"
   inkscape:export-filename="juriscan-logo.png"
   inkscape:export-xdpi="96"
   inkscape:export-ydpi="96"
   xmlns:inkscape="http://www.inkscape.org/namespaces/inkscape"
   xmlns:sodipodi="http://sodipodi.sourceforge.net/DTD/sodipodi-0.dtd"
   xmlns="http://www.w3.org/2000/svg"
   xmlns:svg="http://www.w3.org/2000/svg"><sodipodi:namedview
     id="namedview7"
     pagecolor="#ffffff"
     bordercolor="#000000"
     borderopacity="0.25"
     inkscape:showpageshadow="2"
     inkscape:pageopacity="0.0"
     inkscape:pagecheckerboard="0"
     inkscape:deskcolor="#d1d1d1"
     inkscape:document-units="mm"
     showgrid="false"
     showguides="true"
     inkscape:zoom="0.52787981"
     inkscape:cx="-499.16665"
     inkscape:cy="606.19859"
     inkscape:window-width="1920"
     inkscape:window-height="1008"
     inkscape:window-x="0"
     inkscape:window-y="0"
     inkscape:window-maximized="1"
     inkscape:current-layer="g8423"><sodipodi:guide
       position="63.971955,10.49099"
       orientation="0,-1"
       id="guide6495"
       inkscape:locked="false" /></sodipodi:namedview><defs
     id="defs2"><clipPath
       clipPathUnits="userSpaceOnUse"
       id="clipPath8298"><rect
         style="opacity:0.823846;fill:#cccccc;fill-opacity:1;stroke-width:0.528127;stroke-linecap:round;stroke-linejoin:round;stop-color:#000000"
         id="rect8300"
         width="30.018322"
         height="36.497288"
         x="-162.97511"
         y="172.05394" /></clipPath></defs><g
     inkscape:label="Layer 1"
     inkscape:groupmode="layer"
     id="layer1"><g
       id="g8423"
       transform="matrix(1.1218849,0,0,1.1218849,-4.5455904,-6.5831338)"><path
         style="fill:#e57238;fill-opacity:1;stroke-width:1.25114"
         d="M 61.645223,68.040622 C 59.472331,54.012456 66.888852,33.138905 78.078983,21.788421 87.328685,12.406226 95.11083,9.4999906 102.60254,12.630213 c 6.9052,2.885195 10.89473,13.736694 9.20151,25.028014 l -0.83215,5.549109 -3.60305,-3.603094 c -7.664591,-7.664548 -21.244616,-3.689574 -31.43401,9.200947 -5.351064,6.76963 -9.164585,13.544757 -11.768738,20.90836 l -1.572866,4.447406 z"
         id="path8349" /><path
         style="fill:#e57238;fill-opacity:1;stroke-width:1.25114"
         d="M 34.790934,89.112774 C 9.7090174,82.126903 2.0418655,63.08711 20.372504,53.307496 23.813125,51.471911 28.738509,49.579614 31.317838,49.10248 l 4.689558,-0.867568 -1.866808,3.5795 c -4.078097,7.819307 -0.705941,15.555483 9.881789,22.670219 7.705393,5.177854 16.658709,7.778985 28.03709,8.145452 4.93281,0.158819 8.974302,0.460575 8.981064,0.670863 0.0047,0.209965 -3.22508,1.878343 -7.181787,3.70718 -6.0076,2.776795 -9.257458,3.381881 -19.705457,3.669006 -8.35574,0.229823 -14.786945,-0.289865 -19.362353,-1.564358 z"
         id="path8343" /><path
         style="fill:#e57238;fill-opacity:1;stroke-width:1.25114"
         d="m 71.043644,119.15419 c 5.810932,-4.07896 15.114258,-13.68113 18.742792,-19.344864 8.137508,-12.701849 7.794487,-25.239518 -0.8297,-30.327916 L 84.502,66.853048 89.971471,64.634014 c 10.421199,-4.228087 24.036639,-2.321092 27.327259,3.827521 0.70855,1.323897 1.28824,5.169228 1.28824,8.545206 0,17.855365 -23.935345,41.490099 -44.208634,43.653389 -6.44808,0.68808 -6.455503,0.68468 -3.334692,-1.50594 z"
         id="path8302" /></g></g></svg>
