<?xml version="1.0" encoding="UTF-8" standalone="no"?>
<!-- Created with Inkscape (http://www.inkscape.org/) -->

<svg
   width="512"
   height="512"
   viewBox="0 0 135.46666 135.46667"
   version="1.1"
   id="svg5"
   inkscape:version="1.2.2 (b0a8486541, 2022-12-01)"
   xml:space="preserve"
   sodipodi:docname="webforms-logo.svg"
   inkscape:export-filename="webforms-logo.png"
   inkscape:export-xdpi="96"
   inkscape:export-ydpi="96"
   xmlns:inkscape="http://www.inkscape.org/namespaces/inkscape"
   xmlns:sodipodi="http://sodipodi.sourceforge.net/DTD/sodipodi-0.dtd"
   xmlns="http://www.w3.org/2000/svg"
   xmlns:svg="http://www.w3.org/2000/svg"><sodipodi:namedview
     id="namedview7"
     pagecolor="#ffffff"
     bordercolor="#000000"
     borderopacity="0.25"
     inkscape:showpageshadow="2"
     inkscape:pageopacity="0.0"
     inkscape:pagecheckerboard="0"
     inkscape:deskcolor="#d1d1d1"
     inkscape:document-units="mm"
     showgrid="false"
     showguides="true"
     inkscape:zoom="0.80859375"
     inkscape:cx="-582.49275"
     inkscape:cy="168.19324"
     inkscape:window-width="1920"
     inkscape:window-height="1008"
     inkscape:window-x="0"
     inkscape:window-y="96"
     inkscape:window-maximized="1"
     inkscape:current-layer="layer1"><sodipodi:guide
       position="4.2333333,67.25734"
       orientation="-1,0"
       id="guide1633"
       inkscape:locked="false"
       inkscape:label=""
       inkscape:color="rgb(0,134,229)" /><sodipodi:guide
       position="131.23333,58.650049"
       orientation="-1,0"
       id="guide1635"
       inkscape:locked="false"
       inkscape:label=""
       inkscape:color="rgb(0,134,229)" /></sodipodi:namedview><defs
     id="defs2" /><g
     inkscape:label="Capa 1"
     inkscape:groupmode="layer"
     id="layer1"><g
       id="g1641"
       transform="translate(0,7.4083337)"><path
         style="fill:#f38c2f;fill-opacity:1;stroke-width:0.377799"
         d="m 115.56621,17.840336 c 0.95389,-0.953903 1.10433,-1.388502 1.10433,-3.190237 0,-1.66032 -0.18602,-2.302169 -0.91178,-3.145922 l -0.91179,-1.060022 H 91.9246 69.002231 l -0.911791,1.060022 c -0.725763,0.843753 -0.911791,1.485602 -0.911791,3.145922 0,1.801735 0.150446,2.236334 1.104345,3.190237 l 1.104345,1.104337 H 91.9246 114.46187 Z"
         id="path1562" /><path
         style="fill:#f38c2f;fill-opacity:1;stroke-width:0.377799"
         d="m 101.71384,42.339336 c 0.75782,-0.900609 0.9781,-1.574751 0.9781,-2.993417 0,-1.41867 -0.22028,-2.092809 -0.9781,-2.993419 l -0.97809,-1.162391 H 84.953224 69.170696 l -0.996023,0.996019 c -0.840024,0.840022 -0.996024,1.328804 -0.996024,3.120718 0,1.751872 0.168422,2.306326 0.959797,3.159788 l 0.959784,1.035092 h 15.818769 15.818751 z"
         id="path1560" /><path
         style="fill:#f38c2f;fill-opacity:1;stroke-width:0.377799"
         d="m 129.8573,67.147218 c 0.43912,-0.397462 0.99342,-1.373569 1.23175,-2.169128 0.36585,-1.221025 0.32511,-1.686562 -0.26127,-2.986942 -1.24837,-2.768331 0.54656,-2.62179 -32.113059,-2.62179 H 69.387339 l -1.104345,1.104343 c -0.945589,0.945585 -1.104345,1.395133 -1.104345,3.127241 0,2.186908 0.666676,3.533113 2.02389,4.086766 0.445293,0.181654 14.095141,0.29695 30.332986,0.256224 28.488645,-0.07146 29.551345,-0.09938 30.321775,-0.796714 z"
         id="path1558" /><path
         style="fill:#f38c2f;fill-opacity:1;stroke-width:0.377799"
         d="m 24.106905,75.592189 c 3.723314,-1.20358 6.476836,-3.361623 8.249528,-6.465499 l 1.02561,-1.795763 0.868139,1.544665 c 2.702375,4.808225 6.893612,7.131733 12.864499,7.131733 6.820616,0 11.442258,-3.153335 14.208102,-9.694128 l 1.092836,-2.584399 0.107959,-29.085881 C 62.645245,1.8392916 62.911112,4.6029889 59.634133,4.6029889 c -3.325898,0 -3.074385,-2.2642487 -3.074385,27.6779141 0,28.603206 -0.03014,29.078332 -2.068996,32.581298 -2.077408,3.569246 -6.807568,5.224505 -11.183396,3.913476 C 40.040746,67.796978 37.65554,64.546465 36.932017,60.087516 36.691315,58.604108 36.540913,47.788217 36.539158,31.83438 36.536357,2.3767999 36.799665,4.6029889 33.312699,4.6029889 c -1.373948,0 -2.13054,0.1896092 -2.491602,0.6244391 -0.425246,0.5121129 -0.552486,5.626145 -0.707412,28.429504 l -0.188927,27.805062 -0.902696,1.997691 C 25.779789,70.634861 16.11869,71.259644 12.185702,64.548489 10.257241,61.257834 10.090206,58.574535 10.090206,30.886203 10.090206,11.652652 9.9804044,5.3999569 9.6368433,5.056343 8.9475479,4.3670303 5.5564668,4.4859831 4.7362897,5.228234 4.0791811,5.8229149 4.0454966,7.1761072 4.0475805,32.902139 c 0.00119,15.881281 0.1552286,27.984528 0.3728569,29.315457 1.4198975,8.683595 6.9632086,13.721107 15.1528636,13.770233 1.787157,0.01077 3.82728,-0.167316 4.53361,-0.39564 z"
         id="path1530" /></g><path
       style="fill:#000000;stroke-width:0.139942"
       d="M 4.3893498,88.100526 H 131.16075 V 130.64318 H 4.3893498 Z M 14.602379,126.01123 c 1.379172,-0.44582 2.399112,-1.2452 3.055746,-2.39492 l 0.379897,-0.66517 0.321576,0.57216 c 1.000998,1.78104 2.553493,2.6417 4.765197,2.6417 2.526455,0 4.238382,-1.16804 5.262888,-3.59084 l 0.404802,-0.95731 0.03998,-10.77383 c 0.04509,-12.150941 0.14355,-11.127233 -1.070288,-11.127233 -1.231962,0 -1.138802,-0.838712 -1.138802,10.252313 0,10.59504 -0.01118,10.77103 -0.766385,12.06858 -0.769501,1.32211 -2.521625,1.93523 -4.142494,1.44962 -1.209997,-0.36253 -2.093516,-1.56657 -2.361521,-3.21823 -0.08916,-0.54948 -0.144867,-4.55584 -0.14552,-10.46538 -0.0012,-10.911513 0.0965,-10.086903 -1.195127,-10.086903 -0.50893,0 -0.789183,0.07024 -0.922926,0.231304 -0.157513,0.189699 -0.204649,2.084009 -0.262034,10.530699 l -0.06998,10.29941 -0.334373,0.73997 c -1.20098,2.65779 -4.779592,2.88922 -6.236432,0.40331 -0.714327,-1.2189 -0.7762,-2.21284 -0.7762,-12.46901 0,-7.12438 -0.04066,-9.44047 -0.167932,-9.567751 -0.2553277,-0.255327 -1.5114316,-0.211267 -1.8152359,0.06367 -0.2434057,0.220281 -0.2558808,0.721521 -0.2551089,10.250821 4.198e-4,5.88266 0.057495,10.36587 0.1381078,10.85887 0.5259535,3.21653 2.579279,5.0825 5.612846,5.1007 0.661989,0.004 1.417681,-0.0619 1.679316,-0.14655 z m 25.974956,-0.11138 c 1.663569,-0.60805 2.843709,-2.02972 3.24161,-3.90504 0.414227,-1.95226 -10e-4,-2.73229 -1.322518,-2.48437 -0.567789,0.10652 -0.757672,0.41049 -0.763712,1.22258 -0.006,0.80685 -0.623413,2.01843 -1.30297,2.55687 -0.501747,0.39756 -0.615726,0.42611 -1.701311,0.42611 -1.085413,0 -1.199644,-0.0286 -1.701312,-0.42591 -0.303649,-0.24048 -0.719369,-0.78685 -0.954886,-1.25499 -0.404287,-0.8036 -0.418768,-0.90129 -0.470963,-3.17762 l -0.05385,-2.34854 h 4.116478 c 3.015112,0 4.161406,-0.0449 4.284407,-0.16794 0.247702,-0.2477 0.221849,-5.08251 -0.03362,-6.28778 -0.37965,-1.79113 -1.33608,-3.07138 -2.877191,-3.8513 -0.693863,-0.35114 -0.914441,-0.38997 -2.239088,-0.39407 -1.31037,-0.004 -1.556905,0.0364 -2.277916,0.37431 -1.446331,0.67774 -2.539964,2.15113 -2.891447,3.8955 -0.218545,1.08461 -0.241301,10.73278 -0.02769,11.73887 0.450176,2.12026 1.451706,3.31092 3.517736,4.18202 0.607322,0.25606 2.646916,0.19786 3.458244,-0.0987 z M 35.61339,112.44799 c 0.0667,-1.64467 0.112899,-1.89987 0.474923,-2.62378 0.472444,-0.9447 1.213334,-1.50982 2.150998,-1.64069 1.361663,-0.19005 2.540205,0.38086 3.175348,1.53818 0.355316,0.64744 0.388123,0.84348 0.439129,2.62394 l 0.05512,1.92421 h -3.184706 -3.184707 z m 19.90747,13.42537 c 1.539483,-0.57599 2.535738,-1.68788 3.106081,-3.46661 0.228014,-0.71111 0.253055,-1.37614 0.251043,-6.6675 -0.0022,-5.69258 -0.01181,-5.90286 -0.306519,-6.67991 -0.822576,-2.16887 -2.373765,-3.32601 -4.458637,-3.32601 -1.197005,0 -2.129984,0.38099 -2.964457,1.21056 l -0.734701,0.73038 v -3.9621 c 0,-3.2462 -0.0358,-3.991821 -0.198108,-4.126527 -0.116842,-0.09697 -0.533028,-0.147054 -1.014586,-0.122092 l -0.816479,0.04232 -0.03585,10.892029 c -0.0315,9.57356 -0.0089,10.99651 0.186421,11.7552 0.409211,1.58917 1.453011,2.99076 2.59884,3.48965 0.258101,0.11238 0.626709,0.27159 0.819131,0.35381 0.637061,0.27222 2.701512,0.20093 3.567816,-0.1232 z m -2.69413,-2.13647 c -1.14651,-0.30954 -1.840109,-1.1019 -2.223285,-2.53986 -0.28626,-1.07427 -0.266187,-9.37387 0.02538,-10.49327 0.282811,-1.08578 0.670185,-1.68779 1.376139,-2.13861 0.483812,-0.30895 0.737198,-0.36881 1.557422,-0.36787 1.125139,9.4e-4 1.630056,0.21269 2.282278,0.95554 0.831233,0.94672 0.91277,1.48388 0.972937,6.40976 0.05041,4.12738 0.03385,4.5221 -0.234198,5.58209 -0.167263,0.66143 -0.444526,1.34529 -0.659951,1.62772 -0.632773,0.82961 -2.008864,1.25821 -3.096722,0.9645 z m 27.038445,2.12971 c 1.608159,-0.52793 2.755034,-1.84483 3.290992,-3.7789 0.261439,-0.94345 0.283849,-1.42603 0.281638,-6.06575 -0.0021,-4.41779 -0.03391,-5.16195 -0.257186,-6.02134 -0.50745,-1.953 -1.287408,-2.99832 -2.788595,-3.73735 -0.86833,-0.42748 -1.033337,-0.45991 -2.33668,-0.45921 -1.220718,6.9e-4 -1.504244,0.0484 -2.188855,0.36877 -1.472037,0.68883 -2.318565,1.7339 -2.874659,3.54888 -0.230725,0.75305 -0.257261,1.3954 -0.257261,6.22747 0,5.77344 0.03311,6.09236 0.788289,7.58801 1.098051,2.17477 3.79547,3.16548 6.342317,2.32942 z m -2.658613,-2.09816 c -0.752021,-0.1694 -1.493094,-0.80209 -1.900694,-1.62269 -0.328993,-0.66236 -0.332626,-0.71908 -0.374881,-5.85592 -0.0412,-5.00726 -0.03231,-5.21472 0.255768,-5.98474 0.581652,-1.55461 1.332621,-2.10668 2.865648,-2.10668 1.135449,0 1.663072,0.22408 2.274644,0.96602 0.746579,0.90572 0.778509,1.14751 0.838473,6.3484 0.06721,5.82947 -0.02591,6.52274 -1.007853,7.5047 -0.456415,0.45642 -0.767905,0.63363 -1.323016,0.75267 -0.815851,0.17497 -0.84373,0.17494 -1.628089,-0.002 z m 49.076898,1.95015 c 1.00307,-0.46281 1.86402,-1.32161 2.33761,-2.33174 0.34212,-0.72975 0.37027,-0.92998 0.36673,-2.60965 -0.004,-1.70329 -0.0286,-1.86942 -0.39276,-2.60609 -0.67192,-1.35926 -1.43081,-1.97504 -3.95704,-3.21089 -3.07799,-1.50577 -3.6728,-2.21262 -3.52371,-4.1874 0.0778,-1.03135 0.45479,-1.76683 1.13675,-2.21814 0.48487,-0.32086 0.70921,-0.37235 1.62246,-0.37235 0.86738,0 1.15529,0.0594 1.5858,0.32705 0.70297,0.43706 1.17177,1.29364 1.26906,2.31876 0.0432,0.4546 0.1607,0.87871 0.26123,0.94247 0.33676,0.21358 1.47638,0.13608 1.73012,-0.11766 0.31757,-0.31757 0.20253,-1.7572 -0.23045,-2.88393 -1.37241,-3.57132 -6.64236,-4.1038 -8.75484,-0.88461 -0.83168,1.2674 -1.09806,3.21861 -0.66835,4.89584 0.28986,1.13136 0.7403,1.88172 1.57758,2.62793 0.74475,0.66374 0.85561,0.72661 3.24066,1.83805 2.59374,1.20867 3.18332,1.95702 3.04665,3.86706 -0.1128,1.57668 -0.76703,2.32065 -2.33672,2.65729 -1.83673,0.39391 -3.64933,-0.86702 -3.64933,-2.53866 0,-0.27855 -0.0614,-0.66801 -0.13647,-0.86544 -0.12575,-0.33073 -0.20308,-0.35897 -0.98307,-0.35897 -0.79409,0 -0.85583,0.0239 -0.99573,0.38485 -0.30245,0.78047 0.1483,2.6637 0.91473,3.82188 0.42547,0.64292 1.44039,1.36474 2.39006,1.69983 1.07779,0.3803 3.10846,0.28463 4.14903,-0.19548 z m -61.454217,0.0265 c 0.142144,0 0.357405,-0.099 0.478354,-0.21992 0.195026,-0.19502 0.219911,-1.16891 0.219911,-8.60648 v -8.38658 h 2.072397 c 2.523664,0 2.605694,-0.0375 2.605694,-1.18951 0,-1.15308 -0.08031,-1.18953 -2.621174,-1.18953 h -2.08788 l 0.05189,-1.50437 c 0.04404,-1.27721 0.101257,-1.58416 0.378848,-2.03258 0.499011,-0.80609 0.937684,-0.96638 2.623255,-0.95856 1.640561,0.007 1.735036,-0.0511 1.735036,-1.0775 0,-0.795254 -0.327696,-1.116433 -1.323889,-1.297548 -1.87622,-0.341109 -3.830168,0.330542 -4.720735,1.622708 -0.814637,1.18199 -0.819617,1.25325 -0.906632,12.97262 -0.04383,5.90345 -0.0386,10.95255 0.01162,11.22024 0.06753,0.35997 0.19036,0.5229 0.471718,0.62574 0.209227,0.0764 0.464279,0.11254 0.566786,0.0802 0.102501,-0.0324 0.302669,-0.0589 0.444814,-0.0589 z m 24.710967,-0.15031 c 0.165287,-0.13717 0.197969,-1.36287 0.200766,-7.5287 0.0016,-4.05068 0.06063,-7.61188 0.130654,-7.9138 0.158019,-0.68134 0.528547,-1.19045 1.117344,-1.53523 0.367863,-0.21541 0.711063,-0.2619 1.836759,-0.24876 1.228049,0.0143 1.400487,-0.0139 1.527167,-0.25067 0.235118,-0.43933 0.169105,-1.34127 -0.124723,-1.70415 -0.254048,-0.31372 -0.351472,-0.33037 -1.934113,-0.33037 -1.578207,0 -1.71059,0.0224 -2.496351,0.42298 -0.91186,0.46482 -1.593117,1.30334 -1.91242,2.35387 -0.133678,0.43981 -0.176827,2.54439 -0.176827,8.62431 v 8.04253 l 0.349858,0.18396 c 0.38482,0.20234 1.172627,0.14069 1.481886,-0.11597 z m 9.433665,0.10923 0.349856,-0.1769 0.0699,-7.62286 0.0699,-7.62286 0.37986,-0.7202 c 0.529769,-1.00446 1.167719,-1.37894 2.349039,-1.37894 1.52849,0 2.34365,0.7377 2.65073,2.39888 0.0916,0.49543 0.14812,3.48217 0.14812,7.82552 0,7.88855 -0.068,7.40841 1.04958,7.40841 1.11677,0 1.04926,0.47029 1.05199,-7.32915 0.003,-8.53628 0.0698,-9.01624 1.37815,-9.90707 0.93765,-0.6384 2.37873,-0.58063 3.18549,0.12771 0.97943,0.85995 0.949,0.59086 1.02929,9.10199 0.081,8.58287 -0.0135,7.93061 1.14896,7.9344 1.1478,0.004 1.09285,0.39863 1.09006,-7.83081 -0.003,-7.71865 -0.0538,-8.41134 -0.71967,-9.74472 -0.41602,-0.83299 -1.20789,-1.62132 -2.03373,-2.02462 -0.5588,-0.27288 -0.89798,-0.32938 -2.00223,-0.33349 -1.21632,-0.005 -1.39324,0.0303 -2.07893,0.40961 -0.82213,0.45475 -1.44136,1.11811 -1.80112,1.92952 l -0.23319,0.52596 -0.3311,-0.69664 c -1.28252,-2.69847 -5.28359,-3.02858 -7.263875,-0.59932 -0.395648,0.48535 -0.696037,1.05532 -0.884833,1.67894 -0.275143,0.90884 -0.284443,1.23432 -0.248777,8.70685 l 0.03699,7.76272 0.349854,0.17699 c 0.443287,0.22423 0.816109,0.22426 1.25949,8e-5 z"
       id="path397"
       sodipodi:nodetypes="cccccsscssscsssssscssscssssscsssssssssssscsssscssssssssssscccsssscsscssscsssssssssscssssssssccsccsscscsccsssssccsscsssssscsssssssssscsssssssscssscssssssssssssscssssssssscssccccssssscsssscsscsscsssccssc" /></g></svg>
