<?xml version="1.0" encoding="UTF-8" standalone="no"?>
<!-- Created with Inkscape (http://www.inkscape.org/) -->

<svg
   width="512"
   height="512"
   viewBox="0 0 135.46666 135.46667"
   version="1.1"
   id="svg5"
   inkscape:version="1.2.2 (b0a8486541, 2022-12-01)"
   sodipodi:docname="logo.issi.svg"
   inkscape:export-filename="../../../../Dropbox/Gobierno/Inventario Sistemas Información/logo-ISSI.png"
   inkscape:export-xdpi="96"
   inkscape:export-ydpi="96"
   xmlns:inkscape="http://www.inkscape.org/namespaces/inkscape"
   xmlns:sodipodi="http://sodipodi.sourceforge.net/DTD/sodipodi-0.dtd"
   xmlns="http://www.w3.org/2000/svg"
   xmlns:svg="http://www.w3.org/2000/svg">
  <sodipodi:namedview
     id="namedview7"
     pagecolor="#ffffff"
     bordercolor="#000000"
     borderopacity="0.25"
     inkscape:showpageshadow="2"
     inkscape:pageopacity="0.0"
     inkscape:pagecheckerboard="0"
     inkscape:deskcolor="#d1d1d1"
     inkscape:document-units="mm"
     showgrid="false"
     showguides="true"
     inkscape:zoom="1.149259"
     inkscape:cx="308.89469"
     inkscape:cy="348.05035"
     inkscape:window-width="1920"
     inkscape:window-height="1126"
     inkscape:window-x="0"
     inkscape:window-y="0"
     inkscape:window-maximized="1"
     inkscape:current-layer="layer1">
    <sodipodi:guide
       position="86.419979,-14.062524"
       orientation="0,-1"
       id="guide1482"
       inkscape:locked="false" />
    <sodipodi:guide
       position="113.61397,-17.284841"
       orientation="0,-1"
       id="guide3777"
       inkscape:locked="false" />
    <sodipodi:guide
       position="109.0111,-14.203941"
       orientation="0,-1"
       id="guide3781"
       inkscape:locked="false" />
    <sodipodi:guide
       position="23.279068,60.42015"
       orientation="1,0"
       id="guide4155"
       inkscape:locked="false" />
    <sodipodi:guide
       position="65.604649,62.04806"
       orientation="1,0"
       id="guide4157"
       inkscape:locked="false" />
    <sodipodi:guide
       position="-101.92732,113.46957"
       orientation="0,-1"
       id="guide7862"
       inkscape:locked="false" />
  </sodipodi:namedview>
  <defs
     id="defs2" />
  <g
     inkscape:label="Layer 1"
     inkscape:groupmode="layer"
     id="layer1">
    <path
       d="m 5.9886995,104.69103 v -1.08959 H 8.2114528 V 90.569884 H 5.9886995 v -1.089595 h 5.7530355 v 1.089595 H 9.5189807 v 13.031556 h 2.2227543 v 1.08959 z"
       style="font-weight:300;font-size:7.44772px;font-family:'IBM Plex Sans';-inkscape-font-specification:'IBM Plex Sans Light';text-align:center;text-anchor:middle;fill:#1a1a1a;stroke-width:1.6344;stroke-linecap:round;stroke-linejoin:round"
       id="path10364" />
    <path
       d="M 16.601319,91.267223 H 16.53607 V 104.69103 H 15.272172 V 89.480289 h 1.634379 l 7.997627,13.423811 h 0.06525 V 89.480289 h 1.263915 v 15.210741 h -1.634379 z"
       style="font-weight:300;font-size:7.44772px;font-family:'IBM Plex Sans';-inkscape-font-specification:'IBM Plex Sans Light';text-align:center;text-anchor:middle;fill:#1a1a1a;stroke-width:1.6344;stroke-linecap:round;stroke-linejoin:round"
       id="path10366" />
    <path
       d="M 34.013061,104.69103 28.913766,89.480289 h 1.416465 l 4.489141,13.881441 h 0.08723 l 4.532669,-13.881441 h 1.372914 L 35.6693,104.69103 Z"
       style="font-weight:300;font-size:7.44772px;font-family:'IBM Plex Sans';-inkscape-font-specification:'IBM Plex Sans Light';text-align:center;text-anchor:middle;fill:#1a1a1a;stroke-width:1.6344;stroke-linecap:round;stroke-linejoin:round"
       id="path10368" />
    <path
       d="M 43.492538,104.69103 V 89.480289 h 8.891102 v 1.15497 h -7.583594 v 5.753063 h 7.213132 v 1.15497 h -7.213132 v 5.992778 h 7.583594 v 1.15496 z"
       style="font-weight:300;font-size:7.44772px;font-family:'IBM Plex Sans';-inkscape-font-specification:'IBM Plex Sans Light';text-align:center;text-anchor:middle;fill:#1a1a1a;stroke-width:1.6344;stroke-linecap:round;stroke-linejoin:round"
       id="path10370" />
    <path
       d="m 57.330384,91.267223 h -0.06525 V 104.69103 H 56.001213 V 89.480289 h 1.634379 l 7.997627,13.423811 h 0.06525 V 89.480289 h 1.263913 v 15.210741 h -1.634377 z"
       style="font-weight:300;font-size:7.44772px;font-family:'IBM Plex Sans';-inkscape-font-specification:'IBM Plex Sans Light';text-align:center;text-anchor:middle;fill:#1a1a1a;stroke-width:1.6344;stroke-linecap:round;stroke-linejoin:round"
       id="path10372" />
    <path
       d="M 75.962473,90.635259 V 104.69103 H 74.654965 V 90.635259 H 69.55563 v -1.15497 h 11.506156 v 1.15497 z"
       style="font-weight:300;font-size:7.44772px;font-family:'IBM Plex Sans';-inkscape-font-specification:'IBM Plex Sans Light';text-align:center;text-anchor:middle;fill:#1a1a1a;stroke-width:1.6344;stroke-linecap:round;stroke-linejoin:round"
       id="path10374" />
    <path
       d="m 91.935947,104.69103 -1.656194,-4.728837 h -6.472187 l -1.656187,4.728837 h -1.307507 l 5.382609,-15.210741 h 1.677969 l 5.404412,15.210741 z M 87.076364,90.722425 h -0.08723 l -2.854722,8.106587 h 5.796627 z"
       style="font-weight:300;font-size:7.44772px;font-family:'IBM Plex Sans';-inkscape-font-specification:'IBM Plex Sans Light';text-align:center;text-anchor:middle;fill:#1a1a1a;stroke-width:1.6344;stroke-linecap:round;stroke-linejoin:round"
       id="path10376" />
    <path
       d="M 97.340338,104.69103 H 96.032832 V 89.480289 h 5.970988 q 1.96125,0 3.00727,1.111389 1.0678,1.111384 1.0678,3.11624 0,1.765141 -0.87168,2.854737 -0.84988,1.089595 -2.48427,1.307516 l 3.74821,6.820859 h -1.46006 l -3.63925,-6.733694 h -4.031502 z m 4.663482,-7.845077 q 1.30749,0 1.98305,-0.719132 0.69735,-0.740928 0.69735,-1.874106 v -1.046013 q 0,-1.111386 -0.69735,-1.830518 -0.67556,-0.740925 -1.98305,-0.740925 h -4.663482 v 6.210694 z"
       style="font-weight:300;font-size:7.44772px;font-family:'IBM Plex Sans';-inkscape-font-specification:'IBM Plex Sans Light';text-align:center;text-anchor:middle;fill:#1a1a1a;stroke-width:1.6344;stroke-linecap:round;stroke-linejoin:round"
       id="path10378" />
    <path
       d="m 109.10796,104.69103 v -1.08959 h 2.22277 V 90.569884 h -2.22277 v -1.089595 h 5.75306 v 1.089595 h -2.22279 v 13.031556 h 2.22279 v 1.08959 z"
       style="font-weight:300;font-size:7.44772px;font-family:'IBM Plex Sans';-inkscape-font-specification:'IBM Plex Sans Light';text-align:center;text-anchor:middle;fill:#1a1a1a;stroke-width:1.6344;stroke-linecap:round;stroke-linejoin:round"
       id="path10380" />
    <path
       d="m 123.83927,104.95254 q -2.92012,0 -4.57631,-1.98306 -1.65618,-2.00486 -1.65618,-5.883817 0,-3.878961 1.65618,-5.862021 1.65619,-2.004856 4.57631,-2.004856 2.89832,0 4.55452,2.004856 1.65618,2.004853 1.65618,5.862021 0,3.857167 -1.65618,5.862017 -1.6562,2.00486 -4.55452,2.00486 z m 0,-1.17676 q 1.08958,0 1.96128,-0.37046 0.89346,-0.39226 1.52545,-1.13319 0.63193,-0.74092 0.98062,-1.80872 0.34866,-1.067808 0.34866,-2.418906 v -1.917683 q 0,-1.3511 -0.34866,-2.418903 -0.34869,-1.067803 -0.98062,-1.786936 -0.63199,-0.740921 -1.52545,-1.133177 -0.8717,-0.392255 -1.96128,-0.392255 -1.08959,0 -1.98309,0.392255 -0.89343,0.392256 -1.52541,1.133177 -0.63194,0.719133 -0.98061,1.786936 -0.34869,1.067803 -0.34869,2.418903 v 1.917683 q 0,1.351098 0.34869,2.418906 0.34867,1.0678 0.98061,1.80872 0.63198,0.74093 1.52541,1.13319 0.8935,0.37046 1.98309,0.37046 z"
       style="font-weight:300;font-size:7.44772px;font-family:'IBM Plex Sans';-inkscape-font-specification:'IBM Plex Sans Light';text-align:center;text-anchor:middle;fill:#1a1a1a;stroke-width:1.6344;stroke-linecap:round;stroke-linejoin:round"
       id="path10382" />
    <g
       id="g10555"
       transform="matrix(2.9335345,0,0,2.9335345,-329.6919,277.11388)">
      <path
         id="path10360"
         style="fill:#87aade;fill-opacity:1;stroke:none;stroke-width:0.653456;stroke-linecap:round;stroke-linejoin:round;stop-color:#000000"
         d="m 126.97196,-79.409133 c -0.22463,0.720339 0.20909,1.581347 1.03127,1.562971 1.3899,0.253357 2.83911,0.212513 4.17287,0.737396 0.93194,0.323263 1.82198,0.811119 2.52258,1.513652 -1.38804,-1.393606 -2.50254,-3.182761 -4.33643,-4.042698 -0.83221,-0.422718 -1.79598,-0.360126 -2.68823,-0.21906 -0.25837,0.07354 -0.58104,0.188162 -0.70206,0.447739 z m 8.31351,4.446777 c 1.46554,1.604786 2.84863,3.379119 4.77404,4.458896 0.87251,0.373336 1.86618,0.185887 2.74454,-0.06321 0.90682,-0.29167 0.60701,-1.615111 -0.23338,-1.781683 -1.15685,-0.425465 -2.42544,-0.310117 -3.61244,-0.618844 -1.60614,-0.352156 -3.11041,-1.205518 -4.14018,-2.501446 0.15581,0.168764 0.31162,0.337527 0.46742,0.506291 z" />
      <path
         id="path10362"
         style="font-weight:bold;font-size:25.4px;font-family:'IBM Plex Sans';-inkscape-font-specification:'IBM Plex Sans Bold';fill:#162d50;stroke:none;stroke-width:0.79375;stroke-linecap:round;stroke-linejoin:round"
         d="m 129.01684,-84.364925 v 0.001 c -1.04987,0 -1.98974,0.135247 -2.81947,0.406177 -0.81279,0.253999 -1.50734,0.61831 -2.08307,1.092439 -0.5588,0.47413 -0.99073,1.041306 -1.29553,1.701705 -0.3048,0.6604 -0.45682,1.388494 -0.45682,2.184363 0,1.490129 0.43193,2.684224 1.29553,3.581694 0.88053,0.897469 2.2602,1.464635 4.1398,1.701704 l 1.75286,0.22841 c 0.82973,0.11853 1.38013,0.347077 1.65106,0.685747 0.27093,0.321729 0.40618,0.728494 0.40618,1.219563 -0.0193,1.415729 -1.52756,2.387437 -2.98431,2.399337 l -9.07697,0.0031 v -12.070546 h 2.28565 c 0.49949,-1.178579 1.26753,-2.241116 2.55592,-3.078365 l -10.41849,0.0041 v 3.073714 h 2.28565 v 12.070581 h -2.28565 v 3.073197 h 7.86257 v -0.0021 l 6.72775,0.06305 c 1.10067,0 2.08248,-0.135764 2.94608,-0.406694 0.8636,-0.28787 1.58331,-0.685726 2.15904,-1.193726 0.46119,-0.395305 0.83503,-0.8521 1.12189,-1.370459 l 0.44391,0.481625 c 0.72812,0.812799 1.59986,1.430821 2.61586,1.85415 1.016,0.42333 2.19281,0.635104 3.53053,0.635104 v -5.17e-4 c 1.04987,0 1.98974,-0.135247 2.81947,-0.406177 0.8128,-0.254 1.50734,-0.61831 2.08307,-1.09244 0.5588,-0.474129 0.99073,-1.041305 1.29553,-1.701705 0.3048,-0.660399 0.45682,-1.388493 0.45682,-2.184362 0,-1.490129 -0.43193,-2.684225 -1.29553,-3.581694 -0.88053,-0.897469 -2.2602,-1.464635 -4.1398,-1.701705 l -1.75286,-0.22841 c -0.82973,-0.11853 -1.38013,-0.347076 -1.65106,-0.685746 -0.27093,-0.32173 -0.40618,-0.728494 -0.40618,-1.219564 0.0193,-1.415728 1.52705,-2.387437 2.9838,-2.399337 l 9.07748,-0.0031 v 12.070581 h -2.28565 c -0.49949,1.178579 -1.26804,2.240599 -2.55643,3.077848 l 10.419,-0.0036 v -3.073668 h -2.28565 v -12.070581 h 2.28565 v -3.073198 h -7.86257 v 0.0021 l -6.72775,-0.06356 c -1.10067,0 -2.08248,0.135764 -2.94608,0.406694 -0.8636,0.287869 -1.58331,0.685726 -2.15904,1.193725 -0.46107,0.395205 -0.83505,0.852265 -1.12189,1.370459 l -0.4439,-0.481624 c -0.72813,-0.812799 -1.59987,-1.430821 -2.61587,-1.85415 -1.01599,-0.42333 -2.19281,-0.635104 -3.53053,-0.635104 z m -0.22893,3.40341 c 0.9144,0 1.66818,0.160928 2.26085,0.482658 0.6096,0.3048 1.12593,0.702656 1.54926,1.193726 l 3.16466,3.688147 c 0.12649,0.176037 0.26753,0.340132 0.42272,0.492993 l 0.0987,0.115238 5.1e-4,-0.01912 c 0.88129,0.827012 2.22253,1.382743 4.0256,1.666565 l 1.75286,0.279569 c 0.74507,0.11853 1.28656,0.313014 1.62522,0.583944 0.32173,0.27093 0.48266,0.71125 0.48266,1.32085 0,0.541869 -0.21177,0.965407 -0.6351,1.270206 -0.42333,0.3048 -1.06652,0.457337 -1.93012,0.457337 -0.91439,0 -1.66817,-0.160929 -2.26084,-0.482658 -0.6096,-0.3048 -1.12593,-0.702656 -1.54926,-1.193726 l -3.1657,-3.68918 c -0.12681,-0.176316 -0.26812,-0.340978 -0.42374,-0.494027 l -0.0966,-0.112655 -5.2e-4,0.0186 c -0.88129,-0.826983 -2.22256,-1.38275 -4.02559,-1.666565 l -1.75287,-0.27957 c -0.74507,-0.118529 -1.28655,-0.313013 -1.62522,-0.583943 -0.32173,-0.27093 -0.48266,-0.71125 -0.48266,-1.32085 0,-0.541869 0.21178,-0.965407 0.6351,-1.270207 0.42333,-0.304799 1.06652,-0.457336 1.93012,-0.457336 z" />
      <rect
         style="fill:#162d50;stroke:none;stroke-width:0.79375;stroke-linecap:round;stroke-linejoin:round;stop-color:#000000"
         id="rect10428"
         width="42.335323"
         height="0.6317032"
         x="114.16249"
         y="-65.184006" />
      <rect
         style="fill:#162d50;stroke:none;stroke-width:0.79375;stroke-linecap:round;stroke-linejoin:round;stop-color:#000000"
         id="rect10436"
         width="42.335323"
         height="0.6317032"
         x="114.16249"
         y="-85.562599" />
    </g>
    <text
       xml:space="preserve"
       style="font-style:normal;font-variant:normal;font-weight:bold;font-stretch:normal;font-size:8.56219px;font-family:icomoon;-inkscape-font-specification:'icomoon Bold';text-align:center;text-anchor:middle;fill:#ffffff;stroke:none;stroke-width:0.963246;stroke-linecap:round;stroke-linejoin:round;stop-color:#000000"
       x="67.674767"
       y="114.39695"
       id="text11819"><tspan
         sodipodi:role="line"
         id="tspan11817"
         style="font-style:normal;font-variant:normal;font-weight:300;font-stretch:normal;font-size:8.56219px;font-family:'IBM Plex Sans';-inkscape-font-specification:'IBM Plex Sans Light';fill:#000000;stroke-width:0.963246"
         x="67.674767"
         y="114.39695">DE SISTEMAS DE INFORMACIÓN</tspan></text>
  </g>
</svg>
